<svg width="96" height="138" viewBox="0 0 96 138" fill="none" xmlns="http://www.w3.org/2000/svg">
<path d="M95.4572 21.9525V92.5369C95.3672 92.5316 95.2826 92.5316 95.1926 92.5316H94.0656C93.8777 92.5316 93.6925 92.5422 93.5126 92.5554C89.2134 92.9161 85.4619 94.335 82.3718 96.7803C79.5965 98.9657 77.3265 101.687 75.6227 104.861C74.8819 106.238 74.239 107.675 73.7152 109.176V21.9525H22.4661V115.939H73.067C72.7469 117.085 72.4876 118.263 72.2892 119.459C71.7283 122.832 71.596 126.201 71.9029 129.484C72.096 131.415 72.5828 133.3 73.3527 135.075C73.4665 135.345 73.5882 135.605 73.7152 135.865C74.0326 136.517 74.3792 137.143 74.7734 137.737H0.721436V0.162476H73.7152C80.615 0.162476 86.7583 3.38749 90.7426 8.41332C93.6925 12.1316 95.4572 16.8339 95.4572 21.9525Z" fill="#B4009D"/>
<path d="M95.4572 115.947V45.3631C95.3672 45.3684 95.2826 45.3684 95.1926 45.3684H94.0656C93.8777 45.3684 93.6925 45.3578 93.5126 45.3445C89.2134 44.9838 85.4619 43.5649 82.3718 41.1196C79.5965 38.9342 77.3265 36.2131 75.6227 33.0385C74.8819 31.662 74.239 30.2246 73.7152 28.7235V115.947H22.4661V21.9605H73.067C72.7469 20.8148 72.4876 19.6372 72.2892 18.4411C71.7283 15.0675 71.596 11.6993 71.9029 8.41595C72.096 6.48518 72.5828 4.59951 73.3527 2.82522C73.4665 2.5547 73.5882 2.29479 73.7152 2.03488C74.0326 1.38245 74.3792 0.756547 74.7734 0.162465H0.721436V137.737H73.7152C80.615 137.737 86.7583 134.512 90.7426 129.487C93.6925 125.768 95.4572 121.066 95.4572 115.947Z" fill="#B4009D"/>
</svg>
