<svg width="541" height="399" viewBox="0 0 541 399" fill="none" xmlns="http://www.w3.org/2000/svg">
<g clip-path="url(#clip0_13865_49146)">
<path d="M927.82 -215H-331V843.71H927.82V-215Z" fill="#EAEAEA"/>
<path d="M69.9599 36.9297H23.8799V327.86H69.9599V36.9297Z" fill="#1104ED"/>
<path d="M224.63 82.9897V235.96H222.98C219.73 235.17 216.22 234.73 212.51 234.73C200.19 234.73 187.44 239.94 178.57 249.94V36.9297C204 36.9297 224.63 57.5497 224.63 82.9897Z" fill="#1104ED"/>
<path d="M192.47 325.6C192.53 325.63 192.57 325.66 192.62 325.67C188.19 327.09 183.47 327.86 178.56 327.86V315.07C182.54 319.56 187.31 323.09 192.47 325.6Z" fill="#1104ED"/>
<path d="M195.02 281.67C195.01 281.95 195.01 282.23 195.01 282.51C195.01 296.22 204.92 303.31 215.08 303.31C216.57 303.31 218.04 303.17 219.47 302.86C219.5 302.86 219.53 302.86 219.54 302.85C217.1 307.59 213.86 311.85 210.01 315.47C209.98 315.47 209.94 315.46 209.9 315.46C195.68 314.25 181.67 303.17 181.67 282.52C181.67 282.24 181.67 281.96 181.68 281.68C182.07 260.33 197.65 249.46 212.51 249.46C217.16 249.46 221.26 250.48 224.64 252.03V263.93C221.72 262.44 218.43 261.7 215.09 261.7C205.13 261.69 195.41 268.5 195.02 281.67Z" fill="#1104ED"/>
<path d="M224.63 82.9899H23.8799V36.9199H178.56C204 36.9299 224.63 57.5499 224.63 82.9899Z" fill="#1104ED"/>
<path d="M192.47 325.6C188.08 327 183.41 327.74 178.56 327.74H23.8799V281.66H166.96C166.95 281.94 166.95 282.22 166.95 282.5C166.95 296.21 171.55 307.15 178.57 315.07C182.54 319.56 187.31 323.09 192.47 325.6Z" fill="#1104ED"/>
<path d="M219.47 302.86C217.02 307.6 213.76 311.85 209.9 315.45C195.68 314.24 181.67 303.16 181.67 282.51C181.67 282.23 181.67 281.95 181.68 281.67H195.03C195.02 281.95 195.02 282.23 195.02 282.51C195.02 296.22 204.93 303.31 215.09 303.31C216.57 303.31 218.04 303.17 219.47 302.86Z" fill="#1104ED"/>
<path d="M234.9 250.669V260.829H234.54C233.14 257.819 229.68 254.329 224.63 252.009C221.25 250.469 217.16 249.439 212.5 249.439C197.64 249.439 182.07 260.299 181.67 281.659C181.66 281.939 181.66 282.219 181.66 282.499C181.66 303.149 195.68 314.239 209.89 315.439C209.93 315.439 209.97 315.449 210 315.449C210.84 315.519 211.67 315.549 212.5 315.549C224.14 315.549 232.21 309.189 234.54 304.169H234.9V314.319H248.37V250.659H234.9V250.669ZM219.54 302.849C219.53 302.859 219.5 302.859 219.47 302.859C218.04 303.169 216.57 303.309 215.08 303.309C204.92 303.309 195.01 296.219 195.01 282.509C195.01 282.229 195.01 281.949 195.02 281.669C195.41 268.509 205.13 261.689 215.08 261.689C218.42 261.689 221.71 262.429 224.63 263.919C230.74 266.989 235.28 273.239 235.28 282.509C235.28 294.209 228.05 301.099 219.54 302.849Z" fill="black"/>
<path d="M295.761 249.45C285.471 249.45 278.741 254.34 275.321 260.23V250.67H261.851V314.33H275.321V279.07C275.321 267.94 281.801 261.69 290.981 261.69C300.411 261.69 306.531 267.94 306.531 279.07V314.33H320.131V276.87C320.121 257.65 308.851 249.45 295.761 249.45Z" fill="black"/>
<path d="M369.45 249.45C357.83 249.45 349.74 255.81 347.43 260.83H347.05V227.41H333.59V314.33H347.05V304.18H347.43C349.74 309.2 357.83 315.56 369.45 315.56C384.52 315.56 400.31 304.42 400.31 282.5C400.31 260.58 384.52 249.45 369.45 249.45ZM366.89 303.31C356.6 303.31 346.69 296.22 346.69 282.51C346.69 268.8 356.6 261.69 366.89 261.69C377.05 261.69 386.96 268.8 386.96 282.51C386.96 296.22 377.05 303.31 366.89 303.31Z" fill="black"/>
<path d="M439.62 249.45C423.46 249.45 407.66 261.09 407.66 282.51C407.66 303.69 423.33 315.57 440.6 315.57C451.37 315.57 460.55 311.15 466.06 304.3L459.7 297.7C455.05 302.1 448.92 304.3 442.06 304.3C431.17 304.3 422.48 298.68 420.4 287.66H470.35C473.4 260.96 455.77 249.45 439.62 249.45ZM420.27 277.61C422.23 266.34 430.8 260.96 439.73 260.96C448.8 260.96 457.6 266.6 458.35 277.61H420.27Z" fill="black"/>
<path d="M514.79 249.45C503.15 249.45 496.79 257.52 494.59 267.09V250.67H481.12V314.33H494.59V284.58C494.59 271.25 502.79 262.43 514.92 262.43C516.39 262.43 517.49 262.54 518.83 262.79V249.93C517.48 249.58 516.26 249.45 514.79 249.45Z" fill="black"/>
<path d="M27.8997 367.99V359.59H37.7597V355.33H27.8997V347.1H39.5497V342.71H23.1797V372.37H39.9297V367.98H27.8997V367.99Z" fill="#1104ED"/>
<path d="M73.7599 350.25C70.0499 350.25 67.6599 352.09 66.4999 354.22C65.1699 351.5 62.7399 350.25 59.8999 350.25C56.6499 350.25 54.5999 351.83 53.4799 353.75V350.67H48.8799V372.39H53.4799V359.94C53.4799 356.44 55.3999 354.43 58.3599 354.43C61.2499 354.43 62.9599 356.43 62.9599 359.94V372.39H67.5999V359.94C67.5999 356.44 69.4799 354.43 72.4399 354.43C75.3299 354.43 77.0399 356.43 77.0399 359.94V372.39H81.6799V359.69C81.6599 353.12 78.3099 350.25 73.7599 350.25Z" fill="#1104ED"/>
<path d="M103.46 350.25C99.4897 350.25 96.7497 352.42 95.9497 354.13H95.8197V350.67H91.2197V380.32H95.8197V368.92H95.9497C96.7497 370.63 99.4997 372.8 103.46 372.8C108.6 372.8 113.99 369 113.99 361.51C113.99 354.05 108.61 350.25 103.46 350.25ZM102.59 368.62C99.0897 368.62 95.6897 366.19 95.6897 361.51C95.6897 356.84 99.0797 354.42 102.59 354.42C106.05 354.42 109.43 356.85 109.43 361.51C109.43 366.2 106.06 368.62 102.59 368.62Z" fill="#1104ED"/>
<path d="M132.87 350.25C127.23 350.25 121.51 354.22 121.51 361.52C121.51 368.84 127.23 372.81 132.87 372.81C138.51 372.81 144.24 368.84 144.24 361.52C144.24 354.21 138.51 350.25 132.87 350.25ZM132.87 368.58C129.32 368.58 126.07 365.99 126.07 361.51C126.07 357.03 129.32 354.46 132.87 354.46C136.42 354.46 139.64 357.04 139.64 361.51C139.64 365.98 136.42 368.58 132.87 368.58Z" fill="#1104ED"/>
<path d="M182.21 350.67L176.57 366.79L170.6 350.67H166.34L160.37 366.79L154.69 350.67H150.09L158.15 372.39H162.41L168.47 356.31L174.53 372.39H178.79L186.85 350.67H182.21Z" fill="#1104ED"/>
<path d="M203.6 350.25C198.09 350.25 192.71 354.22 192.71 361.52C192.71 368.75 198.05 372.81 203.94 372.81C207.61 372.81 210.75 371.3 212.63 368.97L210.46 366.71C208.88 368.21 206.79 368.97 204.45 368.97C200.74 368.97 197.76 367.05 197.05 363.28H214.1C215.14 354.17 209.11 350.25 203.6 350.25ZM196.99 359.85C197.66 356.01 200.59 354.17 203.63 354.17C206.73 354.17 209.73 356.09 209.98 359.85H196.99Z" fill="#1104ED"/>
<path d="M234.259 350.25C230.289 350.25 228.119 353 227.379 356.26V350.67H222.779V372.39H227.379V362.24C227.379 357.68 230.169 354.68 234.309 354.68C234.809 354.68 235.189 354.72 235.659 354.81V350.42C235.179 350.29 234.759 350.25 234.259 350.25Z" fill="#1104ED"/>
<path d="M244.17 350.67V372.39H248.77V350.67H244.17ZM244.17 342.72V346.86H248.77V342.72H244.17Z" fill="#1104ED"/>
<path d="M269.929 350.25C266.429 350.25 264.129 351.92 262.959 353.92V350.67H258.359V372.39H262.959V360.36C262.959 356.56 265.169 354.43 268.299 354.43C271.509 354.43 273.599 356.56 273.599 360.36V372.39H278.239V359.6C278.249 353.04 274.409 350.25 269.929 350.25Z" fill="#1104ED"/>
<path d="M304.98 350.67V354.13H304.73C303.99 352.42 301.27 350.25 297.34 350.25C292.25 350.25 286.81 354.05 286.81 361.52C286.81 369.01 292.25 372.81 297.34 372.81C301.27 372.81 303.98 370.64 304.73 368.93H304.98V371.19C304.98 375.27 301.81 377.2 297.59 377.2C295.16 377.2 293.03 376.53 292.04 375.85V379.65C293.2 380.45 295.67 381.08 298.39 381.08C303.35 381.08 309.58 378.95 309.58 370.93V350.67H304.98ZM298.22 368.62C294.74 368.62 291.36 366.19 291.36 361.51C291.36 356.84 294.74 354.42 298.22 354.42C301.72 354.42 305.1 356.85 305.1 361.51C305.11 366.2 301.73 368.62 298.22 368.62Z" fill="#1104ED"/>
<path d="M343.969 354.38V350.66H339.579V345.09H334.939V350.66H331.939V354.38H334.939V367.11C334.939 371.01 337.279 372.63 340.579 372.63C341.759 372.63 343.169 372.42 343.969 371.75V368.12C343.169 368.41 342.459 368.5 341.969 368.5C340.249 368.5 339.589 367.53 339.589 366.29V354.39H343.969V354.38Z" fill="#1104ED"/>
<path d="M364.31 350.25C360.81 350.25 358.51 351.92 357.33 353.92V342.72H352.75V372.38H357.33V360.35C357.33 356.55 359.54 354.42 362.69 354.42C365.9 354.42 367.99 356.55 367.99 360.35V372.38H372.63V359.6C372.62 353.04 368.78 350.25 364.31 350.25Z" fill="#1104ED"/>
<path d="M392.079 350.25C386.569 350.25 381.189 354.22 381.189 361.52C381.189 368.75 386.529 372.81 392.419 372.81C396.109 372.81 399.229 371.3 401.109 368.97L398.939 366.71C397.359 368.21 395.269 368.97 392.929 368.97C389.219 368.97 386.239 367.05 385.539 363.28H402.569C403.619 354.17 397.599 350.25 392.079 350.25ZM385.489 359.85C386.149 356.01 389.079 354.17 392.119 354.17C395.219 354.17 398.219 356.09 398.469 359.85H385.489Z" fill="#1104ED"/>
<path d="M436.62 350.25C433.12 350.25 430.82 351.92 429.64 353.92V350.67H425.06V372.39H429.64V360.36C429.64 356.56 431.85 354.43 435 354.43C438.21 354.43 440.3 356.56 440.3 360.36V372.39H444.94V359.6C444.93 353.04 441.09 350.25 436.62 350.25Z" fill="#1104ED"/>
<path d="M464.849 350.25C459.209 350.25 453.489 354.22 453.489 361.52C453.489 368.84 459.209 372.81 464.849 372.81C470.499 372.81 476.219 368.84 476.219 361.52C476.219 354.21 470.499 350.25 464.849 350.25ZM464.849 368.58C461.299 368.58 458.049 365.99 458.049 361.51C458.049 357.03 461.299 354.46 464.849 354.46C468.409 354.46 471.619 357.04 471.619 361.51C471.619 365.98 468.409 368.58 464.849 368.58Z" fill="#1104ED"/>
<path d="M514.199 350.67L508.549 366.79L502.579 350.67H498.319L492.349 366.79L486.669 350.67H482.069L490.129 372.39H494.389L500.449 356.31L506.509 372.39H510.769L518.829 350.67H514.199Z" fill="#1104ED"/>
</g>
<defs>
<clipPath id="clip0_13865_49146">
<rect width="541" height="399" fill="white"/>
</clipPath>
</defs>
</svg>
