<svg width="177" height="123" viewBox="0 0 177 123" fill="none" xmlns="http://www.w3.org/2000/svg">
<g clip-path="url(#clip0_7179_5314)">
<path d="M55.4873 99.4114C52.9804 96.5808 51.3377 92.6708 51.3377 87.7709C51.3377 87.6708 51.3377 87.5707 51.3412 87.4706H16.7055V16.4655H55.4873V76.1338C58.6548 72.5598 63.2079 70.6977 67.6075 70.6977C68.9359 70.6977 70.1858 70.8586 71.3464 71.1373H71.9356V16.4655C71.9356 7.37321 64.5721 0 55.4837 0H27.8668H0.249969V103.979H16.7055V103.94H55.4873V103.979C57.2407 103.979 58.9262 103.704 60.5082 103.196C60.4868 103.193 60.4725 103.182 60.4546 103.171C58.6119 102.274 56.9085 101.013 55.4873 99.4079V99.4114Z" fill="#1104ED"/>
<path d="M67.6075 75.9552C62.3009 75.9552 56.7407 79.8366 56.5979 87.4707C56.5943 87.5708 56.5943 87.6709 56.5943 87.771C56.5943 95.1513 61.6009 99.1149 66.6754 99.5438C66.6897 99.5438 66.704 99.5474 66.7147 99.5474C67.0147 99.5724 67.3111 99.5831 67.6075 99.5831C71.7642 99.5831 74.646 97.31 75.4781 95.5159H75.6067V99.1435H80.4169V76.3913H75.6067V80.0225H75.4781C74.9782 78.9467 73.7426 77.6994 71.9392 76.8702C70.7322 76.3198 69.2716 75.9517 67.6075 75.9517V75.9552ZM75.7424 87.771C75.7424 91.9561 73.1605 94.4151 70.1215 95.0405C70.1179 95.0441 70.1072 95.0441 70.0965 95.0441C69.5858 95.1549 69.0609 95.2049 68.5288 95.2049C64.9006 95.2049 61.3617 92.6709 61.3617 87.771C61.3617 87.6709 61.3617 87.5708 61.3652 87.4707C61.5045 82.7673 64.9756 80.3298 68.5288 80.3298C69.7215 80.3298 70.8964 80.5943 71.9392 81.1268C74.1211 82.2241 75.7424 84.4578 75.7424 87.771Z" fill="black"/>
<path d="M97.3402 75.9551C93.6655 75.9551 91.2622 77.7028 90.0409 79.8079V76.3911H85.2307V99.1433H90.0409V86.5413C90.0409 82.5634 92.355 80.3297 95.6332 80.3297C98.9114 80.3297 101.186 82.5634 101.186 86.5413V99.1433H106.043V85.755C106.043 78.8858 102.018 75.9551 97.3437 75.9551H97.3402Z" fill="black"/>
<path d="M134.676 87.7708C134.676 79.9401 129.037 75.955 123.655 75.955C119.506 75.955 116.617 78.2281 115.792 80.0223H115.656V68.0779H110.85V99.1433H115.656V95.5157H115.792C116.617 97.3098 119.506 99.5829 123.655 99.5829C129.037 99.5829 134.676 95.6014 134.676 87.7672V87.7708ZM115.528 87.7708C115.528 82.8708 119.067 80.3296 122.741 80.3296C126.416 80.3296 129.908 82.8708 129.908 87.7708C129.908 92.6707 126.369 95.2047 122.741 95.2047C119.113 95.2047 115.528 92.6707 115.528 87.7708Z" fill="black"/>
<path d="M158.155 95.5587L155.884 93.1998C154.224 94.7724 152.035 95.5587 149.585 95.5587C145.696 95.5587 142.593 93.5501 141.85 89.6115H159.687C160.78 80.0724 154.481 75.9587 148.714 75.9587C142.946 75.9587 137.3 80.1189 137.3 87.7745C137.3 95.43 142.896 99.5902 149.064 99.5902C152.91 99.5902 156.188 98.0105 158.155 95.5623V95.5587ZM148.753 80.0724C151.992 80.0724 155.134 82.0882 155.402 86.0232H141.804C142.503 81.9953 145.564 80.0724 148.753 80.0724Z" fill="black"/>
<path d="M175.557 75.9552C171.401 75.9552 169.129 78.8395 168.344 82.2598V76.3913H163.534V99.1435H168.344V88.5108C168.344 83.7466 171.272 80.5943 175.604 80.5943C176.129 80.5943 176.521 80.6336 177 80.723V76.1268C176.518 75.9981 176.082 75.9517 175.557 75.9517V75.9552Z" fill="black"/>
<path d="M1.68554 115.323H5.20662V113.8H1.68554V110.859H5.84584V109.29H0V119.891H5.98154V118.325H1.68554V115.323Z" fill="#1104ED"/>
<path d="M18.0625 111.981C16.7376 111.981 15.8841 112.639 15.4699 113.4C14.9949 112.428 14.1271 111.981 13.113 111.981C11.9524 111.981 11.2203 112.546 10.8203 113.232V112.131H9.17764V119.894H10.8203V115.444C10.8203 114.194 11.506 113.475 12.563 113.475C13.6201 113.475 14.2057 114.19 14.2057 115.444V119.894H15.8627V115.444C15.8627 114.194 16.534 113.475 17.5911 113.475C18.6481 113.475 19.2338 114.19 19.2338 115.444V119.894H20.8907V115.355C20.8907 113.011 19.6944 111.985 18.066 111.985L18.0625 111.981Z" fill="#1104ED"/>
<path d="M28.6721 111.981C27.2544 111.981 26.2759 112.757 25.9902 113.368H25.9438V112.131H24.3011V122.728H25.9438V118.654H25.9902C26.2759 119.265 27.258 120.041 28.6721 120.041C30.5076 120.041 32.4324 118.683 32.4324 116.006C32.4324 113.329 30.5112 111.978 28.6721 111.978V111.981ZM28.3614 118.55C27.1115 118.55 25.8974 117.682 25.8974 116.009C25.8974 114.337 27.108 113.475 28.3614 113.475C29.6149 113.475 30.804 114.344 30.804 116.009C30.804 117.675 29.597 118.55 28.3614 118.55Z" fill="#1104ED"/>
<path d="M39.1746 111.981C37.1605 111.981 35.1179 113.4 35.1179 116.009C35.1179 118.618 37.1605 120.044 39.1746 120.044C41.1887 120.044 43.2349 118.625 43.2349 116.009C43.2349 113.393 41.1887 111.981 39.1746 111.981ZM39.1746 118.536C37.9069 118.536 36.7463 117.61 36.7463 116.009C36.7463 114.408 37.9069 113.489 39.1746 113.489C40.4424 113.489 41.5922 114.412 41.5922 116.009C41.5922 117.607 40.4424 118.536 39.1746 118.536Z" fill="#1104ED"/>
<path d="M54.7766 117.893L52.6447 112.131H51.1234L48.9915 117.893L46.9631 112.131H45.3204L48.1987 119.891H49.72L51.8841 114.147L54.0481 119.891H55.5694L58.4477 112.131H56.7907L54.7766 117.893Z" fill="#1104ED"/>
<path d="M64.4292 111.981C62.4615 111.981 60.5403 113.4 60.5403 116.009C60.5403 118.618 62.4473 120.044 64.5506 120.044C65.8612 120.044 66.9825 119.505 67.6539 118.672L66.879 117.864C66.3147 118.4 65.5684 118.672 64.7327 118.672C63.4079 118.672 62.3437 117.986 62.0902 116.638H68.1788C68.5538 113.386 66.4004 111.985 64.4328 111.985L64.4292 111.981ZM62.0723 115.412C62.3116 114.04 63.3579 113.382 64.4435 113.382C65.5291 113.382 66.6218 114.068 66.7111 115.412H62.0687H62.0723Z" fill="#1104ED"/>
<path d="M72.9212 114.129V112.131H71.2785V119.894H72.9212V116.266C72.9212 114.637 73.9176 113.564 75.396 113.564C75.5745 113.564 75.7102 113.579 75.8781 113.611V112.042C75.7138 111.995 75.5638 111.981 75.3817 111.981C73.964 111.981 73.1891 112.964 72.9248 114.129H72.9212Z" fill="#1104ED"/>
<path d="M80.5597 109.29H78.9171V110.769H80.5597V109.29Z" fill="#1104ED"/>
<path d="M80.5597 112.131H78.9171V119.894H80.5597V112.131Z" fill="#1104ED"/>
<path d="M88.1197 111.981C86.8698 111.981 86.0485 112.578 85.6307 113.293V112.131H83.988V119.894H85.6307V115.595C85.6307 114.236 86.4199 113.475 87.5376 113.475C88.6554 113.475 89.4303 114.236 89.4303 115.595V119.894H91.0873V115.323C91.0873 112.978 89.716 111.981 88.1197 111.981Z" fill="#1104ED"/>
<path d="M100.633 113.368H100.543C100.279 112.757 99.3078 111.981 97.9044 111.981C96.0867 111.981 94.1441 113.339 94.1441 116.009C94.1441 118.679 96.0867 120.044 97.9044 120.044C99.3078 120.044 100.276 119.269 100.543 118.657H100.633V119.465C100.633 120.923 99.5007 121.613 97.9937 121.613C97.1259 121.613 96.3653 121.374 96.0117 121.131V122.489C96.426 122.775 97.308 123 98.2794 123C100.051 123 102.275 122.239 102.275 119.372V112.131H100.633V113.368ZM98.2187 118.55C96.9759 118.55 95.7689 117.682 95.7689 116.009C95.7689 114.336 96.9759 113.475 98.2187 113.475C99.4614 113.475 100.676 114.344 100.676 116.009C100.676 117.675 99.4685 118.55 98.2187 118.55Z" fill="#1104ED"/>
<path d="M112.989 110.141H111.332V112.131H110.26V113.461H111.332V118.011C111.332 119.404 112.167 119.983 113.346 119.983C113.767 119.983 114.271 119.908 114.556 119.669V118.372C114.271 118.475 114.017 118.507 113.842 118.507C113.228 118.507 112.992 118.161 112.992 117.718V113.464H114.56V112.135H112.992V110.144L112.989 110.141Z" fill="#1104ED"/>
<path d="M121.82 111.981C120.57 111.981 119.749 112.578 119.327 113.293V109.29H117.692V119.891H119.327V115.591C119.327 114.233 120.116 113.472 121.241 113.472C122.366 113.472 123.134 114.233 123.134 115.591V119.891H124.791V115.319C124.791 112.975 123.42 111.978 121.823 111.978L121.82 111.981Z" fill="#1104ED"/>
<path d="M131.737 111.981C129.769 111.981 127.848 113.4 127.848 116.009C127.848 118.618 129.755 120.044 131.858 120.044C133.176 120.044 134.29 119.505 134.961 118.672L134.186 117.864C133.622 118.4 132.876 118.672 132.04 118.672C130.715 118.672 129.651 117.986 129.401 116.638H135.483C135.858 113.386 133.712 111.985 131.737 111.985V111.981ZM129.383 115.412C129.619 114.04 130.665 113.382 131.751 113.382C132.837 113.382 133.929 114.068 134.019 115.412H129.383Z" fill="#1104ED"/>
<path d="M147.642 111.981C146.392 111.981 145.571 112.578 145.15 113.293V112.131H143.514V119.894H145.15V115.595C145.15 114.236 145.942 113.475 147.064 113.475C148.185 113.475 148.956 114.236 148.956 115.595V119.894H150.613V115.323C150.613 112.978 149.242 111.981 147.646 111.981H147.642Z" fill="#1104ED"/>
<path d="M157.723 111.981C155.709 111.981 153.667 113.4 153.667 116.009C153.667 118.618 155.709 120.044 157.723 120.044C159.737 120.044 161.784 118.625 161.784 116.009C161.784 113.393 159.741 111.981 157.723 111.981ZM157.723 118.536C156.456 118.536 155.295 117.61 155.295 116.009C155.295 114.408 156.456 113.489 157.723 113.489C158.991 113.489 160.141 114.412 160.141 116.009C160.141 117.607 158.995 118.536 157.723 118.536Z" fill="#1104ED"/>
<path d="M173.329 117.893L171.197 112.131H169.676L167.544 117.893L165.515 112.131H163.873L166.751 119.891H168.272L170.436 114.147L172.597 119.891H174.122L177 112.131H175.347L173.329 117.893Z" fill="#1104ED"/>
</g>
<defs>
<clipPath id="clip0_7179_5314">
<rect width="177" height="123" fill="white"/>
</clipPath>
</defs>
</svg>
