<svg width="441" height="321" viewBox="0 0 441 321" fill="none" xmlns="http://www.w3.org/2000/svg">
<line opacity="0.2" x1="49.7996" y1="-2.75545e-08" x2="49.7996" y2="292.493" stroke="#49657B" stroke-opacity="0.5" stroke-width="1.26075"/>
<line opacity="0.2" x1="49.1692" y1="291.863" x2="440" y2="291.863" stroke="#49657B" stroke-opacity="0.5" stroke-width="1.26075"/>
<line opacity="0.15" x1="49.1692" y1="25.8451" x2="440" y2="25.8451" stroke="#49657B" stroke-opacity="0.5" stroke-width="1.26075"/>
<line opacity="0.15" x1="49.1692" y1="63.6676" x2="440" y2="63.6676" stroke="#49657B" stroke-opacity="0.5" stroke-width="1.26075"/>
<line opacity="0.15" x1="49.1692" y1="101.49" x2="440" y2="101.49" stroke="#49657B" stroke-opacity="0.5" stroke-width="1.26075"/>
<line opacity="0.15" x1="49.1692" y1="139.312" x2="440" y2="139.312" stroke="#49657B" stroke-opacity="0.5" stroke-width="1.26075"/>
<line opacity="0.15" x1="49.1692" y1="177.134" x2="440" y2="177.134" stroke="#49657B" stroke-opacity="0.5" stroke-width="1.26075"/>
<line opacity="0.15" x1="49.1692" y1="214.957" x2="440" y2="214.957" stroke="#49657B" stroke-opacity="0.5" stroke-width="1.26075"/>
<line opacity="0.15" x1="49.1692" y1="252.779" x2="440" y2="252.779" stroke="#49657B" stroke-opacity="0.5" stroke-width="1.26075"/>
<path d="M3.47568 34.5787V23.1174H4.20992V34.5787H3.47568ZM5.94703 26.5558C5.89331 26.1021 5.67542 25.75 5.29338 25.4992C4.91133 25.2485 4.44273 25.1232 3.88757 25.1232C3.48165 25.1232 3.12647 25.1888 2.82203 25.3202C2.52057 25.4515 2.28478 25.6321 2.11465 25.8619C1.94751 26.0917 1.86394 26.3529 1.86394 26.6454C1.86394 26.8901 1.92214 27.1005 2.03854 27.2766C2.15793 27.4497 2.31015 27.5945 2.4952 27.7109C2.68026 27.8243 2.87426 27.9183 3.07722 27.993C3.28018 28.0646 3.46673 28.1228 3.63686 28.1676L4.56809 28.4183C4.80687 28.481 5.07251 28.5675 5.36501 28.678C5.6605 28.7884 5.94255 28.9391 6.21118 29.1301C6.48279 29.3182 6.70664 29.5599 6.88274 29.8554C7.05884 30.1509 7.14689 30.5136 7.14689 30.9434C7.14689 31.4388 7.01705 31.8865 6.75738 32.2865C6.5007 32.6864 6.12462 33.0043 5.62916 33.2401C5.13668 33.4759 4.53824 33.5938 3.83385 33.5938C3.17721 33.5938 2.60862 33.4878 2.12808 33.2759C1.65053 33.064 1.27445 32.7685 0.999859 32.3895C0.72825 32.0104 0.574537 31.5702 0.53872 31.0687H1.68485C1.7147 31.4149 1.8311 31.7015 2.03406 31.9283C2.24001 32.1522 2.49968 32.3193 2.81308 32.4298C3.12946 32.5372 3.46971 32.5909 3.83385 32.5909C4.25768 32.5909 4.63823 32.5223 4.9755 32.385C5.31278 32.2447 5.57991 32.0507 5.7769 31.803C5.97389 31.5522 6.07239 31.2597 6.07239 30.9255C6.07239 30.621 5.98732 30.3733 5.81719 30.1823C5.64707 29.9912 5.42321 29.836 5.14563 29.7166C4.86805 29.5973 4.56809 29.4928 4.24574 29.4032L3.11752 29.0809C2.40118 28.875 1.83409 28.581 1.41623 28.1989C0.998367 27.8169 0.789436 27.3169 0.789436 26.6991C0.789436 26.1857 0.928226 25.738 1.2058 25.356C1.48637 24.9709 1.86244 24.6725 2.33403 24.4606C2.8086 24.2457 3.33839 24.1382 3.92339 24.1382C4.51437 24.1382 5.03968 24.2442 5.49932 24.4561C5.95897 24.665 6.3231 24.9515 6.59173 25.3157C6.86334 25.6798 7.00661 26.0932 7.02153 26.5558H5.94703ZM12.0347 24.2636V33.4326H10.9244V25.4276H10.8707L8.63216 26.914V25.7858L10.9244 24.2636H12.0347ZM14.4568 31.5522V30.6389L18.4862 24.2636H19.1488V25.6783H18.7011L15.6567 30.4957V30.5673H21.0829V31.5522H14.4568ZM18.7727 33.4326V31.2747V30.8493V24.2636H19.8293V33.4326H18.7727ZM25.7514 33.558C25.0768 33.558 24.5023 33.3744 24.0277 33.0073C23.5531 32.6372 23.1905 32.1014 22.9398 31.4C22.6891 30.6956 22.5637 29.845 22.5637 28.8481C22.5637 27.8572 22.6891 27.011 22.9398 26.3096C23.1935 25.6052 23.5576 25.0679 24.0322 24.6978C24.5097 24.3247 25.0828 24.1382 25.7514 24.1382C26.42 24.1382 26.9915 24.3247 27.4661 24.6978C27.9437 25.0679 28.3078 25.6052 28.5585 26.3096C28.8122 27.011 28.9391 27.8572 28.9391 28.8481C28.9391 29.845 28.8137 30.6956 28.563 31.4C28.3123 32.1014 27.9496 32.6372 27.4751 33.0073C27.0005 33.3744 26.4259 33.558 25.7514 33.558ZM25.7514 32.573C26.42 32.573 26.9393 32.2507 27.3094 31.606C27.6795 30.9613 27.8646 30.042 27.8646 28.8481C27.8646 28.0542 27.7795 27.3781 27.6094 26.82C27.4422 26.2618 27.2005 25.8365 26.8841 25.544C26.5707 25.2515 26.1931 25.1053 25.7514 25.1053C25.0888 25.1053 24.5709 25.4321 24.1978 26.0857C23.8247 26.7364 23.6382 27.6572 23.6382 28.8481C23.6382 29.642 23.7218 30.3166 23.8889 30.8717C24.0561 31.4269 24.2963 31.8492 24.6097 32.1387C24.9261 32.4283 25.3067 32.573 25.7514 32.573ZM33.631 33.558C32.9565 33.558 32.3819 33.3744 31.9074 33.0073C31.4328 32.6372 31.0702 32.1014 30.8194 31.4C30.5687 30.6956 30.4434 29.845 30.4434 28.8481C30.4434 27.8572 30.5687 27.011 30.8194 26.3096C31.0731 25.6052 31.4373 25.0679 31.9118 24.6978C32.3894 24.3247 32.9625 24.1382 33.631 24.1382C34.2996 24.1382 34.8712 24.3247 35.3458 24.6978C35.8233 25.0679 36.1875 25.6052 36.4382 26.3096C36.6919 27.011 36.8187 27.8572 36.8187 28.8481C36.8187 29.845 36.6934 30.6956 36.4426 31.4C36.1919 32.1014 35.8293 32.6372 35.3547 33.0073C34.8801 33.3744 34.3056 33.558 33.631 33.558ZM33.631 32.573C34.2996 32.573 34.819 32.2507 35.1891 31.606C35.5592 30.9613 35.7442 30.042 35.7442 28.8481C35.7442 28.0542 35.6592 27.3781 35.489 26.82C35.3219 26.2618 35.0801 25.8365 34.7637 25.544C34.4503 25.2515 34.0728 25.1053 33.631 25.1053C32.9684 25.1053 32.4506 25.4321 32.0775 26.0857C31.7044 26.7364 31.5179 27.6572 31.5179 28.8481C31.5179 29.642 31.6014 30.3166 31.7686 30.8717C31.9357 31.4269 32.176 31.8492 32.4894 32.1387C32.8058 32.4283 33.1863 32.573 33.631 32.573Z" fill="#49657B"/>
<path d="M3.47568 71.0114V59.55H4.20992V71.0114H3.47568ZM5.94703 62.9884C5.89331 62.5348 5.67542 62.1826 5.29338 61.9319C4.91133 61.6811 4.44273 61.5558 3.88757 61.5558C3.48165 61.5558 3.12647 61.6214 2.82203 61.7528C2.52057 61.8841 2.28478 62.0647 2.11465 62.2945C1.94751 62.5243 1.86394 62.7855 1.86394 63.078C1.86394 63.3227 1.92214 63.5332 2.03854 63.7093C2.15793 63.8824 2.31015 64.0271 2.4952 64.1435C2.68026 64.2569 2.87426 64.351 3.07722 64.4256C3.28018 64.4972 3.46673 64.5554 3.63686 64.6002L4.56809 64.8509C4.80687 64.9136 5.07251 65.0001 5.36501 65.1106C5.6605 65.221 5.94255 65.3717 6.21118 65.5628C6.48279 65.7508 6.70664 65.9926 6.88274 66.288C7.05884 66.5835 7.14689 66.9462 7.14689 67.376C7.14689 67.8714 7.01705 68.3192 6.75738 68.7191C6.5007 69.1191 6.12462 69.4369 5.62916 69.6727C5.13668 69.9085 4.53824 70.0264 3.83385 70.0264C3.17721 70.0264 2.60862 69.9205 2.12808 69.7085C1.65053 69.4966 1.27445 69.2011 0.999859 68.8221C0.72825 68.443 0.574537 68.0028 0.53872 67.5013H1.68485C1.7147 67.8476 1.8311 68.1341 2.03406 68.3609C2.24001 68.5848 2.49968 68.7519 2.81308 68.8624C3.12946 68.9698 3.46971 69.0235 3.83385 69.0235C4.25768 69.0235 4.63823 68.9549 4.9755 68.8176C5.31278 68.6773 5.57991 68.4833 5.7769 68.2356C5.97389 67.9849 6.07239 67.6924 6.07239 67.3581C6.07239 67.0536 5.98732 66.8059 5.81719 66.6149C5.64707 66.4239 5.42321 66.2686 5.14563 66.1493C4.86805 66.0299 4.56809 65.9254 4.24574 65.8359L3.11752 65.5135C2.40118 65.3076 1.83409 65.0136 1.41623 64.6315C0.998367 64.2495 0.789436 63.7495 0.789436 63.1317C0.789436 62.6183 0.928226 62.1706 1.2058 61.7886C1.48637 61.4036 1.86244 61.1051 2.33403 60.8932C2.8086 60.6783 3.33839 60.5708 3.92339 60.5708C4.51437 60.5708 5.03968 60.6768 5.49932 60.8887C5.95897 61.0976 6.3231 61.3842 6.59173 61.7483C6.86334 62.1124 7.00661 62.5258 7.02153 62.9884H5.94703ZM12.0347 60.6962V69.8652H10.9244V61.8602H10.8707L8.63216 63.3466V62.2184L10.9244 60.6962H12.0347ZM14.6717 69.8652V69.0594L17.6982 65.7463C18.0534 65.3583 18.3459 65.021 18.5757 64.7345C18.8056 64.445 18.9757 64.1734 19.0861 63.9197C19.1996 63.663 19.2563 63.3944 19.2563 63.1138C19.2563 62.7915 19.1787 62.5124 19.0235 62.2766C18.8712 62.0408 18.6623 61.8587 18.3967 61.7304C18.131 61.602 17.8326 61.5379 17.5012 61.5379C17.1491 61.5379 16.8416 61.611 16.579 61.7572C16.3193 61.9005 16.1178 62.102 15.9746 62.3617C15.8343 62.6213 15.7641 62.9258 15.7641 63.275H14.7076C14.7076 62.7377 14.8314 62.2661 15.0791 61.8602C15.3269 61.4543 15.6642 61.1379 16.091 60.9111C16.5208 60.6842 17.0028 60.5708 17.5371 60.5708C18.0743 60.5708 18.5504 60.6842 18.9653 60.9111C19.3801 61.1379 19.7055 61.4439 19.9413 61.8289C20.177 62.2139 20.2949 62.6422 20.2949 63.1138C20.2949 63.4511 20.2338 63.7809 20.1114 64.1032C19.992 64.4226 19.7831 64.7793 19.4846 65.1733C19.1891 65.5643 18.7787 66.0418 18.2534 66.6059L16.1939 68.8086V68.8803H20.4561V69.8652H14.6717ZM25.2958 69.9906C24.6213 69.9906 24.0467 69.807 23.5722 69.4399C23.0976 69.0698 22.735 68.534 22.4842 67.8326C22.2335 67.1282 22.1082 66.2776 22.1082 65.2807C22.1082 64.2898 22.2335 63.4436 22.4842 62.7422C22.7379 62.0378 23.1021 61.5006 23.5766 61.1305C24.0542 60.7574 24.6273 60.5708 25.2958 60.5708C25.9644 60.5708 26.536 60.7574 27.0106 61.1305C27.4881 61.5006 27.8523 62.0378 28.103 62.7422C28.3567 63.4436 28.4835 64.2898 28.4835 65.2807C28.4835 66.2776 28.3582 67.1282 28.1074 67.8326C27.8567 68.534 27.4941 69.0698 27.0195 69.4399C26.5449 69.807 25.9704 69.9906 25.2958 69.9906ZM25.2958 69.0056C25.9644 69.0056 26.4838 68.6833 26.8539 68.0386C27.224 67.3939 27.409 66.4746 27.409 65.2807C27.409 64.4868 27.324 63.8107 27.1538 63.2526C26.9867 62.6944 26.7449 62.2691 26.4285 61.9766C26.1151 61.6841 25.7376 61.5379 25.2958 61.5379C24.6332 61.5379 24.1154 61.8647 23.7423 62.5183C23.3692 63.169 23.1827 64.0898 23.1827 65.2807C23.1827 66.0746 23.2662 66.7492 23.4334 67.3043C23.6005 67.8595 23.8408 68.2818 24.1542 68.5714C24.4706 68.8609 24.8511 69.0056 25.2958 69.0056ZM33.1755 69.9906C32.501 69.9906 31.9264 69.807 31.4518 69.4399C30.9773 69.0698 30.6146 68.534 30.3639 67.8326C30.1132 67.1282 29.9878 66.2776 29.9878 65.2807C29.9878 64.2898 30.1132 63.4436 30.3639 62.7422C30.6176 62.0378 30.9817 61.5006 31.4563 61.1305C31.9339 60.7574 32.5069 60.5708 33.1755 60.5708C33.8441 60.5708 34.4156 60.7574 34.8902 61.1305C35.3678 61.5006 35.7319 62.0378 35.9826 62.7422C36.2363 63.4436 36.3632 64.2898 36.3632 65.2807C36.3632 66.2776 36.2378 67.1282 35.9871 67.8326C35.7364 68.534 35.3737 69.0698 34.8992 69.4399C34.4246 69.807 33.85 69.9906 33.1755 69.9906ZM33.1755 69.0056C33.8441 69.0056 34.3634 68.6833 34.7335 68.0386C35.1036 67.3939 35.2887 66.4746 35.2887 65.2807C35.2887 64.4868 35.2036 63.8107 35.0335 63.2526C34.8663 62.6944 34.6246 62.2691 34.3082 61.9766C33.9948 61.6841 33.6172 61.5379 33.1755 61.5379C32.5129 61.5379 31.995 61.8647 31.622 62.5183C31.2489 63.169 31.0623 64.0898 31.0623 65.2807C31.0623 66.0746 31.1459 66.7492 31.313 67.3043C31.4802 67.8595 31.7204 68.2818 32.0338 68.5714C32.3502 68.8609 32.7308 69.0056 33.1755 69.0056Z" fill="#49657B"/>
<path d="M3.47568 107.444V95.9828H4.20992V107.444H3.47568ZM5.94703 99.4212C5.89331 98.9675 5.67542 98.6153 5.29338 98.3646C4.91133 98.1139 4.44273 97.9885 3.88757 97.9885C3.48165 97.9885 3.12647 98.0542 2.82203 98.1855C2.52057 98.3168 2.28478 98.4974 2.11465 98.7272C1.94751 98.9571 1.86394 99.2182 1.86394 99.5107C1.86394 99.7555 1.92214 99.9659 2.03854 100.142C2.15793 100.315 2.31015 100.46 2.4952 100.576C2.68026 100.69 2.87426 100.784 3.07722 100.858C3.28018 100.93 3.46673 100.988 3.63686 101.033L4.56809 101.284C4.80687 101.346 5.07251 101.433 5.36501 101.543C5.6605 101.654 5.94255 101.804 6.21118 101.996C6.48279 102.184 6.70664 102.425 6.88274 102.721C7.05884 103.016 7.14689 103.379 7.14689 103.809C7.14689 104.304 7.01705 104.752 6.75738 105.152C6.5007 105.552 6.12462 105.87 5.62916 106.105C5.13668 106.341 4.53824 106.459 3.83385 106.459C3.17721 106.459 2.60862 106.353 2.12808 106.141C1.65053 105.929 1.27445 105.634 0.999859 105.255C0.72825 104.876 0.574537 104.436 0.53872 103.934H1.68485C1.7147 104.28 1.8311 104.567 2.03406 104.794C2.24001 105.018 2.49968 105.185 2.81308 105.295C3.12946 105.403 3.46971 105.456 3.83385 105.456C4.25768 105.456 4.63823 105.388 4.9755 105.25C5.31278 105.11 5.57991 104.916 5.7769 104.668C5.97389 104.418 6.07239 104.125 6.07239 103.791C6.07239 103.486 5.98732 103.239 5.81719 103.048C5.64707 102.857 5.42321 102.701 5.14563 102.582C4.86805 102.463 4.56809 102.358 4.24574 102.269L3.11752 101.946C2.40118 101.74 1.83409 101.446 1.41623 101.064C0.998367 100.682 0.789436 100.182 0.789436 99.5644C0.789436 99.0511 0.928226 98.6034 1.2058 98.2213C1.48637 97.8363 1.86244 97.5378 2.33403 97.3259C2.8086 97.111 3.33839 97.0036 3.92339 97.0036C4.51437 97.0036 5.03968 97.1095 5.49932 97.3214C5.95897 97.5304 6.3231 97.8169 6.59173 98.181C6.86334 98.5452 7.00661 98.9586 7.02153 99.4212H5.94703ZM12.0347 97.1289V106.298H10.9244V98.293H10.8707L8.63216 99.7793V98.6511L10.9244 97.1289H12.0347ZM17.6624 106.423C16.9879 106.423 16.4133 106.24 15.9387 105.873C15.4642 105.503 15.1015 104.967 14.8508 104.265C14.6001 103.561 14.4747 102.71 14.4747 101.713C14.4747 100.723 14.6001 99.8764 14.8508 99.1749C15.1045 98.4705 15.4687 97.9333 15.9432 97.5632C16.4208 97.1901 16.9938 97.0036 17.6624 97.0036C18.331 97.0036 18.9026 97.1901 19.3771 97.5632C19.8547 97.9333 20.2188 98.4705 20.4696 99.1749C20.7233 99.8764 20.8501 100.723 20.8501 101.713C20.8501 102.71 20.7247 103.561 20.474 104.265C20.2233 104.967 19.8607 105.503 19.3861 105.873C18.9115 106.24 18.337 106.423 17.6624 106.423ZM17.6624 105.438C18.331 105.438 18.8503 105.116 19.2204 104.471C19.5906 103.827 19.7756 102.907 19.7756 101.713C19.7756 100.92 19.6905 100.243 19.5204 99.6853C19.3533 99.1272 19.1115 98.7019 18.7951 98.4094C18.4817 98.1169 18.1042 97.9706 17.6624 97.9706C16.9998 97.9706 16.482 98.2974 16.1089 98.9511C15.7358 99.6018 15.5492 100.523 15.5492 101.713C15.5492 102.507 15.6328 103.182 15.8 103.737C15.9671 104.292 16.2074 104.715 16.5208 105.004C16.8371 105.294 17.2177 105.438 17.6624 105.438ZM25.5421 106.423C24.8675 106.423 24.293 106.24 23.8184 105.873C23.3438 105.503 22.9812 104.967 22.7305 104.265C22.4798 103.561 22.3544 102.71 22.3544 101.713C22.3544 100.723 22.4798 99.8764 22.7305 99.1749C22.9842 98.4705 23.3483 97.9333 23.8229 97.5632C24.3004 97.1901 24.8735 97.0036 25.5421 97.0036C26.2107 97.0036 26.7822 97.1901 27.2568 97.5632C27.7344 97.9333 28.0985 98.4705 28.3492 99.1749C28.6029 99.8764 28.7298 100.723 28.7298 101.713C28.7298 102.71 28.6044 103.561 28.3537 104.265C28.103 104.967 27.7403 105.503 27.2658 105.873C26.7912 106.24 26.2166 106.423 25.5421 106.423ZM25.5421 105.438C26.2107 105.438 26.73 105.116 27.1001 104.471C27.4702 103.827 27.6553 102.907 27.6553 101.713C27.6553 100.92 27.5702 100.243 27.4001 99.6853C27.2329 99.1272 26.9912 98.7019 26.6748 98.4094C26.3614 98.1169 25.9838 97.9706 25.5421 97.9706C24.8795 97.9706 24.3616 98.2974 23.9885 98.9511C23.6154 99.6018 23.4289 100.523 23.4289 101.713C23.4289 102.507 23.5125 103.182 23.6796 103.737C23.8468 104.292 24.087 104.715 24.4004 105.004C24.7168 105.294 25.0974 105.438 25.5421 105.438ZM33.4217 106.423C32.7472 106.423 32.1726 106.24 31.6981 105.873C31.2235 105.503 30.8608 104.967 30.6101 104.265C30.3594 103.561 30.2341 102.71 30.2341 101.713C30.2341 100.723 30.3594 99.8764 30.6101 99.1749C30.8638 98.4705 31.228 97.9333 31.7025 97.5632C32.1801 97.1901 32.7532 97.0036 33.4217 97.0036C34.0903 97.0036 34.6619 97.1901 35.1365 97.5632C35.614 97.9333 35.9781 98.4705 36.2289 99.1749C36.4826 99.8764 36.6094 100.723 36.6094 101.713C36.6094 102.71 36.4841 103.561 36.2333 104.265C35.9826 104.967 35.62 105.503 35.1454 105.873C34.6708 106.24 34.0963 106.423 33.4217 106.423ZM33.4217 105.438C34.0903 105.438 34.6097 105.116 34.9798 104.471C35.3499 103.827 35.5349 102.907 35.5349 101.713C35.5349 100.92 35.4499 100.243 35.2797 99.6853C35.1126 99.1272 34.8708 98.7019 34.5544 98.4094C34.241 98.1169 33.8635 97.9706 33.4217 97.9706C32.7591 97.9706 32.2413 98.2974 31.8682 98.9511C31.4951 99.6018 31.3086 100.523 31.3086 101.713C31.3086 102.507 31.3921 103.182 31.5593 103.737C31.7264 104.292 31.9667 104.715 32.2801 105.004C32.5965 105.294 32.977 105.438 33.4217 105.438Z" fill="#49657B"/>
<path d="M9.47568 143.877V132.415H10.2099V143.877H9.47568ZM11.947 135.854C11.8933 135.4 11.6754 135.048 11.2934 134.797C10.9113 134.546 10.4427 134.421 9.88757 134.421C9.48165 134.421 9.12647 134.487 8.82203 134.618C8.52057 134.749 8.28478 134.93 8.11465 135.16C7.94751 135.39 7.86394 135.651 7.86394 135.943C7.86394 136.188 7.92214 136.399 8.03854 136.575C8.15793 136.748 8.31015 136.892 8.4952 137.009C8.68026 137.122 8.87426 137.216 9.07722 137.291C9.28018 137.363 9.46673 137.421 9.63686 137.466L10.5681 137.716C10.8069 137.779 11.0725 137.865 11.365 137.976C11.6605 138.086 11.9426 138.237 12.2112 138.428C12.4828 138.616 12.7066 138.858 12.8827 139.153C13.0588 139.449 13.1469 139.812 13.1469 140.241C13.1469 140.737 13.0171 141.185 12.7574 141.584C12.5007 141.984 12.1246 142.302 11.6292 142.538C11.1367 142.774 10.5382 142.892 9.83385 142.892C9.17721 142.892 8.60862 142.786 8.12808 142.574C7.65053 142.362 7.27445 142.066 6.99986 141.687C6.72825 141.308 6.57454 140.868 6.53872 140.367H7.68485C7.7147 140.713 7.8311 140.999 8.03406 141.226C8.24001 141.45 8.49968 141.617 8.81308 141.728C9.12946 141.835 9.46971 141.889 9.83385 141.889C10.2577 141.889 10.6382 141.82 10.9755 141.683C11.3128 141.543 11.5799 141.349 11.7769 141.101C11.9739 140.85 12.0724 140.558 12.0724 140.223C12.0724 139.919 11.9873 139.671 11.8172 139.48C11.6471 139.289 11.4232 139.134 11.1456 139.015C10.8681 138.895 10.5681 138.791 10.2457 138.701L9.11752 138.379C8.40118 138.173 7.83409 137.879 7.41623 137.497C6.99837 137.115 6.78944 136.615 6.78944 135.997C6.78944 135.484 6.92823 135.036 7.2058 134.654C7.48637 134.269 7.86244 133.97 8.33403 133.759C8.8086 133.544 9.33839 133.436 9.92339 133.436C10.5144 133.436 11.0397 133.542 11.4993 133.754C11.959 133.963 12.3231 134.25 12.5917 134.614C12.8633 134.978 13.0066 135.391 13.0215 135.854H11.947ZM17.7482 142.856C17.1334 142.856 16.5901 142.747 16.1185 142.529C15.6499 142.308 15.2843 142.005 15.0217 141.62C14.759 141.232 14.6292 140.791 14.6322 140.295C14.6292 139.907 14.7053 139.549 14.8605 139.221C15.0157 138.889 15.2276 138.613 15.4962 138.392C15.7678 138.168 16.0708 138.027 16.4051 137.967V137.913C15.9663 137.8 15.6171 137.554 15.3574 137.175C15.0978 136.792 14.9694 136.358 14.9724 135.872C14.9694 135.406 15.0873 134.99 15.3261 134.623C15.5649 134.255 15.8932 133.966 16.3111 133.754C16.7319 133.542 17.211 133.436 17.7482 133.436C18.2795 133.436 18.7541 133.542 19.1719 133.754C19.5898 133.966 19.9181 134.255 20.1569 134.623C20.3986 134.99 20.521 135.406 20.524 135.872C20.521 136.358 20.3882 136.792 20.1255 137.175C19.8659 137.554 19.5211 137.8 19.0913 137.913V137.967C19.4226 138.027 19.7211 138.168 19.9867 138.392C20.2524 138.613 20.4643 138.889 20.6225 139.221C20.7807 139.549 20.8613 139.907 20.8642 140.295C20.8613 140.791 20.727 141.232 20.4613 141.62C20.1987 142.005 19.833 142.308 19.3644 142.529C18.8988 142.747 18.3601 142.856 17.7482 142.856ZM17.7482 141.871C18.1631 141.871 18.5212 141.804 18.8227 141.67C19.1242 141.535 19.357 141.346 19.5211 141.101C19.6853 140.856 19.7689 140.57 19.7718 140.241C19.7689 139.895 19.6793 139.589 19.5032 139.324C19.3271 139.058 19.0868 138.849 18.7824 138.697C18.481 138.545 18.1362 138.468 17.7482 138.468C17.3572 138.468 17.008 138.545 16.7006 138.697C16.3961 138.849 16.1559 139.058 15.9798 139.324C15.8066 139.589 15.7216 139.895 15.7246 140.241C15.7216 140.57 15.8007 140.856 15.9618 141.101C16.126 141.346 16.3603 141.535 16.6648 141.67C16.9692 141.804 17.3303 141.871 17.7482 141.871ZM17.7482 137.519C18.0765 137.519 18.3675 137.454 18.6212 137.322C18.8779 137.191 19.0794 137.007 19.2256 136.772C19.3719 136.536 19.4465 136.26 19.4495 135.943C19.4465 135.633 19.3734 135.363 19.2301 135.133C19.0868 134.9 18.8884 134.721 18.6347 134.596C18.381 134.467 18.0855 134.403 17.7482 134.403C17.405 134.403 17.105 134.467 16.8483 134.596C16.5916 134.721 16.3931 134.9 16.2529 135.133C16.1126 135.363 16.0439 135.633 16.0469 135.943C16.0439 136.26 16.1141 136.536 16.2573 136.772C16.4036 137.007 16.6051 137.191 16.8617 137.322C17.1184 137.454 17.4139 137.519 17.7482 137.519ZM25.5708 142.856C24.8962 142.856 24.3217 142.672 23.8471 142.305C23.3725 141.935 23.0099 141.399 22.7592 140.698C22.5085 139.994 22.3831 139.143 22.3831 138.146C22.3831 137.155 22.5085 136.309 22.7592 135.608C23.0129 134.903 23.377 134.366 23.8516 133.996C24.3291 133.623 24.9022 133.436 25.5708 133.436C26.2394 133.436 26.8109 133.623 27.2855 133.996C27.7631 134.366 28.1272 134.903 28.3779 135.608C28.6316 136.309 28.7585 137.155 28.7585 138.146C28.7585 139.143 28.6331 139.994 28.3824 140.698C28.1317 141.399 27.769 141.935 27.2945 142.305C26.8199 142.672 26.2453 142.856 25.5708 142.856ZM25.5708 141.871C26.2394 141.871 26.7587 141.549 27.1288 140.904C27.4989 140.259 27.684 139.34 27.684 138.146C27.684 137.352 27.5989 136.676 27.4288 136.118C27.2616 135.56 27.0199 135.134 26.7035 134.842C26.3901 134.549 26.0125 134.403 25.5708 134.403C24.9082 134.403 24.3903 134.73 24.0172 135.384C23.6441 136.034 23.4576 136.955 23.4576 138.146C23.4576 138.94 23.5412 139.615 23.7083 140.17C23.8755 140.725 24.1157 141.147 24.4291 141.437C24.7455 141.726 25.1261 141.871 25.5708 141.871ZM33.4504 142.856C32.7759 142.856 32.2013 142.672 31.7268 142.305C31.2522 141.935 30.8895 141.399 30.6388 140.698C30.3881 139.994 30.2628 139.143 30.2628 138.146C30.2628 137.155 30.3881 136.309 30.6388 135.608C30.8925 134.903 31.2567 134.366 31.7312 133.996C32.2088 133.623 32.7819 133.436 33.4504 133.436C34.119 133.436 34.6906 133.623 35.1652 133.996C35.6427 134.366 36.0068 134.903 36.2576 135.608C36.5113 136.309 36.6381 137.155 36.6381 138.146C36.6381 139.143 36.5128 139.994 36.262 140.698C36.0113 141.399 35.6487 141.935 35.1741 142.305C34.6995 142.672 34.125 142.856 33.4504 142.856ZM33.4504 141.871C34.119 141.871 34.6384 141.549 35.0085 140.904C35.3786 140.259 35.5636 139.34 35.5636 138.146C35.5636 137.352 35.4785 136.676 35.3084 136.118C35.1413 135.56 34.8995 135.134 34.5831 134.842C34.2697 134.549 33.8922 134.403 33.4504 134.403C32.7878 134.403 32.27 134.73 31.8969 135.384C31.5238 136.034 31.3373 136.955 31.3373 138.146C31.3373 138.94 31.4208 139.615 31.588 140.17C31.7551 140.725 31.9954 141.147 32.3088 141.437C32.6252 141.726 33.0057 141.871 33.4504 141.871Z" fill="#49657B"/>
<path d="M9.47568 180.309V168.848H10.2099V180.309H9.47568ZM11.947 172.287C11.8933 171.833 11.6754 171.481 11.2934 171.23C10.9113 170.979 10.4427 170.854 9.88757 170.854C9.48165 170.854 9.12647 170.92 8.82203 171.051C8.52057 171.182 8.28478 171.363 8.11465 171.593C7.94751 171.822 7.86394 172.084 7.86394 172.376C7.86394 172.621 7.92214 172.831 8.03854 173.007C8.15793 173.18 8.31015 173.325 8.4952 173.442C8.68026 173.555 8.87426 173.649 9.07722 173.724C9.28018 173.795 9.46673 173.854 9.63686 173.898L10.5681 174.149C10.8069 174.212 11.0725 174.298 11.365 174.409C11.6605 174.519 11.9426 174.67 12.2112 174.861C12.4828 175.049 12.7066 175.291 12.8827 175.586C13.0588 175.882 13.1469 176.244 13.1469 176.674C13.1469 177.17 13.0171 177.617 12.7574 178.017C12.5007 178.417 12.1246 178.735 11.6292 178.971C11.1367 179.207 10.5382 179.325 9.83385 179.325C9.17721 179.325 8.60862 179.219 8.12808 179.007C7.65053 178.795 7.27445 178.499 6.99986 178.12C6.72825 177.741 6.57454 177.301 6.53872 176.799H7.68485C7.7147 177.146 7.8311 177.432 8.03406 177.659C8.24001 177.883 8.49968 178.05 8.81308 178.16C9.12946 178.268 9.46971 178.322 9.83385 178.322C10.2577 178.322 10.6382 178.253 10.9755 178.116C11.3128 177.975 11.5799 177.781 11.7769 177.534C11.9739 177.283 12.0724 176.99 12.0724 176.656C12.0724 176.352 11.9873 176.104 11.8172 175.913C11.6471 175.722 11.4232 175.567 11.1456 175.447C10.8681 175.328 10.5681 175.224 10.2457 175.134L9.11752 174.812C8.40118 174.606 7.83409 174.312 7.41623 173.93C6.99837 173.548 6.78944 173.048 6.78944 172.43C6.78944 171.916 6.92823 171.469 7.2058 171.087C7.48637 170.702 7.86244 170.403 8.33403 170.191C8.8086 169.976 9.33839 169.869 9.92339 169.869C10.5144 169.869 11.0397 169.975 11.4993 170.187C11.959 170.396 12.3231 170.682 12.5917 171.046C12.8633 171.411 13.0066 171.824 13.0215 172.287H11.947ZM17.8557 179.289C17.4796 179.283 17.1035 179.211 16.7274 179.074C16.3514 178.936 16.0081 178.705 15.6977 178.38C15.3873 178.052 15.1381 177.608 14.95 177.05C14.762 176.489 14.668 175.785 14.668 174.937C14.668 174.125 14.7441 173.406 14.8963 172.779C15.0485 172.149 15.2694 171.619 15.5589 171.19C15.8484 170.757 16.1976 170.429 16.6065 170.205C17.0184 169.981 17.4826 169.869 17.9989 169.869C18.5123 169.869 18.969 169.972 19.3689 170.178C19.7718 170.381 20.1002 170.664 20.3539 171.028C20.6076 171.393 20.7717 171.812 20.8463 172.287H19.7539C19.6525 171.875 19.4555 171.533 19.163 171.261C18.8705 170.99 18.4824 170.854 17.9989 170.854C17.2886 170.854 16.7289 171.163 16.32 171.781C15.9141 172.398 15.7096 173.266 15.7067 174.382H15.7783C15.9454 174.128 16.1439 173.912 16.3737 173.733C16.6065 173.551 16.8632 173.41 17.1438 173.312C17.4244 173.213 17.7213 173.164 18.0347 173.164C18.56 173.164 19.0406 173.295 19.4764 173.558C19.9121 173.818 20.2613 174.177 20.524 174.637C20.7866 175.094 20.918 175.617 20.918 176.208C20.918 176.776 20.7911 177.295 20.5374 177.766C20.2837 178.235 19.927 178.608 19.4674 178.886C19.0107 179.16 18.4735 179.295 17.8557 179.289ZM17.8557 178.304C18.2317 178.304 18.569 178.21 18.8675 178.022C19.1689 177.834 19.4062 177.581 19.5793 177.265C19.7554 176.949 19.8435 176.596 19.8435 176.208C19.8435 175.829 19.7584 175.485 19.5883 175.174C19.4211 174.861 19.1898 174.612 18.8943 174.427C18.6018 174.242 18.2675 174.149 17.8915 174.149C17.6079 174.149 17.3438 174.206 17.099 174.319C16.8543 174.43 16.6394 174.582 16.4543 174.776C16.2723 174.97 16.129 175.192 16.0245 175.443C15.9201 175.691 15.8678 175.952 15.8678 176.226C15.8678 176.591 15.9529 176.931 16.123 177.247C16.2961 177.564 16.5319 177.819 16.8304 178.013C17.1319 178.207 17.4736 178.304 17.8557 178.304ZM25.6693 179.289C24.9947 179.289 24.4202 179.105 23.9456 178.738C23.471 178.368 23.1084 177.832 22.8577 177.131C22.607 176.426 22.4816 175.576 22.4816 174.579C22.4816 173.588 22.607 172.742 22.8577 172.04C23.1114 171.336 23.4755 170.799 23.9501 170.429C24.4276 170.055 25.0007 169.869 25.6693 169.869C26.3378 169.869 26.9094 170.055 27.384 170.429C27.8615 170.799 28.2257 171.336 28.4764 172.04C28.7301 172.742 28.857 173.588 28.857 174.579C28.857 175.576 28.7316 176.426 28.4809 177.131C28.2302 177.832 27.8675 178.368 27.3929 178.738C26.9184 179.105 26.3438 179.289 25.6693 179.289ZM25.6693 178.304C26.3378 178.304 26.8572 177.981 27.2273 177.337C27.5974 176.692 27.7825 175.773 27.7825 174.579C27.7825 173.785 27.6974 173.109 27.5273 172.551C27.3601 171.993 27.1184 171.567 26.802 171.275C26.4886 170.982 26.111 170.836 25.6693 170.836C25.0067 170.836 24.4888 171.163 24.1157 171.816C23.7426 172.467 23.5561 173.388 23.5561 174.579C23.5561 175.373 23.6397 176.047 23.8068 176.602C23.974 177.158 24.2142 177.58 24.5276 177.869C24.844 178.159 25.2245 178.304 25.6693 178.304ZM33.5489 179.289C32.8744 179.289 32.2998 179.105 31.8253 178.738C31.3507 178.368 30.988 177.832 30.7373 177.131C30.4866 176.426 30.3612 175.576 30.3612 174.579C30.3612 173.588 30.4866 172.742 30.7373 172.04C30.991 171.336 31.3552 170.799 31.8297 170.429C32.3073 170.055 32.8804 169.869 33.5489 169.869C34.2175 169.869 34.7891 170.055 35.2636 170.429C35.7412 170.799 36.1053 171.336 36.3561 172.04C36.6098 172.742 36.7366 173.588 36.7366 174.579C36.7366 175.576 36.6112 176.426 36.3605 177.131C36.1098 177.832 35.7472 178.368 35.2726 178.738C34.798 179.105 34.2235 179.289 33.5489 179.289ZM33.5489 178.304C34.2175 178.304 34.7368 177.981 35.107 177.337C35.4771 176.692 35.6621 175.773 35.6621 174.579C35.6621 173.785 35.577 173.109 35.4069 172.551C35.2398 171.993 34.998 171.567 34.6816 171.275C34.3682 170.982 33.9907 170.836 33.5489 170.836C32.8863 170.836 32.3685 171.163 31.9954 171.816C31.6223 172.467 31.4357 173.388 31.4357 174.579C31.4357 175.373 31.5193 176.047 31.6865 176.602C31.8536 177.158 32.0939 177.58 32.4073 177.869C32.7237 178.159 33.1042 178.304 33.5489 178.304Z" fill="#49657B"/>
<path d="M9.47568 216.742V205.281H10.2099V216.742H9.47568ZM11.947 208.719C11.8933 208.265 11.6754 207.913 11.2934 207.663C10.9113 207.412 10.4427 207.286 9.88757 207.286C9.48165 207.286 9.12647 207.352 8.82203 207.483C8.52057 207.615 8.28478 207.795 8.11465 208.025C7.94751 208.255 7.86394 208.516 7.86394 208.809C7.86394 209.053 7.92214 209.264 8.03854 209.44C8.15793 209.613 8.31015 209.758 8.4952 209.874C8.68026 209.988 8.87426 210.082 9.07722 210.156C9.28018 210.228 9.46673 210.286 9.63686 210.331L10.5681 210.582C10.8069 210.644 11.0725 210.731 11.365 210.841C11.6605 210.952 11.9426 211.102 12.2112 211.293C12.4828 211.482 12.7066 211.723 12.8827 212.019C13.0588 212.314 13.1469 212.677 13.1469 213.107C13.1469 213.602 13.0171 214.05 12.7574 214.45C12.5007 214.85 12.1246 215.168 11.6292 215.403C11.1367 215.639 10.5382 215.757 9.83385 215.757C9.17721 215.757 8.60862 215.651 8.12808 215.439C7.65053 215.227 7.27445 214.932 6.99986 214.553C6.72825 214.174 6.57454 213.733 6.53872 213.232H7.68485C7.7147 213.578 7.8311 213.865 8.03406 214.092C8.24001 214.316 8.49968 214.483 8.81308 214.593C9.12946 214.701 9.46971 214.754 9.83385 214.754C10.2577 214.754 10.6382 214.686 10.9755 214.548C11.3128 214.408 11.5799 214.214 11.7769 213.966C11.9739 213.716 12.0724 213.423 12.0724 213.089C12.0724 212.784 11.9873 212.537 11.8172 212.346C11.6471 212.155 11.4232 211.999 11.1456 211.88C10.8681 211.761 10.5681 211.656 10.2457 211.567L9.11752 211.244C8.40118 211.038 7.83409 210.744 7.41623 210.362C6.99837 209.98 6.78944 209.48 6.78944 208.862C6.78944 208.349 6.92823 207.901 7.2058 207.519C7.48637 207.134 7.86244 206.836 8.33403 206.624C8.8086 206.409 9.33839 206.302 9.92339 206.302C10.5144 206.302 11.0397 206.407 11.4993 206.619C11.959 206.828 12.3231 207.115 12.5917 207.479C12.8633 207.843 13.0066 208.257 13.0215 208.719H11.947ZM14.5963 213.716V212.802L18.6257 206.427H19.2883V207.842H18.8406L15.7962 212.659V212.731H21.2224V213.716H14.5963ZM18.9122 215.596V213.438V213.013V206.427H19.9688V215.596H18.9122ZM25.8909 215.721C25.2163 215.721 24.6418 215.538 24.1672 215.171C23.6926 214.801 23.33 214.265 23.0793 213.563C22.8286 212.859 22.7032 212.008 22.7032 211.011C22.7032 210.02 22.8286 209.174 23.0793 208.473C23.333 207.769 23.6971 207.231 24.1717 206.861C24.6492 206.488 25.2223 206.302 25.8909 206.302C26.5595 206.302 27.131 206.488 27.6056 206.861C28.0832 207.231 28.4473 207.769 28.698 208.473C28.9517 209.174 29.0786 210.02 29.0786 211.011C29.0786 212.008 28.9532 212.859 28.7025 213.563C28.4518 214.265 28.0891 214.801 27.6146 215.171C27.14 215.538 26.5654 215.721 25.8909 215.721ZM25.8909 214.736C26.5595 214.736 27.0788 214.414 27.4489 213.769C27.819 213.125 28.0041 212.205 28.0041 211.011C28.0041 210.217 27.919 209.541 27.7489 208.983C27.5817 208.425 27.34 208 27.0236 207.707C26.7102 207.415 26.3326 207.269 25.8909 207.269C25.2283 207.269 24.7104 207.595 24.3373 208.249C23.9643 208.9 23.7777 209.821 23.7777 211.011C23.7777 211.805 23.8613 212.48 24.0284 213.035C24.1956 213.59 24.4358 214.013 24.7492 214.302C25.0656 214.592 25.4462 214.736 25.8909 214.736ZM33.7705 215.721C33.096 215.721 32.5214 215.538 32.0469 215.171C31.5723 214.801 31.2097 214.265 30.9589 213.563C30.7082 212.859 30.5829 212.008 30.5829 211.011C30.5829 210.02 30.7082 209.174 30.9589 208.473C31.2126 207.769 31.5768 207.231 32.0513 206.861C32.5289 206.488 33.102 206.302 33.7705 206.302C34.4391 206.302 35.0107 206.488 35.4853 206.861C35.9628 207.231 36.327 207.769 36.5777 208.473C36.8314 209.174 36.9582 210.02 36.9582 211.011C36.9582 212.008 36.8329 212.859 36.5821 213.563C36.3314 214.265 35.9688 214.801 35.4942 215.171C35.0196 215.538 34.4451 215.721 33.7705 215.721ZM33.7705 214.736C34.4391 214.736 34.9585 214.414 35.3286 213.769C35.6987 213.125 35.8837 212.205 35.8837 211.011C35.8837 210.217 35.7987 209.541 35.6285 208.983C35.4614 208.425 35.2196 208 34.9032 207.707C34.5898 207.415 34.2123 207.269 33.7705 207.269C33.1079 207.269 32.5901 207.595 32.217 208.249C31.8439 208.9 31.6574 209.821 31.6574 211.011C31.6574 211.805 31.7409 212.48 31.9081 213.035C32.0752 213.59 32.3155 214.013 32.6289 214.302C32.9453 214.592 33.3258 214.736 33.7705 214.736Z" fill="#49657B"/>
<path d="M9.47568 253.175V241.713H10.2099V253.175H9.47568ZM11.947 245.152C11.8933 244.698 11.6754 244.346 11.2934 244.095C10.9113 243.844 10.4427 243.719 9.88757 243.719C9.48165 243.719 9.12647 243.785 8.82203 243.916C8.52057 244.047 8.28478 244.228 8.11465 244.458C7.94751 244.688 7.86394 244.949 7.86394 245.241C7.86394 245.486 7.92214 245.696 8.03854 245.873C8.15793 246.046 8.31015 246.19 8.4952 246.307C8.68026 246.42 8.87426 246.514 9.07722 246.589C9.28018 246.661 9.46673 246.719 9.63686 246.764L10.5681 247.014C10.8069 247.077 11.0725 247.163 11.365 247.274C11.6605 247.384 11.9426 247.535 12.2112 247.726C12.4828 247.914 12.7066 248.156 12.8827 248.451C13.0588 248.747 13.1469 249.11 13.1469 249.539C13.1469 250.035 13.0171 250.482 12.7574 250.882C12.5007 251.282 12.1246 251.6 11.6292 251.836C11.1367 252.072 10.5382 252.19 9.83385 252.19C9.17721 252.19 8.60862 252.084 8.12808 251.872C7.65053 251.66 7.27445 251.364 6.99986 250.985C6.72825 250.606 6.57454 250.166 6.53872 249.665H7.68485C7.7147 250.011 7.8311 250.297 8.03406 250.524C8.24001 250.748 8.49968 250.915 8.81308 251.026C9.12946 251.133 9.46971 251.187 9.83385 251.187C10.2577 251.187 10.6382 251.118 10.9755 250.981C11.3128 250.841 11.5799 250.647 11.7769 250.399C11.9739 250.148 12.0724 249.856 12.0724 249.521C12.0724 249.217 11.9873 248.969 11.8172 248.778C11.6471 248.587 11.4232 248.432 11.1456 248.313C10.8681 248.193 10.5681 248.089 10.2457 247.999L9.11752 247.677C8.40118 247.471 7.83409 247.177 7.41623 246.795C6.99837 246.413 6.78944 245.913 6.78944 245.295C6.78944 244.782 6.92823 244.334 7.2058 243.952C7.48637 243.567 7.86244 243.268 8.33403 243.057C8.8086 242.842 9.33839 242.734 9.92339 242.734C10.5144 242.734 11.0397 242.84 11.4993 243.052C11.959 243.261 12.3231 243.547 12.5917 243.912C12.8633 244.276 13.0066 244.689 13.0215 245.152H11.947ZM14.8112 252.029V251.223L17.8377 247.91C18.1929 247.522 18.4854 247.184 18.7153 246.898C18.9451 246.608 19.1152 246.337 19.2256 246.083C19.3391 245.826 19.3958 245.558 19.3958 245.277C19.3958 244.955 19.3182 244.676 19.163 244.44C19.0107 244.204 18.8018 244.022 18.5362 243.894C18.2705 243.765 17.9721 243.701 17.6408 243.701C17.2886 243.701 16.9811 243.774 16.7185 243.921C16.4588 244.064 16.2573 244.265 16.1141 244.525C15.9738 244.785 15.9036 245.089 15.9036 245.438H14.8471C14.8471 244.901 14.9709 244.429 15.2187 244.024C15.4664 243.618 15.8037 243.301 16.2305 243.074C16.6603 242.848 17.1423 242.734 17.6766 242.734C18.2138 242.734 18.6899 242.848 19.1048 243.074C19.5196 243.301 19.845 243.607 20.0808 243.992C20.3166 244.377 20.4344 244.806 20.4344 245.277C20.4344 245.614 20.3733 245.944 20.2509 246.267C20.1315 246.586 19.9226 246.943 19.6241 247.337C19.3286 247.728 18.9182 248.205 18.3929 248.769L16.3334 250.972V251.044H20.5956V252.029H14.8112ZM25.4353 252.154C24.7608 252.154 24.1862 251.97 23.7117 251.603C23.2371 251.233 22.8745 250.697 22.6237 249.996C22.373 249.292 22.2477 248.441 22.2477 247.444C22.2477 246.453 22.373 245.607 22.6237 244.906C22.8774 244.201 23.2416 243.664 23.7161 243.294C24.1937 242.921 24.7668 242.734 25.4353 242.734C26.1039 242.734 26.6755 242.921 27.1501 243.294C27.6276 243.664 27.9918 244.201 28.2425 244.906C28.4962 245.607 28.623 246.453 28.623 247.444C28.623 248.441 28.4977 249.292 28.2469 249.996C27.9962 250.697 27.6336 251.233 27.159 251.603C26.6844 251.97 26.1099 252.154 25.4353 252.154ZM25.4353 251.169C26.1039 251.169 26.6233 250.847 26.9934 250.202C27.3635 249.557 27.5485 248.638 27.5485 247.444C27.5485 246.65 27.4635 245.974 27.2933 245.416C27.1262 244.858 26.8844 244.432 26.568 244.14C26.2547 243.847 25.8771 243.701 25.4353 243.701C24.7727 243.701 24.2549 244.028 23.8818 244.682C23.5087 245.332 23.3222 246.253 23.3222 247.444C23.3222 248.238 23.4057 248.913 23.5729 249.468C23.74 250.023 23.9803 250.445 24.2937 250.735C24.6101 251.024 24.9906 251.169 25.4353 251.169ZM33.315 252.154C32.6405 252.154 32.0659 251.97 31.5913 251.603C31.1168 251.233 30.7541 250.697 30.5034 249.996C30.2527 249.292 30.1273 248.441 30.1273 247.444C30.1273 246.453 30.2527 245.607 30.5034 244.906C30.7571 244.201 31.1212 243.664 31.5958 243.294C32.0734 242.921 32.6464 242.734 33.315 242.734C33.9836 242.734 34.5552 242.921 35.0297 243.294C35.5073 243.664 35.8714 244.201 36.1221 244.906C36.3758 245.607 36.5027 246.453 36.5027 247.444C36.5027 248.441 36.3773 249.292 36.1266 249.996C35.8759 250.697 35.5132 251.233 35.0387 251.603C34.5641 251.97 33.9895 252.154 33.315 252.154ZM33.315 251.169C33.9836 251.169 34.5029 250.847 34.873 250.202C35.2431 249.557 35.4282 248.638 35.4282 247.444C35.4282 246.65 35.3431 245.974 35.173 245.416C35.0058 244.858 34.7641 244.432 34.4477 244.14C34.1343 243.847 33.7567 243.701 33.315 243.701C32.6524 243.701 32.1345 244.028 31.7615 244.682C31.3884 245.332 31.2018 246.253 31.2018 247.444C31.2018 248.238 31.2854 248.913 31.4525 249.468C31.6197 250.023 31.86 250.445 32.1733 250.735C32.4897 251.024 32.8703 251.169 33.315 251.169Z" fill="#49657B"/>
<path d="M25.4757 289.607V278.146H26.2099V289.607H25.4757ZM27.947 281.585C27.8933 281.131 27.6754 280.779 27.2934 280.528C26.9113 280.277 26.4427 280.152 25.8876 280.152C25.4817 280.152 25.1265 280.218 24.822 280.349C24.5206 280.48 24.2848 280.661 24.1147 280.891C23.9475 281.12 23.8639 281.382 23.8639 281.674C23.8639 281.919 23.9221 282.129 24.0385 282.305C24.1579 282.478 24.3102 282.623 24.4952 282.74C24.6803 282.853 24.8743 282.947 25.0772 283.022C25.2802 283.093 25.4667 283.151 25.6369 283.196L26.5681 283.447C26.8069 283.51 27.0725 283.596 27.365 283.707C27.6605 283.817 27.9426 283.968 28.2112 284.159C28.4828 284.347 28.7066 284.589 28.8827 284.884C29.0588 285.18 29.1469 285.542 29.1469 285.972C29.1469 286.468 29.0171 286.915 28.7574 287.315C28.5007 287.715 28.1246 288.033 27.6292 288.269C27.1367 288.505 26.5382 288.622 25.8338 288.622C25.1772 288.622 24.6086 288.517 24.1281 288.305C23.6505 288.093 23.2745 287.797 22.9999 287.418C22.7282 287.039 22.5745 286.599 22.5387 286.097H23.6849C23.7147 286.444 23.8311 286.73 24.0341 286.957C24.24 287.181 24.4997 287.348 24.8131 287.458C25.1295 287.566 25.4697 287.62 25.8338 287.62C26.2577 287.62 26.6382 287.551 26.9755 287.414C27.3128 287.273 27.5799 287.079 27.7769 286.832C27.9739 286.581 28.0724 286.288 28.0724 285.954C28.0724 285.65 27.9873 285.402 27.8172 285.211C27.6471 285.02 27.4232 284.865 27.1456 284.745C26.8681 284.626 26.5681 284.521 26.2457 284.432L25.1175 284.11C24.4012 283.904 23.8341 283.61 23.4162 283.228C22.9984 282.846 22.7894 282.346 22.7894 281.728C22.7894 281.214 22.9282 280.767 23.2058 280.385C23.4864 280 23.8624 279.701 24.334 279.489C24.8086 279.274 25.3384 279.167 25.9234 279.167C26.5144 279.167 27.0397 279.273 27.4993 279.485C27.959 279.694 28.3231 279.98 28.5917 280.344C28.8633 280.708 29.0066 281.122 29.0215 281.585H27.947ZM33.8019 288.587C33.1274 288.587 32.5528 288.403 32.0783 288.036C31.6037 287.666 31.241 287.13 30.9903 286.429C30.7396 285.724 30.6142 284.874 30.6142 283.877C30.6142 282.886 30.7396 282.04 30.9903 281.338C31.244 280.634 31.6082 280.097 32.0827 279.727C32.5603 279.353 33.1334 279.167 33.8019 279.167C34.4705 279.167 35.0421 279.353 35.5166 279.727C35.9942 280.097 36.3583 280.634 36.6091 281.338C36.8628 282.04 36.9896 282.886 36.9896 283.877C36.9896 284.874 36.8642 285.724 36.6135 286.429C36.3628 287.13 36.0002 287.666 35.5256 288.036C35.051 288.403 34.4765 288.587 33.8019 288.587ZM33.8019 287.602C34.4705 287.602 34.9898 287.279 35.36 286.635C35.7301 285.99 35.9151 285.071 35.9151 283.877C35.9151 283.083 35.83 282.407 35.6599 281.849C35.4928 281.291 35.251 280.865 34.9346 280.573C34.6212 280.28 34.2437 280.134 33.8019 280.134C33.1393 280.134 32.6215 280.461 32.2484 281.114C31.8753 281.765 31.6887 282.686 31.6887 283.877C31.6887 284.671 31.7723 285.345 31.9395 285.9C32.1066 286.456 32.3469 286.878 32.6603 287.167C32.9767 287.457 33.3572 287.602 33.8019 287.602Z" fill="#49657B"/>
<path d="M60.093 307.931H61.2033V314.485C61.2033 315.07 61.0959 315.567 60.881 315.976C60.6661 316.385 60.3631 316.696 59.9721 316.907C59.5811 317.119 59.12 317.225 58.5887 317.225C58.0873 317.225 57.6411 317.134 57.2501 316.952C56.8591 316.767 56.5516 316.505 56.3278 316.164C56.1039 315.824 55.992 315.42 55.992 314.951H57.0844C57.0844 315.211 57.1486 315.437 57.2769 315.631C57.4082 315.823 57.5873 315.972 57.8142 316.079C58.041 316.187 58.2992 316.24 58.5887 316.24C58.9081 316.24 59.1797 316.173 59.4035 316.039C59.6274 315.905 59.7975 315.708 59.9139 315.448C60.0333 315.185 60.093 314.864 60.093 314.485V307.931ZM65.3088 317.261C64.873 317.261 64.4776 317.179 64.1224 317.015C63.7672 316.848 63.4851 316.607 63.2762 316.294C63.0673 315.978 62.9628 315.596 62.9628 315.148C62.9628 314.754 63.0404 314.435 63.1956 314.19C63.3508 313.942 63.5583 313.748 63.8179 313.608C64.0776 313.468 64.3641 313.363 64.6775 313.294C64.9939 313.223 65.3118 313.166 65.6311 313.124C66.049 313.071 66.3878 313.03 66.6474 313.003C66.9101 312.974 67.1011 312.924 67.2205 312.856C67.3429 312.787 67.4041 312.668 67.4041 312.498V312.462C67.4041 312.02 67.2832 311.677 67.0414 311.432C66.8026 311.187 66.44 311.065 65.9535 311.065C65.4491 311.065 65.0536 311.175 64.7671 311.396C64.4805 311.617 64.2791 311.853 64.1627 312.104L63.1598 311.745C63.3389 311.328 63.5777 311.002 63.8761 310.769C64.1776 310.534 64.5059 310.369 64.8611 310.277C65.2193 310.181 65.5715 310.134 65.9177 310.134C66.1385 310.134 66.3922 310.161 66.6788 310.214C66.9683 310.265 67.2474 310.371 67.516 310.532C67.7876 310.693 68.013 310.937 68.192 311.262C68.3711 311.587 68.4607 312.023 68.4607 312.569V317.1H67.4041V316.169H67.3503C67.2787 316.318 67.1593 316.478 66.9922 316.648C66.825 316.818 66.6027 316.963 66.3251 317.082C66.0475 317.201 65.7087 317.261 65.3088 317.261ZM65.47 316.312C65.8878 316.312 66.24 316.23 66.5266 316.066C66.8161 315.902 67.034 315.69 67.1802 315.43C67.3295 315.17 67.4041 314.897 67.4041 314.611V313.644C67.3593 313.697 67.2608 313.747 67.1086 313.791C66.9593 313.833 66.7862 313.871 66.5892 313.903C66.3952 313.933 66.2057 313.96 66.0207 313.984C65.8386 314.005 65.6908 314.023 65.5774 314.038C65.3028 314.073 65.0461 314.132 64.8074 314.212C64.5716 314.29 64.3805 314.408 64.2343 314.566C64.091 314.721 64.0194 314.933 64.0194 315.202C64.0194 315.569 64.1552 315.846 64.4268 316.034C64.7014 316.219 65.0491 316.312 65.47 316.312ZM71.4458 312.963V317.1H70.3892V310.223H71.4099V311.298H71.4995C71.6607 310.948 71.9054 310.668 72.2337 310.456C72.562 310.241 72.9859 310.134 73.5052 310.134C73.9708 310.134 74.3782 310.229 74.7274 310.42C75.0767 310.608 75.3483 310.895 75.5423 311.28C75.7363 311.662 75.8333 312.145 75.8333 312.73V317.1H74.7767V312.802C74.7767 312.262 74.6364 311.841 74.3559 311.539C74.0753 311.235 73.6903 311.083 73.2008 311.083C72.8635 311.083 72.562 311.156 72.2964 311.302C72.0337 311.448 71.8263 311.662 71.6741 311.942C71.5219 312.223 71.4458 312.563 71.4458 312.963Z" fill="#49657B"/>
<path d="M88.6689 317.1V307.931H94.1668V308.916H89.7792V312.014H93.7549V312.999H89.7792V317.1H88.6689ZM98.3036 317.243C97.641 317.243 97.0694 317.097 96.5889 316.804C96.1113 316.509 95.7427 316.097 95.483 315.569C95.2263 315.038 95.098 314.42 95.098 313.715C95.098 313.011 95.2263 312.39 95.483 311.853C95.7427 311.313 96.1038 310.892 96.5665 310.59C97.0321 310.286 97.5753 310.134 98.1961 310.134C98.5543 310.134 98.908 310.193 99.2572 310.313C99.6064 310.432 99.9243 310.626 100.211 310.895C100.497 311.16 100.726 311.513 100.896 311.951C101.066 312.39 101.151 312.93 101.151 313.572V314.02H95.8501V313.106H100.077C100.077 312.718 99.9989 312.372 99.8437 312.068C99.6915 311.763 99.4736 311.523 99.19 311.347C98.9095 311.171 98.5782 311.083 98.1961 311.083C97.7753 311.083 97.4111 311.187 97.1037 311.396C96.7993 311.602 96.565 311.871 96.4008 312.202C96.2367 312.533 96.1546 312.889 96.1546 313.268V313.876C96.1546 314.396 96.2441 314.836 96.4232 315.197C96.6053 315.555 96.8575 315.828 97.1798 316.017C97.5022 316.202 97.8768 316.294 98.3036 316.294C98.5812 316.294 98.8319 316.255 99.0557 316.178C99.2826 316.097 99.4781 315.978 99.6422 315.82C99.8064 315.658 99.9332 315.458 100.023 315.22L101.044 315.506C100.936 315.852 100.756 316.157 100.502 316.419C100.248 316.679 99.9347 316.882 99.5616 317.028C99.1885 317.172 98.7692 317.243 98.3036 317.243ZM102.902 317.1V307.931H103.958V311.316H104.048C104.125 311.196 104.233 311.044 104.37 310.859C104.51 310.671 104.71 310.504 104.97 310.357C105.233 310.208 105.588 310.134 106.035 310.134C106.615 310.134 107.125 310.278 107.567 310.568C108.008 310.857 108.353 311.268 108.601 311.799C108.849 312.33 108.972 312.957 108.972 313.679C108.972 314.408 108.849 315.039 108.601 315.573C108.353 316.105 108.01 316.516 107.571 316.809C107.132 317.098 106.626 317.243 106.053 317.243C105.612 317.243 105.258 317.17 104.992 317.024C104.727 316.875 104.522 316.706 104.379 316.518C104.236 316.327 104.125 316.169 104.048 316.043H103.922V317.1H102.902ZM103.94 313.662C103.94 314.181 104.016 314.639 104.169 315.036C104.321 315.43 104.543 315.739 104.836 315.963C105.128 316.184 105.486 316.294 105.91 316.294C106.352 316.294 106.72 316.178 107.016 315.945C107.314 315.709 107.538 315.393 107.688 314.996C107.84 314.596 107.916 314.151 107.916 313.662C107.916 313.178 107.841 312.742 107.692 312.354C107.546 311.963 107.323 311.654 107.025 311.428C106.729 311.198 106.358 311.083 105.91 311.083C105.48 311.083 105.119 311.192 104.827 311.41C104.534 311.625 104.313 311.926 104.164 312.314C104.015 312.699 103.94 313.148 103.94 313.662Z" fill="#49657B"/>
<path d="M121.755 307.931H123.08L126.196 315.542H126.304L129.42 307.931H130.745V317.1H129.706V310.134H129.617L126.751 317.1H125.748L122.883 310.134H122.794V317.1H121.755V307.931ZM134.851 317.261C134.416 317.261 134.02 317.179 133.665 317.015C133.31 316.848 133.028 316.607 132.819 316.294C132.61 315.978 132.505 315.596 132.505 315.148C132.505 314.754 132.583 314.435 132.738 314.19C132.893 313.942 133.101 313.748 133.361 313.608C133.62 313.468 133.907 313.363 134.22 313.294C134.537 313.223 134.854 313.166 135.174 313.124C135.592 313.071 135.93 313.03 136.19 313.003C136.453 312.974 136.644 312.924 136.763 312.856C136.886 312.787 136.947 312.668 136.947 312.498V312.462C136.947 312.02 136.826 311.677 136.584 311.432C136.345 311.187 135.983 311.065 135.496 311.065C134.992 311.065 134.596 311.175 134.31 311.396C134.023 311.617 133.822 311.853 133.705 312.104L132.702 311.745C132.882 311.328 133.12 311.002 133.419 310.769C133.72 310.534 134.049 310.369 134.404 310.277C134.762 310.181 135.114 310.134 135.46 310.134C135.681 310.134 135.935 310.161 136.221 310.214C136.511 310.265 136.79 310.371 137.059 310.532C137.33 310.693 137.556 310.937 137.735 311.262C137.914 311.587 138.003 312.023 138.003 312.569V317.1H136.947V316.169H136.893C136.821 316.318 136.702 316.478 136.535 316.648C136.368 316.818 136.145 316.963 135.868 317.082C135.59 317.201 135.251 317.261 134.851 317.261ZM135.013 316.312C135.43 316.312 135.783 316.23 136.069 316.066C136.359 315.902 136.577 315.69 136.723 315.43C136.872 315.17 136.947 314.897 136.947 314.611V313.644C136.902 313.697 136.803 313.747 136.651 313.791C136.502 313.833 136.329 313.871 136.132 313.903C135.938 313.933 135.748 313.96 135.563 313.984C135.381 314.005 135.233 314.023 135.12 314.038C134.845 314.073 134.589 314.132 134.35 314.212C134.114 314.29 133.923 314.408 133.777 314.566C133.634 314.721 133.562 314.933 133.562 315.202C133.562 315.569 133.698 315.846 133.969 316.034C134.244 316.219 134.592 316.312 135.013 316.312ZM139.932 317.1V310.223H140.953V311.262H141.024C141.15 310.922 141.376 310.646 141.705 310.434C142.033 310.222 142.403 310.116 142.815 310.116C142.893 310.116 142.99 310.117 143.106 310.12C143.222 310.123 143.31 310.128 143.37 310.134V311.208C143.334 311.199 143.252 311.186 143.124 311.168C142.999 311.147 142.866 311.137 142.725 311.137C142.391 311.137 142.093 311.207 141.83 311.347C141.57 311.484 141.364 311.675 141.212 311.92C141.063 312.162 140.988 312.438 140.988 312.748V317.1H139.932Z" fill="#49657B"/>
<path d="M156.217 317.1H155.053L158.42 307.931H159.566L162.933 317.1H161.769L159.029 309.381H158.957L156.217 317.1ZM156.647 313.518H161.339V314.503H156.647V313.518ZM164.218 319.679V310.223H165.238V311.316H165.364C165.441 311.196 165.549 311.044 165.686 310.859C165.826 310.671 166.026 310.504 166.286 310.357C166.549 310.208 166.904 310.134 167.351 310.134C167.931 310.134 168.441 310.278 168.883 310.568C169.324 310.857 169.669 311.268 169.917 311.799C170.165 312.33 170.288 312.957 170.288 313.679C170.288 314.408 170.165 315.039 169.917 315.573C169.669 316.105 169.326 316.516 168.887 316.809C168.448 317.098 167.942 317.243 167.369 317.243C166.928 317.243 166.574 317.17 166.308 317.024C166.043 316.875 165.838 316.706 165.695 316.518C165.552 316.327 165.441 316.169 165.364 316.043H165.274V319.679H164.218ZM165.256 313.662C165.256 314.181 165.332 314.639 165.485 315.036C165.637 315.43 165.859 315.739 166.152 315.963C166.444 316.184 166.802 316.294 167.226 316.294C167.668 316.294 168.036 316.178 168.332 315.945C168.63 315.709 168.854 315.393 169.004 314.996C169.156 314.596 169.232 314.151 169.232 313.662C169.232 313.178 169.157 312.742 169.008 312.354C168.862 311.963 168.639 311.654 168.341 311.428C168.045 311.198 167.674 311.083 167.226 311.083C166.796 311.083 166.435 311.192 166.143 311.41C165.85 311.625 165.629 311.926 165.48 312.314C165.331 312.699 165.256 313.148 165.256 313.662ZM171.9 317.1V310.223H172.921V311.262H172.993C173.118 310.922 173.345 310.646 173.673 310.434C174.001 310.222 174.372 310.116 174.783 310.116C174.861 310.116 174.958 310.117 175.074 310.12C175.191 310.123 175.279 310.128 175.339 310.134V311.208C175.303 311.199 175.221 311.186 175.092 311.168C174.967 311.147 174.834 311.137 174.694 311.137C174.36 311.137 174.061 311.207 173.798 311.347C173.539 311.484 173.333 311.675 173.181 311.92C173.031 312.162 172.957 312.438 172.957 312.748V317.1H171.9Z" fill="#49657B"/>
<path d="M186.927 307.931H188.252L191.368 315.542H191.476L194.592 307.931H195.917V317.1H194.878V310.134H194.789L191.923 317.1H190.92L188.055 310.134H187.966V317.1H186.927V307.931ZM200.023 317.261C199.588 317.261 199.192 317.179 198.837 317.015C198.482 316.848 198.2 316.607 197.991 316.294C197.782 315.978 197.677 315.596 197.677 315.148C197.677 314.754 197.755 314.435 197.91 314.19C198.065 313.942 198.273 313.748 198.533 313.608C198.792 313.468 199.079 313.363 199.392 313.294C199.709 313.223 200.026 313.166 200.346 313.124C200.764 313.071 201.102 313.03 201.362 313.003C201.625 312.974 201.816 312.924 201.935 312.856C202.058 312.787 202.119 312.668 202.119 312.498V312.462C202.119 312.02 201.998 311.677 201.756 311.432C201.517 311.187 201.155 311.065 200.668 311.065C200.164 311.065 199.768 311.175 199.482 311.396C199.195 311.617 198.994 311.853 198.877 312.104L197.874 311.745C198.054 311.328 198.292 311.002 198.591 310.769C198.892 310.534 199.221 310.369 199.576 310.277C199.934 310.181 200.286 310.134 200.632 310.134C200.853 310.134 201.107 310.161 201.393 310.214C201.683 310.265 201.962 310.371 202.231 310.532C202.502 310.693 202.728 310.937 202.907 311.262C203.086 311.587 203.175 312.023 203.175 312.569V317.1H202.119V316.169H202.065C201.993 316.318 201.874 316.478 201.707 316.648C201.54 316.818 201.317 316.963 201.04 317.082C200.762 317.201 200.423 317.261 200.023 317.261ZM200.185 316.312C200.602 316.312 200.955 316.23 201.241 316.066C201.531 315.902 201.749 315.69 201.895 315.43C202.044 315.17 202.119 314.897 202.119 314.611V313.644C202.074 313.697 201.975 313.747 201.823 313.791C201.674 313.833 201.501 313.871 201.304 313.903C201.11 313.933 200.92 313.96 200.735 313.984C200.553 314.005 200.405 314.023 200.292 314.038C200.017 314.073 199.761 314.132 199.522 314.212C199.286 314.29 199.095 314.408 198.949 314.566C198.806 314.721 198.734 314.933 198.734 315.202C198.734 315.569 198.87 315.846 199.141 316.034C199.416 316.219 199.764 316.312 200.185 316.312ZM205.538 319.679C205.359 319.679 205.199 319.664 205.059 319.634C204.919 319.607 204.822 319.58 204.768 319.553L205.037 318.622C205.293 318.688 205.52 318.712 205.717 318.694C205.914 318.676 206.089 318.588 206.241 318.43C206.396 318.274 206.538 318.022 206.666 317.673L206.863 317.136L204.32 310.223H205.466L207.365 315.703H207.436L209.335 310.223H210.481L207.562 318.103C207.43 318.458 207.268 318.752 207.074 318.985C206.88 319.221 206.654 319.395 206.398 319.509C206.144 319.622 205.857 319.679 205.538 319.679Z" fill="#49657B"/>
<path d="M226.523 307.931H227.633V314.485C227.633 315.07 227.526 315.567 227.311 315.976C227.096 316.385 226.793 316.696 226.402 316.907C226.011 317.119 225.55 317.225 225.019 317.225C224.517 317.225 224.071 317.134 223.68 316.952C223.289 316.767 222.981 316.505 222.758 316.164C222.534 315.824 222.422 315.42 222.422 314.951H223.514C223.514 315.211 223.578 315.437 223.707 315.631C223.838 315.823 224.017 315.972 224.244 316.079C224.471 316.187 224.729 316.24 225.019 316.24C225.338 316.24 225.609 316.173 225.833 316.039C226.057 315.905 226.227 315.708 226.344 315.448C226.463 315.185 226.523 314.864 226.523 314.485V307.931ZM234.049 314.288V310.223H235.105V317.1H234.049V315.936H233.977C233.816 316.285 233.565 316.582 233.225 316.827C232.885 317.069 232.455 317.19 231.936 317.19C231.506 317.19 231.124 317.095 230.789 316.907C230.455 316.716 230.193 316.43 230.001 316.048C229.81 315.663 229.715 315.178 229.715 314.593V310.223H230.772V314.521C230.772 315.023 230.912 315.423 231.192 315.721C231.476 316.02 231.837 316.169 232.276 316.169C232.539 316.169 232.806 316.102 233.077 315.967C233.352 315.833 233.582 315.627 233.767 315.349C233.955 315.072 234.049 314.718 234.049 314.288ZM238.097 312.963V317.1H237.041V310.223H238.061V311.298H238.151C238.312 310.948 238.557 310.668 238.885 310.456C239.213 310.241 239.637 310.134 240.157 310.134C240.622 310.134 241.03 310.229 241.379 310.42C241.728 310.608 242 310.895 242.194 311.28C242.388 311.662 242.485 312.145 242.485 312.73V317.1H241.428V312.802C241.428 312.262 241.288 311.841 241.007 311.539C240.727 311.235 240.342 311.083 239.852 311.083C239.515 311.083 239.213 311.156 238.948 311.302C238.685 311.448 238.478 311.662 238.326 311.942C238.173 312.223 238.097 312.563 238.097 312.963Z" fill="#49657B"/>
<path d="M258.609 307.931H259.719V314.485C259.719 315.07 259.612 315.567 259.397 315.976C259.182 316.385 258.879 316.696 258.488 316.907C258.097 317.119 257.636 317.225 257.104 317.225C256.603 317.225 256.157 317.134 255.766 316.952C255.375 316.767 255.067 316.505 254.844 316.164C254.62 315.824 254.508 315.42 254.508 314.951H255.6C255.6 315.211 255.664 315.437 255.793 315.631C255.924 315.823 256.103 315.972 256.33 316.079C256.557 316.187 256.815 316.24 257.104 316.24C257.424 316.24 257.695 316.173 257.919 316.039C258.143 315.905 258.313 315.708 258.43 315.448C258.549 315.185 258.609 314.864 258.609 314.485V307.931ZM266.135 314.288V310.223H267.191V317.1H266.135V315.936H266.063C265.902 316.285 265.651 316.582 265.311 316.827C264.971 317.069 264.541 317.19 264.022 317.19C263.592 317.19 263.21 317.095 262.875 316.907C262.541 316.716 262.278 316.43 262.087 316.048C261.896 315.663 261.801 315.178 261.801 314.593V310.223H262.857V314.521C262.857 315.023 262.998 315.423 263.278 315.721C263.562 316.02 263.923 316.169 264.362 316.169C264.624 316.169 264.892 316.102 265.163 315.967C265.438 315.833 265.668 315.627 265.853 315.349C266.041 315.072 266.135 314.718 266.135 314.288ZM270.183 307.931V317.1H269.127V307.931H270.183Z" fill="#49657B"/>
<path d="M284.156 317.1H282.383L285.611 307.931H287.662L290.894 317.1H289.121L286.672 309.811H286.601L284.156 317.1ZM284.215 313.505H289.05V314.839H284.215V313.505ZM296.413 314.208V310.223H298.034V317.1H296.463V315.878H296.391C296.236 316.263 295.981 316.578 295.625 316.822C295.273 317.067 294.839 317.19 294.323 317.19C293.872 317.19 293.473 317.09 293.127 316.89C292.784 316.687 292.515 316.393 292.321 316.008C292.127 315.62 292.03 315.151 292.03 314.602V310.223H293.651V314.351C293.651 314.787 293.77 315.133 294.009 315.39C294.248 315.646 294.561 315.775 294.949 315.775C295.188 315.775 295.42 315.717 295.643 315.6C295.867 315.484 296.051 315.311 296.194 315.081C296.34 314.848 296.413 314.557 296.413 314.208ZM302.691 319.822C302.109 319.822 301.609 319.743 301.192 319.585C300.774 319.43 300.438 319.221 300.184 318.958C299.931 318.695 299.754 318.404 299.656 318.085L301.115 317.731C301.181 317.866 301.277 317.998 301.402 318.13C301.527 318.264 301.696 318.374 301.908 318.461C302.123 318.551 302.393 318.595 302.718 318.595C303.178 318.595 303.558 318.483 303.86 318.26C304.161 318.039 304.312 317.675 304.312 317.167V315.864H304.232C304.148 316.031 304.026 316.203 303.864 316.379C303.706 316.555 303.496 316.703 303.233 316.822C302.973 316.942 302.647 317.001 302.253 317.001C301.724 317.001 301.245 316.878 300.816 316.63C300.389 316.379 300.048 316.006 299.795 315.511C299.544 315.012 299.419 314.388 299.419 313.639C299.419 312.884 299.544 312.247 299.795 311.727C300.048 311.205 300.39 310.81 300.82 310.541C301.25 310.269 301.729 310.134 302.257 310.134C302.66 310.134 302.991 310.202 303.251 310.34C303.514 310.474 303.723 310.637 303.878 310.828C304.033 311.016 304.151 311.193 304.232 311.36H304.321V310.223H305.919V317.212C305.919 317.8 305.779 318.286 305.499 318.671C305.218 319.056 304.834 319.344 304.348 319.536C303.861 319.727 303.309 319.822 302.691 319.822ZM302.705 315.73C303.048 315.73 303.341 315.646 303.582 315.479C303.824 315.312 304.008 315.072 304.133 314.758C304.258 314.445 304.321 314.069 304.321 313.63C304.321 313.197 304.258 312.818 304.133 312.493C304.011 312.168 303.829 311.916 303.587 311.736C303.348 311.554 303.054 311.463 302.705 311.463C302.344 311.463 302.042 311.557 301.8 311.745C301.559 311.933 301.377 312.192 301.254 312.52C301.132 312.845 301.071 313.215 301.071 313.63C301.071 314.051 301.132 314.42 301.254 314.736C301.38 315.049 301.563 315.294 301.805 315.47C302.05 315.643 302.35 315.73 302.705 315.73Z" fill="#00B8B6"/>
<path d="M323.285 310.223C323.231 309.77 323.013 309.417 322.631 309.167C322.249 308.916 321.781 308.791 321.226 308.791C320.82 308.791 320.464 308.856 320.16 308.988C319.859 309.119 319.623 309.299 319.453 309.529C319.286 309.759 319.202 310.02 319.202 310.313C319.202 310.557 319.26 310.768 319.377 310.944C319.496 311.117 319.648 311.262 319.833 311.378C320.018 311.492 320.212 311.586 320.415 311.66C320.618 311.732 320.805 311.79 320.975 311.835L321.906 312.086C322.145 312.148 322.411 312.235 322.703 312.345C322.999 312.456 323.281 312.606 323.549 312.798C323.821 312.986 324.045 313.227 324.221 313.523C324.397 313.818 324.485 314.181 324.485 314.611C324.485 315.106 324.355 315.554 324.095 315.954C323.839 316.354 323.463 316.672 322.967 316.907C322.475 317.143 321.876 317.261 321.172 317.261C320.515 317.261 319.947 317.155 319.466 316.943C318.989 316.731 318.612 316.436 318.338 316.057C318.066 315.678 317.913 315.238 317.877 314.736H319.023C319.053 315.082 319.169 315.369 319.372 315.596C319.578 315.82 319.838 315.987 320.151 316.097C320.467 316.205 320.808 316.258 321.172 316.258C321.596 316.258 321.976 316.19 322.314 316.052C322.651 315.912 322.918 315.718 323.115 315.47C323.312 315.22 323.41 314.927 323.41 314.593C323.41 314.288 323.325 314.041 323.155 313.85C322.985 313.659 322.761 313.503 322.484 313.384C322.206 313.265 321.906 313.16 321.584 313.071L320.456 312.748C319.739 312.542 319.172 312.248 318.754 311.866C318.336 311.484 318.127 310.984 318.127 310.366C318.127 309.853 318.266 309.405 318.544 309.023C318.824 308.638 319.2 308.34 319.672 308.128C320.147 307.913 320.676 307.806 321.261 307.806C321.852 307.806 322.378 307.912 322.837 308.123C323.297 308.332 323.661 308.619 323.93 308.983C324.201 309.347 324.345 309.761 324.36 310.223H323.285ZM329.05 317.243C328.388 317.243 327.816 317.097 327.336 316.804C326.858 316.509 326.49 316.097 326.23 315.569C325.973 315.038 325.845 314.42 325.845 313.715C325.845 313.011 325.973 312.39 326.23 311.853C326.49 311.313 326.851 310.892 327.313 310.59C327.779 310.286 328.322 310.134 328.943 310.134C329.301 310.134 329.655 310.193 330.004 310.313C330.353 310.432 330.671 310.626 330.958 310.895C331.244 311.16 331.472 311.513 331.643 311.951C331.813 312.39 331.898 312.93 331.898 313.572V314.02H326.597V313.106H330.823C330.823 312.718 330.746 312.372 330.591 312.068C330.438 311.763 330.22 311.523 329.937 311.347C329.656 311.171 329.325 311.083 328.943 311.083C328.522 311.083 328.158 311.187 327.851 311.396C327.546 311.602 327.312 311.871 327.148 312.202C326.983 312.533 326.901 312.889 326.901 313.268V313.876C326.901 314.396 326.991 314.836 327.17 315.197C327.352 315.555 327.604 315.828 327.927 316.017C328.249 316.202 328.624 316.294 329.05 316.294C329.328 316.294 329.579 316.255 329.803 316.178C330.029 316.097 330.225 315.978 330.389 315.82C330.553 315.658 330.68 315.458 330.77 315.22L331.79 315.506C331.683 315.852 331.502 316.157 331.249 316.419C330.995 316.679 330.682 316.882 330.308 317.028C329.935 317.172 329.516 317.243 329.05 317.243ZM333.505 319.679V310.223H334.526V311.316H334.651C334.729 311.196 334.836 311.044 334.974 310.859C335.114 310.671 335.314 310.504 335.574 310.357C335.836 310.208 336.191 310.134 336.639 310.134C337.218 310.134 337.728 310.278 338.17 310.568C338.612 310.857 338.957 311.268 339.204 311.799C339.452 312.33 339.576 312.957 339.576 313.679C339.576 314.408 339.452 315.039 339.204 315.573C338.957 316.105 338.613 316.516 338.175 316.809C337.736 317.098 337.23 317.243 336.657 317.243C336.215 317.243 335.862 317.17 335.596 317.024C335.33 316.875 335.126 316.706 334.983 316.518C334.839 316.327 334.729 316.169 334.651 316.043H334.562V319.679H333.505ZM334.544 313.662C334.544 314.181 334.62 314.639 334.772 315.036C334.924 315.43 335.147 315.739 335.439 315.963C335.732 316.184 336.09 316.294 336.514 316.294C336.955 316.294 337.324 316.178 337.62 315.945C337.918 315.709 338.142 315.393 338.291 314.996C338.443 314.596 338.519 314.151 338.519 313.662C338.519 313.178 338.445 312.742 338.296 312.354C338.149 311.963 337.927 311.654 337.628 311.428C337.333 311.198 336.961 311.083 336.514 311.083C336.084 311.083 335.723 311.192 335.43 311.41C335.138 311.625 334.917 311.926 334.768 312.314C334.618 312.699 334.544 313.148 334.544 313.662Z" fill="#49657B"/>
<path d="M360.093 312.515C360.093 313.482 359.918 314.318 359.569 315.023C359.22 315.727 358.741 316.27 358.132 316.652C357.523 317.034 356.828 317.225 356.046 317.225C355.264 317.225 354.568 317.034 353.959 316.652C353.351 316.27 352.872 315.727 352.522 315.023C352.173 314.318 351.998 313.482 351.998 312.515C351.998 311.548 352.173 310.713 352.522 310.008C352.872 309.304 353.351 308.761 353.959 308.379C354.568 307.997 355.264 307.806 356.046 307.806C356.828 307.806 357.523 307.997 358.132 308.379C358.741 308.761 359.22 309.304 359.569 310.008C359.918 310.713 360.093 311.548 360.093 312.515ZM359.019 312.515C359.019 311.722 358.886 311.051 358.62 310.505C358.357 309.959 358.001 309.546 357.55 309.265C357.102 308.985 356.601 308.844 356.046 308.844C355.491 308.844 354.988 308.985 354.537 309.265C354.089 309.546 353.733 309.959 353.467 310.505C353.204 311.051 353.073 311.722 353.073 312.515C353.073 313.309 353.204 313.979 353.467 314.526C353.733 315.072 354.089 315.485 354.537 315.766C354.988 316.046 355.491 316.187 356.046 316.187C356.601 316.187 357.102 316.046 357.55 315.766C358.001 315.485 358.357 315.072 358.62 314.526C358.886 313.979 359.019 313.309 359.019 312.515ZM364.61 317.243C363.966 317.243 363.411 317.091 362.945 316.787C362.479 316.482 362.121 316.063 361.87 315.529C361.62 314.994 361.494 314.384 361.494 313.697C361.494 312.999 361.623 312.383 361.879 311.848C362.139 311.311 362.5 310.892 362.963 310.59C363.428 310.286 363.972 310.134 364.593 310.134C365.076 310.134 365.512 310.223 365.9 310.402C366.288 310.581 366.606 310.832 366.853 311.154C367.101 311.477 367.255 311.853 367.315 312.283H366.258C366.177 311.969 365.998 311.692 365.721 311.45C365.446 311.205 365.076 311.083 364.61 311.083C364.199 311.083 363.837 311.19 363.527 311.405C363.22 311.617 362.979 311.917 362.806 312.305C362.636 312.69 362.551 313.142 362.551 313.662C362.551 314.193 362.635 314.655 362.802 315.049C362.972 315.443 363.211 315.749 363.518 315.967C363.828 316.185 364.193 316.294 364.61 316.294C364.885 316.294 365.134 316.246 365.358 316.151C365.582 316.055 365.771 315.918 365.927 315.739C366.082 315.56 366.192 315.345 366.258 315.094H367.315C367.255 315.5 367.107 315.866 366.871 316.191C366.639 316.513 366.33 316.77 365.945 316.961C365.563 317.149 365.118 317.243 364.61 317.243ZM371.85 310.223V311.119H368.286V310.223H371.85ZM369.325 308.576H370.381V315.13C370.381 315.429 370.425 315.652 370.511 315.802C370.601 315.948 370.714 316.046 370.851 316.097C370.992 316.145 371.139 316.169 371.295 316.169C371.411 316.169 371.507 316.163 371.581 316.151C371.656 316.136 371.716 316.124 371.76 316.115L371.975 317.064C371.904 317.091 371.804 317.118 371.675 317.145C371.547 317.175 371.384 317.19 371.187 317.19C370.889 317.19 370.596 317.125 370.31 316.997C370.026 316.869 369.79 316.673 369.602 316.411C369.417 316.148 369.325 315.817 369.325 315.417V308.576Z" fill="#49657B"/>
<path d="M391.713 307.931V317.1H390.639L385.642 309.901H385.553V317.1H384.443V307.931H385.517L390.531 315.148H390.621V307.931H391.713ZM396.586 317.243C395.965 317.243 395.42 317.095 394.951 316.8C394.486 316.505 394.122 316.091 393.859 315.56C393.599 315.029 393.469 314.408 393.469 313.697C393.469 312.981 393.599 312.356 393.859 311.822C394.122 311.287 394.486 310.872 394.951 310.577C395.42 310.281 395.965 310.134 396.586 310.134C397.206 310.134 397.75 310.281 398.215 310.577C398.684 310.872 399.048 311.287 399.308 311.822C399.57 312.356 399.702 312.981 399.702 313.697C399.702 314.408 399.57 315.029 399.308 315.56C399.048 316.091 398.684 316.505 398.215 316.8C397.75 317.095 397.206 317.243 396.586 317.243ZM396.586 316.294C397.057 316.294 397.445 316.173 397.75 315.931C398.054 315.69 398.279 315.372 398.426 314.978C398.572 314.584 398.645 314.157 398.645 313.697C398.645 313.238 398.572 312.809 398.426 312.412C398.279 312.016 398.054 311.695 397.75 311.45C397.445 311.205 397.057 311.083 396.586 311.083C396.114 311.083 395.726 311.205 395.422 311.45C395.117 311.695 394.892 312.016 394.745 312.412C394.599 312.809 394.526 313.238 394.526 313.697C394.526 314.157 394.599 314.584 394.745 314.978C394.892 315.372 395.117 315.69 395.422 315.931C395.726 316.173 396.114 316.294 396.586 316.294ZM406.691 310.223L404.148 317.1H403.074L400.531 310.223H401.677L403.575 315.703H403.647L405.545 310.223H406.691Z" fill="#49657B"/>
<path d="M421.358 317.1H418.529V307.931H421.483C422.373 307.931 423.134 308.114 423.767 308.482C424.399 308.846 424.884 309.37 425.222 310.053C425.559 310.734 425.728 311.548 425.728 312.498C425.728 313.453 425.558 314.275 425.217 314.964C424.877 315.651 424.382 316.179 423.731 316.549C423.08 316.916 422.289 317.1 421.358 317.1ZM419.639 316.115H421.286C422.045 316.115 422.673 315.969 423.171 315.676C423.67 315.384 424.041 314.967 424.286 314.427C424.531 313.887 424.653 313.244 424.653 312.498C424.653 311.757 424.532 311.12 424.291 310.586C424.049 310.049 423.688 309.637 423.207 309.35C422.727 309.061 422.128 308.916 421.412 308.916H419.639V316.115ZM430.33 317.243C429.667 317.243 429.096 317.097 428.615 316.804C428.138 316.509 427.769 316.097 427.51 315.569C427.253 315.038 427.125 314.42 427.125 313.715C427.125 313.011 427.253 312.39 427.51 311.853C427.769 311.313 428.13 310.892 428.593 310.59C429.059 310.286 429.602 310.134 430.223 310.134C430.581 310.134 430.935 310.193 431.284 310.313C431.633 310.432 431.951 310.626 432.237 310.895C432.524 311.16 432.752 311.513 432.922 311.951C433.092 312.39 433.178 312.93 433.178 313.572V314.02H427.877V313.106H432.103C432.103 312.718 432.025 312.372 431.87 312.068C431.718 311.763 431.5 311.523 431.217 311.347C430.936 311.171 430.605 311.083 430.223 311.083C429.802 311.083 429.438 311.187 429.13 311.396C428.826 311.602 428.592 311.871 428.427 312.202C428.263 312.533 428.181 312.889 428.181 313.268V313.876C428.181 314.396 428.271 314.836 428.45 315.197C428.632 315.555 428.884 315.828 429.206 316.017C429.529 316.202 429.903 316.294 430.33 316.294C430.608 316.294 430.858 316.255 431.082 316.178C431.309 316.097 431.505 315.978 431.669 315.82C431.833 315.658 431.96 315.458 432.049 315.22L433.07 315.506C432.963 315.852 432.782 316.157 432.528 316.419C432.275 316.679 431.961 316.882 431.588 317.028C431.215 317.172 430.796 317.243 430.33 317.243ZM437.578 317.243C436.934 317.243 436.379 317.091 435.913 316.787C435.447 316.482 435.089 316.063 434.839 315.529C434.588 314.994 434.462 314.384 434.462 313.697C434.462 312.999 434.591 312.383 434.847 311.848C435.107 311.311 435.468 310.892 435.931 310.59C436.397 310.286 436.94 310.134 437.561 310.134C438.044 310.134 438.48 310.223 438.868 310.402C439.256 310.581 439.574 310.832 439.822 311.154C440.069 311.477 440.223 311.853 440.283 312.283H439.226C439.145 311.969 438.966 311.692 438.689 311.45C438.414 311.205 438.044 311.083 437.578 311.083C437.167 311.083 436.805 311.19 436.495 311.405C436.188 311.617 435.947 311.917 435.774 312.305C435.604 312.69 435.519 313.142 435.519 313.662C435.519 314.193 435.603 314.655 435.77 315.049C435.94 315.443 436.179 315.749 436.486 315.967C436.796 316.185 437.161 316.294 437.578 316.294C437.853 316.294 438.102 316.246 438.326 316.151C438.55 316.055 438.74 315.918 438.895 315.739C439.05 315.56 439.16 315.345 439.226 315.094H440.283C440.223 315.5 440.075 315.866 439.839 316.191C439.607 316.513 439.298 316.77 438.913 316.961C438.531 317.149 438.086 317.243 437.578 317.243Z" fill="#49657B"/>
<path d="M55.4727 268.538C55.4727 266.449 57.166 264.756 59.2549 264.756H69.3409C71.4297 264.756 73.1231 266.449 73.1231 268.538V291.232H55.4727V268.538Z" fill="#49657B"/>
<path d="M89.5131 168.94C89.5131 166.851 91.2064 165.158 93.2953 165.158H103.381C105.47 165.158 107.163 166.851 107.163 168.94V291.232H89.5131V168.94Z" fill="#49657B"/>
<path d="M122.292 208.023C122.292 205.934 123.986 204.24 126.075 204.24H136.161C138.249 204.24 139.943 205.934 139.943 208.023V291.232H122.292V208.023Z" fill="#49657B"/>
<path d="M155.072 88.2521C155.072 86.1632 156.765 84.4698 158.854 84.4698H168.94C171.029 84.4698 172.722 86.1632 172.722 88.2521V291.232H155.072V88.2521Z" fill="#49657B"/>
<path d="M189.112 260.974C189.112 258.885 190.805 257.192 192.894 257.192H202.98C205.069 257.192 206.762 258.885 206.762 260.974V291.232H189.112V260.974Z" fill="#49657B"/>
<path d="M223.152 146.246C223.152 144.158 224.845 142.464 226.934 142.464H237.02C239.109 142.464 240.802 144.158 240.802 146.246V291.232H223.152V146.246Z" fill="#49657B"/>
<path d="M253.41 248.366C253.41 246.278 255.103 244.584 257.192 244.584H267.278C269.367 244.584 271.06 246.278 271.06 248.366V291.232H253.41V248.366Z" fill="#49657B"/>
<path d="M284.928 168.94C284.928 166.851 286.622 165.158 288.711 165.158H298.797C300.885 165.158 302.579 166.851 302.579 168.94V291.232H284.928V168.94Z" fill="#00B8B6"/>
<path d="M299.459 212.662L298.541 212.662C298.453 213.268 298.228 213.795 297.865 214.246C297.495 214.696 297.035 215.012 296.483 215.194L295.989 214.054C296.325 213.913 296.608 213.721 296.836 213.479C297.058 213.237 297.209 212.965 297.29 212.662L295.253 212.662L295.101 213.146C294.913 213.731 294.641 214.172 294.284 214.468C293.921 214.764 293.494 214.912 293.004 214.912C292.6 214.912 292.24 214.817 291.924 214.629C291.608 214.441 291.356 214.179 291.168 213.842C290.973 213.499 290.859 213.106 290.825 212.662L289.927 212.662L289.927 211.805L290.865 211.805C290.959 211.274 291.168 210.813 291.491 210.423C291.813 210.027 292.213 209.744 292.691 209.576L293.195 210.706C292.644 210.921 292.281 211.287 292.106 211.805L294.153 211.805L294.295 211.361C294.678 210.164 295.37 209.566 296.372 209.566C296.769 209.566 297.122 209.66 297.431 209.848C297.741 210.037 297.996 210.299 298.198 210.635C298.393 210.971 298.51 211.361 298.551 211.805L299.459 211.805L299.459 212.662ZM293.861 212.743L293.891 212.662L292.035 212.662C292.076 212.938 292.176 213.157 292.338 213.318C292.499 213.479 292.701 213.56 292.943 213.56C293.151 213.56 293.336 213.493 293.498 213.358C293.652 213.217 293.773 213.012 293.861 212.743ZM295.565 211.704L295.535 211.805L297.351 211.805C297.304 211.536 297.203 211.321 297.048 211.16C296.887 210.998 296.688 210.917 296.453 210.917C296.231 210.917 296.049 210.985 295.908 211.119C295.767 211.247 295.653 211.442 295.565 211.704ZM298.571 206.011C298.571 206.522 298.463 206.976 298.248 207.373C298.033 207.763 297.737 208.069 297.361 208.29C296.984 208.512 296.557 208.623 296.08 208.623C295.838 208.623 295.596 208.6 295.354 208.553C295.111 208.499 294.853 208.401 294.577 208.26C294.301 208.119 293.995 207.921 293.659 207.665L290.936 205.567L290.936 203.933L293.689 206.082C293.676 205.988 293.669 205.887 293.669 205.779C293.669 205.322 293.773 204.915 293.982 204.559C294.19 204.202 294.473 203.923 294.829 203.722C295.185 203.513 295.592 203.409 296.049 203.409C296.534 203.409 296.967 203.52 297.351 203.742C297.727 203.964 298.026 204.273 298.248 204.67C298.463 205.06 298.571 205.507 298.571 206.011ZM297.34 206.011C297.34 205.668 297.223 205.379 296.987 205.144C296.745 204.902 296.439 204.781 296.07 204.781C295.693 204.781 295.391 204.898 295.162 205.134C294.927 205.369 294.809 205.661 294.809 206.011C294.809 206.361 294.927 206.657 295.162 206.899C295.391 207.134 295.693 207.252 296.07 207.252C296.439 207.252 296.745 207.134 296.987 206.899C297.223 206.657 297.34 206.361 297.34 206.011ZM298.571 199.419C298.571 200.011 298.41 200.535 298.087 200.993C297.764 201.443 297.31 201.796 296.725 202.052C296.14 202.3 295.461 202.425 294.688 202.425C293.908 202.425 293.229 202.3 292.651 202.052C292.072 201.796 291.622 201.443 291.299 200.993C290.976 200.542 290.815 200.021 290.815 199.429C290.815 198.824 290.976 198.296 291.299 197.846C291.622 197.389 292.076 197.036 292.661 196.787C293.239 196.531 293.915 196.404 294.688 196.404C295.461 196.404 296.14 196.531 296.725 196.787C297.304 197.036 297.757 197.385 298.087 197.836C298.41 198.286 298.571 198.814 298.571 199.419ZM297.32 199.419C297.32 198.902 297.085 198.498 296.614 198.209C296.144 197.92 295.501 197.775 294.688 197.775C293.874 197.775 293.236 197.923 292.772 198.219C292.301 198.508 292.066 198.912 292.066 199.429C292.066 199.94 292.298 200.34 292.761 200.63C293.225 200.912 293.868 201.053 294.688 201.053C295.501 201.053 296.144 200.909 296.614 200.619C297.085 200.33 297.32 199.93 297.32 199.419ZM298.571 192.278C298.571 192.87 298.41 193.394 298.087 193.852C297.764 194.302 297.31 194.655 296.725 194.911C296.14 195.16 295.461 195.284 294.688 195.284C293.908 195.284 293.229 195.16 292.651 194.911C292.072 194.655 291.622 194.302 291.299 193.852C290.976 193.401 290.815 192.88 290.815 192.288C290.815 191.683 290.976 191.155 291.299 190.705C291.622 190.248 292.076 189.895 292.661 189.646C293.239 189.39 293.915 189.263 294.688 189.263C295.461 189.263 296.14 189.39 296.725 189.646C297.304 189.895 297.757 190.244 298.087 190.695C298.41 191.145 298.571 191.673 298.571 192.278ZM297.32 192.278C297.32 191.761 297.085 191.357 296.614 191.068C296.144 190.779 295.501 190.634 294.688 190.634C293.874 190.634 293.236 190.782 292.772 191.078C292.301 191.367 292.066 191.771 292.066 192.288C292.066 192.799 292.298 193.199 292.761 193.489C293.225 193.771 293.868 193.912 294.688 193.912C295.501 193.912 296.144 193.768 296.614 193.479C297.085 193.189 297.32 192.789 297.32 192.278ZM298.45 187.467L297.038 187.467L297.038 186.136L298.45 186.136L298.45 187.467ZM298.571 181.326C298.571 181.917 298.41 182.442 298.087 182.899C297.764 183.35 297.31 183.703 296.725 183.958C296.14 184.207 295.461 184.331 294.688 184.331C293.908 184.331 293.229 184.207 292.651 183.958C292.072 183.703 291.622 183.35 291.299 182.899C290.976 182.448 290.815 181.927 290.815 181.336C290.815 180.731 290.976 180.203 291.299 179.752C291.622 179.295 292.076 178.942 292.661 178.693C293.239 178.438 293.915 178.31 294.688 178.31C295.461 178.31 296.14 178.438 296.725 178.693C297.304 178.942 297.757 179.292 298.087 179.742C298.41 180.193 298.571 180.72 298.571 181.326ZM297.32 181.326C297.32 180.808 297.085 180.404 296.614 180.115C296.144 179.826 295.501 179.682 294.688 179.682C293.874 179.682 293.236 179.83 292.772 180.125C292.301 180.414 292.066 180.818 292.066 181.336C292.066 181.847 292.298 182.247 292.761 182.536C293.225 182.818 293.868 182.96 294.688 182.96C295.501 182.96 296.144 182.815 296.614 182.526C297.085 182.237 297.32 181.837 297.32 181.326ZM298.571 174.185C298.571 174.776 298.41 175.301 298.087 175.758C297.764 176.209 297.31 176.562 296.725 176.817C296.14 177.066 295.461 177.19 294.688 177.19C293.908 177.19 293.229 177.066 292.651 176.817C292.072 176.562 291.622 176.209 291.299 175.758C290.976 175.308 290.815 174.786 290.815 174.195C290.815 173.59 290.976 173.062 291.299 172.611C291.622 172.154 292.076 171.801 292.661 171.552C293.239 171.297 293.915 171.169 294.688 171.169C295.461 171.169 296.14 171.297 296.725 171.552C297.304 171.801 297.757 172.151 298.087 172.601C298.41 173.052 298.571 173.579 298.571 174.185ZM297.32 174.185C297.32 173.667 297.085 173.263 296.614 172.974C296.144 172.685 295.501 172.541 294.688 172.541C293.874 172.541 293.236 172.689 292.772 172.984C292.301 173.274 292.066 173.677 292.066 174.195C292.066 174.706 292.298 175.106 292.761 175.395C293.225 175.677 293.868 175.819 294.688 175.819C295.501 175.819 296.144 175.674 296.614 175.385C297.085 175.096 297.32 174.696 297.32 174.185Z" fill="white"/>
</svg>
