<svg width="570" height="322" viewBox="0 0 570 322" fill="none" xmlns="http://www.w3.org/2000/svg">
<rect opacity="0.2" x="0.769915" y="0.769915" width="568.197" height="320.285" rx="25.4072" stroke="#49657B" stroke-opacity="0.5" stroke-width="1.53983"/>
<path d="M43.0763 271.426H544.48" stroke="#EDEDED" stroke-width="1.43586" stroke-linecap="round" stroke-linejoin="round"/>
<path d="M79.6728 264.523L79.6728 172.133" stroke="#B4009D" stroke-width="12.4946" stroke-linecap="square" stroke-linejoin="round"/>
<path d="M67.3542 264.523L67.3542 179.832" stroke="#00B8B6" stroke-width="12.4946" stroke-linecap="square" stroke-linejoin="round"/>
<path d="M123.228 264.523L123.228 172.133" stroke="#B4009D" stroke-width="12.4946" stroke-linecap="square" stroke-linejoin="round"/>
<path d="M110.909 264.523L110.909 179.832" stroke="#00B8B6" stroke-width="12.4946" stroke-linecap="square" stroke-linejoin="round"/>
<path d="M166.783 264.523L166.783 172.133" stroke="#B4009D" stroke-width="12.4946" stroke-linecap="square" stroke-linejoin="round"/>
<path d="M154.465 264.523L154.465 179.832" stroke="#00B8B6" stroke-width="12.4946" stroke-linecap="square" stroke-linejoin="round"/>
<path d="M210.338 264.523L210.338 172.133" stroke="#B4009D" stroke-width="12.4946" stroke-linecap="square" stroke-linejoin="round"/>
<path d="M198.02 264.523L198.02 179.832" stroke="#00B8B6" stroke-width="12.4946" stroke-linecap="square" stroke-linejoin="round"/>
<path d="M253.894 264.523L253.894 172.133" stroke="#B4009D" stroke-width="12.4946" stroke-linecap="square" stroke-linejoin="round"/>
<path d="M241.575 264.523L241.575 179.832" stroke="#00B8B6" stroke-width="12.4946" stroke-linecap="square" stroke-linejoin="round"/>
<path d="M297.449 264.523L297.449 172.133" stroke="#B4009D" stroke-width="12.4946" stroke-linecap="square" stroke-linejoin="round"/>
<path d="M285.13 264.523L285.13 179.832" stroke="#00B8B6" stroke-width="12.4946" stroke-linecap="square" stroke-linejoin="round"/>
<path d="M341.004 264.523L341.004 172.133" stroke="#B4009D" stroke-width="12.4946" stroke-linecap="square" stroke-linejoin="round"/>
<path d="M328.685 264.523L328.685 179.832" stroke="#00B8B6" stroke-width="12.4946" stroke-linecap="square" stroke-linejoin="round"/>
<path d="M384.559 264.523L384.559 172.133" stroke="#B4009D" stroke-width="12.4946" stroke-linecap="square" stroke-linejoin="round"/>
<path d="M372.24 264.523L372.24 179.832" stroke="#00B8B6" stroke-width="12.4946" stroke-linecap="square" stroke-linejoin="round"/>
<path d="M428.114 264.523L428.114 172.133" stroke="#B4009D" stroke-width="12.4946" stroke-linecap="square" stroke-linejoin="round"/>
<path d="M415.796 264.523L415.796 179.832" stroke="#00B8B6" stroke-width="12.4946" stroke-linecap="square" stroke-linejoin="round"/>
<path d="M471.669 264.523L471.669 172.133" stroke="#B4009D" stroke-width="12.4946" stroke-linecap="square" stroke-linejoin="round"/>
<path d="M459.351 264.523L459.351 179.832" stroke="#00B8B6" stroke-width="12.4946" stroke-linecap="square" stroke-linejoin="round"/>
<path d="M515.224 264.523L515.224 172.133" stroke="#B4009D" stroke-width="12.4946" stroke-linecap="square" stroke-linejoin="round"/>
<path d="M502.906 264.523L502.906 179.832" stroke="#00B8B6" stroke-width="12.4946" stroke-linecap="square" stroke-linejoin="round"/>
<path d="M27.5981 243.407C27.0149 243.407 26.4929 243.298 26.0321 243.079C25.5713 242.857 25.2053 242.554 24.9341 242.169C24.6658 241.784 24.5229 241.344 24.5054 240.848H26.0802C26.1094 241.216 26.2683 241.516 26.557 241.749C26.8457 241.98 27.1928 242.095 27.5981 242.095C27.916 242.095 28.1989 242.022 28.4468 241.876C28.6947 241.73 28.8901 241.528 29.033 241.268C29.1759 241.008 29.2459 240.712 29.243 240.38C29.2459 240.042 29.1744 239.741 29.0286 239.479C28.8828 239.216 28.683 239.011 28.4293 238.862C28.1756 238.71 27.8839 238.635 27.5544 238.635C27.2861 238.632 27.0222 238.681 26.7626 238.783C26.5031 238.885 26.2975 239.02 26.1458 239.186L24.6803 238.945L25.1484 234.326H30.3453V235.682H26.4914L26.2333 238.057H26.2858C26.452 237.862 26.6868 237.7 26.9901 237.572C27.2934 237.44 27.6259 237.375 27.9875 237.375C28.5299 237.375 29.014 237.503 29.4398 237.76C29.8656 238.013 30.201 238.363 30.446 238.81C30.6909 239.256 30.8134 239.766 30.8134 240.341C30.8134 240.933 30.6763 241.46 30.4022 241.924C30.131 242.385 29.7533 242.748 29.2692 243.013C28.788 243.276 28.231 243.407 27.5981 243.407ZM35.5904 243.455C34.87 243.455 34.2518 243.273 33.7356 242.908C33.2223 242.541 32.8272 242.012 32.5501 241.321C32.276 240.626 32.1389 239.791 32.1389 238.814C32.1418 237.837 32.2803 237.006 32.5545 236.32C32.8315 235.632 33.2267 235.107 33.74 234.746C34.2562 234.384 34.873 234.203 35.5904 234.203C36.3078 234.203 36.9246 234.384 37.4408 234.746C37.957 235.107 38.3522 235.632 38.6263 236.32C38.9034 237.009 39.0419 237.84 39.0419 238.814C39.0419 239.794 38.9034 240.631 38.6263 241.325C38.3522 242.016 37.957 242.544 37.4408 242.908C36.9275 243.273 36.3107 243.455 35.5904 243.455ZM35.5904 242.086C36.1503 242.086 36.5922 241.81 36.9159 241.259C37.2425 240.705 37.4058 239.89 37.4058 238.814C37.4058 238.102 37.3314 237.504 37.1827 237.02C37.034 236.536 36.824 236.172 36.5528 235.927C36.2816 235.679 35.9608 235.555 35.5904 235.555C35.0334 235.555 34.593 235.832 34.2693 236.386C33.9456 236.937 33.7823 237.747 33.7793 238.814C33.7764 239.528 33.8479 240.129 33.9937 240.616C34.1424 241.103 34.3524 241.471 34.6236 241.719C34.8948 241.964 35.2171 242.086 35.5904 242.086Z" fill="#49657B"/>
<path d="M32.4745 290.31C31.7542 290.31 31.1359 290.127 30.6197 289.763C30.1065 289.395 29.7113 288.866 29.4343 288.175C29.1601 287.481 29.023 286.645 29.023 285.668C29.026 284.691 29.1645 283.86 29.4386 283.175C29.7157 282.487 30.1108 281.962 30.6241 281.6C31.1403 281.238 31.7571 281.058 32.4745 281.058C33.192 281.058 33.8088 281.238 34.325 281.6C34.8412 281.962 35.2363 282.487 35.5105 283.175C35.7875 283.863 35.926 284.694 35.926 285.668C35.926 286.648 35.7875 287.485 35.5105 288.179C35.2363 288.871 34.8412 289.398 34.325 289.763C33.8117 290.127 33.1949 290.31 32.4745 290.31ZM32.4745 288.941C33.0345 288.941 33.4763 288.665 33.8 288.114C34.1267 287.56 34.29 286.745 34.29 285.668C34.29 284.957 34.2156 284.359 34.0669 283.875C33.9181 283.391 33.7082 283.026 33.4369 282.781C33.1657 282.533 32.8449 282.409 32.4745 282.409C31.9175 282.409 31.4772 282.686 31.1534 283.241C30.8297 283.792 30.6664 284.601 30.6635 285.668C30.6606 286.383 30.732 286.984 30.8778 287.471C31.0266 287.958 31.2366 288.325 31.5078 288.573C31.779 288.818 32.1012 288.941 32.4745 288.941Z" fill="#49657B"/>
<path d="M21.6284 198.404V207.363H20.0054V199.983H19.9529L17.8576 201.321V199.834L20.0842 198.404H21.6284ZM27.2146 207.533C26.4943 207.533 25.876 207.351 25.3599 206.986C24.8466 206.619 24.4514 206.09 24.1744 205.398C23.9002 204.704 23.7632 203.869 23.7632 202.892C23.7661 201.915 23.9046 201.084 24.1787 200.398C24.4558 199.71 24.8509 199.185 25.3642 198.823C25.8804 198.462 26.4972 198.281 27.2146 198.281C27.9321 198.281 28.5489 198.462 29.0651 198.823C29.5813 199.185 29.9764 199.71 30.2506 200.398C30.5276 201.087 30.6661 201.918 30.6661 202.892C30.6661 203.872 30.5276 204.709 30.2506 205.403C29.9764 206.094 29.5813 206.622 29.0651 206.986C28.5518 207.351 27.935 207.533 27.2146 207.533ZM27.2146 206.164C27.7746 206.164 28.2164 205.888 28.5401 205.337C28.8668 204.783 29.0301 203.968 29.0301 202.892C29.0301 202.18 28.9557 201.582 28.807 201.098C28.6582 200.614 28.4483 200.25 28.177 200.005C27.9058 199.757 27.585 199.633 27.2146 199.633C26.6576 199.633 26.2173 199.91 25.8935 200.464C25.5698 201.015 25.4065 201.824 25.4036 202.892C25.4007 203.606 25.4721 204.207 25.6179 204.694C25.7667 205.181 25.9767 205.549 26.2479 205.796C26.5191 206.041 26.8414 206.164 27.2146 206.164ZM35.4311 207.533C34.7107 207.533 34.0925 207.351 33.5763 206.986C33.063 206.619 32.6678 206.09 32.3908 205.398C32.1167 204.704 31.9796 203.869 31.9796 202.892C31.9825 201.915 32.121 201.084 32.3952 200.398C32.6722 199.71 33.0674 199.185 33.5807 198.823C34.0969 198.462 34.7137 198.281 35.4311 198.281C36.1485 198.281 36.7653 198.462 37.2815 198.823C37.7977 199.185 38.1929 199.71 38.467 200.398C38.744 201.087 38.8826 201.918 38.8826 202.892C38.8826 203.872 38.744 204.709 38.467 205.403C38.1929 206.094 37.7977 206.622 37.2815 206.986C36.7682 207.351 36.1514 207.533 35.4311 207.533ZM35.4311 206.164C35.991 206.164 36.4328 205.888 36.7566 205.337C37.0832 204.783 37.2465 203.968 37.2465 202.892C37.2465 202.18 37.1721 201.582 37.0234 201.098C36.8747 200.614 36.6647 200.25 36.3935 200.005C36.1223 199.757 35.8015 199.633 35.4311 199.633C34.8741 199.633 34.4337 199.91 34.11 200.464C33.7863 201.015 33.6229 201.824 33.62 202.892C33.6171 203.606 33.6886 204.207 33.8344 204.694C33.9831 205.181 34.1931 205.549 34.4643 205.796C34.7355 206.041 35.0578 206.164 35.4311 206.164Z" fill="#49657B"/>
<path d="M21.0494 160.92V169.879H19.4265V162.499H19.374L17.2786 163.838V162.35L19.5052 160.92H21.0494ZM26.4388 170.001C25.8556 170.001 25.3335 169.892 24.8728 169.673C24.412 169.452 24.046 169.148 23.7748 168.763C23.5065 168.378 23.3636 167.938 23.3461 167.442H24.9209C24.95 167.81 25.109 168.11 25.3977 168.343C25.6864 168.574 26.0335 168.689 26.4388 168.689C26.7567 168.689 27.0396 168.616 27.2875 168.47C27.5354 168.324 27.7308 168.122 27.8737 167.862C28.0166 167.603 28.0866 167.307 28.0837 166.974C28.0866 166.636 28.0151 166.335 27.8693 166.073C27.7235 165.81 27.5237 165.605 27.27 165.456C27.0163 165.304 26.7246 165.229 26.3951 165.229C26.1268 165.226 25.8629 165.275 25.6033 165.377C25.3438 165.479 25.1381 165.614 24.9865 165.78L23.521 165.539L23.9891 160.92H29.186V162.276H25.3321L25.074 164.651H25.1265C25.2927 164.456 25.5275 164.294 25.8308 164.166C26.1341 164.034 26.4665 163.969 26.8282 163.969C27.3706 163.969 27.8547 164.097 28.2805 164.354C28.7063 164.607 29.0417 164.957 29.2866 165.404C29.5316 165.85 29.6541 166.36 29.6541 166.935C29.6541 167.527 29.517 168.055 29.2429 168.518C28.9717 168.979 28.594 169.342 28.1099 169.608C27.6287 169.87 27.0717 170.001 26.4388 170.001ZM34.4311 170.049C33.7107 170.049 33.0925 169.867 32.5763 169.503C32.063 169.135 31.6678 168.606 31.3908 167.915C31.1167 167.221 30.9796 166.385 30.9796 165.408C30.9825 164.431 31.121 163.6 31.3952 162.915C31.6722 162.226 32.0674 161.701 32.5807 161.34C33.0969 160.978 33.7137 160.797 34.4311 160.797C35.1485 160.797 35.7653 160.978 36.2815 161.34C36.7977 161.701 37.1929 162.226 37.467 162.915C37.744 163.603 37.8826 164.434 37.8826 165.408C37.8826 166.388 37.744 167.225 37.467 167.919C37.1929 168.61 36.7977 169.138 36.2815 169.503C35.7682 169.867 35.1514 170.049 34.4311 170.049ZM34.4311 168.68C34.991 168.68 35.4328 168.405 35.7566 167.853C36.0832 167.299 36.2465 166.484 36.2465 165.408C36.2465 164.696 36.1721 164.099 36.0234 163.614C35.8747 163.13 35.6647 162.766 35.3935 162.521C35.1223 162.273 34.8015 162.149 34.4311 162.149C33.8741 162.149 33.4337 162.426 33.11 162.98C32.7863 163.531 32.6229 164.341 32.62 165.408C32.6171 166.123 32.6886 166.723 32.8344 167.21C32.9831 167.697 33.1931 168.065 33.4643 168.313C33.7355 168.558 34.0578 168.68 34.4311 168.68Z" fill="#49657B"/>
<path d="M16.7123 133.957V132.784L19.8226 129.735C20.12 129.435 20.3679 129.168 20.5662 128.935C20.7645 128.701 20.9133 128.475 21.0124 128.257C21.1116 128.038 21.1612 127.805 21.1612 127.557C21.1612 127.274 21.097 127.032 20.9687 126.831C20.8404 126.626 20.6639 126.469 20.4394 126.358C20.2148 126.247 19.9596 126.192 19.6738 126.192C19.3793 126.192 19.1212 126.253 18.8995 126.376C18.6779 126.495 18.5058 126.666 18.3833 126.887C18.2638 127.109 18.204 127.373 18.204 127.679H16.6598C16.6598 127.111 16.7896 126.616 17.0491 126.196C17.3087 125.776 17.6659 125.451 18.1209 125.221C18.5787 124.99 19.1037 124.875 19.6957 124.875C20.2965 124.875 20.8243 124.987 21.2793 125.212C21.7342 125.437 22.0871 125.744 22.3379 126.135C22.5916 126.526 22.7185 126.972 22.7185 127.474C22.7185 127.809 22.6543 128.139 22.526 128.462C22.3977 128.786 22.1717 129.145 21.848 129.538C21.5272 129.932 21.0766 130.409 20.4962 130.969L18.952 132.539V132.601H22.8541V133.957H16.7123ZM27.6748 134.127C26.9545 134.127 26.3362 133.945 25.82 133.58C25.3067 133.213 24.9116 132.684 24.6345 131.993C24.3604 131.298 24.2233 130.463 24.2233 129.486C24.2262 128.509 24.3648 127.678 24.6389 126.992C24.916 126.304 25.3111 125.779 25.8244 125.418C26.3406 125.056 26.9574 124.875 27.6748 124.875C28.3922 124.875 29.009 125.056 29.5252 125.418C30.0414 125.779 30.4366 126.304 30.7107 126.992C30.9878 127.681 31.1263 128.512 31.1263 129.486C31.1263 130.466 30.9878 131.303 30.7107 131.997C30.4366 132.688 30.0414 133.216 29.5252 133.58C29.012 133.945 28.3952 134.127 27.6748 134.127ZM27.6748 132.758C28.2348 132.758 28.6766 132.482 29.0003 131.931C29.3269 131.377 29.4902 130.562 29.4902 129.486C29.4902 128.774 29.4159 128.176 29.2671 127.692C29.1184 127.208 28.9084 126.844 28.6372 126.599C28.366 126.351 28.0452 126.227 27.6748 126.227C27.1178 126.227 26.6774 126.504 26.3537 127.058C26.03 127.609 25.8667 128.419 25.8638 129.486C25.8609 130.2 25.9323 130.801 26.0781 131.288C26.2269 131.775 26.4368 132.143 26.7081 132.391C26.9793 132.636 27.3015 132.758 27.6748 132.758ZM35.8913 134.127C35.1709 134.127 34.5526 133.945 34.0365 133.58C33.5232 133.213 33.128 132.684 32.851 131.993C32.5768 131.298 32.4398 130.463 32.4398 129.486C32.4427 128.509 32.5812 127.678 32.8553 126.992C33.1324 126.304 33.5276 125.779 34.0408 125.418C34.557 125.056 35.1738 124.875 35.8913 124.875C36.6087 124.875 37.2255 125.056 37.7417 125.418C38.2579 125.779 38.653 126.304 38.9272 126.992C39.2042 127.681 39.3427 128.512 39.3427 129.486C39.3427 130.466 39.2042 131.303 38.9272 131.997C38.653 132.688 38.2579 133.216 37.7417 133.58C37.2284 133.945 36.6116 134.127 35.8913 134.127ZM35.8913 132.758C36.4512 132.758 36.893 132.482 37.2167 131.931C37.5434 131.377 37.7067 130.562 37.7067 129.486C37.7067 128.774 37.6323 128.176 37.4836 127.692C37.3348 127.208 37.1249 126.844 36.8536 126.599C36.5824 126.351 36.2616 126.227 35.8913 126.227C35.3342 126.227 34.8939 126.504 34.5701 127.058C34.2464 127.609 34.0831 128.419 34.0802 129.486C34.0773 130.2 34.1487 130.801 34.2946 131.288C34.4433 131.775 34.6533 132.143 34.9245 132.391C35.1957 132.636 35.518 132.758 35.8913 132.758Z" fill="#49657B"/>
<path d="M43.1788 271.482H544.582" stroke="#EDEDED" stroke-width="1.43586" stroke-linecap="round" stroke-linejoin="round"/>
<path opacity="0.3" d="M43.1788 239.094H539.84" stroke="#49657B" stroke-opacity="0.5" stroke-width="1.53983" stroke-linecap="round" stroke-linejoin="round"/>
<path opacity="0.3" d="M43.1788 203.172H539.84" stroke="#49657B" stroke-opacity="0.5" stroke-width="1.53983" stroke-linecap="round" stroke-linejoin="round"/>
<path opacity="0.3" d="M43.1788 167.25H539.84" stroke="#49657B" stroke-opacity="0.5" stroke-width="1.53983" stroke-linecap="round" stroke-linejoin="round"/>
<path opacity="0.3" d="M43.1788 131.328H539.84" stroke="#49657B" stroke-opacity="0.5" stroke-width="1.53983" stroke-linecap="round" stroke-linejoin="round"/>
<path d="M66.4022 281.835H68.035V288.224C68.032 288.81 67.9078 289.314 67.6623 289.737C67.4168 290.157 67.0737 290.481 66.6329 290.709C66.1951 290.934 65.6849 291.046 65.1021 291.046C64.5697 291.046 64.0905 290.951 63.6646 290.762C63.2416 290.57 62.9058 290.286 62.6574 289.91C62.4089 289.534 62.2846 289.067 62.2846 288.508H63.9219C63.9249 288.754 63.9781 288.965 64.0816 289.143C64.1881 289.32 64.3345 289.456 64.5209 289.551C64.7072 289.645 64.9217 289.693 65.1643 289.693C65.4275 289.693 65.6509 289.638 65.8342 289.529C66.0176 289.416 66.1567 289.25 66.2513 289.032C66.3489 288.813 66.3992 288.544 66.4022 288.224V281.835ZM71.7111 291.059C71.2792 291.059 70.8902 290.982 70.5441 290.829C70.201 290.672 69.9289 290.441 69.7277 290.136C69.5295 289.832 69.4304 289.456 69.4304 289.009C69.4304 288.625 69.5014 288.307 69.6434 288.055C69.7854 287.804 69.9792 287.603 70.2247 287.452C70.4702 287.301 70.7468 287.187 71.0544 287.11C71.365 287.03 71.6859 286.973 72.0172 286.937C72.4165 286.896 72.7405 286.859 72.9889 286.826C73.2374 286.791 73.4178 286.738 73.5302 286.667C73.6456 286.593 73.7033 286.479 73.7033 286.325V286.298C73.7033 285.964 73.6042 285.705 73.406 285.522C73.2078 285.339 72.9224 285.247 72.5497 285.247C72.1562 285.247 71.8442 285.333 71.6135 285.504C71.3857 285.676 71.2319 285.878 71.152 286.112L69.6523 285.899C69.7706 285.485 69.9658 285.139 70.238 284.861C70.5101 284.58 70.8429 284.37 71.2363 284.231C71.6297 284.089 72.0645 284.018 72.5408 284.018C72.8691 284.018 73.196 284.056 73.5214 284.133C73.8467 284.21 74.144 284.337 74.4132 284.515C74.6824 284.689 74.8983 284.927 75.061 285.229C75.2267 285.531 75.3095 285.908 75.3095 286.361V290.922H73.7654V289.986H73.7122C73.6145 290.175 73.477 290.352 73.2995 290.518C73.125 290.681 72.9046 290.812 72.6384 290.913C72.3751 291.01 72.066 291.059 71.7111 291.059ZM72.1281 289.879C72.4506 289.879 72.7301 289.815 72.9667 289.688C73.2034 289.558 73.3853 289.387 73.5125 289.174C73.6426 288.961 73.7077 288.728 73.7077 288.477V287.674C73.6574 287.715 73.5717 287.754 73.4504 287.789C73.3321 287.825 73.1989 287.856 73.051 287.882C72.9031 287.909 72.7567 287.933 72.6118 287.953C72.4668 287.974 72.3411 287.992 72.2346 288.007C71.995 288.039 71.7806 288.092 71.5913 288.166C71.402 288.24 71.2526 288.344 71.1431 288.477C71.0337 288.607 70.979 288.776 70.979 288.983C70.979 289.279 71.0869 289.502 71.3029 289.653C71.5188 289.804 71.7939 289.879 72.1281 289.879ZM78.5307 286.928V290.922H76.9245V284.107H78.4598V285.265H78.5396C78.6964 284.883 78.9463 284.58 79.2895 284.355C79.6356 284.13 80.063 284.018 80.5718 284.018C81.0421 284.018 81.4518 284.118 81.8008 284.319C82.1528 284.521 82.425 284.812 82.6172 285.194C82.8125 285.575 82.9086 286.038 82.9056 286.582V290.922H81.2994V286.831C81.2994 286.375 81.1811 286.019 80.9445 285.762C80.7108 285.504 80.3869 285.375 79.9728 285.375C79.6918 285.375 79.4418 285.438 79.2229 285.562C79.007 285.683 78.8369 285.859 78.7127 286.09C78.5914 286.321 78.5307 286.6 78.5307 286.928Z" fill="#1D242C"/>
<path d="M104.986 290.922V281.835H110.808V283.215H106.633V285.682H110.408V287.062H106.633V290.922H104.986ZM114.753 291.055C114.07 291.055 113.48 290.913 112.983 290.629C112.489 290.342 112.109 289.937 111.843 289.413C111.576 288.887 111.443 288.267 111.443 287.554C111.443 286.853 111.576 286.238 111.843 285.708C112.112 285.176 112.488 284.762 112.97 284.466C113.452 284.167 114.018 284.018 114.669 284.018C115.089 284.018 115.485 284.086 115.858 284.222C116.234 284.355 116.565 284.562 116.852 284.843C117.142 285.124 117.37 285.482 117.535 285.917C117.701 286.349 117.784 286.863 117.784 287.461V287.953H112.198V286.871H116.244C116.241 286.563 116.175 286.29 116.045 286.05C115.914 285.807 115.732 285.617 115.499 285.478C115.268 285.339 114.999 285.269 114.691 285.269C114.363 285.269 114.075 285.349 113.826 285.509C113.578 285.665 113.384 285.872 113.245 286.13C113.109 286.384 113.039 286.664 113.036 286.968V287.913C113.036 288.31 113.109 288.65 113.254 288.934C113.399 289.215 113.601 289.431 113.862 289.582C114.122 289.73 114.427 289.804 114.776 289.804C115.009 289.804 115.221 289.771 115.41 289.706C115.599 289.638 115.764 289.539 115.903 289.409C116.042 289.279 116.147 289.117 116.218 288.925L117.717 289.094C117.623 289.49 117.442 289.836 117.176 290.132C116.913 290.425 116.576 290.653 116.164 290.815C115.753 290.975 115.283 291.055 114.753 291.055ZM119.214 290.922V281.835H120.82V285.234H120.886C120.969 285.068 121.086 284.892 121.237 284.706C121.388 284.516 121.592 284.355 121.849 284.222C122.107 284.086 122.435 284.018 122.834 284.018C123.361 284.018 123.836 284.152 124.259 284.422C124.685 284.688 125.022 285.083 125.27 285.606C125.522 286.127 125.647 286.766 125.647 287.523C125.647 288.271 125.525 288.907 125.279 289.431C125.034 289.954 124.699 290.354 124.276 290.629C123.853 290.904 123.374 291.042 122.839 291.042C122.448 291.042 122.124 290.976 121.867 290.846C121.61 290.716 121.403 290.559 121.246 290.376C121.092 290.19 120.972 290.014 120.886 289.848H120.793V290.922H119.214ZM120.789 287.514C120.789 287.955 120.851 288.341 120.975 288.672C121.102 289.003 121.284 289.262 121.521 289.449C121.761 289.632 122.05 289.724 122.391 289.724C122.746 289.724 123.043 289.629 123.282 289.44C123.522 289.248 123.702 288.986 123.824 288.654C123.948 288.32 124.01 287.94 124.01 287.514C124.01 287.091 123.949 286.715 123.828 286.387C123.707 286.059 123.526 285.801 123.287 285.615C123.047 285.429 122.749 285.336 122.391 285.336C122.047 285.336 121.756 285.426 121.516 285.606C121.277 285.787 121.095 286.04 120.971 286.365C120.849 286.69 120.789 287.073 120.789 287.514Z" fill="#1D242C"/>
<path d="M150.279 281.835H152.294L154.991 288.419H155.098L157.796 281.835H159.81V290.922H158.231V284.679H158.146L155.635 290.895H154.455L151.943 284.666H151.859V290.922H150.279V281.835ZM163.493 291.059C163.061 291.059 162.672 290.982 162.326 290.829C161.983 290.672 161.711 290.441 161.509 290.136C161.311 289.832 161.212 289.456 161.212 289.009C161.212 288.625 161.283 288.307 161.425 288.055C161.567 287.804 161.761 287.603 162.006 287.452C162.252 287.301 162.528 287.187 162.836 287.11C163.147 287.03 163.468 286.973 163.799 286.937C164.198 286.896 164.522 286.859 164.771 286.826C165.019 286.791 165.2 286.738 165.312 286.667C165.427 286.593 165.485 286.479 165.485 286.325V286.298C165.485 285.964 165.386 285.705 165.188 285.522C164.99 285.339 164.704 285.247 164.331 285.247C163.938 285.247 163.626 285.333 163.395 285.504C163.167 285.676 163.014 285.878 162.934 286.112L161.434 285.899C161.552 285.485 161.748 285.139 162.02 284.861C162.292 284.58 162.625 284.37 163.018 284.231C163.411 284.089 163.846 284.018 164.323 284.018C164.651 284.018 164.978 284.056 165.303 284.133C165.628 284.21 165.926 284.337 166.195 284.515C166.464 284.689 166.68 284.927 166.843 285.229C167.008 285.531 167.091 285.908 167.091 286.361V290.922H165.547V289.986H165.494C165.396 290.175 165.259 290.352 165.081 290.518C164.907 290.681 164.686 290.812 164.42 290.913C164.157 291.01 163.848 291.059 163.493 291.059ZM163.91 289.879C164.232 289.879 164.512 289.815 164.748 289.688C164.985 289.558 165.167 289.387 165.294 289.174C165.424 288.961 165.489 288.728 165.489 288.477V287.674C165.439 287.715 165.353 287.754 165.232 287.789C165.114 287.825 164.981 287.856 164.833 287.882C164.685 287.909 164.538 287.933 164.394 287.953C164.249 287.974 164.123 287.992 164.016 288.007C163.777 288.039 163.562 288.092 163.373 288.166C163.184 288.24 163.034 288.344 162.925 288.477C162.815 288.607 162.761 288.776 162.761 288.983C162.761 289.279 162.869 289.502 163.085 289.653C163.301 289.804 163.576 289.879 163.91 289.879ZM168.706 290.922V284.107H170.264V285.242H170.335C170.459 284.849 170.672 284.546 170.974 284.333C171.278 284.117 171.626 284.009 172.016 284.009C172.105 284.009 172.204 284.013 172.314 284.022C172.426 284.028 172.519 284.038 172.593 284.053V285.531C172.525 285.507 172.417 285.486 172.269 285.469C172.124 285.448 171.984 285.438 171.848 285.438C171.555 285.438 171.292 285.501 171.058 285.628C170.827 285.753 170.645 285.926 170.512 286.148C170.379 286.369 170.312 286.625 170.312 286.915V290.922H168.706Z" fill="#1D242C"/>
<path d="M196.739 290.922H194.982L198.181 281.835H200.213L203.417 290.922H201.66L199.233 283.698H199.162L196.739 290.922ZM196.797 287.359H201.589V288.681H196.797V287.359ZM204.543 293.477V284.107H206.122V285.234H206.216C206.298 285.068 206.415 284.892 206.566 284.706C206.717 284.516 206.921 284.355 207.178 284.222C207.436 284.086 207.764 284.018 208.163 284.018C208.69 284.018 209.165 284.152 209.588 284.422C210.014 284.688 210.351 285.083 210.599 285.606C210.851 286.127 210.977 286.766 210.977 287.523C210.977 288.271 210.854 288.907 210.608 289.431C210.363 289.954 210.029 290.354 209.606 290.629C209.183 290.904 208.703 291.042 208.168 291.042C207.777 291.042 207.454 290.976 207.196 290.846C206.939 290.716 206.732 290.559 206.575 290.376C206.421 290.19 206.301 290.014 206.216 289.848H206.149V293.477H204.543ZM206.118 287.514C206.118 287.955 206.18 288.341 206.304 288.672C206.432 289.003 206.613 289.262 206.85 289.449C207.09 289.632 207.38 289.724 207.72 289.724C208.075 289.724 208.372 289.629 208.612 289.44C208.851 289.248 209.032 288.986 209.153 288.654C209.277 288.32 209.339 287.94 209.339 287.514C209.339 287.091 209.279 286.715 209.157 286.387C209.036 286.059 208.856 285.801 208.616 285.615C208.376 285.429 208.078 285.336 207.72 285.336C207.377 285.336 207.085 285.426 206.846 285.606C206.606 285.787 206.424 286.04 206.3 286.365C206.179 286.69 206.118 287.073 206.118 287.514ZM212.352 290.922V284.107H213.909V285.242H213.98C214.105 284.849 214.318 284.546 214.619 284.333C214.924 284.117 215.272 284.009 215.662 284.009C215.751 284.009 215.85 284.013 215.959 284.022C216.072 284.028 216.165 284.038 216.239 284.053V285.531C216.171 285.507 216.063 285.486 215.915 285.469C215.77 285.448 215.629 285.438 215.493 285.438C215.201 285.438 214.937 285.501 214.704 285.628C214.473 285.753 214.291 285.926 214.158 286.148C214.025 286.369 213.958 286.625 213.958 286.915V290.922H212.352Z" fill="#1D242C"/>
<path d="M239.304 281.835H241.318L244.016 288.419H244.122L246.82 281.835H248.834V290.922H247.255V284.679H247.17L244.659 290.895H243.479L240.967 284.666H240.883V290.922H239.304V281.835ZM252.517 291.059C252.085 291.059 251.696 290.982 251.35 290.829C251.007 290.672 250.735 290.441 250.534 290.136C250.335 289.832 250.236 289.456 250.236 289.009C250.236 288.625 250.307 288.307 250.449 288.055C250.591 287.804 250.785 287.603 251.031 287.452C251.276 287.301 251.553 287.187 251.86 287.11C252.171 287.03 252.492 286.973 252.823 286.937C253.222 286.896 253.546 286.859 253.795 286.826C254.043 286.791 254.224 286.738 254.336 286.667C254.451 286.593 254.509 286.479 254.509 286.325V286.298C254.509 285.964 254.41 285.705 254.212 285.522C254.014 285.339 253.728 285.247 253.356 285.247C252.962 285.247 252.65 285.333 252.419 285.504C252.192 285.676 252.038 285.878 251.958 286.112L250.458 285.899C250.576 285.485 250.772 285.139 251.044 284.861C251.316 284.58 251.649 284.37 252.042 284.231C252.436 284.089 252.87 284.018 253.347 284.018C253.675 284.018 254.002 284.056 254.327 284.133C254.653 284.21 254.95 284.337 255.219 284.515C255.488 284.689 255.704 284.927 255.867 285.229C256.033 285.531 256.115 285.908 256.115 286.361V290.922H254.571V289.986H254.518C254.42 290.175 254.283 290.352 254.105 290.518C253.931 290.681 253.71 290.812 253.444 290.913C253.181 291.01 252.872 291.059 252.517 291.059ZM252.934 289.879C253.256 289.879 253.536 289.815 253.773 289.688C254.009 289.558 254.191 289.387 254.318 289.174C254.449 288.961 254.514 288.728 254.514 288.477V287.674C254.463 287.715 254.378 287.754 254.256 287.789C254.138 287.825 254.005 287.856 253.857 287.882C253.709 287.909 253.563 287.933 253.418 287.953C253.273 287.974 253.147 287.992 253.041 288.007C252.801 288.039 252.586 288.092 252.397 288.166C252.208 288.24 252.058 288.344 251.949 288.477C251.84 288.607 251.785 288.776 251.785 288.983C251.785 289.279 251.893 289.502 252.109 289.653C252.325 289.804 252.6 289.879 252.934 289.879ZM258.485 293.477C258.266 293.477 258.063 293.46 257.877 293.424C257.693 293.392 257.547 293.353 257.438 293.309L257.81 292.058C258.044 292.126 258.253 292.158 258.436 292.155C258.619 292.152 258.781 292.095 258.92 291.982C259.062 291.873 259.181 291.689 259.279 291.432L259.416 291.064L256.945 284.107H258.649L260.22 289.253H260.291L261.866 284.107H263.574L260.845 291.747C260.718 292.108 260.549 292.417 260.339 292.674C260.129 292.935 259.872 293.133 259.567 293.269C259.266 293.408 258.905 293.477 258.485 293.477Z" fill="#1D242C"/>
<path d="M291.305 281.835H292.938V288.224C292.935 288.81 292.811 289.314 292.565 289.737C292.32 290.157 291.977 290.481 291.536 290.709C291.098 290.934 290.588 291.046 290.005 291.046C289.473 291.046 288.994 290.951 288.568 290.762C288.145 290.57 287.809 290.286 287.56 289.91C287.312 289.534 287.188 289.067 287.188 288.508H288.825C288.828 288.754 288.881 288.965 288.985 289.143C289.091 289.32 289.238 289.456 289.424 289.551C289.61 289.645 289.825 289.693 290.067 289.693C290.331 289.693 290.554 289.638 290.737 289.529C290.921 289.416 291.06 289.25 291.154 289.032C291.252 288.813 291.302 288.544 291.305 288.224V281.835ZM298.997 288.055V284.107H300.603V290.922H299.046V289.71H298.975C298.821 290.092 298.568 290.404 298.216 290.647C297.867 290.889 297.436 291.01 296.925 291.01C296.478 291.01 296.083 290.911 295.74 290.713C295.4 290.512 295.134 290.221 294.941 289.839C294.749 289.455 294.653 288.99 294.653 288.446V284.107H296.259V288.197C296.259 288.629 296.378 288.972 296.614 289.227C296.851 289.481 297.161 289.608 297.546 289.608C297.783 289.608 298.012 289.551 298.234 289.435C298.456 289.32 298.637 289.148 298.779 288.921C298.924 288.69 298.997 288.402 298.997 288.055ZM303.861 286.928V290.922H302.255V284.107H303.79V285.265H303.87C304.027 284.883 304.277 284.58 304.62 284.355C304.966 284.13 305.393 284.018 305.902 284.018C306.372 284.018 306.782 284.118 307.131 284.319C307.483 284.521 307.755 284.812 307.947 285.194C308.143 285.575 308.239 286.038 308.236 286.582V290.922H306.63V286.831C306.63 286.375 306.511 286.019 306.275 285.762C306.041 285.504 305.717 285.375 305.303 285.375C305.022 285.375 304.772 285.438 304.553 285.562C304.337 285.683 304.167 285.859 304.043 286.09C303.922 286.321 303.861 286.6 303.861 286.928Z" fill="#1D242C"/>
<path d="M333.475 281.835H335.107V288.224C335.104 288.81 334.98 289.314 334.735 289.737C334.489 290.157 334.146 290.481 333.705 290.709C333.267 290.934 332.757 291.046 332.174 291.046C331.642 291.046 331.163 290.951 330.737 290.762C330.314 290.57 329.978 290.286 329.73 289.91C329.481 289.534 329.357 289.067 329.357 288.508H330.994C330.997 288.754 331.05 288.965 331.154 289.143C331.26 289.32 331.407 289.456 331.593 289.551C331.78 289.645 331.994 289.693 332.237 289.693C332.5 289.693 332.723 289.638 332.907 289.529C333.09 289.416 333.229 289.25 333.324 289.032C333.421 288.813 333.472 288.544 333.475 288.224V281.835ZM341.166 288.055V284.107H342.772V290.922H341.215V289.71H341.144C340.99 290.092 340.737 290.404 340.385 290.647C340.036 290.889 339.606 291.01 339.094 291.01C338.647 291.01 338.252 290.911 337.909 290.713C337.569 290.512 337.303 290.221 337.111 289.839C336.918 289.455 336.822 288.99 336.822 288.446V284.107H338.428V288.197C338.428 288.629 338.547 288.972 338.783 289.227C339.02 289.481 339.331 289.608 339.715 289.608C339.952 289.608 340.181 289.551 340.403 289.435C340.625 289.32 340.807 289.148 340.949 288.921C341.094 288.69 341.166 288.402 341.166 288.055ZM346.03 281.835V290.922H344.424V281.835H346.03Z" fill="#1D242C"/>
<path d="M368.54 290.922H366.783L369.982 281.835H372.014L375.218 290.922H373.461L371.034 283.698H370.963L368.54 290.922ZM368.598 287.359H373.39V288.681H368.598V287.359ZM380.688 288.055V284.107H382.294V290.922H380.737V289.71H380.666C380.512 290.092 380.259 290.404 379.907 290.647C379.558 290.889 379.127 291.01 378.616 291.01C378.169 291.01 377.774 290.911 377.431 290.713C377.091 290.512 376.825 290.221 376.632 289.839C376.44 289.455 376.344 288.99 376.344 288.446V284.107H377.95V288.197C377.95 288.629 378.068 288.972 378.305 289.227C378.542 289.481 378.852 289.608 379.237 289.608C379.473 289.608 379.703 289.551 379.925 289.435C380.146 289.32 380.328 289.148 380.47 288.921C380.615 288.69 380.688 288.402 380.688 288.055ZM386.91 293.619C386.333 293.619 385.837 293.541 385.423 293.384C385.009 293.23 384.676 293.023 384.425 292.763C384.173 292.503 383.999 292.214 383.901 291.898L385.348 291.547C385.413 291.68 385.507 291.812 385.632 291.942C385.756 292.075 385.923 292.185 386.133 292.271C386.346 292.359 386.614 292.404 386.936 292.404C387.392 292.404 387.769 292.293 388.068 292.071C388.366 291.852 388.516 291.491 388.516 290.988V289.697H388.436C388.353 289.863 388.232 290.033 388.072 290.207C387.915 290.382 387.707 290.528 387.446 290.647C387.189 290.765 386.865 290.824 386.475 290.824C385.951 290.824 385.476 290.701 385.05 290.456C384.627 290.207 384.29 289.838 384.039 289.347C383.79 288.853 383.666 288.234 383.666 287.492C383.666 286.744 383.79 286.112 384.039 285.597C384.29 285.08 384.629 284.688 385.055 284.422C385.481 284.152 385.956 284.018 386.479 284.018C386.878 284.018 387.207 284.086 387.464 284.222C387.724 284.355 387.931 284.516 388.085 284.706C388.239 284.892 388.356 285.068 388.436 285.234H388.525V284.107H390.109V291.033C390.109 291.615 389.97 292.098 389.692 292.479C389.413 292.861 389.033 293.146 388.551 293.335C388.069 293.525 387.522 293.619 386.91 293.619ZM386.923 289.564C387.263 289.564 387.553 289.481 387.792 289.316C388.032 289.15 388.214 288.912 388.338 288.601C388.462 288.291 388.525 287.918 388.525 287.483C388.525 287.054 388.462 286.678 388.338 286.356C388.217 286.034 388.037 285.784 387.797 285.606C387.56 285.426 387.269 285.336 386.923 285.336C386.565 285.336 386.266 285.429 386.027 285.615C385.787 285.801 385.607 286.057 385.485 286.383C385.364 286.705 385.303 287.072 385.303 287.483C385.303 287.9 385.364 288.265 385.485 288.579C385.609 288.89 385.791 289.132 386.031 289.307C386.274 289.478 386.571 289.564 386.923 289.564Z" fill="#1D242C"/>
<path d="M419.166 284.333C419.125 283.945 418.951 283.644 418.643 283.428C418.338 283.212 417.942 283.104 417.454 283.104C417.111 283.104 416.816 283.156 416.571 283.259C416.325 283.363 416.137 283.503 416.007 283.681C415.877 283.858 415.811 284.061 415.808 284.288C415.808 284.478 415.851 284.642 415.936 284.781C416.025 284.92 416.145 285.038 416.296 285.136C416.447 285.231 416.614 285.31 416.797 285.375C416.98 285.441 417.165 285.495 417.352 285.54L418.204 285.753C418.547 285.833 418.877 285.94 419.193 286.077C419.513 286.213 419.798 286.384 420.049 286.591C420.304 286.798 420.505 287.048 420.653 287.341C420.801 287.634 420.875 287.977 420.875 288.37C420.875 288.903 420.739 289.372 420.466 289.777C420.194 290.179 419.801 290.494 419.286 290.722C418.775 290.947 418.155 291.059 417.427 291.059C416.72 291.059 416.106 290.95 415.586 290.731C415.068 290.512 414.663 290.193 414.37 289.773C414.08 289.353 413.923 288.841 413.9 288.237H415.519C415.543 288.554 415.641 288.817 415.812 289.027C415.984 289.237 416.207 289.394 416.482 289.497C416.76 289.601 417.071 289.653 417.414 289.653C417.772 289.653 418.085 289.6 418.354 289.493C418.627 289.384 418.84 289.233 418.993 289.04C419.147 288.845 419.226 288.617 419.229 288.357C419.226 288.121 419.156 287.925 419.02 287.771C418.884 287.615 418.693 287.485 418.448 287.381C418.205 287.275 417.921 287.18 417.596 287.097L416.562 286.831C415.814 286.639 415.222 286.347 414.787 285.957C414.355 285.563 414.139 285.041 414.139 284.39C414.139 283.855 414.284 283.386 414.574 282.984C414.867 282.582 415.265 282.27 415.768 282.048C416.271 281.823 416.84 281.711 417.476 281.711C418.121 281.711 418.686 281.823 419.171 282.048C419.659 282.27 420.042 282.579 420.32 282.975C420.598 283.368 420.742 283.821 420.75 284.333H419.166ZM425.288 291.055C424.605 291.055 424.015 290.913 423.518 290.629C423.024 290.342 422.644 289.937 422.378 289.413C422.112 288.887 421.978 288.267 421.978 287.554C421.978 286.853 422.112 286.238 422.378 285.708C422.647 285.176 423.023 284.762 423.505 284.466C423.987 284.167 424.553 284.018 425.204 284.018C425.624 284.018 426.021 284.086 426.393 284.222C426.769 284.355 427.1 284.562 427.387 284.843C427.677 285.124 427.905 285.482 428.07 285.917C428.236 286.349 428.319 286.863 428.319 287.461V287.953H422.733V286.871H426.779C426.776 286.563 426.71 286.29 426.58 286.05C426.449 285.807 426.268 285.617 426.034 285.478C425.803 285.339 425.534 285.269 425.226 285.269C424.898 285.269 424.61 285.349 424.361 285.509C424.113 285.665 423.919 285.872 423.78 286.13C423.644 286.384 423.574 286.664 423.571 286.968V287.913C423.571 288.31 423.644 288.65 423.789 288.934C423.934 289.215 424.136 289.431 424.397 289.582C424.657 289.73 424.962 289.804 425.311 289.804C425.544 289.804 425.756 289.771 425.945 289.706C426.134 289.638 426.299 289.539 426.438 289.409C426.577 289.279 426.682 289.117 426.753 288.925L428.252 289.094C428.158 289.49 427.977 289.836 427.711 290.132C427.448 290.425 427.111 290.653 426.699 290.815C426.288 290.975 425.818 291.055 425.288 291.055ZM429.678 293.477V284.107H431.257V285.234H431.35C431.433 285.068 431.55 284.892 431.701 284.706C431.852 284.516 432.056 284.355 432.313 284.222C432.571 284.086 432.899 284.018 433.298 284.018C433.825 284.018 434.3 284.152 434.723 284.422C435.149 284.688 435.486 285.083 435.734 285.606C435.986 286.127 436.111 286.766 436.111 287.523C436.111 288.271 435.989 288.907 435.743 289.431C435.498 289.954 435.163 290.354 434.74 290.629C434.317 290.904 433.838 291.042 433.303 291.042C432.912 291.042 432.588 290.976 432.331 290.846C432.074 290.716 431.867 290.559 431.71 290.376C431.556 290.19 431.436 290.014 431.35 289.848H431.284V293.477H429.678ZM431.253 287.514C431.253 287.955 431.315 288.341 431.439 288.672C431.566 289.003 431.748 289.262 431.985 289.449C432.225 289.632 432.514 289.724 432.855 289.724C433.21 289.724 433.507 289.629 433.746 289.44C433.986 289.248 434.166 288.986 434.288 288.654C434.412 288.32 434.474 287.94 434.474 287.514C434.474 287.091 434.413 286.715 434.292 286.387C434.171 286.059 433.99 285.801 433.751 285.615C433.511 285.429 433.213 285.336 432.855 285.336C432.511 285.336 432.22 285.426 431.981 285.606C431.741 285.787 431.559 286.04 431.435 286.365C431.314 286.69 431.253 287.073 431.253 287.514Z" fill="#1D242C"/>
<path d="M469.203 286.378C469.203 287.357 469.019 288.196 468.653 288.894C468.289 289.589 467.792 290.122 467.162 290.491C466.535 290.861 465.823 291.046 465.027 291.046C464.232 291.046 463.519 290.861 462.889 290.491C462.262 290.119 461.765 289.585 461.398 288.89C461.034 288.192 460.852 287.354 460.852 286.378C460.852 285.399 461.034 284.562 461.398 283.867C461.765 283.169 462.262 282.635 462.889 282.265C463.519 281.895 464.232 281.711 465.027 281.711C465.823 281.711 466.535 281.895 467.162 282.265C467.792 282.635 468.289 283.169 468.653 283.867C469.019 284.562 469.203 285.399 469.203 286.378ZM467.548 286.378C467.548 285.689 467.44 285.108 467.224 284.635C467.011 284.158 466.715 283.799 466.336 283.556C465.958 283.311 465.521 283.188 465.027 283.188C464.533 283.188 464.097 283.311 463.719 283.556C463.34 283.799 463.043 284.158 462.827 284.635C462.614 285.108 462.507 285.689 462.507 286.378C462.507 287.067 462.614 287.65 462.827 288.126C463.043 288.6 463.34 288.959 463.719 289.205C464.097 289.447 464.533 289.568 465.027 289.568C465.521 289.568 465.958 289.447 466.336 289.205C466.715 288.959 467.011 288.6 467.224 288.126C467.44 287.65 467.548 287.067 467.548 286.378ZM473.661 291.055C472.98 291.055 472.396 290.905 471.908 290.607C471.423 290.308 471.049 289.895 470.786 289.369C470.525 288.839 470.395 288.23 470.395 287.541C470.395 286.849 470.528 286.238 470.794 285.708C471.061 285.176 471.436 284.762 471.921 284.466C472.41 284.167 472.986 284.018 473.652 284.018C474.205 284.018 474.695 284.12 475.121 284.324C475.549 284.525 475.891 284.811 476.146 285.18C476.4 285.547 476.545 285.976 476.58 286.467H475.045C474.983 286.139 474.835 285.865 474.601 285.646C474.371 285.424 474.062 285.313 473.674 285.313C473.346 285.313 473.057 285.402 472.809 285.58C472.56 285.754 472.367 286.006 472.228 286.334C472.092 286.662 472.024 287.056 472.024 287.514C472.024 287.979 472.092 288.378 472.228 288.712C472.364 289.043 472.554 289.299 472.8 289.48C473.048 289.657 473.34 289.746 473.674 289.746C473.911 289.746 474.122 289.702 474.309 289.613C474.498 289.521 474.656 289.39 474.783 289.218C474.911 289.046 474.998 288.838 475.045 288.592H476.58C476.542 289.074 476.4 289.502 476.154 289.875C475.909 290.244 475.575 290.534 475.152 290.744C474.729 290.951 474.232 291.055 473.661 291.055ZM481.302 284.107V285.349H477.385V284.107H481.302ZM478.352 282.474H479.958V288.872C479.958 289.088 479.991 289.253 480.056 289.369C480.124 289.481 480.212 289.558 480.322 289.6C480.431 289.641 480.553 289.662 480.686 289.662C480.786 289.662 480.878 289.654 480.961 289.639C481.047 289.625 481.112 289.611 481.156 289.6L481.427 290.855C481.341 290.885 481.218 290.917 481.058 290.953C480.902 290.988 480.709 291.009 480.482 291.015C480.079 291.027 479.717 290.966 479.395 290.833C479.072 290.697 478.816 290.487 478.627 290.203C478.441 289.919 478.349 289.564 478.352 289.138V282.474Z" fill="#1D242C"/>
<path d="M515.405 281.835V290.922H513.941L509.659 284.732H509.584V290.922H507.938V281.835H509.411L513.688 288.029H513.768V281.835H515.405ZM520.101 291.055C519.435 291.055 518.858 290.908 518.37 290.616C517.882 290.323 517.504 289.913 517.234 289.387C516.968 288.86 516.835 288.245 516.835 287.541C516.835 286.837 516.968 286.22 517.234 285.691C517.504 285.161 517.882 284.75 518.37 284.457C518.858 284.164 519.435 284.018 520.101 284.018C520.766 284.018 521.343 284.164 521.831 284.457C522.319 284.75 522.696 285.161 522.963 285.691C523.232 286.22 523.366 286.837 523.366 287.541C523.366 288.245 523.232 288.86 522.963 289.387C522.696 289.913 522.319 290.323 521.831 290.616C521.343 290.908 520.766 291.055 520.101 291.055ZM520.11 289.768C520.47 289.768 520.772 289.669 521.015 289.471C521.257 289.27 521.438 289.001 521.556 288.663C521.677 288.326 521.738 287.95 521.738 287.536C521.738 287.119 521.677 286.742 521.556 286.405C521.438 286.065 521.257 285.794 521.015 285.593C520.772 285.392 520.47 285.291 520.11 285.291C519.74 285.291 519.432 285.392 519.187 285.593C518.944 285.794 518.762 286.065 518.641 286.405C518.523 286.742 518.463 287.119 518.463 287.536C518.463 287.95 518.523 288.326 518.641 288.663C518.762 289.001 518.944 289.27 519.187 289.471C519.432 289.669 519.74 289.768 520.11 289.768ZM530.585 284.107L528.158 290.922H526.383L523.956 284.107H525.669L527.235 289.169H527.306L528.877 284.107H530.585Z" fill="#1D242C"/>
<path opacity="0.3" d="M42.7169 109V270.682H547.781" stroke="#49657B" stroke-opacity="0.5" stroke-width="1.53983" stroke-linecap="round" stroke-linejoin="round"/>
<rect opacity="0.5" x="30.7966" y="18.2036" width="192.479" height="46.1949" rx="23.0974" fill="#7E879F" fill-opacity="0.2"/>
<rect x="32.3364" y="19.7434" width="92.3898" height="43.8851" rx="21.9426" fill="#B4009D"/>
<path d="M50.9018 46.9823V33.5438H52.5292V39.5281H59.6946V33.5438H61.3219V46.9823H59.6946V40.9717H52.5292V46.9823H50.9018ZM68.5957 47.1923C67.6245 47.1923 66.7868 46.9779 66.0825 46.5492C65.3826 46.1161 64.8423 45.5125 64.4618 44.7382C64.0855 43.9595 63.8974 43.054 63.8974 42.0216C63.8974 40.9892 64.0855 40.0793 64.4618 39.2919C64.8423 38.5001 65.3717 37.8833 66.0497 37.4415C66.7321 36.9953 67.5283 36.7722 68.4382 36.7722C68.9631 36.7722 69.4815 36.8597 69.9933 37.0347C70.5051 37.2096 70.971 37.494 71.391 37.8877C71.8109 38.277 72.1456 38.7932 72.3949 39.4363C72.6443 40.0793 72.769 40.8711 72.769 41.8116V42.4678H64.9998V41.1292H71.1941C71.1941 40.5605 71.0804 40.0531 70.8529 39.6069C70.6298 39.1607 70.3105 38.8085 69.8949 38.5504C69.4837 38.2923 68.9981 38.1633 68.4382 38.1633C67.8214 38.1633 67.2877 38.3164 66.8371 38.6226C66.3909 38.9244 66.0475 39.3181 65.8069 39.8037C65.5663 40.2893 65.446 40.8099 65.446 41.3654V42.2578C65.446 43.019 65.5773 43.6642 65.8397 44.1935C66.1066 44.7185 66.4762 45.1188 66.9487 45.3944C67.4211 45.6656 67.9701 45.8012 68.5957 45.8012C69.0025 45.8012 69.37 45.7443 69.698 45.6306C70.0305 45.5125 70.317 45.3375 70.5576 45.1056C70.7982 44.8694 70.9842 44.5763 71.1154 44.2264L72.6115 44.6463C72.454 45.1538 72.1893 45.6 71.8175 45.9849C71.4457 46.3655 70.9863 46.663 70.4395 46.8773C69.8927 47.0873 69.2781 47.1923 68.5957 47.1923ZM75.1246 46.9823V36.9034H76.6732V46.9823H75.1246ZM75.912 35.2236C75.6102 35.2236 75.3499 35.1208 75.1312 34.9152C74.9168 34.7096 74.8097 34.4624 74.8097 34.1737C74.8097 33.885 74.9168 33.6378 75.1312 33.4322C75.3499 33.2266 75.6102 33.1238 75.912 33.1238C76.2139 33.1238 76.472 33.2266 76.6863 33.4322C76.9051 33.6378 77.0144 33.885 77.0144 34.1737C77.0144 34.4624 76.9051 34.7096 76.6863 34.9152C76.472 35.1208 76.2139 35.2236 75.912 35.2236ZM83.5778 50.9719C82.8298 50.9719 82.1867 50.8756 81.6487 50.6831C81.1106 50.495 80.6622 50.2457 80.3035 49.9351C79.9492 49.6289 79.667 49.3008 79.457 48.9508L80.6907 48.0847C80.8306 48.2684 81.0078 48.4784 81.2222 48.7146C81.4365 48.9552 81.7296 49.163 82.1014 49.338C82.4776 49.5173 82.9698 49.607 83.5778 49.607C84.3915 49.607 85.063 49.4102 85.5923 49.0164C86.1216 48.6227 86.3863 48.0059 86.3863 47.166V45.1188H86.255C86.1413 45.3025 85.9794 45.53 85.7695 45.8012C85.5639 46.068 85.2664 46.3064 84.8771 46.5164C84.4921 46.722 83.9715 46.8248 83.3154 46.8248C82.5017 46.8248 81.7712 46.6323 81.1237 46.2474C80.4807 45.8624 79.971 45.3025 79.5948 44.5676C79.223 43.8326 79.0371 42.9402 79.0371 41.8904C79.0371 40.858 79.2186 39.959 79.5817 39.1935C79.9448 38.4236 80.4501 37.8286 81.0975 37.4087C81.7449 36.9843 82.493 36.7722 83.3416 36.7722C83.9978 36.7722 84.5184 36.8815 84.9033 37.1003C85.2926 37.3146 85.5901 37.5596 85.7957 37.8352C86.0057 38.1064 86.1676 38.3295 86.2813 38.5045H86.4388V36.9034H87.9349V47.271C87.9349 48.1372 87.738 48.8415 87.3443 49.3839C86.955 49.9307 86.43 50.331 85.7695 50.5847C85.1133 50.8428 84.3827 50.9719 83.5778 50.9719ZM83.5253 45.4337C84.1465 45.4337 84.6715 45.2915 85.1002 45.0072C85.5289 44.7229 85.8548 44.3138 86.0779 43.7802C86.301 43.2465 86.4125 42.6078 86.4125 41.8641C86.4125 41.1379 86.3032 40.4971 86.0844 39.9415C85.8657 39.386 85.542 38.9507 85.1133 38.6357C84.6846 38.3208 84.1553 38.1633 83.5253 38.1633C82.8692 38.1633 82.3224 38.3295 81.8849 38.662C81.4518 38.9944 81.1259 39.4406 80.9072 40.0006C80.6928 40.5605 80.5857 41.1817 80.5857 41.8641C80.5857 42.564 80.695 43.183 80.9138 43.7211C81.1369 44.2548 81.4649 44.6747 81.898 44.981C82.3355 45.2828 82.8779 45.4337 83.5253 45.4337ZM92.3181 40.9192V46.9823H90.7695V33.5438H92.3181V38.4782H92.4494C92.6856 37.9577 93.0399 37.5443 93.5124 37.2381C93.9892 36.9275 94.6235 36.7722 95.4153 36.7722C96.1021 36.7722 96.7036 36.91 97.2198 37.1856C97.736 37.4568 98.1362 37.8746 98.4206 38.4389C98.7093 38.9988 98.8536 39.7119 98.8536 40.578V46.9823H97.3051V40.683C97.3051 39.8825 97.0973 39.2635 96.6817 38.826C96.2705 38.3842 95.6996 38.1633 94.9691 38.1633C94.4616 38.1633 94.0067 38.2705 93.6042 38.4848C93.2061 38.6992 92.8912 39.0119 92.6593 39.4231C92.4319 39.8343 92.3181 40.333 92.3181 40.9192ZM106.07 36.9034V38.2158H100.847V36.9034H106.07ZM102.369 34.4887H103.918V44.0951C103.918 44.5326 103.981 44.8607 104.108 45.0794C104.239 45.2937 104.405 45.4381 104.607 45.5125C104.812 45.5825 105.029 45.6175 105.256 45.6175C105.427 45.6175 105.567 45.6087 105.676 45.5912C105.786 45.5693 105.873 45.5518 105.939 45.5387L106.254 46.9298C106.149 46.9692 106.002 47.0085 105.814 47.0479C105.626 47.0917 105.388 47.1135 105.099 47.1135C104.661 47.1135 104.233 47.0195 103.813 46.8314C103.397 46.6433 103.052 46.3567 102.776 45.9718C102.505 45.5868 102.369 45.1013 102.369 44.5151V34.4887Z" fill="white"/>
<path d="M144.193 46.9823L140.518 33.5438H142.172L144.98 44.4888H145.111L147.972 33.5438H149.81L152.671 44.4888H152.802L155.61 33.5438H157.264L153.589 46.9823H151.909L148.943 36.2735H148.838L145.873 46.9823H144.193ZM162.369 47.1923C161.398 47.1923 160.56 46.9779 159.856 46.5492C159.156 46.1161 158.616 45.5125 158.235 44.7382C157.859 43.9595 157.671 43.054 157.671 42.0216C157.671 40.9892 157.859 40.0793 158.235 39.2919C158.616 38.5001 159.145 37.8833 159.823 37.4415C160.505 36.9953 161.301 36.7722 162.211 36.7722C162.736 36.7722 163.255 36.8597 163.767 37.0347C164.278 37.2096 164.744 37.494 165.164 37.8877C165.584 38.277 165.919 38.7932 166.168 39.4363C166.417 40.0793 166.542 40.8711 166.542 41.8116V42.4678H158.773V41.1292H164.967C164.967 40.5605 164.854 40.0531 164.626 39.6069C164.403 39.1607 164.084 38.8085 163.668 38.5504C163.257 38.2923 162.771 38.1633 162.211 38.1633C161.595 38.1633 161.061 38.3164 160.61 38.6226C160.164 38.9244 159.821 39.3181 159.58 39.8037C159.34 40.2893 159.219 40.8099 159.219 41.3654V42.2578C159.219 43.019 159.35 43.6642 159.613 44.1935C159.88 44.7185 160.249 45.1188 160.722 45.3944C161.194 45.6656 161.743 45.8012 162.369 45.8012C162.776 45.8012 163.143 45.7443 163.471 45.6306C163.804 45.5125 164.09 45.3375 164.331 45.1056C164.571 44.8694 164.757 44.5763 164.889 44.2264L166.385 44.6463C166.227 45.1538 165.963 45.6 165.591 45.9849C165.219 46.3655 164.76 46.663 164.213 46.8773C163.666 47.0873 163.051 47.1923 162.369 47.1923ZM168.898 46.9823V36.9034H170.446V46.9823H168.898ZM169.685 35.2236C169.383 35.2236 169.123 35.1208 168.904 34.9152C168.69 34.7096 168.583 34.4624 168.583 34.1737C168.583 33.885 168.69 33.6378 168.904 33.4322C169.123 33.2266 169.383 33.1238 169.685 33.1238C169.987 33.1238 170.245 33.2266 170.46 33.4322C170.678 33.6378 170.788 33.885 170.788 34.1737C170.788 34.4624 170.678 34.7096 170.46 34.9152C170.245 35.1208 169.987 35.2236 169.685 35.2236ZM177.351 50.9719C176.603 50.9719 175.96 50.8756 175.422 50.6831C174.884 50.495 174.435 50.2457 174.077 49.9351C173.722 49.6289 173.44 49.3008 173.23 48.9508L174.464 48.0847C174.604 48.2684 174.781 48.4784 174.995 48.7146C175.21 48.9552 175.503 49.163 175.875 49.338C176.251 49.5173 176.743 49.607 177.351 49.607C178.165 49.607 178.836 49.4102 179.365 49.0164C179.895 48.6227 180.159 48.0059 180.159 47.166V45.1188H180.028C179.914 45.3025 179.753 45.53 179.543 45.8012C179.337 46.068 179.04 46.3064 178.65 46.5164C178.265 46.722 177.745 46.8248 177.089 46.8248C176.275 46.8248 175.544 46.6323 174.897 46.2474C174.254 45.8624 173.744 45.3025 173.368 44.5676C172.996 43.8326 172.81 42.9402 172.81 41.8904C172.81 40.858 172.992 39.959 173.355 39.1935C173.718 38.4236 174.223 37.8286 174.871 37.4087C175.518 36.9843 176.266 36.7722 177.115 36.7722C177.771 36.7722 178.292 36.8815 178.677 37.1003C179.066 37.3146 179.363 37.5596 179.569 37.8352C179.779 38.1064 179.941 38.3295 180.054 38.5045H180.212V36.9034H181.708V47.271C181.708 48.1372 181.511 48.8415 181.117 49.3839C180.728 49.9307 180.203 50.331 179.543 50.5847C178.886 50.8428 178.156 50.9719 177.351 50.9719ZM177.299 45.4337C177.92 45.4337 178.445 45.2915 178.873 45.0072C179.302 44.7229 179.628 44.3138 179.851 43.7802C180.074 43.2465 180.186 42.6078 180.186 41.8641C180.186 41.1379 180.076 40.4971 179.858 39.9415C179.639 39.386 179.315 38.9507 178.886 38.6357C178.458 38.3208 177.928 38.1633 177.299 38.1633C176.642 38.1633 176.096 38.3295 175.658 38.662C175.225 38.9944 174.899 39.4406 174.68 40.0006C174.466 40.5605 174.359 41.1817 174.359 41.8641C174.359 42.564 174.468 43.183 174.687 43.7211C174.91 44.2548 175.238 44.6747 175.671 44.981C176.109 45.2828 176.651 45.4337 177.299 45.4337ZM186.091 40.9192V46.9823H184.543V33.5438H186.091V38.4782H186.223C186.459 37.9577 186.813 37.5443 187.286 37.2381C187.762 36.9275 188.397 36.7722 189.188 36.7722C189.875 36.7722 190.477 36.91 190.993 37.1856C191.509 37.4568 191.909 37.8746 192.194 38.4389C192.482 38.9988 192.627 39.7119 192.627 40.578V46.9823H191.078V40.683C191.078 39.8825 190.87 39.2635 190.455 38.826C190.044 38.3842 189.473 38.1633 188.742 38.1633C188.235 38.1633 187.78 38.2705 187.377 38.4848C186.979 38.6992 186.664 39.0119 186.433 39.4231C186.205 39.8343 186.091 40.333 186.091 40.9192ZM199.843 36.9034V38.2158H194.62V36.9034H199.843ZM196.142 34.4887H197.691V44.0951C197.691 44.5326 197.754 44.8607 197.881 45.0794C198.012 45.2937 198.179 45.4381 198.38 45.5125C198.585 45.5825 198.802 45.6175 199.029 45.6175C199.2 45.6175 199.34 45.6087 199.449 45.5912C199.559 45.5693 199.646 45.5518 199.712 45.5387L200.027 46.9298C199.922 46.9692 199.775 47.0085 199.587 47.0479C199.399 47.0917 199.161 47.1135 198.872 47.1135C198.435 47.1135 198.006 47.0195 197.586 46.8314C197.17 46.6433 196.825 46.3567 196.549 45.9718C196.278 45.5868 196.142 45.1013 196.142 44.5151V34.4887Z" fill="#7E879F"/>
<rect opacity="0.5" x="428.073" y="18.2036" width="109.328" height="46.1949" rx="23.0974" fill="#7E879F" fill-opacity="0.2"/>
<path d="M459.188 38.7325H457.141C457.062 38.2951 456.916 37.9101 456.702 37.5777C456.487 37.2452 456.225 36.963 455.914 36.7312C455.604 36.4993 455.256 36.3244 454.871 36.2063C454.49 36.0881 454.086 36.0291 453.657 36.0291C452.883 36.0291 452.189 36.2237 451.577 36.6131C450.969 37.0024 450.488 37.5733 450.133 38.3257C449.783 39.0781 449.608 39.9968 449.608 41.0816C449.608 42.1753 449.783 43.0983 450.133 43.8507C450.488 44.6031 450.971 45.1718 451.583 45.5568C452.196 45.9417 452.885 46.1342 453.65 46.1342C454.075 46.1342 454.477 46.0773 454.858 45.9636C455.243 45.8455 455.59 45.6727 455.901 45.4452C456.212 45.2178 456.474 44.94 456.688 44.6119C456.907 44.2794 457.058 43.8988 457.141 43.4701L459.188 43.4767C459.079 44.1372 458.867 44.7453 458.552 45.3009C458.241 45.8521 457.841 46.3289 457.351 46.7313C456.866 47.1294 456.31 47.4378 455.684 47.6565C455.059 47.8753 454.377 47.9846 453.637 47.9846C452.474 47.9846 451.437 47.709 450.527 47.1578C449.617 46.6023 448.9 45.8083 448.375 44.7759C447.854 43.7435 447.594 42.5121 447.594 41.0816C447.594 39.6468 447.856 38.4154 448.381 37.3874C448.906 36.355 449.624 35.5632 450.534 35.012C451.443 34.4564 452.478 34.1787 453.637 34.1787C454.35 34.1787 455.015 34.2815 455.632 34.4871C456.253 34.6883 456.811 34.9858 457.305 35.3795C457.8 35.7688 458.209 36.2456 458.532 36.8099C458.856 37.3699 459.075 38.0107 459.188 38.7325ZM461.457 47.8009V37.722H463.34V39.3625H463.465C463.675 38.8069 464.018 38.3738 464.495 38.0632C464.972 37.7483 465.543 37.5908 466.208 37.5908C466.882 37.5908 467.446 37.7483 467.901 38.0632C468.36 38.3782 468.699 38.8113 468.918 39.3625H469.023C469.264 38.8244 469.646 38.3957 470.171 38.0764C470.696 37.7526 471.322 37.5908 472.048 37.5908C472.962 37.5908 473.708 37.8773 474.285 38.4504C474.867 39.0234 475.158 39.8874 475.158 41.0423V47.8009H473.196V41.226C473.196 40.5436 473.01 40.0493 472.638 39.743C472.267 39.4368 471.823 39.2837 471.306 39.2837C470.668 39.2837 470.171 39.4806 469.817 39.8743C469.463 40.2636 469.285 40.7645 469.285 41.3769V47.8009H467.33V41.1013C467.33 40.5545 467.159 40.1149 466.818 39.7824C466.477 39.45 466.033 39.2837 465.486 39.2837C465.114 39.2837 464.771 39.3821 464.456 39.579C464.145 39.7715 463.894 40.0405 463.701 40.3861C463.513 40.7317 463.419 41.132 463.419 41.5869V47.8009H461.457Z" fill="#7E879F"/>
<path d="M499.135 39.2478L504.267 44.3806L509.4 39.2478" stroke="#1D242C" stroke-width="1.53983" stroke-linecap="round" stroke-linejoin="round"/>
</svg>
