<svg width="432" height="397" viewBox="0 0 432 397" fill="none" xmlns="http://www.w3.org/2000/svg">
<path opacity="0.1" d="M205.668 211.942C206.006 212.462 206.659 212.824 206.884 213.368C208.551 217.533 211.929 218.959 216.006 219.163C219.137 219.321 222.29 219.163 225.443 219.367C226.389 219.412 227.493 219.91 228.169 220.566C231.66 223.917 235.534 226.701 239.926 228.693C249.679 233.13 259.904 233.967 270.4 232.587C273.306 232.202 275.535 230.73 277.112 228.353C278.148 226.792 278.936 225.048 279.77 223.351C281.189 220.544 282.54 217.691 284.004 214.884C284.297 214.296 284.95 213.911 285.581 213.255C285.761 213.888 285.874 214.183 285.896 214.477C286.122 218.733 286.662 222.989 286.459 227.222C286.212 232.677 285.378 238.11 284.77 243.543C284.32 247.618 283.869 251.715 283.351 255.79C283.148 257.284 283.802 257.646 285.108 257.578C285.648 257.533 286.189 257.714 286.865 257.804C286.707 258.28 286.662 258.597 286.527 258.868C282.901 266.248 279.297 273.628 275.603 280.962C273.261 285.58 269.589 289.496 268.373 294.748C268.17 295.586 266.841 296.151 266.008 296.808C265.693 297.034 265.265 297.102 264.882 297.261C264.814 297.419 264.747 297.6 264.679 297.759C265.242 298.098 265.805 298.483 266.391 298.777C266.661 298.891 267.022 298.777 267.337 298.8C269.747 298.936 270.468 300.203 269.229 302.241C266.684 306.497 264.296 310.866 261.526 314.94C258.778 318.97 258.463 323.452 258.575 327.979C258.71 333.729 260.467 339.162 262.742 344.436C264.859 349.349 266.954 354.261 268.981 359.218C269.567 360.667 270.175 362.093 270.738 363.519C273.666 371.012 271.346 375.313 265.715 379.818C263.711 381.425 261.548 382.874 259.544 384.481C257.111 386.428 254.791 388.533 253.688 391.567C253.507 392.065 253.508 393.015 253.8 393.219C255.039 394.125 256.368 395.03 257.787 395.551C259.138 396.049 260.648 396.071 262.089 396.298H263.981C264.589 396.162 265.197 396.026 265.805 395.89C268.328 395.415 270.896 395.143 273.351 394.442C280.806 392.268 287.27 388.126 293.644 383.779C294.05 383.508 294.388 382.897 294.478 382.376C295.559 377.102 294.027 372.574 290.424 368.726C289.523 367.752 289.14 366.802 289.117 365.511C289.095 362.659 289.117 359.784 288.757 356.977C288.081 351.454 287.473 345.885 286.549 340.407C286.324 339.003 286.076 337.6 285.806 336.219C284.86 331.556 285.761 327.685 288.419 324.018C291.054 320.396 293.779 316.842 296.347 313.174C297 312.269 297.563 311.816 298.712 311.794C305.469 311.635 312.249 311.477 319.006 311.115C321.461 310.979 323.938 310.843 326.213 309.349C328.623 307.764 330.538 308.489 332.069 310.933C332.137 311.047 332.204 311.205 332.272 311.318C332.587 311.884 332.88 312.45 333.15 313.039C333.984 314.804 334.704 316.615 335.628 318.336C336.867 320.667 338.759 322.071 341.507 322.275C345.313 322.546 349.12 322.954 352.926 323.293C359.706 323.904 366.485 324.697 373.287 325.059C380.157 325.421 387.049 325.557 393.919 325.353C397.5 325.24 399.887 326.802 402.14 329.134C402.433 329.428 402.703 329.767 402.951 330.107C404.842 332.71 406.689 335.336 408.581 337.939C410.518 340.588 412.816 342.829 416.082 343.644C416.69 343.802 417.658 343.508 418.109 343.078C419.911 341.312 420.721 339.049 420.924 336.559C421.217 333.118 420.339 329.858 419.28 326.644C417.996 322.75 416.037 319.105 415.654 314.918C415.564 313.989 415.293 313.061 414.956 312.178C413.942 309.462 411.802 308.036 408.919 307.923C405.406 307.787 402.388 309.304 399.369 310.775C398.333 311.273 397.522 311.205 396.419 310.82C392.387 309.349 388.355 307.787 384.211 306.746C376.846 304.912 369.301 304.55 361.733 304.505C360.561 304.505 359.57 304.233 358.76 303.712C357.971 303.214 357.341 302.445 356.89 301.426C356.485 300.52 356.304 299.502 355.899 298.596C355.404 297.464 355.719 296.582 356.642 295.97C358.602 294.68 360.651 293.48 362.656 292.281C364.503 291.171 366.44 290.243 368.174 288.976C370.246 287.459 370.246 287.006 368.287 285.354C367.769 284.923 366.665 284.991 365.877 285.15C363.917 285.512 363.85 285.489 363.242 283.565C362.025 279.649 360.877 275.71 359.458 271.862C356.395 263.441 353.219 255.088 350.02 246.712C349.165 244.471 348.849 242.502 351.394 241.143C351.71 240.985 351.912 240.623 352.16 240.351C353.174 239.332 353.399 238.291 352.881 236.82C349.097 225.977 346.935 214.771 345.921 203.362C345.763 201.551 345.899 199.718 345.899 197.839C346.101 197.884 346.349 197.884 346.574 197.997C353.467 201.325 360.359 204.675 367.228 208.025C368.129 208.456 368.985 208.976 369.886 209.384C372.679 210.629 375.404 210.606 377.904 208.705C382.747 204.992 387.522 201.212 392.32 197.431C398.243 192.791 404.099 188.082 410.113 183.555C412.365 181.857 412.545 181.857 411.397 179.299C410.541 177.375 410.811 176.764 412.748 175.926C414.663 175.088 416.645 174.319 418.447 173.278C423.312 170.403 427.186 166.373 430.857 162.14C432.839 159.854 432.208 157.024 429.235 156.345C427.186 155.87 424.979 155.779 422.884 155.938C419.55 156.209 416.51 157.59 413.694 159.378C412.681 160.012 412.14 159.831 411.622 158.79C411.059 157.658 410.383 156.571 409.73 155.507C408.762 153.923 407.117 153.583 405.496 153.606C404.933 153.606 404.054 154.489 403.896 155.123C403.491 156.798 403.446 158.563 403.153 160.284C402.68 163.068 402.928 166.124 399.82 167.822C398.446 168.569 397.365 169.791 396.058 170.674C389.144 175.383 382.206 180.023 375.292 184.755C374.391 185.366 373.895 184.981 373.31 184.37C369.233 180.25 365.111 176.175 361.08 172.01C360.043 170.946 359.278 169.588 358.354 168.411C357.588 167.415 356.913 166.215 355.922 165.558C352.813 163.498 349.57 161.665 346.394 159.718C345.426 159.129 344.525 158.45 343.399 157.703C345.11 156.458 346.642 155.485 348.534 156.005C351.597 156.82 354.615 156.662 357.453 155.304C360.922 153.651 364.255 151.795 367.656 150.007C369.819 148.875 370.629 147.652 370.066 145.276C369.706 143.736 368.827 142.287 367.994 140.907C367.476 140.069 366.327 140.295 365.854 141.246C365.607 141.767 365.584 142.423 365.246 142.853C364.796 143.419 364.008 144.279 363.58 144.166C362.408 143.872 360.832 143.397 360.336 142.491C358.985 139.956 358.422 137.081 358.76 134.138C358.76 134.07 358.917 134.025 359.097 133.934C359.615 134.161 360.179 134.432 360.764 134.659C365.584 136.583 370.404 138.507 375.247 140.409C375.945 140.68 376.643 140.997 377.026 139.933C377.814 137.76 378.693 135.609 379.481 133.436C379.887 132.35 379.549 131.625 378.422 131.059C374.368 129.067 370.404 126.917 366.372 124.902C365.201 124.314 364.886 123.838 365.584 122.525C367.949 118.066 367.566 113.697 364.255 109.871C358.354 103.035 347.543 98.5526 337.61 102.854C336.551 103.306 335.966 103.125 335.358 102.288C333.916 100.228 332.317 98.2357 331.033 96.0852C329.637 93.7989 325.853 91.6483 323.218 91.9653C320.808 92.2595 319.434 94.1158 319.974 96.4474C320.267 97.6698 320.56 98.9375 321.1 100.069C322.384 102.831 323.781 105.525 325.177 108.354C324.794 108.558 324.344 108.807 323.871 109.011C321.1 110.211 318.172 110.754 315.154 110.912C312.519 111.048 311.753 112.225 312.384 114.761C312.519 115.327 312.654 115.893 312.834 116.436C313.442 118.27 313.825 120.035 312.046 121.484C311.911 121.597 311.843 121.846 311.798 122.05C311.28 124.314 310.74 126.555 310.289 128.818C309.794 131.354 309.996 133.731 312.406 135.293C313.825 136.221 315.334 137.036 316.911 137.692C319.118 138.62 319.749 139.594 319.366 141.948C319.028 144.166 317.925 146.068 316.1 147.154C312.361 149.373 308.532 151.478 304.591 153.221C302.631 154.081 300.311 154.104 298.126 154.444C294.658 154.987 291.459 155.938 289.455 159.197C284.68 166.939 280.919 175.179 277.18 183.442C273.621 191.274 269.837 198.993 264.274 205.649C263.193 206.939 261.976 208.659 260.535 209.021C254.026 210.719 247.651 210.131 241.683 206.735C239.228 205.332 236.818 203.951 234.272 206.735C233.664 205.83 233.079 205.151 232.673 204.381C230.917 200.849 229.25 197.25 227.515 193.719C226.502 191.636 225.015 191.455 223.506 193.243C223.033 193.809 222.673 194.602 222.538 195.349C222.155 197.295 221.975 199.31 221.569 201.257C221.209 203.023 220.06 204.245 218.281 204.471C216.366 204.72 214.407 204.743 212.47 204.698C209.384 204.63 206.298 204.403 203.213 204.29C201.996 204.245 201.298 204.834 201.996 206.056C203.145 208.093 204.429 210.063 205.713 212.032L205.668 211.942Z" fill="url(#paint0_linear_13440_49145)"/>
<path opacity="0.1" d="M30.8348 243.729C21.1334 247.654 11.3638 251.442 1.63966 255.298C1.09311 258.47 0.546554 261.642 0 264.836C0.432688 264.768 0.888119 264.585 1.32081 264.631C9.81516 265.133 18.3095 265.703 26.8267 266.183C28.6257 266.297 30.4476 266.206 32.2695 266.228L32.3833 265.589C33.6814 266.822 35.0933 267.963 36.2548 269.332C39.4658 273.12 42.6312 276.953 45.7967 280.764C47.5502 282.886 49.3492 284.963 51.1028 287.108C54.2455 290.918 57.206 294.889 60.3714 298.677C61.5556 300.091 62.9903 301.347 64.5389 302.328C68.9568 305.134 72.8966 304.724 76.5175 300.981C78.7265 298.677 80.5028 295.938 82.6207 293.542C84.1009 291.877 85.604 290.028 87.4942 289.002C89.02 288.18 91.2289 288.02 92.9824 288.385C94.4854 288.705 95.1459 288.591 95.9202 287.336C104.665 273.53 114.298 260.364 124.409 247.54C124.842 246.969 124.796 246.056 125.161 245.372C125.343 245.03 126.117 244.573 126.277 244.687C127.552 245.6 129.009 246.444 129.943 247.654C136.843 256.553 143.561 265.589 150.507 274.443C153.377 278.117 156.679 281.448 159.912 285.077C160.823 284.369 161.416 283.776 162.121 283.365C163.989 282.247 164.945 282.726 165.697 284.757C166.221 286.195 166.927 287.587 167.724 288.887C168.953 290.85 170.343 292.721 171.641 294.638C171.937 295.071 172.051 295.459 172.073 295.824C172.096 296.395 171.823 296.943 171.185 297.559C167.701 300.981 163.989 304.267 161.119 308.169C155.54 315.768 150.484 323.777 145.178 331.582C142.377 335.712 139.462 339.796 136.547 343.995C136.889 344.314 137.23 344.702 137.618 345.022C142.65 348.992 148.253 351.982 154.31 353.967C159.548 355.678 164.9 356.979 170.206 358.485C172.757 359.215 173.394 358.827 173.007 356.157C172.278 350.863 170.593 346.14 165.105 343.858C163.807 343.333 162.6 342.557 161.393 341.85C160.823 341.508 160.322 341.029 159.662 340.504C160.436 339.682 161.028 339.043 161.666 338.404C172.574 327.223 183.414 315.973 194.459 304.906C195.097 304.267 195.666 303.606 196.19 302.921C199.492 298.654 200.608 293.634 201.223 288.34C201.678 284.415 200.471 281.015 197.807 278.071C195.962 276.018 194.186 273.873 192.569 271.636C190.269 268.442 189.13 264.973 192.842 261.277C193.138 260.98 193.047 259.816 192.706 259.405C185.555 250.963 178.359 242.565 171.185 234.145C169.136 231.749 167.063 229.376 165.082 226.934C164.74 226.523 164.695 225.839 164.513 225.291C165.15 225.223 165.811 225.132 166.448 225.063C166.562 225.063 166.699 225.132 166.79 225.2C168.225 226.181 168.657 225.451 168.885 224.059C169.295 221.458 169.91 218.879 170.251 216.255C171.595 206.238 172.779 196.197 174.237 186.203C175.307 178.878 176.719 171.621 177.88 164.296C178.131 162.79 178.769 162.106 180.203 161.741C188.789 159.55 197.351 157.337 205.891 155.009C215.98 152.248 226.023 149.373 236.088 146.475C236.794 146.27 237.705 145.699 237.91 145.083C240.689 136.959 243.33 128.768 246.086 120.621C248.682 112.977 251.415 105.355 254.056 97.711C254.489 96.456 255.286 96.0224 256.516 95.703C259.18 95.0184 262.004 94.4708 264.327 93.1016C270.339 89.5419 276.101 85.5486 281.976 81.7378C283.092 81.0076 284.253 80.3915 285.62 79.57C282.614 76.7861 280.154 74.9606 276.26 76.1244C269.906 78.0412 263.348 78.7942 256.698 78.6573C255.241 78.6345 253.76 78.4063 251.984 78.2466C253.032 76.9231 253.897 76.0331 254.512 75.0063C255.559 73.2036 254.398 71.1499 252.417 71.4694C248.636 72.0626 245.107 73.5002 242.305 76.1472C240.689 77.6761 239.277 79.5244 238.161 81.4412C234.198 88.1956 230.304 94.9956 226.524 101.864C222.698 108.801 218.781 115.669 213.042 121.237C212.2 122.059 211.106 122.789 210.013 123.108C200.175 126.006 190.315 128.836 180.431 131.574C179.588 131.802 178.336 131.643 177.607 131.163C174.442 129.11 171.322 126.919 168.293 124.66C167.063 123.725 166.061 122.492 164.877 121.329C168.68 117.837 172.255 114.939 177.357 114.323C182.071 113.753 184.439 111.106 185.122 106.314C185.441 104.169 185.464 101.955 185.487 99.7876C185.555 95.3379 186.193 91.0936 189.859 87.7848C188.516 86.9862 187.331 86.4385 186.329 85.6627C184.712 84.4305 182.936 83.2895 181.706 81.715C180.112 79.6841 180.659 78.2922 182.663 76.7177C185.031 74.8465 187.308 72.8613 189.449 70.7848C190.223 70.0318 190.542 68.7996 191.066 67.7955C190.907 67.6586 190.77 67.5217 190.611 67.3848C189.722 67.6814 188.789 67.8868 187.946 68.2747C185.851 69.2331 183.801 70.3056 181.706 71.2868C178.586 72.7472 178.655 72.6788 176.173 70.3512C169.045 63.7109 160.755 60.2425 151.168 63.323C144.951 65.3311 139.371 69.0049 134.703 73.774C132.129 76.3982 129.943 79.5929 130.034 83.2667C130.148 88.4238 131.014 93.5808 131.833 98.6923C132.129 100.518 133.564 101.91 135.5 102.617C135.727 102.275 135.864 101.978 136.069 101.75C136.32 101.499 136.638 101.294 136.912 101.088C138.437 102.571 138.825 103.461 138.529 105.629C138.301 107.272 139.052 108.322 140.328 108.915C143.63 110.398 145.452 112.475 144.905 116.491C144.427 119.937 144.085 120.895 140.76 121.853C138.847 122.401 136.912 122.857 135.09 123.633C134.088 124.044 133.564 123.998 133.04 123.131C131.059 119.959 128.896 116.902 127.119 113.639C121.244 102.8 118.192 91.0479 116.689 78.9083C115.163 66.5405 114.161 54.127 112.795 41.7592C112.476 38.7699 113.068 36.1001 114.503 33.6357C117.987 27.6115 122.724 22.6598 128.076 18.2786C129.055 17.4799 129.943 16.5672 130.877 15.7229C130.717 15.4719 130.535 15.2437 130.376 14.9927C122.724 12.7108 117.851 17.7994 112.59 22.3175C112.089 21.4276 111.542 20.7202 111.224 19.9215C110.632 18.4155 110.108 16.9095 109.698 15.3578C108.946 12.5282 107.853 9.9497 105.758 7.75909C104.733 6.68661 104.255 5.02083 103.777 3.5376C103.344 2.21411 101.158 -0.0449568 99.8143 0.000680966C97.7875 0.0691375 97.6965 1.75773 97.446 3.19532C96.8766 6.36714 96.3756 9.56178 95.829 12.7336C95.5558 14.2397 94.9637 15.7229 94.9865 17.2061C95.0092 22.5685 97.4232 27.2692 99.4272 32.084C101.226 36.4196 102.069 36.8531 96.2617 36.6706C95.738 36.6706 94.8498 37.2639 94.7132 37.7659C94.1211 39.6599 93.5973 41.6223 93.3468 43.5847C92.2537 52.5069 91.0695 61.4291 90.318 70.3969C89.5665 79.4103 89.2704 88.4694 88.8378 97.5057C88.7694 99.0574 88.6556 100.837 89.2705 102.184C96.7856 118.933 105.075 135.271 114.139 151.244C114.958 152.682 116.074 154.028 115.186 155.876C115.072 156.127 115.368 156.561 115.414 156.926C115.528 157.611 115.892 158.432 115.664 158.98C113.547 163.931 111.451 168.906 109.06 173.743C103.23 185.472 97.2638 197.133 91.2972 208.77C90.3863 210.573 90.3635 211.805 92.3448 212.787C93.3696 213.289 94.2122 214.156 95.1914 214.772C96.239 215.411 96.3756 216.118 95.7152 217.145C93.2102 221.093 90.8646 225.154 88.2684 229.056C84.9436 234.031 81.2999 238.777 78.0661 243.797C75.6294 247.562 73.7164 251.647 71.4391 255.526C69.8222 258.287 67.9776 260.934 66.338 263.695C66.0191 264.22 65.8597 265.247 66.1557 265.704C67.6815 268.077 69.3668 270.359 71.0064 272.663C71.5074 273.371 72.3728 274.055 71.2114 274.922C70.2094 275.652 69.4351 277.136 67.841 275.767C64.5389 272.937 61.0091 270.313 57.8664 267.301C55.1108 264.677 52.4236 261.961 49.6908 259.314C44.6352 254.408 39.5568 249.502 34.5695 244.528C33.3853 243.364 32.4516 243.136 30.9031 243.752L30.8348 243.729Z" fill="url(#paint1_linear_13440_49145)"/>
<defs>
<linearGradient id="paint0_linear_13440_49145" x1="316.859" y1="91.9341" x2="316.859" y2="396.298" gradientUnits="userSpaceOnUse">
<stop stop-color="#B4009D"/>
<stop offset="1" stop-color="#B4009D" stop-opacity="0"/>
</linearGradient>
<linearGradient id="paint1_linear_13440_49145" x1="142.81" y1="0" x2="142.81" y2="358.81" gradientUnits="userSpaceOnUse">
<stop stop-color="#B4009D"/>
<stop offset="1" stop-color="#B4009D" stop-opacity="0"/>
</linearGradient>
</defs>
</svg>
