<svg width="66" height="41" viewBox="0 0 66 41" fill="none" xmlns="http://www.w3.org/2000/svg">
<g clip-path="url(#clip0_13608_12142)">
<path d="M6.43965 40.7969H0.000488281V40.8125H6.43965V40.7969Z" fill="#B4009D"/>
<path d="M28.0542 6.7851V27.5192C28.0276 27.5176 28.0025 27.5176 27.9758 27.5176H27.6421C27.5865 27.5176 27.5316 27.5208 27.4784 27.5247C26.2053 27.6306 25.0943 28.0474 24.1793 28.7657C23.3574 29.4077 22.6852 30.207 22.1807 31.1395C21.9613 31.5439 21.7709 31.9661 21.6158 32.4071V6.7851H6.43965V34.3937H21.4239C21.3291 34.7303 21.2523 35.0762 21.1935 35.4275C21.0274 36.4185 20.9883 37.4079 21.0792 38.3724C21.1363 38.9396 21.2805 39.4935 21.5085 40.0147C21.5422 40.0941 21.5782 40.1705 21.6158 40.2468C21.7098 40.4385 21.8125 40.6223 21.9292 40.7969H0.000488281V0.384277H21.6158C23.659 0.384277 25.4782 1.33162 26.6581 2.80796C27.5316 3.90021 28.0542 5.2815 28.0542 6.7851Z" fill="#B4009D"/>
<path d="M31.6247 26.0535C31.8574 26.2117 32.0963 26.3457 32.3408 26.4555C32.5852 26.5654 32.7819 26.6199 32.9291 26.6199C33.3452 26.6199 33.6695 26.461 33.903 26.1455C34.1357 25.8284 34.3072 25.4264 34.4177 24.9395C34.5274 24.4518 34.5885 23.9103 34.601 23.3136C34.6136 22.7168 34.6065 22.1442 34.583 21.5965C34.5579 21.0488 34.5336 20.5611 34.5094 20.135C34.4843 19.7088 34.4843 19.4221 34.5094 19.2764C34.9254 19.3497 35.3852 19.5811 35.8874 19.9706C36.3896 20.3601 36.8856 20.7871 37.3752 21.2498C37.8649 21.7126 38.3365 22.1263 38.7901 22.4917C39.2429 22.857 39.6284 23.0393 39.9481 23.0393C40.1925 23.0393 40.3641 22.9303 40.462 22.7106C40.4855 22.6623 40.5591 22.54 40.6829 22.3452C40.8051 22.1504 40.9336 21.9432 41.0684 21.7235C41.2031 21.5046 41.3316 21.2973 41.4538 21.1026C41.5761 20.9078 41.6372 20.7738 41.6372 20.7006C41.6865 20.2869 41.5204 19.9332 41.1412 19.641C40.7613 19.3489 40.2834 19.0871 39.7083 18.855C39.1325 18.6236 38.5261 18.4226 37.8891 18.252C37.2522 18.0821 36.6826 17.9232 36.1804 17.7767C35.6783 17.631 35.3108 17.4791 35.0781 17.3202C34.8455 17.162 34.8635 16.9852 35.133 16.7904C36.0394 16.1087 36.9521 15.5057 37.8703 14.9814C38.7893 14.4579 39.6527 13.9157 40.4612 13.3555C40.5098 13.3072 40.596 13.1974 40.7182 13.0268C40.8404 12.8569 40.9571 12.6427 41.0676 12.3871C41.1773 12.1316 41.2572 11.8449 41.3065 11.5286C41.3559 11.2123 41.3308 10.8835 41.2329 10.5415C41.2157 10.4987 41.1914 10.4589 41.1647 10.4223C41.1467 10.4457 41.1271 10.4683 41.1052 10.4901C40.7252 10.8672 40.3523 11.252 39.977 11.6338C39.9559 11.6556 39.9347 11.6782 39.9081 11.7055C39.9308 11.7234 39.9481 11.7397 39.9676 11.7514C40.0092 11.7756 40.0507 11.8021 40.0953 11.82C40.2849 11.8971 40.3429 12.0592 40.3672 12.2399C40.3797 12.3318 40.3586 12.3443 40.2708 12.3194C40.0883 12.2679 39.9042 12.2235 39.724 12.1651C39.5156 12.0973 39.3229 11.9953 39.1497 11.8597C39.1364 11.8496 39.1246 11.8363 39.1129 11.8247C39.2132 11.6813 39.3135 11.5426 39.4098 11.4008C39.5924 11.1344 39.7655 10.8609 39.9582 10.6015C40.0569 10.4683 40.1847 10.3561 40.3045 10.2393C40.3265 10.2174 40.3359 10.1995 40.3351 10.18C40.0624 10.2556 39.7373 10.4364 39.3581 10.7231C38.8442 11.1126 38.3232 11.5333 37.7967 11.9836C37.2694 12.4347 36.7861 12.8546 36.345 13.2441C35.9039 13.6344 35.5733 13.8292 35.3531 13.8292C35.1565 13.8292 35.0828 13.7443 35.1322 13.5729C35.2795 12.9886 35.4503 12.2516 35.6469 11.3619C35.7691 10.808 35.8827 10.2416 35.9909 9.66352C35.882 9.53342 35.7731 9.40253 35.6626 9.27321C35.6226 9.22646 35.5741 9.18751 35.5294 9.14544L35.5255 9.16725C35.4628 9.16725 35.4009 9.16959 35.3382 9.1657C35.046 9.14856 34.7538 9.12986 34.4608 9.11272C34.4459 9.11194 34.4302 9.11739 34.4153 9.11973C34.4341 9.01144 34.4529 8.90315 34.4717 8.79408C34.8071 8.6632 35.1424 8.53309 35.4761 8.39909C35.5294 8.37806 35.5615 8.38507 35.6023 8.42558C35.7746 8.59542 35.9485 8.76214 36.1225 8.93042C36.1413 8.82135 36.1609 8.71306 36.1797 8.60243C36.3387 7.65275 36.4735 6.7202 36.5839 5.80713C36.6944 4.89329 36.7492 4.10799 36.7492 3.45045C36.7492 3.01184 36.7187 2.67762 36.6576 2.44546C36.5957 2.21407 36.4923 2.038 36.345 1.91569C36.1977 1.79416 36.0018 1.72092 35.7574 1.69677C35.5122 1.67262 35.2058 1.66016 34.8384 1.66016C33.6867 1.66016 32.8962 1.82454 32.4685 2.15331C32.0399 2.48207 31.8253 2.90277 31.8253 3.41384C31.8253 4.50999 31.8989 5.60068 32.0454 6.68436C32.1927 7.76805 32.3329 8.85251 32.4677 9.93619C32.6024 11.0207 32.6886 12.0989 32.7254 13.1701C32.7623 14.2421 32.6698 15.3141 32.4497 16.3861C32.4003 16.6541 32.3149 16.8551 32.1927 16.9891C32.0697 17.1231 31.9412 17.2446 31.8065 17.3545C31.6717 17.4643 31.555 17.5734 31.4578 17.6832C31.3591 17.7931 31.3105 17.945 31.3105 18.1406C31.3105 18.3112 31.3474 18.4576 31.421 18.5792C31.4946 18.7015 31.58 18.8293 31.678 18.9633C31.7759 19.0973 31.8621 19.2554 31.9349 19.4385C32.0086 19.6208 32.0454 19.8584 32.0454 20.1506C32.0454 20.9545 31.978 21.6487 31.8433 22.2338C31.7085 22.8181 31.555 23.3058 31.3842 23.6953C31.2126 24.0848 31.0598 24.3895 30.9243 24.6092C30.7903 24.8281 30.7222 24.9745 30.7222 25.0478C30.7222 25.1942 30.8138 25.3586 30.9979 25.5409C31.1821 25.7232 31.3897 25.8938 31.6231 26.052L31.6247 26.0535Z" fill="#FF0188"/>
<path d="M42.5379 9.85969C42.2849 10.0287 42.1579 10.2212 42.1579 10.4354C42.1579 10.7735 42.1399 11.2955 42.1039 12.0013C42.0678 12.708 42.0318 13.8407 41.995 14.7C41.9589 15.5601 41.9409 16.4428 41.9409 17.3473C41.9409 18.2518 41.9887 19.0737 42.0859 19.8107C42.1814 20.5469 42.3389 21.1686 42.5567 21.675C42.7737 22.1814 43.0636 22.4658 43.4256 22.5273C43.9324 22.5273 44.2341 22.4744 44.3304 22.3661C44.4268 22.2593 44.4754 21.8986 44.4754 21.2839C44.4754 19.8107 44.5357 18.5603 44.6563 17.5312C44.777 16.5028 44.9094 15.5897 45.0543 14.7912C45.1993 13.9934 45.3317 12.8988 45.4523 12.2078C45.573 11.5175 45.6333 10.7728 45.6333 9.97421C45.6333 9.72881 45.591 9.49898 45.5064 9.28396C45.4218 9.06972 45.2714 8.96143 45.0536 8.96143C44.9321 8.96143 44.7096 9.00038 44.3837 9.07673C44.0578 9.15386 43.7319 9.26059 43.406 9.39926C43.0801 9.53716 42.7902 9.69141 42.5371 9.85969H42.5379Z" fill="#00B8B6"/>
<path d="M51.6063 11.5418C51.7505 11.5776 51.8907 11.6314 52.0309 11.682C52.0685 11.6961 52.0975 11.6976 52.1336 11.6805C52.2386 11.6298 52.3435 11.5776 52.4658 11.5823C52.566 11.5862 52.6397 11.6353 52.6757 11.7288C52.6875 11.7592 52.6969 11.7911 52.7 11.8231C52.7133 11.9664 52.7823 12.0926 52.8261 12.2266C52.863 12.3372 52.8935 12.4494 52.8833 12.5678C52.8763 12.6535 52.8481 12.7322 52.7854 12.7922C52.7697 12.807 52.736 12.8171 52.7149 12.8117C52.6013 12.7836 52.5214 12.7065 52.454 12.6154C52.3882 12.5258 52.3232 12.4354 52.2581 12.3458C52.2495 12.3341 52.2401 12.3224 52.2299 12.3123C52.1516 12.2321 52.0685 12.1783 51.944 12.1822C51.705 12.19 51.4653 12.1845 51.2263 12.1721C50.9897 12.1596 50.7539 12.1323 50.5181 12.1113C50.3857 12.0996 50.2533 12.0856 50.1209 12.0762C50.0261 12.0692 49.9595 12.0209 49.9164 11.9407C49.8851 11.8815 49.8592 11.8192 49.8302 11.7584C49.8208 11.7381 49.8106 11.7187 49.7997 11.6992C49.654 11.7568 49.5114 11.8199 49.3735 11.8924C48.9465 12.116 48.5587 12.3855 48.2101 12.7003C48.2422 12.8896 48.2633 13.0805 48.2868 13.2706C48.2986 13.3672 48.2978 13.4661 48.2994 13.5643C48.2994 13.6087 48.3135 13.6422 48.3448 13.6749C48.4702 13.8073 48.5234 13.9631 48.4858 14.1447C48.4819 14.1626 48.471 14.1828 48.4568 14.193C48.2359 14.3418 48.0103 14.4843 47.751 14.5599C47.6656 14.5848 47.5763 14.5934 47.4885 14.6098C47.4674 14.6137 47.4462 14.6191 47.4251 14.6238H47.3592C47.3091 14.616 47.2566 14.6152 47.2096 14.5981C47.1602 14.5802 47.114 14.549 47.0709 14.5178C47.0607 14.5101 47.0607 14.4773 47.067 14.461C47.1062 14.3566 47.1861 14.2841 47.2707 14.2171C47.3404 14.1618 47.4149 14.112 47.4854 14.0566C47.6812 13.9024 47.7619 13.7536 47.6601 13.4957C47.6405 13.4458 47.6193 13.3968 47.599 13.3477C47.5966 13.35 47.5943 13.3531 47.5927 13.3555C47.1023 13.9647 46.7223 14.6768 46.4536 15.4932C46.1849 16.3097 46.0493 17.1799 46.0493 18.1062C46.0493 18.6905 46.123 19.2756 46.2702 19.8599C46.4175 20.445 46.6377 20.9685 46.9315 21.4313C47.2253 21.8941 47.5927 22.2719 48.0338 22.5641C48.4749 22.8562 48.9896 23.0027 49.5772 23.0027C50.1648 23.0027 50.6795 22.8687 51.1206 22.6007C51.5617 22.3327 51.9596 21.986 52.3153 21.5591C52.6702 21.1329 52.9766 20.6514 53.2343 20.1154C53.4913 19.5802 53.7052 19.0193 53.8775 18.435C53.8775 19.6044 53.9997 20.6094 54.245 21.4492C54.4894 22.2898 54.8819 23.0634 55.4209 23.7693C55.7147 24.1097 56.0947 24.2803 56.5601 24.2803C56.9024 24.2803 57.1962 24.1767 57.4414 23.9703C57.6859 23.7638 57.7352 23.5013 57.5887 23.1842C57.2456 22.4534 57.0192 21.5162 56.9087 20.371C56.7982 19.2258 56.7551 17.9839 56.7802 16.6439C56.8045 15.3047 56.8781 13.9281 57.0003 12.5149C57.1226 11.1024 57.2448 9.76242 57.3678 8.49565C57.4657 7.3995 57.6067 6.53474 57.7908 5.90136C57.9742 5.26797 58.1458 4.76859 58.3056 4.40321C58.4646 4.03783 58.5868 3.74568 58.673 3.52598C58.7584 3.30706 58.7521 3.05075 58.6542 2.7586C58.5563 2.41814 58.2923 2.21091 57.8645 2.13768C57.4352 2.06445 57.0983 2.02783 56.8538 2.02783C56.5843 2.02783 56.2529 2.08237 55.8612 2.19222C55.4695 2.30206 55.1389 2.41814 54.8694 2.53968C54.2081 2.85676 53.7913 3.20968 53.6198 3.59921C53.4482 3.98875 53.3934 4.46398 53.4545 5.02413C53.5156 5.58506 53.6253 6.24259 53.7851 6.99751C53.9441 7.7532 54.0358 8.66627 54.0609 9.73827C54.1094 10.8593 54.0726 11.9555 53.9504 13.0267C53.8274 12.3692 53.5336 11.9251 53.0682 11.6929C52.6029 11.4616 52.1618 11.3455 51.7458 11.3455C51.3901 11.3455 51.0493 11.3766 50.7234 11.4366C50.7516 11.4546 50.786 11.4639 50.8268 11.4639C51.09 11.4662 51.3525 11.4779 51.6087 11.541L51.6063 11.5418ZM53.2492 15.3655C53.1756 15.6826 53.0596 16.0775 52.8998 16.5528C52.74 17.028 52.5323 17.4791 52.2754 17.9052C52.0184 18.3314 51.7238 18.6968 51.3932 19.0014C51.0626 19.306 50.6889 19.4579 50.2729 19.4579C50.0277 19.4579 49.8255 19.3792 49.6665 19.2203C49.5067 19.0621 49.3845 18.8736 49.2991 18.6539C49.2129 18.435 49.158 18.2036 49.1337 17.9598C49.1087 17.7167 49.0969 17.5095 49.0969 17.3389C49.0969 16.9493 49.1455 16.5473 49.2434 16.1329C49.3414 15.7192 49.5012 15.3351 49.7213 14.9814C49.9415 14.6285 50.2173 14.3363 50.5479 14.1042C50.8785 13.8728 51.2647 13.7575 51.7058 13.7575C52.2448 13.8066 52.6303 13.9647 52.863 14.2327C53.0956 14.5007 53.2241 14.8786 53.2492 15.3655Z" fill="#FF6600"/>
<path d="M32.4371 36.7142C32.2977 36.7883 32.1449 36.8662 31.978 36.9495C31.8112 37.0329 31.6443 37.1108 31.4774 37.1848C31.3106 37.2588 31.1531 37.3048 31.005 37.3227C30.7269 37.3227 30.5412 37.2448 30.4488 37.0874C30.3555 36.9308 30.2913 36.7236 30.2537 36.4657C30.1793 35.71 30.2396 34.9177 30.4347 34.088C30.6297 33.2583 30.7825 32.4847 30.8938 31.7656C30.9306 31.563 30.8703 31.4018 30.7128 31.2818C30.5553 31.1618 30.3469 31.0652 30.0876 30.9912C30.0132 30.9733 29.9528 30.9593 29.9066 30.9499C29.8604 30.9406 29.8095 30.9359 29.7538 30.9359C29.5313 30.9359 29.3739 30.9865 29.2814 31.0878C29.1882 31.1891 29.1145 31.2397 29.0589 31.2397H29.0033C28.7988 31.0925 28.6233 30.9912 28.4753 30.9359C28.3264 30.8806 28.1595 30.8525 27.9746 30.8525H27.6409C26.7509 30.9266 26.0003 31.2031 25.3893 31.6822C24.7774 32.1622 24.2815 32.7511 23.9015 33.4515C23.5215 34.1527 23.2622 34.9169 23.1227 35.7466C22.9841 36.5764 22.9512 37.3874 23.0256 38.1797C23.0624 38.549 23.1549 38.9034 23.3037 39.2439C23.4518 39.5851 23.6461 39.8843 23.8874 40.1429C24.1279 40.4016 24.4107 40.6088 24.7351 40.7646C25.0594 40.9212 25.4159 40.9999 25.8053 40.9999C26.0646 40.9633 26.3192 40.8612 26.5699 40.6961C26.8206 40.5301 27.0705 40.3135 27.3205 40.0463C27.5704 39.7791 27.8164 39.4799 28.0569 39.1481C28.2974 38.8162 28.5293 38.4843 28.7518 38.1524C28.8999 38.6323 29.0942 38.9728 29.3355 39.1753C29.576 39.3787 29.8823 39.4792 30.2529 39.4792C30.3641 39.4792 30.448 39.4698 30.5036 39.4511C30.7629 39.4332 31.0457 39.3265 31.3513 39.1333C31.6568 38.9393 31.9491 38.7048 32.2272 38.4282C32.4097 38.2467 32.5711 38.0597 32.7137 37.8704C32.6706 37.4575 32.6448 37.0446 32.6346 36.6309C32.5719 36.6496 32.5053 36.6769 32.4356 36.7142H32.4371ZM28.2943 33.8527C28.2473 34.3412 28.1595 34.825 28.0303 35.3041C27.9002 35.7833 27.738 36.2398 27.5437 36.673C27.3494 37.1061 27.1222 37.452 26.8629 37.7099C26.6772 37.8392 26.5198 37.9218 26.3905 37.9584C26.1304 37.9584 25.9596 37.8197 25.8758 37.544C25.7919 37.2674 25.741 37.0376 25.723 36.8529C25.7042 36.521 25.723 36.1385 25.7786 35.7054C25.8343 35.273 25.9455 34.839 26.1124 34.4059C26.2792 33.9727 26.5017 33.5629 26.7799 33.1757C27.058 32.7885 27.4011 32.4753 27.8085 32.2362C27.901 32.1629 27.9848 32.1255 28.0585 32.1255C28.1877 32.1076 28.2716 32.2549 28.3084 32.568C28.3452 32.9373 28.3405 33.3658 28.2943 33.8535V33.8527Z" fill="#FFCD00"/>
<path d="M40.1944 39.1887C40.0925 38.793 40.0322 38.3824 40.0134 37.9586C39.9946 37.5161 40.0228 37.0003 40.0972 36.4106C40.1709 35.8208 40.2594 35.2264 40.3612 34.6273C40.4631 34.0282 40.5555 33.4478 40.6394 32.8853C40.7232 32.3236 40.7647 31.8484 40.7647 31.4612C40.7647 30.9633 40.6715 30.5629 40.4866 30.2583C40.3009 29.9545 39.9397 29.8018 39.4023 29.8018C38.9941 29.8018 38.6471 29.9077 38.3595 30.1196C38.072 30.3315 37.7986 30.5948 37.5393 30.9073C37.298 31.2391 37.0668 31.6497 36.8443 32.1374C36.6218 32.6259 36.404 33.1377 36.1909 33.6722C35.9778 34.2066 35.7741 34.7278 35.5791 35.2342C35.3848 35.7414 35.185 36.1792 34.9813 36.5477C34.9437 36.3638 34.9351 36.1332 34.9531 35.8567C34.9711 35.5801 34.9946 35.2809 35.0228 34.9584C35.051 34.6359 35.0784 34.2993 35.1067 33.9495C35.1349 33.5997 35.1294 33.2585 35.0926 32.9266C35.0737 32.7053 35.0369 32.5075 34.9813 32.3322C34.9257 32.1569 34.7682 32.0696 34.5089 32.0696C34.3976 32.0696 34.2308 32.1023 34.0083 32.1662C33.7858 32.2309 33.568 32.3096 33.3549 32.4015C33.1418 32.4942 32.9561 32.6048 32.7986 32.7334C32.6411 32.8627 32.562 33.0006 32.562 33.1479C32.562 33.3691 32.5667 33.5491 32.5761 33.687C32.5855 33.8256 32.5902 33.9589 32.5902 34.0882C32.5902 34.2175 32.5949 34.3507 32.6043 34.4894C32.6137 34.6281 32.6184 34.8073 32.6184 35.0285C32.6184 35.3425 32.6231 35.8263 32.6325 36.4799C32.6325 36.5306 32.6357 36.5812 32.6372 36.6318C32.6466 37.0448 32.6733 37.4577 32.7164 37.8713C32.7359 38.0622 32.7587 38.2523 32.7861 38.4432C32.8785 39.0976 33.0313 39.6733 33.2444 40.1712C33.4575 40.669 33.7677 40.9175 34.1759 40.9175C34.5841 40.9175 34.9265 40.7009 35.149 40.2678C35.3715 39.8346 35.5893 39.2495 35.8024 38.5117C36.0155 37.7747 36.256 36.9217 36.5255 35.9541C36.7942 34.9865 37.1789 33.9776 37.6795 32.9266C37.7351 32.8347 37.7813 32.7887 37.8182 32.7887C37.8738 32.7887 37.9153 32.918 37.9435 33.1759C37.9717 33.4346 37.9897 33.761 37.9991 34.1575C38.0085 34.5541 38.0038 34.9966 37.985 35.4851C37.9662 35.9735 37.9521 36.4527 37.9435 36.9224C37.9341 37.3922 37.92 37.8254 37.902 38.2219C37.8832 38.6185 37.8738 38.927 37.8738 39.1482C37.8738 39.8673 38.0132 40.3511 38.2906 40.5996C38.5687 40.8482 38.9487 40.9728 39.4305 40.9728C39.5229 40.9728 39.6248 40.9681 39.736 40.9588C39.8473 40.9494 39.9585 40.9362 40.0698 40.9175C40.4216 40.8809 40.6347 40.7975 40.7091 40.669C40.7827 40.5404 40.7929 40.4298 40.7373 40.3371C40.4772 39.9686 40.297 39.5861 40.1951 39.1895L40.1944 39.1887Z" fill="#019A25"/>
<path d="M47.0473 31.1019C46.4354 31.1019 45.9215 31.2125 45.5039 31.4338C45.0871 31.655 44.7393 31.9036 44.4612 32.1801C44.183 32.4567 43.9699 32.7052 43.8219 32.9265C43.673 33.1477 43.5719 33.2584 43.5163 33.2584C43.4419 33.2584 43.4051 33.1298 43.4051 32.8712C43.4051 32.7052 43.4145 32.5354 43.4333 32.3601C43.4513 32.1848 43.4615 32.0882 43.4615 32.0695C43.5727 31.1845 43.7067 30.2862 43.8649 29.3739C44.0224 28.4616 44.1008 27.554 44.1008 26.6503C44.1008 26.1159 44.0632 25.6367 43.9895 25.2122C43.9519 24.8624 43.8273 24.5858 43.6142 24.3824C43.4011 24.1799 43.1277 24.0786 42.794 24.0786C42.3858 24.0786 41.9917 24.1892 41.6125 24.4105C41.2333 24.6317 41.043 24.9636 41.043 25.4061C41.043 25.4435 41.0477 25.4755 41.0571 25.5027C41.0665 25.5308 41.0712 25.5534 41.0712 25.5721C41.1268 26.4384 41.1589 27.3967 41.1683 28.4476C41.1777 29.4986 41.1824 30.5862 41.1824 31.7104C41.1824 32.8346 41.173 33.9681 41.1542 35.111C41.1362 36.2539 41.1268 37.3602 41.1268 38.4283C41.1268 39.2946 41.3305 39.8664 41.7387 40.1422C42.1461 40.4188 42.7854 40.5567 43.6573 40.5567C44.3429 40.5567 45.0472 40.3814 45.7703 40.0316C46.4934 39.6818 47.1468 39.2252 47.7305 38.6628C48.3141 38.1011 48.796 37.4599 49.1759 36.7416C49.5559 36.0225 49.7455 35.3042 49.7455 34.5851C49.7455 33.6082 49.5277 32.7839 49.0921 32.1108C48.6565 31.4385 47.9749 31.1019 47.0489 31.1019H47.0473ZM47.0755 35.3595C46.8898 35.8386 46.6352 36.2671 46.3109 36.645C45.9865 37.0228 45.6199 37.3321 45.2125 37.5713C44.8043 37.8112 44.3781 37.9304 43.9331 37.9304C43.655 37.8751 43.474 37.7326 43.391 37.502C43.3079 37.2713 43.275 37.0181 43.2938 36.7416C43.3118 36.465 43.3541 36.2071 43.4192 35.9672C43.4842 35.728 43.5257 35.5714 43.5445 35.4974C43.637 35.2208 43.7811 34.9404 43.9754 34.6545C44.1705 34.3685 44.3969 34.1107 44.657 33.8801C44.9163 33.6502 45.1992 33.4656 45.5047 33.3269C45.8102 33.189 46.1205 33.1197 46.4362 33.1197C46.7324 33.1197 46.9596 33.1937 47.117 33.3409C47.2745 33.489 47.3529 33.6915 47.3529 33.9494C47.3529 34.4106 47.2596 34.8804 47.0747 35.3595H47.0755Z" fill="#FE4646"/>
<path d="M59.1285 37.4194C59.0635 37.3914 59.0032 37.3781 58.9476 37.3781C58.8363 37.3781 58.7619 37.3968 58.7251 37.4334C58.465 37.6734 58.0529 37.8619 57.488 37.9998C56.9223 38.1385 56.3434 38.207 55.7503 38.207C55.3978 38.207 55.064 38.179 54.7498 38.1237C54.4341 38.0684 54.1521 37.9858 53.9022 37.8752C53.6522 37.7645 53.4525 37.6173 53.3044 37.4327C53.1555 37.2488 53.0819 37.0369 53.0819 36.7969C53.0819 36.7237 53.0999 36.6497 53.1375 36.5757H53.1657C53.4619 36.7603 53.7173 36.8842 53.9304 36.9489C54.1435 37.0135 54.4263 37.0455 54.778 37.0455C55.3155 37.0455 55.7973 36.9621 56.2235 36.7969C56.6497 36.631 57.0156 36.4144 57.3219 36.1472C57.6274 35.88 57.8593 35.5761 58.0168 35.2349C58.1743 34.8937 58.2534 34.5579 58.2534 34.226C58.2534 33.655 58.0035 33.1478 57.5029 32.7053C57.0023 32.2628 56.1867 32.0415 55.0562 32.0415C54.4999 32.0415 53.9484 32.1062 53.4015 32.2355C52.8547 32.3648 52.3682 32.572 51.942 32.8572C51.5158 33.1431 51.1726 33.5069 50.9133 33.9494C50.6532 34.392 50.5239 34.9357 50.5239 35.5808C50.5239 36.9629 50.8898 38.0645 51.6223 38.8848C52.3541 39.7052 53.4337 40.115 54.8611 40.115C55.3429 40.0971 55.8341 40.009 56.3348 39.8524C56.8354 39.6958 57.2945 39.5026 57.7113 39.272C58.1281 39.0414 58.4759 38.7742 58.754 38.4704C59.0322 38.1665 59.1802 37.858 59.199 37.5441C59.2171 37.4887 59.1943 37.4475 59.1293 37.4194H59.1285ZM53.4705 34.7932C53.5997 34.6553 53.7627 34.5353 53.957 34.434C54.1513 34.3327 54.3605 34.2541 54.5822 34.1987C54.8047 34.1434 55.0084 34.1154 55.1941 34.1154C55.4166 34.1154 55.6015 34.1528 55.7503 34.226C55.8984 34.3 55.9728 34.4293 55.9728 34.6132C55.9728 34.8165 55.9078 34.9864 55.7777 35.1251C55.6477 35.2637 55.4902 35.3736 55.3053 35.4569C55.1196 35.5403 54.9206 35.6003 54.7075 35.6369C54.4944 35.6743 54.3135 35.6922 54.1654 35.6922C53.9053 35.6922 53.693 35.6556 53.5261 35.5816C53.3592 35.5084 53.2762 35.3977 53.2762 35.2497C53.2762 35.0838 53.3412 34.9318 53.4705 34.7932Z" fill="#FF0188"/>
<path d="M64.118 31.9587C63.7286 31.9587 63.3902 32.0514 63.1034 32.2353C62.8159 32.4199 62.5707 32.6497 62.367 32.9263C62.1625 33.2029 62.0011 33.5114 61.8805 33.8526C61.7598 34.1938 61.6533 34.5296 61.5608 34.8615C61.6344 33.8105 61.6446 32.9769 61.589 32.3591C61.5334 31.7413 61.3203 31.3775 60.9497 31.2669C60.7084 31.1936 60.4679 31.1562 60.2266 31.1562C59.9297 31.1562 59.7119 31.2349 59.5732 31.3915C59.4345 31.5481 59.3374 31.7421 59.281 31.9719C59.2253 32.2025 59.2026 32.4604 59.2112 32.7463C59.2206 33.0322 59.2253 33.3135 59.2253 33.5893C59.2253 34.2164 59.2575 34.8841 59.3225 35.5938C59.3875 36.3035 59.4847 36.9806 59.6147 37.6256C59.744 38.2715 59.9069 38.8425 60.1012 39.3396C60.2955 39.8374 60.5133 40.188 60.7546 40.3905C60.8839 40.4832 61.0187 40.5425 61.1581 40.5705C61.2968 40.5986 61.4409 40.6118 61.589 40.6118C61.9784 40.6118 62.2095 40.5058 62.2839 40.2939C62.3576 40.082 62.3717 39.8055 62.3255 39.4642C62.2792 39.1238 62.2142 38.7272 62.1312 38.2754C62.0473 37.8243 62.0246 37.3584 62.0614 36.8793C62.0983 36.5661 62.1727 36.2482 62.2839 35.9249C62.3952 35.6024 62.5338 35.3126 62.7007 35.0539C62.8676 34.7961 63.0486 34.5795 63.2429 34.4042C63.4372 34.2289 63.6275 34.1323 63.8124 34.1136C63.9049 34.0957 63.9973 34.1229 64.0906 34.197C64.183 34.271 64.2574 34.3535 64.3131 34.4455C64.4243 34.5748 64.5262 34.6387 64.6186 34.6387C64.8035 34.6387 64.9751 34.514 65.1325 34.2655C65.29 34.017 65.3778 33.7911 65.3966 33.5885C65.4146 33.0728 65.3033 32.6809 65.0628 32.4137C64.8215 32.1464 64.5066 31.9945 64.1172 31.9571L64.118 31.9587Z" fill="#B4009D"/>
<path d="M45.3932 8.28052C45.405 8.29844 45.4277 8.31091 45.4355 8.3296C45.4935 8.47295 45.611 8.52203 45.7528 8.52905C45.8617 8.5345 45.9714 8.52905 46.0811 8.53606C46.114 8.53762 46.1524 8.55475 46.1759 8.57735C46.2973 8.69265 46.4321 8.78848 46.5848 8.85703C46.9241 9.00973 47.2798 9.03856 47.6448 8.99103C47.7459 8.97779 47.8235 8.92715 47.8783 8.84535C47.9143 8.79159 47.9418 8.7316 47.9708 8.67317C48.0201 8.57657 48.0671 8.47841 48.118 8.3818C48.1282 8.36155 48.1509 8.3483 48.1729 8.32571C48.1792 8.34752 48.1831 8.35765 48.1839 8.36778C48.1917 8.51424 48.2105 8.66071 48.2034 8.80639C48.1948 8.99415 48.1658 9.18113 48.1447 9.3681C48.129 9.50833 48.1133 9.64935 48.0953 9.78958C48.0883 9.841 48.111 9.85346 48.1564 9.85112C48.1752 9.84957 48.194 9.8558 48.2175 9.85891C48.2121 9.87527 48.2105 9.88618 48.2058 9.89553C48.0797 10.1495 47.9543 10.4035 47.8258 10.6559C47.7443 10.8148 47.6166 10.9496 47.5743 11.1304C47.5673 11.1592 47.5211 11.1787 47.4921 11.2012C47.4811 11.209 47.4662 11.2114 47.4529 11.2168C47.4505 11.2223 47.4482 11.2285 47.4458 11.234C47.4654 11.2457 47.485 11.2589 47.5054 11.269C47.5148 11.2729 47.5273 11.269 47.5383 11.2698C47.6221 11.2745 47.6472 11.3181 47.6041 11.3882C47.5156 11.5347 47.4325 11.685 47.3362 11.8253C47.2406 11.964 47.2296 12.1182 47.2335 12.274C47.2382 12.4719 47.2993 12.6589 47.3785 12.8404C47.4521 13.0095 47.525 13.1785 47.5955 13.3491C47.6159 13.399 47.637 13.4481 47.6566 13.4972C47.7584 13.755 47.6777 13.9031 47.4819 14.0581C47.4122 14.1134 47.3369 14.1633 47.2672 14.2186C47.1826 14.2856 47.1019 14.358 47.0635 14.4624C47.0573 14.4796 47.0573 14.5123 47.0674 14.5193C47.1105 14.5505 47.1568 14.5816 47.2061 14.5995C47.2531 14.6167 47.3056 14.6175 47.3557 14.6253H47.4216C47.4427 14.6206 47.4639 14.6159 47.485 14.6112C47.5728 14.5949 47.6621 14.5855 47.7475 14.5614C48.0068 14.4866 48.2316 14.344 48.4534 14.1944C48.4675 14.1851 48.4792 14.164 48.4823 14.1461C48.52 13.9646 48.4667 13.8088 48.3413 13.6763C48.31 13.6428 48.2967 13.6101 48.2959 13.5657C48.2951 13.4676 48.2959 13.3686 48.2833 13.272C48.2598 13.0819 48.2387 12.8903 48.2066 12.7017C48.1987 12.6534 48.1901 12.6051 48.1807 12.5576C48.1478 12.3971 48.1792 12.2639 48.2716 12.1377C48.3633 12.013 48.4581 11.8907 48.5474 11.7645C48.5701 11.7334 48.5897 11.7178 48.6296 11.717C48.8647 11.7115 49.1005 11.7061 49.3355 11.6936C49.4209 11.6889 49.5071 11.6843 49.5862 11.6329C49.6701 11.5783 49.7366 11.6032 49.7899 11.6874C49.7923 11.6913 49.7946 11.6967 49.797 11.7006C49.8079 11.7201 49.8181 11.7396 49.8275 11.7598C49.8565 11.8206 49.8816 11.8829 49.9137 11.9421C49.9568 12.0224 50.0226 12.0707 50.1182 12.0777C50.2506 12.087 50.383 12.1011 50.5154 12.1128C50.7512 12.1338 50.987 12.1611 51.2236 12.1735C51.4626 12.186 51.7023 12.1907 51.9413 12.1837C52.0658 12.1798 52.1489 12.2335 52.2272 12.3138C52.2374 12.3239 52.2468 12.3356 52.2554 12.3473C52.3212 12.4368 52.3855 12.5272 52.4513 12.6168C52.5187 12.708 52.5986 12.7851 52.7122 12.8131C52.7333 12.8186 52.767 12.8085 52.7827 12.7937C52.8454 12.7329 52.8736 12.655 52.8806 12.5693C52.8908 12.4509 52.8603 12.3387 52.8234 12.2281C52.7788 12.0941 52.7106 11.9686 52.6973 11.8245C52.6942 11.7926 52.6848 11.7606 52.673 11.7302C52.6378 11.6367 52.5633 11.5877 52.463 11.5838C52.3408 11.5791 52.2358 11.6313 52.1309 11.6819C52.0948 11.6991 52.0666 11.6967 52.0282 11.6835C51.888 11.6329 51.7478 11.5791 51.6036 11.5433C51.3474 11.4802 51.085 11.4677 50.8217 11.4661C50.781 11.4661 50.7465 11.4568 50.7183 11.4389C50.6909 11.4217 50.6689 11.3952 50.6533 11.3602C50.6392 11.329 50.6329 11.294 50.6188 11.2628C50.6016 11.2238 50.6125 11.1935 50.6447 11.1724C50.7128 11.128 50.7841 11.0867 50.8538 11.0454C50.9181 11.0073 50.9855 10.9753 51.0458 10.9317C51.1179 10.8795 51.1179 10.8639 51.0497 10.807C51.0317 10.7922 50.9933 10.7946 50.9659 10.8C50.8977 10.8125 50.8954 10.8117 50.8742 10.7455C50.8319 10.6107 50.792 10.4752 50.7426 10.3427C50.636 10.0529 50.5256 9.76543 50.4143 9.47717C50.3846 9.40004 50.3736 9.33226 50.4621 9.28552C50.4731 9.28007 50.4801 9.2676 50.4888 9.25825C50.524 9.22319 50.5318 9.18736 50.5138 9.13672C50.3822 8.76354 50.307 8.37791 50.2717 7.98526C50.2663 7.92293 50.271 7.85983 50.271 7.79516C50.278 7.79672 50.2866 7.79672 50.2945 7.80062C50.5342 7.91514 50.7739 8.03044 51.0129 8.14574C51.0442 8.16055 51.074 8.17847 51.1053 8.19249C51.2025 8.23534 51.2973 8.23456 51.3842 8.16912C51.5527 8.04135 51.7188 7.91124 51.8856 7.78114C52.0917 7.62143 52.2954 7.45939 52.5046 7.30357C52.5829 7.24514 52.5892 7.24514 52.5492 7.15711C52.5195 7.09089 52.5289 7.06985 52.5962 7.04103C52.6628 7.0122 52.7318 6.98571 52.7944 6.94987C52.9637 6.85093 53.0984 6.71226 53.2261 6.56657C53.2951 6.48789 53.2731 6.3905 53.1697 6.36713C53.0984 6.35077 53.0216 6.34766 52.9488 6.35311C52.8328 6.36246 52.7271 6.40998 52.6291 6.47153C52.5939 6.49334 52.5751 6.48711 52.5571 6.45127C52.5375 6.41232 52.514 6.37492 52.4912 6.33831C52.4576 6.28377 52.4004 6.27209 52.344 6.27286C52.3244 6.27286 52.2938 6.30325 52.2883 6.32506C52.2742 6.38271 52.2727 6.44348 52.2625 6.50269C52.246 6.59852 52.2546 6.70369 52.1465 6.76212C52.0987 6.78783 52.0611 6.8299 52.0157 6.86028C51.7752 7.02233 51.5339 7.18204 51.2934 7.34486C51.262 7.3659 51.2448 7.35265 51.2244 7.33162C51.0826 7.18983 50.9392 7.0496 50.799 6.90625C50.763 6.86963 50.7363 6.82289 50.7042 6.78238C50.6776 6.7481 50.6541 6.70681 50.6196 6.68421C50.5115 6.61332 50.3987 6.55021 50.2882 6.48321C50.2545 6.46296 50.2232 6.43959 50.184 6.41388C50.2435 6.37103 50.2968 6.33753 50.3626 6.35545C50.4692 6.38349 50.5742 6.37804 50.6729 6.3313C50.7935 6.27442 50.9095 6.21054 51.0278 6.14899C51.103 6.11004 51.1312 6.06797 51.1116 5.98617C51.0991 5.93319 51.0685 5.88333 51.0395 5.83581C51.0215 5.80698 50.9815 5.81477 50.9651 5.84749C50.9565 5.86541 50.9557 5.88801 50.9439 5.90281C50.9283 5.92228 50.9009 5.95189 50.886 5.94799C50.8452 5.93787 50.7904 5.92151 50.7731 5.89034C50.7261 5.80309 50.7066 5.70415 50.7183 5.60287C50.7183 5.60053 50.7238 5.59897 50.7301 5.59586C50.7481 5.60365 50.7677 5.61299 50.788 5.62079C50.9557 5.68701 51.1233 5.75323 51.2918 5.81867C51.3161 5.82802 51.3404 5.83892 51.3537 5.80231C51.3811 5.72752 51.4117 5.65351 51.4391 5.57872C51.4532 5.54132 51.4414 5.51639 51.4023 5.49691C51.2612 5.42836 51.1233 5.35434 50.9831 5.28501C50.9424 5.26475 50.9314 5.24839 50.9557 5.20321C51.038 5.04973 51.0246 4.89937 50.9095 4.76771C50.7042 4.53243 50.3281 4.37817 49.9826 4.5262C49.9458 4.54178 49.9255 4.53554 49.9043 4.50672C49.8542 4.43582 49.7985 4.36727 49.7539 4.29325C49.7053 4.21457 49.5737 4.14056 49.482 4.15146C49.3982 4.16159 49.3504 4.22547 49.3692 4.30572C49.3794 4.34779 49.3896 4.39142 49.4084 4.43037C49.453 4.52542 49.5016 4.61813 49.5502 4.71551C49.5369 4.72252 49.5212 4.73109 49.5047 4.7381C49.4084 4.77939 49.3065 4.79809 49.2016 4.80354C49.1099 4.80822 49.0833 4.84873 49.1052 4.93598C49.1099 4.95546 49.1146 4.97494 49.1209 4.99364C49.142 5.05674 49.1553 5.11751 49.0934 5.16737C49.0887 5.17126 49.0864 5.17983 49.0848 5.18684C49.0668 5.26475 49.048 5.34188 49.0323 5.41979C49.0151 5.50704 49.0221 5.58884 49.106 5.6426C49.1553 5.67454 49.2078 5.70259 49.2627 5.72518C49.3394 5.75712 49.3614 5.79062 49.3481 5.87165C49.3363 5.94799 49.2979 6.01344 49.2345 6.05083C49.1044 6.12718 48.9712 6.19963 48.8341 6.25962C48.766 6.28923 48.6853 6.29 48.6093 6.30169C48.4886 6.32039 48.3774 6.35311 48.3076 6.46529C48.1415 6.73174 48.0107 7.01532 47.8807 7.29968C47.7569 7.56923 47.6253 7.8349 47.4317 8.06394C47.3941 8.10835 47.3518 8.16756 47.3017 8.18002C47.0753 8.23845 46.8536 8.2182 46.6459 8.10134C46.5606 8.05303 46.4767 8.00551 46.3882 8.10134C46.367 8.07017 46.3467 8.0468 46.3326 8.02031C46.2715 7.89878 46.2135 7.77491 46.1532 7.65337C46.1179 7.5817 46.0662 7.57547 46.0137 7.63701C45.9973 7.65649 45.9847 7.68376 45.98 7.70947C45.9667 7.77647 45.9604 7.8458 45.9463 7.9128C45.9338 7.97357 45.8938 8.01564 45.8319 8.02343C45.7654 8.032 45.6972 8.03278 45.6298 8.03122C45.5225 8.02888 45.4151 8.02109 45.3078 8.0172C45.2655 8.01564 45.2412 8.0359 45.2655 8.07797C45.3055 8.14808 45.3501 8.21586 45.3948 8.28364L45.3932 8.28052Z" fill="#FF6600"/>
<path d="M35.4768 8.4023C35.1431 8.5363 34.807 8.66562 34.4724 8.79729C34.4536 8.90558 34.4348 9.01387 34.416 9.12294C34.4309 9.1206 34.4466 9.11437 34.4615 9.11593C34.7537 9.13307 35.0459 9.15254 35.3389 9.1689C35.4008 9.1728 35.4635 9.16968 35.5262 9.17046L35.5301 9.14865C35.5747 9.19072 35.6233 9.22967 35.6633 9.27641C35.7737 9.40574 35.8826 9.53662 35.9915 9.66673C36.0519 9.73918 36.1137 9.81007 36.1741 9.88331C36.2822 10.0134 36.384 10.149 36.4929 10.2783C36.5337 10.3266 36.583 10.3694 36.6363 10.4029C36.7883 10.4988 36.9238 10.4847 37.0484 10.357C37.1244 10.2783 37.1855 10.1848 37.2584 10.103C37.3093 10.0461 37.361 9.98303 37.426 9.94797C37.4785 9.91992 37.5545 9.91447 37.6148 9.92693C37.6665 9.93784 37.6893 9.93395 37.7159 9.8911C38.0167 9.41976 38.3481 8.97024 38.696 8.5324C38.7109 8.51293 38.7093 8.48176 38.7218 8.45839C38.7281 8.44671 38.7548 8.43112 38.7602 8.43502C38.8041 8.46618 38.8542 8.49501 38.8864 8.5363C39.1238 8.84014 39.3549 9.14865 39.5938 9.45092C39.6925 9.57635 39.8061 9.6901 39.9174 9.81397C39.9487 9.78982 39.9691 9.76956 39.9934 9.75554C40.0576 9.71737 40.0905 9.73373 40.1164 9.80306C40.1344 9.85214 40.1587 9.89967 40.1861 9.94407C40.2284 10.0111 40.2762 10.075 40.3209 10.1404C40.331 10.1552 40.335 10.1684 40.3357 10.1809C40.3365 10.2004 40.3271 10.2191 40.3052 10.2401C40.1853 10.357 40.0576 10.4692 39.9589 10.6024C39.767 10.8618 39.593 11.1353 39.4105 11.4017C39.3141 11.5427 39.2138 11.6822 39.1136 11.8255C39.1253 11.8364 39.1371 11.8497 39.1504 11.8606C39.3235 11.9961 39.5163 12.0982 39.7247 12.166C39.9049 12.2244 40.089 12.2688 40.2715 12.3202C40.3593 12.3452 40.3812 12.3319 40.3679 12.2408C40.3428 12.06 40.2848 11.8988 40.096 11.8208C40.0514 11.8029 40.0098 11.7764 39.9683 11.7523C39.9487 11.7406 39.9315 11.7242 39.9088 11.7063C39.9354 11.6783 39.9558 11.6565 39.9777 11.6347C40.353 11.2529 40.7259 10.8688 41.1059 10.491C41.1278 10.4692 41.1474 10.4466 41.1654 10.4232C41.279 10.2775 41.3174 10.1061 41.3386 9.92538C41.3542 9.79138 41.3127 9.6753 41.221 9.5748C41.1576 9.50468 41.0965 9.43145 41.0409 9.3551C40.9617 9.24603 40.9226 9.12761 41.0503 9.0014C41.0604 8.99127 41.0573 8.95154 41.0456 8.93752C40.7996 8.64926 40.552 8.36257 40.3052 8.07509C40.2347 7.99329 40.1634 7.91227 40.0952 7.82891C40.0835 7.81488 40.0819 7.79151 40.0756 7.77281C40.0976 7.77048 40.1203 7.76736 40.1422 7.76502C40.1462 7.76502 40.1509 7.76736 40.154 7.7697C40.2033 7.8032 40.2182 7.77827 40.2261 7.73074C40.2402 7.64193 40.2613 7.55389 40.2731 7.4643C40.3193 7.12229 40.36 6.7795 40.4102 6.43827C40.447 6.18819 40.4956 5.94045 40.5355 5.69036C40.5441 5.63895 40.5661 5.61557 40.6154 5.60311C40.9108 5.52832 41.2054 5.45275 41.4992 5.37328C41.8462 5.27902 42.1917 5.18085 42.538 5.08191C42.5623 5.0749 42.5936 5.05543 42.6007 5.03439C42.6963 4.75704 42.7872 4.47736 42.882 4.19923C42.9713 3.93824 43.0653 3.67803 43.1562 3.41705C43.171 3.3742 43.1985 3.35939 43.2408 3.34849C43.3324 3.32512 43.4296 3.30642 43.5095 3.25967C43.7163 3.13814 43.9145 3.0018 44.1167 2.8717C44.1551 2.84677 44.195 2.82573 44.242 2.79769C44.1386 2.70264 44.054 2.64032 43.92 2.68005C43.7014 2.74549 43.4758 2.7712 43.247 2.76652C43.1969 2.76574 43.146 2.75795 43.0849 2.7525C43.1209 2.70731 43.1507 2.67693 43.1718 2.64187C43.2079 2.58033 43.1679 2.51021 43.0998 2.52112C42.9697 2.54137 42.8483 2.59045 42.7519 2.68083C42.6963 2.73302 42.6477 2.79613 42.6093 2.86157C42.473 3.09217 42.339 3.32434 42.209 3.55884C42.0774 3.79567 41.9426 4.03017 41.7452 4.22026C41.7162 4.24831 41.6786 4.27324 41.641 4.28415C41.3025 4.38309 40.9633 4.47969 40.6233 4.57318C40.5943 4.58097 40.5512 4.57552 40.5261 4.55916C40.4172 4.48904 40.3099 4.41425 40.2057 4.33712C40.1634 4.30518 40.1289 4.26311 40.0882 4.22338C40.219 4.10418 40.342 4.00524 40.5175 3.98421C40.6797 3.96473 40.7612 3.87436 40.7847 3.71075C40.7956 3.63752 40.7964 3.56195 40.7972 3.48794C40.7995 3.33602 40.8215 3.19112 40.9476 3.07815C40.9014 3.05088 40.8607 3.03219 40.8262 3.0057C40.7706 2.96363 40.7095 2.92467 40.6671 2.87092C40.6123 2.80158 40.6311 2.75406 40.7001 2.7003C40.7815 2.63642 40.8599 2.56864 40.9335 2.49775C40.9602 2.47204 40.9711 2.42997 40.9891 2.39569C40.9837 2.39101 40.979 2.38634 40.9735 2.38166C40.9429 2.39179 40.9108 2.3988 40.8818 2.41205C40.8097 2.44477 40.7392 2.48139 40.6671 2.51489C40.5598 2.56475 40.5622 2.56241 40.4768 2.48294C40.2316 2.25623 39.9464 2.13782 39.6165 2.24299C39.4027 2.31155 39.2107 2.43698 39.0501 2.5998C38.9616 2.6894 38.8864 2.79847 38.8895 2.9239C38.8934 3.09996 38.9232 3.27603 38.9514 3.45055C38.9616 3.51287 39.0109 3.56039 39.0775 3.58454C39.0854 3.57286 39.0901 3.56273 39.0971 3.55494C39.1057 3.54637 39.1167 3.53936 39.1261 3.53235C39.1786 3.58299 39.1919 3.61337 39.1817 3.68738C39.1739 3.74347 39.1997 3.77931 39.2436 3.79957C39.3572 3.85021 39.4199 3.9211 39.4011 4.05822C39.3846 4.17586 39.3729 4.20858 39.2585 4.2413C39.1927 4.26 39.1261 4.27558 39.0634 4.30207C39.029 4.31609 39.0109 4.31453 38.9929 4.28493C38.9248 4.17664 38.8503 4.07224 38.7892 3.96083C38.5871 3.59078 38.4821 3.18956 38.4304 2.77509C38.3779 2.35284 38.3434 1.92903 38.2964 1.50677C38.2855 1.40471 38.3058 1.31356 38.3552 1.22942C38.4751 1.02375 38.638 0.854692 38.8221 0.705111C38.8558 0.677844 38.8864 0.646681 38.9185 0.617856C38.913 0.609286 38.9067 0.601495 38.9013 0.592925C38.638 0.515019 38.4704 0.688751 38.2894 0.843006C38.2721 0.812622 38.2533 0.788471 38.2424 0.761204C38.222 0.709786 38.204 0.658367 38.1899 0.60539C38.164 0.508786 38.1264 0.420751 38.0543 0.345961C38.0191 0.309345 38.0026 0.252473 37.9862 0.201833C37.9713 0.156647 37.8961 0.0795198 37.8499 0.0810779C37.7801 0.0834151 37.777 0.141066 37.7684 0.190147C37.7488 0.298438 37.7316 0.407507 37.7128 0.515798C37.7034 0.567216 37.683 0.617856 37.6838 0.668495C37.6846 0.851576 37.7676 1.01206 37.8365 1.17645C37.8984 1.32447 37.9274 1.33927 37.7276 1.33304C37.7096 1.33304 37.6791 1.3533 37.6744 1.37043C37.654 1.4351 37.636 1.5021 37.6274 1.5691C37.5898 1.87371 37.549 2.17833 37.5232 2.4845C37.4973 2.79223 37.4871 3.10152 37.4722 3.41003C37.4699 3.46301 37.466 3.52378 37.4871 3.56974C37.7457 4.14158 38.0308 4.69939 38.3427 5.24474C38.3709 5.29382 38.4092 5.33978 38.3787 5.40289C38.3748 5.41146 38.385 5.42626 38.3865 5.43873C38.3904 5.4621 38.403 5.49014 38.3951 5.50884C38.3223 5.6779 38.2502 5.84774 38.1679 6.0129C37.9674 6.41334 37.7621 6.81144 37.5569 7.20877C37.5255 7.27031 37.5247 7.31238 37.5929 7.34588C37.6282 7.36302 37.6571 7.39263 37.6908 7.41366C37.7269 7.43548 37.7316 7.45963 37.7088 7.49469C37.6227 7.62946 37.542 7.76814 37.4527 7.90136C37.3383 8.0712 37.2129 8.23324 37.1017 8.40464C37.0178 8.53318 36.952 8.67264 36.8737 8.80508C36.8181 8.89934 36.7546 8.98972 36.6982 9.08398C36.6872 9.1019 36.6817 9.13696 36.6919 9.15254C36.7444 9.23356 36.8024 9.31147 36.8588 9.39016C36.876 9.41431 36.9058 9.43768 36.8659 9.46728C36.8314 9.49222 36.8047 9.54285 36.7499 9.49611C36.6363 9.39951 36.5149 9.30991 36.4068 9.20708C36.312 9.11748 36.2195 9.02477 36.1255 8.9344C35.9516 8.7669 35.7769 8.5994 35.6053 8.42957C35.5645 8.38983 35.5324 8.38204 35.4792 8.40308L35.4768 8.4023Z" fill="#FF0188"/>
<path d="M48.183 3.13908C48.8001 2.62872 48.763 1.57244 48.1001 0.779828C47.4372 -0.0127866 46.3995 -0.241592 45.7824 0.268773C45.1653 0.779139 45.2024 1.83541 45.8654 2.62803C46.5283 3.42064 47.5659 3.64945 48.183 3.13908Z" fill="#00B8B6"/>
<path d="M65.3125 21.9363C65.1589 21.9597 64.8252 22.0508 64.3097 22.2113C63.7941 22.3718 63.5356 22.5323 62.8681 22.6928C62.199 22.8533 62.1708 23.0021 61.4454 23.1399C60.7191 23.2771 60.061 23.3464 59.4687 23.3464C58.9916 23.3464 58.567 23.2724 58.1941 23.1228C57.8219 22.974 57.5971 22.5556 57.5211 21.8685C57.5015 21.7306 57.554 21.5818 57.6786 21.4213C57.8023 21.2616 57.9504 21.112 58.1228 20.9741C58.2943 20.837 58.4565 20.7163 58.6093 20.6134C58.7621 20.5106 58.867 20.4475 58.9242 20.4241C59.2298 20.2177 59.6356 19.8975 60.1417 19.462C60.647 19.0272 61.1437 18.5396 61.631 18.0012C62.1176 17.4629 62.543 16.9074 62.9057 16.334C63.2685 15.7614 63.4502 15.234 63.4502 14.7533C63.4502 14.5702 63.4024 14.4783 63.3068 14.4783C63.1729 14.4783 62.9723 14.6154 62.7052 14.8904C62.4372 15.1654 62.1364 15.4747 61.8026 15.8183C61.4681 16.1618 61.1296 16.4711 60.7857 16.7461C60.4418 17.0212 60.1268 17.1583 59.8409 17.1583C59.7069 17.1583 59.5447 17.0843 59.3543 16.9347C59.1632 16.7859 58.9767 16.6082 58.7957 16.4018C58.614 16.1953 58.4612 15.9897 58.3374 15.7832C58.2129 15.5768 58.151 15.428 58.151 15.336C58.151 14.9925 58.3844 14.6886 58.8529 14.4253C59.3207 14.162 59.8699 13.9329 60.4997 13.7382C61.1296 13.5434 61.7548 13.3946 62.3761 13.2918C62.9966 13.1889 63.4596 13.1367 63.7652 13.1367C64.4906 13.1367 64.992 13.2801 65.2686 13.5668C65.5452 13.8535 65.6838 14.2368 65.6838 14.7182C65.6838 14.9021 65.5788 15.1646 65.3689 15.509C65.1589 15.8525 64.8965 16.2366 64.5815 16.6604C64.2666 17.085 63.9179 17.5198 63.5364 17.9669C63.1541 18.4133 62.7866 18.8379 62.4333 19.2384C62.08 19.6396 61.7642 19.9949 61.4885 20.3041C61.2119 20.6134 61.0254 20.8253 60.9299 20.9399C61.0826 21.0084 61.2926 21.0427 61.5598 21.0427C61.8269 21.0427 61.465 21.0201 61.8081 20.9741C62.152 20.929 62.4999 20.883 62.8532 20.837C63.2066 20.7911 63.2254 20.7459 63.5787 20.6999C63.932 20.6539 64.2415 20.6314 64.5094 20.6314C64.7774 20.6314 64.9678 20.6485 65.0821 20.6828C65.1965 20.717 65.3587 20.8152 65.5687 20.9749C65.8554 21.1588 65.998 21.3302 65.998 21.4907C65.998 21.6052 65.9361 21.6971 65.8115 21.7657C65.687 21.8342 65.5201 21.8919 65.3101 21.9378L65.3125 21.9363Z" fill="#71CD00"/>
</g>
<defs>
<clipPath id="clip0_13608_12142">
<rect width="66" height="41" fill="white"/>
</clipPath>
</defs>
</svg>
