<svg width="570" height="369" viewBox="0 0 570 369" fill="none" xmlns="http://www.w3.org/2000/svg">
<rect y="0.229004" width="570" height="368" rx="12" fill="#DDF9F8"/>
<rect x="13" y="15.229" width="542" height="188" rx="10" fill="white"/>
<g style="mix-blend-mode:luminosity" clip-path="url(#clip0_10520_110245)">
<path d="M278.325 106.396L288.673 139.545L297.174 127.908L311.217 132.844L300.13 100.754L278.325 106.396Z" fill="#CD3414"/>
<g opacity="0.7">
<path d="M284.152 115.627L283.06 115.945L289.978 137.578L291.07 137.26L284.152 115.627Z" fill="#FFCE45"/>
</g>
<g opacity="0.7">
<path d="M299.937 105.873L298.848 106.2L307.349 131.944L308.438 131.616L299.937 105.873Z" fill="#FFCE45"/>
</g>
<path d="M265.761 102.866L254.675 133.548L269.826 128.61L277.586 139.895L290.521 107.099L265.761 102.866Z" fill="#FE5629"/>
<g opacity="0.7">
<path d="M268.555 101.65L258.204 131.977L259.289 132.314L269.64 101.987L268.555 101.65Z" fill="#FFCE45"/>
</g>
<g opacity="0.7">
<path d="M287.035 105.161L275.205 137.251L276.282 137.613L288.112 105.522L287.035 105.161Z" fill="#FFCE45"/>
</g>
<path d="M249.5 81.355C249.5 79.87 253.287 78.6634 253.5 77.2366C253.719 75.775 250.442 73.6007 250.868 72.2135C251.303 70.8015 255.293 70.6604 255.926 69.3412C256.559 68.022 254.069 65.0359 254.888 63.812C255.708 62.5881 259.59 63.5212 260.595 62.4185C261.6 61.3159 260.076 57.7927 261.233 56.8361C262.39 55.8795 265.825 57.8162 267.114 57.0242C268.403 56.2322 267.971 52.4454 269.371 51.8365C270.77 51.2277 273.477 54.0158 274.958 53.6025C276.411 53.1953 277.128 49.4456 278.66 49.2377C280.155 49.0348 281.944 52.438 283.497 52.438C285.051 52.438 286.841 49.0348 288.336 49.2377C289.868 49.4456 290.585 53.1978 292.039 53.6025C293.518 54.0158 296.243 51.2338 297.625 51.8365C299.008 52.4392 298.599 56.2359 299.882 57.0242C301.165 57.8125 304.609 55.8807 305.763 56.8361C306.918 57.7915 305.399 61.3159 306.401 62.4185C307.404 63.5212 311.272 62.5819 312.108 63.812C312.943 65.0421 310.436 68.0072 311.07 69.3412C311.704 70.6752 315.693 70.8015 316.128 72.2135C316.555 73.6007 313.275 75.775 313.497 77.2366C313.709 78.6634 317.496 79.8725 317.496 81.355C317.496 82.8376 313.712 84.0516 313.499 85.4735C313.28 86.9362 316.556 89.1093 316.131 90.4978C315.696 91.9098 311.706 92.0496 311.073 93.3701C310.44 94.6905 312.93 97.6754 312.11 98.8993C311.291 100.123 307.409 99.1901 306.404 100.291C305.399 101.393 306.923 104.917 305.766 105.875C304.609 106.833 301.174 104.894 299.885 105.687C298.596 106.48 299.027 110.266 297.628 110.873C296.229 111.481 293.521 108.694 292.041 109.109C290.587 109.516 289.87 113.264 288.339 113.474C286.843 113.676 285.055 110.273 283.5 110.273C281.945 110.273 280.158 113.676 278.663 113.474C277.131 113.264 276.414 109.513 274.96 109.109C273.479 108.694 270.756 111.477 269.372 110.873C267.988 110.27 268.399 106.474 267.117 105.687C265.834 104.9 262.39 106.831 261.234 105.875C260.079 104.92 261.6 101.395 260.597 100.291C259.595 99.1876 255.726 100.129 254.891 98.898C254.056 97.6667 256.563 94.7041 255.929 93.3701C255.294 92.036 251.305 91.9098 250.871 90.4978C250.444 89.1093 253.724 86.9362 253.502 85.4735C253.287 84.0516 249.5 82.8376 249.5 81.355Z" fill="#FCAB28"/>
<path d="M283.5 107.45C298.604 107.45 310.848 95.7657 310.848 81.3529C310.848 66.94 298.604 55.2561 283.5 55.2561C268.396 55.2561 256.152 66.94 256.152 81.3529C256.152 95.7657 268.396 107.45 283.5 107.45Z" fill="#FFCE45"/>
<path d="M283.499 107.983C277.044 107.982 270.789 105.846 265.8 101.938C260.812 98.0297 257.397 92.5919 256.138 86.5509C254.88 80.5099 255.856 74.2394 258.899 68.8078C261.942 63.3761 266.865 59.1195 272.829 56.763C278.792 54.4066 285.427 54.0962 291.604 55.8846C297.78 57.6731 303.116 61.4499 306.702 66.5714C310.287 71.6929 311.901 77.8422 311.268 83.9717C310.634 90.1013 307.794 95.8317 303.229 100.187C300.644 102.666 297.569 104.632 294.182 105.97C290.795 107.309 287.164 107.993 283.499 107.983ZM283.499 55.7907C268.725 55.7907 256.705 67.26 256.705 81.3578C256.705 95.4556 268.725 106.925 283.499 106.925C298.273 106.925 310.292 95.4556 310.292 81.3578C310.292 67.26 298.273 55.7907 283.499 55.7907Z" fill="#FCAB28"/>
<path d="M283.5 100.042C294.317 100.042 303.087 91.6745 303.087 81.3522C303.087 71.0299 294.317 62.662 283.5 62.662C272.683 62.662 263.913 71.0299 263.913 81.3522C263.913 91.6745 272.683 100.042 283.5 100.042Z" fill="#FFD733"/>
<path d="M299.76 73.9467C299.759 72.7786 299.643 71.6132 299.415 70.4655C296.817 67.0051 293.059 64.4949 288.762 63.3502C284.465 62.2056 279.888 62.4951 275.787 64.1709C271.686 65.8467 268.308 68.8084 266.211 72.5657C264.115 76.3231 263.425 80.6509 264.257 84.8331C266.672 88.0507 270.096 90.4535 274.034 91.6952C277.972 92.9369 282.222 92.9533 286.17 91.7421C290.119 90.5309 293.563 88.1547 296.005 84.9558C298.447 81.757 299.762 77.9008 299.76 73.943V73.9467Z" fill="#FFE266"/>
<path d="M283.499 100.588C272.385 100.588 263.342 91.9596 263.342 81.3529C263.342 70.7461 272.389 62.1182 283.499 62.1182C294.609 62.1182 303.657 70.7474 303.657 81.3529C303.657 91.9584 294.614 100.588 283.499 100.588ZM283.499 63.2072C273.014 63.2072 264.483 71.3476 264.483 81.3529C264.483 91.3582 273.014 99.4998 283.499 99.4998C293.984 99.4998 302.516 91.3594 302.516 81.3529C302.516 71.3463 293.985 63.2072 283.499 63.2072Z" fill="#FCAB28"/>
</g>
<path d="M224.665 157.168H226.732L228.722 160.927H228.807L230.797 157.168H232.864L229.681 162.81V165.896H227.848V162.81L224.665 157.168ZM235.424 166.023C234.762 166.023 234.19 165.883 233.707 165.602C233.227 165.318 232.856 164.923 232.594 164.417C232.333 163.908 232.202 163.319 232.202 162.648C232.202 161.972 232.333 161.381 232.594 160.876C232.856 160.367 233.227 159.972 233.707 159.691C234.19 159.407 234.762 159.265 235.424 159.265C236.086 159.265 236.657 159.407 237.137 159.691C237.62 159.972 237.992 160.367 238.254 160.876C238.515 161.381 238.646 161.972 238.646 162.648C238.646 163.319 238.515 163.908 238.254 164.417C237.992 164.923 237.62 165.318 237.137 165.602C236.657 165.883 236.086 166.023 235.424 166.023ZM235.433 164.617C235.734 164.617 235.985 164.532 236.187 164.362C236.388 164.188 236.54 163.952 236.643 163.654C236.748 163.356 236.8 163.016 236.8 162.636C236.8 162.255 236.748 161.916 236.643 161.617C236.54 161.319 236.388 161.083 236.187 160.91C235.985 160.737 235.734 160.65 235.433 160.65C235.129 160.65 234.873 160.737 234.665 160.91C234.461 161.083 234.306 161.319 234.201 161.617C234.099 161.916 234.048 162.255 234.048 162.636C234.048 163.016 234.099 163.356 234.201 163.654C234.306 163.952 234.461 164.188 234.665 164.362C234.873 164.532 235.129 164.617 235.433 164.617ZM244.023 163.109V159.35H245.839V165.896H244.096V164.707H244.028C243.88 165.09 243.634 165.398 243.29 165.631C242.95 165.864 242.533 165.981 242.042 165.981C241.604 165.981 241.219 165.881 240.887 165.683C240.555 165.484 240.295 165.201 240.107 164.835C239.923 164.468 239.829 164.029 239.826 163.518V159.35H241.641V163.194C241.644 163.58 241.748 163.886 241.952 164.11C242.157 164.335 242.431 164.447 242.775 164.447C242.994 164.447 243.198 164.397 243.388 164.298C243.579 164.195 243.732 164.045 243.849 163.846C243.968 163.647 244.026 163.401 244.023 163.109ZM248.988 157.168V158.089C248.988 158.35 248.937 158.617 248.835 158.89C248.735 159.16 248.602 159.416 248.434 159.657C248.266 159.896 248.083 160.099 247.884 160.266L247.083 159.793C247.225 159.569 247.35 159.32 247.458 159.048C247.569 158.775 247.624 158.458 247.624 158.097V157.168H248.988ZM249.939 165.896V159.35H251.699V160.492H251.767C251.887 160.086 252.087 159.779 252.368 159.572C252.65 159.362 252.973 159.256 253.34 159.256C253.431 159.256 253.529 159.262 253.634 159.273C253.739 159.285 253.831 159.3 253.911 159.32V160.931C253.826 160.906 253.708 160.883 253.557 160.863C253.407 160.843 253.269 160.833 253.144 160.833C252.877 160.833 252.638 160.891 252.428 161.008C252.221 161.121 252.056 161.281 251.934 161.485C251.814 161.69 251.755 161.925 251.755 162.193V165.896H249.939ZM257.528 166.023C256.854 166.023 256.275 165.887 255.789 165.614C255.306 165.339 254.934 164.95 254.673 164.447C254.411 163.941 254.281 163.343 254.281 162.653C254.281 161.979 254.411 161.389 254.673 160.88C254.934 160.371 255.302 159.975 255.776 159.691C256.254 159.407 256.813 159.265 257.455 159.265C257.887 159.265 258.289 159.335 258.661 159.474C259.036 159.61 259.363 159.816 259.641 160.092C259.923 160.367 260.141 160.714 260.298 161.131C260.454 161.546 260.532 162.032 260.532 162.589V163.087H255.005V161.962H258.823C258.823 161.701 258.766 161.469 258.653 161.268C258.539 161.066 258.381 160.908 258.18 160.795C257.981 160.678 257.749 160.62 257.485 160.62C257.21 160.62 256.965 160.684 256.752 160.812C256.542 160.937 256.377 161.106 256.258 161.319C256.138 161.529 256.077 161.764 256.075 162.022V163.092C256.075 163.416 256.134 163.695 256.254 163.931C256.376 164.167 256.548 164.349 256.769 164.477C256.991 164.604 257.254 164.668 257.558 164.668C257.759 164.668 257.944 164.64 258.112 164.583C258.279 164.526 258.423 164.441 258.542 164.327C258.661 164.214 258.752 164.075 258.815 163.91L260.494 164.021C260.408 164.424 260.234 164.776 259.969 165.077C259.708 165.376 259.37 165.609 258.955 165.776C258.543 165.941 258.067 166.023 257.528 166.023ZM266.36 166.019C265.943 166.019 265.571 165.947 265.244 165.802C264.917 165.654 264.659 165.437 264.468 165.15C264.281 164.86 264.187 164.499 264.187 164.068C264.187 163.704 264.254 163.398 264.387 163.151C264.521 162.904 264.703 162.705 264.933 162.555C265.163 162.404 265.424 162.291 265.717 162.214C266.012 162.137 266.322 162.083 266.646 162.052C267.027 162.012 267.333 161.975 267.566 161.941C267.799 161.904 267.968 161.85 268.074 161.779C268.179 161.708 268.231 161.603 268.231 161.464V161.438C268.231 161.168 268.146 160.96 267.975 160.812C267.808 160.664 267.569 160.59 267.26 160.59C266.933 160.59 266.673 160.663 266.48 160.808C266.287 160.95 266.159 161.129 266.096 161.344L264.417 161.208C264.502 160.81 264.67 160.467 264.92 160.177C265.17 159.884 265.493 159.66 265.887 159.504C266.285 159.344 266.745 159.265 267.268 159.265C267.632 159.265 267.98 159.308 268.312 159.393C268.647 159.478 268.944 159.61 269.203 159.789C269.464 159.968 269.67 160.198 269.821 160.479C269.971 160.758 270.047 161.092 270.047 161.481V165.896H268.325V164.988H268.274C268.169 165.193 268.028 165.373 267.852 165.529C267.676 165.683 267.464 165.803 267.217 165.891C266.97 165.977 266.684 166.019 266.36 166.019ZM266.88 164.766C267.147 164.766 267.383 164.714 267.588 164.609C267.792 164.501 267.953 164.356 268.069 164.174C268.186 163.992 268.244 163.786 268.244 163.556V162.862C268.187 162.898 268.109 162.933 268.01 162.964C267.913 162.992 267.804 163.019 267.681 163.045C267.559 163.068 267.437 163.089 267.315 163.109C267.193 163.126 267.082 163.141 266.983 163.156C266.77 163.187 266.583 163.237 266.424 163.305C266.265 163.373 266.142 163.465 266.054 163.582C265.966 163.695 265.922 163.837 265.922 164.008C265.922 164.255 266.011 164.444 266.19 164.575C266.372 164.702 266.602 164.766 266.88 164.766ZM279.001 159.678C278.967 159.335 278.82 159.068 278.562 158.877C278.303 158.687 277.952 158.592 277.509 158.592C277.208 158.592 276.954 158.634 276.746 158.719C276.539 158.802 276.38 158.917 276.269 159.065C276.161 159.212 276.107 159.38 276.107 159.568C276.102 159.724 276.134 159.86 276.205 159.977C276.279 160.093 276.38 160.194 276.508 160.279C276.636 160.362 276.783 160.434 276.951 160.496C277.119 160.556 277.298 160.607 277.488 160.65L278.272 160.837C278.653 160.923 279.002 161.036 279.32 161.178C279.638 161.32 279.914 161.495 280.147 161.702C280.38 161.91 280.56 162.154 280.688 162.435C280.819 162.717 280.886 163.039 280.888 163.403C280.886 163.937 280.749 164.4 280.479 164.792C280.212 165.181 279.826 165.484 279.32 165.7C278.817 165.913 278.211 166.019 277.501 166.019C276.796 166.019 276.183 165.911 275.66 165.695C275.14 165.479 274.734 165.16 274.441 164.737C274.151 164.31 273.999 163.783 273.985 163.156H275.771C275.79 163.448 275.874 163.693 276.022 163.889C276.173 164.082 276.373 164.228 276.623 164.327C276.876 164.424 277.161 164.472 277.479 164.472C277.792 164.472 278.063 164.427 278.293 164.336C278.526 164.245 278.707 164.119 278.835 163.957C278.962 163.795 279.026 163.609 279.026 163.398C279.026 163.202 278.968 163.038 278.852 162.904C278.738 162.771 278.57 162.657 278.349 162.563C278.13 162.469 277.862 162.384 277.543 162.308L276.593 162.069C275.857 161.89 275.276 161.61 274.85 161.229C274.424 160.849 274.212 160.336 274.215 159.691C274.212 159.163 274.353 158.701 274.637 158.306C274.924 157.911 275.317 157.603 275.817 157.381C276.317 157.16 276.886 157.049 277.522 157.049C278.17 157.049 278.735 157.16 279.218 157.381C279.704 157.603 280.082 157.911 280.352 158.306C280.621 158.701 280.761 159.158 280.769 159.678H279.001ZM286.293 163.109V159.35H288.108V165.896H286.365V164.707H286.297C286.15 165.09 285.904 165.398 285.56 165.631C285.219 165.864 284.803 165.981 284.311 165.981C283.874 165.981 283.489 165.881 283.157 165.683C282.824 165.484 282.564 165.201 282.377 164.835C282.192 164.468 282.098 164.029 282.096 163.518V159.35H283.911V163.194C283.914 163.58 284.017 163.886 284.222 164.11C284.426 164.335 284.701 164.447 285.044 164.447C285.263 164.447 285.468 164.397 285.658 164.298C285.848 164.195 286.002 164.045 286.118 163.846C286.238 163.647 286.296 163.401 286.293 163.109ZM289.56 168.35V159.35H291.35V160.45H291.431C291.511 160.273 291.626 160.094 291.776 159.913C291.93 159.728 292.129 159.575 292.373 159.452C292.62 159.327 292.927 159.265 293.293 159.265C293.771 159.265 294.211 159.39 294.614 159.64C295.018 159.887 295.34 160.261 295.582 160.761C295.823 161.258 295.944 161.881 295.944 162.631C295.944 163.362 295.826 163.978 295.59 164.481C295.357 164.981 295.039 165.36 294.636 165.619C294.235 165.874 293.786 166.002 293.289 166.002C292.937 166.002 292.637 165.944 292.39 165.827C292.146 165.711 291.945 165.565 291.789 165.389C291.633 165.21 291.513 165.029 291.431 164.847H291.376V168.35H289.56ZM291.337 162.623C291.337 163.012 291.391 163.352 291.499 163.641C291.607 163.931 291.763 164.157 291.968 164.319C292.173 164.478 292.421 164.558 292.714 164.558C293.009 164.558 293.259 164.477 293.464 164.315C293.668 164.15 293.823 163.923 293.928 163.633C294.036 163.34 294.09 163.004 294.09 162.623C294.09 162.245 294.038 161.913 293.933 161.626C293.827 161.339 293.673 161.114 293.468 160.952C293.263 160.791 293.012 160.71 292.714 160.71C292.418 160.71 292.168 160.788 291.964 160.944C291.762 161.1 291.607 161.322 291.499 161.609C291.391 161.896 291.337 162.234 291.337 162.623ZM300.137 166.023C299.464 166.023 298.884 165.887 298.398 165.614C297.915 165.339 297.543 164.95 297.282 164.447C297.021 163.941 296.89 163.343 296.89 162.653C296.89 161.979 297.021 161.389 297.282 160.88C297.543 160.371 297.911 159.975 298.386 159.691C298.863 159.407 299.423 159.265 300.065 159.265C300.496 159.265 300.898 159.335 301.271 159.474C301.646 159.61 301.972 159.816 302.251 160.092C302.532 160.367 302.751 160.714 302.907 161.131C303.063 161.546 303.141 162.032 303.141 162.589V163.087H297.614V161.962H301.433C301.433 161.701 301.376 161.469 301.262 161.268C301.148 161.066 300.991 160.908 300.789 160.795C300.59 160.678 300.359 160.62 300.094 160.62C299.819 160.62 299.575 160.684 299.362 160.812C299.151 160.937 298.987 161.106 298.867 161.319C298.748 161.529 298.687 161.764 298.684 162.022V163.092C298.684 163.416 298.744 163.695 298.863 163.931C298.985 164.167 299.157 164.349 299.379 164.477C299.6 164.604 299.863 164.668 300.167 164.668C300.369 164.668 300.553 164.64 300.721 164.583C300.888 164.526 301.032 164.441 301.151 164.327C301.271 164.214 301.362 164.075 301.424 163.91L303.103 164.021C303.018 164.424 302.843 164.776 302.579 165.077C302.317 165.376 301.979 165.609 301.565 165.776C301.153 165.941 300.677 166.023 300.137 166.023ZM304.326 165.896V159.35H306.086V160.492H306.154C306.273 160.086 306.474 159.779 306.755 159.572C307.036 159.362 307.36 159.256 307.727 159.256C307.817 159.256 307.915 159.262 308.021 159.273C308.126 159.285 308.218 159.3 308.298 159.32V160.931C308.212 160.906 308.094 160.883 307.944 160.863C307.793 160.843 307.656 160.833 307.531 160.833C307.263 160.833 307.025 160.891 306.815 161.008C306.607 161.121 306.442 161.281 306.32 161.485C306.201 161.69 306.141 161.925 306.141 162.193V165.896H304.326ZM317.835 159.989C317.775 159.782 317.691 159.599 317.583 159.44C317.475 159.278 317.343 159.141 317.187 159.031C317.033 158.917 316.857 158.83 316.658 158.771C316.462 158.711 316.245 158.681 316.006 158.681C315.56 158.681 315.168 158.792 314.83 159.014C314.495 159.235 314.234 159.558 314.046 159.981C313.859 160.401 313.765 160.916 313.765 161.523C313.765 162.131 313.857 162.648 314.042 163.075C314.227 163.501 314.488 163.826 314.826 164.05C315.164 164.272 315.563 164.383 316.023 164.383C316.441 164.383 316.798 164.309 317.093 164.161C317.391 164.011 317.619 163.799 317.775 163.526C317.934 163.254 318.013 162.931 318.013 162.559L318.388 162.614H316.138V161.225H319.79V162.325C319.79 163.092 319.629 163.751 319.305 164.302C318.981 164.85 318.535 165.273 317.967 165.572C317.398 165.867 316.748 166.015 316.015 166.015C315.197 166.015 314.478 165.835 313.859 165.474C313.239 165.11 312.756 164.594 312.41 163.927C312.066 163.256 311.894 162.461 311.894 161.541C311.894 160.833 311.996 160.202 312.201 159.648C312.408 159.092 312.698 158.62 313.07 158.234C313.442 157.847 313.876 157.553 314.37 157.352C314.864 157.15 315.4 157.049 315.977 157.049C316.471 157.049 316.931 157.121 317.357 157.266C317.783 157.408 318.161 157.61 318.491 157.871C318.823 158.133 319.094 158.444 319.305 158.805C319.515 159.163 319.65 159.558 319.71 159.989H317.835ZM321.553 165.896V159.35H323.368V165.896H321.553ZM322.464 158.506C322.195 158.506 321.963 158.417 321.77 158.238C321.58 158.056 321.484 157.839 321.484 157.586C321.484 157.336 321.58 157.121 321.77 156.943C321.963 156.761 322.195 156.67 322.464 156.67C322.734 156.67 322.964 156.761 323.155 156.943C323.348 157.121 323.445 157.336 323.445 157.586C323.445 157.839 323.348 158.056 323.155 158.238C322.964 158.417 322.734 158.506 322.464 158.506ZM330.924 159.35L328.636 165.896H326.591L324.302 159.35H326.22L327.579 164.033H327.647L329.002 159.35H330.924ZM334.625 166.023C333.952 166.023 333.373 165.887 332.887 165.614C332.404 165.339 332.032 164.95 331.77 164.447C331.509 163.941 331.378 163.343 331.378 162.653C331.378 161.979 331.509 161.389 331.77 160.88C332.032 160.371 332.4 159.975 332.874 159.691C333.351 159.407 333.911 159.265 334.553 159.265C334.985 159.265 335.387 159.335 335.759 159.474C336.134 159.61 336.461 159.816 336.739 160.092C337.02 160.367 337.239 160.714 337.395 161.131C337.551 161.546 337.63 162.032 337.63 162.589V163.087H332.103V161.962H335.921C335.921 161.701 335.864 161.469 335.75 161.268C335.637 161.066 335.479 160.908 335.277 160.795C335.078 160.678 334.847 160.62 334.583 160.62C334.307 160.62 334.063 160.684 333.85 160.812C333.64 160.937 333.475 161.106 333.355 161.319C333.236 161.529 333.175 161.764 333.172 162.022V163.092C333.172 163.416 333.232 163.695 333.351 163.931C333.473 164.167 333.645 164.349 333.867 164.477C334.088 164.604 334.351 164.668 334.655 164.668C334.857 164.668 335.042 164.64 335.209 164.583C335.377 164.526 335.52 164.441 335.64 164.327C335.759 164.214 335.85 164.075 335.912 163.91L337.591 164.021C337.506 164.424 337.331 164.776 337.067 165.077C336.806 165.376 336.468 165.609 336.053 165.776C335.641 165.941 335.165 166.023 334.625 166.023ZM338.814 165.896V159.35H340.574V160.492H340.642C340.762 160.086 340.962 159.779 341.243 159.572C341.525 159.362 341.848 159.256 342.215 159.256C342.306 159.256 342.404 159.262 342.509 159.273C342.614 159.285 342.706 159.3 342.786 159.32V160.931C342.701 160.906 342.583 160.883 342.432 160.863C342.282 160.843 342.144 160.833 342.019 160.833C341.752 160.833 341.513 160.891 341.303 161.008C341.096 161.121 340.931 161.281 340.809 161.485C340.689 161.69 340.63 161.925 340.63 162.193V165.896H338.814Z" fill="#00B8B6"/>
<line x1="290.5" y1="240.229" x2="290.5" y2="261.229" stroke="#00B8B6"/>
<line x1="245" y1="335.729" x2="224" y2="335.729" stroke="#00B8B6"/>
<path d="M142.079 336.229V327.502H143.924V331.35H144.039L147.18 327.502H149.391L146.153 331.409L149.43 336.229H147.222L144.832 332.641L143.924 333.749V336.229H142.079ZM152.821 336.357C152.147 336.357 151.568 336.22 151.082 335.948C150.599 335.672 150.227 335.283 149.966 334.78C149.704 334.274 149.574 333.676 149.574 332.986C149.574 332.313 149.704 331.722 149.966 331.213C150.227 330.705 150.595 330.309 151.069 330.024C151.547 329.74 152.106 329.598 152.748 329.598C153.18 329.598 153.582 329.668 153.954 329.807C154.329 329.943 154.656 330.149 154.934 330.425C155.216 330.701 155.434 331.047 155.591 331.465C155.747 331.88 155.825 332.365 155.825 332.922V333.421H150.298V332.296H154.116C154.116 332.034 154.059 331.803 153.946 331.601C153.832 331.399 153.674 331.242 153.473 331.128C153.274 331.012 153.042 330.953 152.778 330.953C152.502 330.953 152.258 331.017 152.045 331.145C151.835 331.27 151.67 331.439 151.551 331.652C151.431 331.863 151.37 332.097 151.368 332.355V333.425C151.368 333.749 151.427 334.029 151.547 334.265C151.669 334.5 151.841 334.682 152.062 334.81C152.284 334.938 152.547 335.002 152.85 335.002C153.052 335.002 153.237 334.973 153.404 334.917C153.572 334.86 153.716 334.774 153.835 334.661C153.954 334.547 154.045 334.408 154.108 334.243L155.787 334.354C155.701 334.757 155.527 335.11 155.262 335.411C155.001 335.709 154.663 335.942 154.248 336.11C153.836 336.274 153.36 336.357 152.821 336.357ZM159.993 336.357C159.319 336.357 158.74 336.22 158.254 335.948C157.771 335.672 157.399 335.283 157.137 334.78C156.876 334.274 156.745 333.676 156.745 332.986C156.745 332.313 156.876 331.722 157.137 331.213C157.399 330.705 157.767 330.309 158.241 330.024C158.718 329.74 159.278 329.598 159.92 329.598C160.352 329.598 160.754 329.668 161.126 329.807C161.501 329.943 161.828 330.149 162.106 330.425C162.387 330.701 162.606 331.047 162.762 331.465C162.919 331.88 162.997 332.365 162.997 332.922V333.421H157.47V332.296H161.288C161.288 332.034 161.231 331.803 161.118 331.601C161.004 331.399 160.846 331.242 160.645 331.128C160.446 331.012 160.214 330.953 159.95 330.953C159.674 330.953 159.43 331.017 159.217 331.145C159.007 331.27 158.842 331.439 158.723 331.652C158.603 331.863 158.542 332.097 158.539 332.355V333.425C158.539 333.749 158.599 334.029 158.718 334.265C158.841 334.5 159.012 334.682 159.234 334.81C159.456 334.938 159.718 335.002 160.022 335.002C160.224 335.002 160.409 334.973 160.576 334.917C160.744 334.86 160.887 334.774 161.007 334.661C161.126 334.547 161.217 334.408 161.279 334.243L162.958 334.354C162.873 334.757 162.699 335.11 162.434 335.411C162.173 335.709 161.835 335.942 161.42 336.11C161.008 336.274 160.532 336.357 159.993 336.357ZM164.181 338.684V329.684H165.971V330.783H166.052C166.132 330.607 166.247 330.428 166.397 330.246C166.551 330.061 166.75 329.908 166.994 329.786C167.241 329.661 167.548 329.598 167.914 329.598C168.392 329.598 168.832 329.723 169.235 329.973C169.639 330.22 169.961 330.594 170.203 331.094C170.444 331.591 170.565 332.215 170.565 332.965C170.565 333.695 170.447 334.311 170.211 334.814C169.978 335.314 169.66 335.693 169.257 335.952C168.856 336.208 168.407 336.336 167.91 336.336C167.558 336.336 167.258 336.277 167.011 336.161C166.767 336.044 166.566 335.898 166.41 335.722C166.254 335.543 166.135 335.363 166.052 335.181H165.997V338.684H164.181ZM165.958 332.956C165.958 333.345 166.012 333.685 166.12 333.975C166.228 334.265 166.385 334.49 166.589 334.652C166.794 334.811 167.042 334.891 167.335 334.891C167.63 334.891 167.88 334.81 168.085 334.648C168.289 334.483 168.444 334.256 168.549 333.966C168.657 333.674 168.711 333.337 168.711 332.956C168.711 332.578 168.659 332.246 168.554 331.959C168.449 331.672 168.294 331.448 168.089 331.286C167.885 331.124 167.633 331.043 167.335 331.043C167.039 331.043 166.789 331.121 166.585 331.277C166.383 331.434 166.228 331.655 166.12 331.942C166.012 332.229 165.958 332.567 165.958 332.956ZM177.501 338.82C176.913 338.82 176.409 338.739 175.989 338.577C175.571 338.418 175.239 338.201 174.991 337.925C174.744 337.649 174.584 337.34 174.51 336.996L176.189 336.77C176.24 336.901 176.321 337.023 176.432 337.137C176.543 337.25 176.689 337.341 176.871 337.409C177.055 337.48 177.28 337.516 177.544 337.516C177.939 337.516 178.264 337.419 178.52 337.226C178.778 337.036 178.908 336.716 178.908 336.267V335.07H178.831C178.751 335.252 178.632 335.424 178.473 335.586C178.314 335.747 178.109 335.88 177.859 335.982C177.609 336.084 177.311 336.135 176.964 336.135C176.473 336.135 176.026 336.022 175.622 335.794C175.222 335.564 174.902 335.213 174.663 334.742C174.428 334.267 174.31 333.668 174.31 332.943C174.31 332.202 174.43 331.583 174.672 331.086C174.913 330.588 175.234 330.216 175.635 329.969C176.038 329.722 176.48 329.598 176.96 329.598C177.327 329.598 177.634 329.661 177.881 329.786C178.128 329.908 178.327 330.061 178.477 330.246C178.631 330.428 178.749 330.607 178.831 330.783H178.899V329.684H180.702V336.293C180.702 336.85 180.565 337.316 180.293 337.691C180.02 338.066 179.642 338.347 179.159 338.534C178.679 338.725 178.126 338.82 177.501 338.82ZM177.54 334.772C177.832 334.772 178.08 334.699 178.281 334.554C178.486 334.407 178.642 334.196 178.75 333.924C178.861 333.648 178.916 333.318 178.916 332.935C178.916 332.551 178.862 332.219 178.754 331.938C178.646 331.654 178.49 331.434 178.286 331.277C178.081 331.121 177.832 331.043 177.54 331.043C177.241 331.043 176.99 331.124 176.786 331.286C176.581 331.445 176.426 331.667 176.321 331.951C176.216 332.235 176.163 332.563 176.163 332.935C176.163 333.313 176.216 333.64 176.321 333.915C176.429 334.188 176.584 334.399 176.786 334.55C176.99 334.698 177.241 334.772 177.54 334.772ZM185.104 336.357C184.442 336.357 183.869 336.216 183.386 335.935C182.906 335.651 182.536 335.256 182.274 334.75C182.013 334.242 181.882 333.652 181.882 332.982C181.882 332.306 182.013 331.715 182.274 331.209C182.536 330.701 182.906 330.306 183.386 330.024C183.869 329.74 184.442 329.598 185.104 329.598C185.766 329.598 186.337 329.74 186.817 330.024C187.3 330.306 187.672 330.701 187.933 331.209C188.195 331.715 188.325 332.306 188.325 332.982C188.325 333.652 188.195 334.242 187.933 334.75C187.672 335.256 187.3 335.651 186.817 335.935C186.337 336.216 185.766 336.357 185.104 336.357ZM185.112 334.951C185.413 334.951 185.665 334.865 185.866 334.695C186.068 334.522 186.22 334.286 186.322 333.988C186.428 333.689 186.48 333.35 186.48 332.969C186.48 332.588 186.428 332.249 186.322 331.951C186.22 331.652 186.068 331.417 185.866 331.243C185.665 331.07 185.413 330.983 185.112 330.983C184.808 330.983 184.553 331.07 184.345 331.243C184.141 331.417 183.986 331.652 183.881 331.951C183.778 332.249 183.727 332.588 183.727 332.969C183.727 333.35 183.778 333.689 183.881 333.988C183.986 334.286 184.141 334.522 184.345 334.695C184.553 334.865 184.808 334.951 185.112 334.951ZM189.506 336.229V329.684H191.321V336.229H189.506ZM190.418 328.84C190.148 328.84 189.916 328.75 189.723 328.571C189.533 328.39 189.438 328.172 189.438 327.919C189.438 327.669 189.533 327.455 189.723 327.276C189.916 327.094 190.148 327.003 190.418 327.003C190.688 327.003 190.918 327.094 191.108 327.276C191.301 327.455 191.398 327.669 191.398 327.919C191.398 328.172 191.301 328.39 191.108 328.571C190.918 328.75 190.688 328.84 190.418 328.84ZM194.591 332.445V336.229H192.775V329.684H194.505V330.838H194.582C194.727 330.458 194.97 330.157 195.311 329.935C195.652 329.711 196.065 329.598 196.551 329.598C197.005 329.598 197.402 329.698 197.74 329.897C198.078 330.095 198.341 330.38 198.528 330.749C198.716 331.115 198.809 331.553 198.809 332.061V336.229H196.994V332.385C196.997 331.985 196.895 331.672 196.687 331.448C196.48 331.22 196.194 331.107 195.831 331.107C195.586 331.107 195.37 331.159 195.183 331.265C194.998 331.37 194.853 331.523 194.748 331.725C194.646 331.924 194.593 332.164 194.591 332.445ZM203.189 338.82C202.601 338.82 202.097 338.739 201.676 338.577C201.259 338.418 200.926 338.201 200.679 337.925C200.432 337.649 200.271 337.34 200.197 336.996L201.876 336.77C201.928 336.901 202.009 337.023 202.119 337.137C202.23 337.25 202.376 337.341 202.558 337.409C202.743 337.48 202.967 337.516 203.232 337.516C203.626 337.516 203.952 337.419 204.207 337.226C204.466 337.036 204.595 336.716 204.595 336.267V335.07H204.518C204.439 335.252 204.32 335.424 204.161 335.586C204.001 335.747 203.797 335.88 203.547 335.982C203.297 336.084 202.999 336.135 202.652 336.135C202.161 336.135 201.713 336.022 201.31 335.794C200.909 335.564 200.589 335.213 200.351 334.742C200.115 334.267 199.997 333.668 199.997 332.943C199.997 332.202 200.118 331.583 200.359 331.086C200.601 330.588 200.922 330.216 201.322 329.969C201.726 329.722 202.168 329.598 202.648 329.598C203.014 329.598 203.321 329.661 203.568 329.786C203.815 329.908 204.014 330.061 204.165 330.246C204.318 330.428 204.436 330.607 204.518 330.783H204.587V329.684H206.389V336.293C206.389 336.85 206.253 337.316 205.98 337.691C205.707 338.066 205.33 338.347 204.847 338.534C204.366 338.725 203.814 338.82 203.189 338.82ZM203.227 334.772C203.52 334.772 203.767 334.699 203.969 334.554C204.173 334.407 204.33 334.196 204.438 333.924C204.548 333.648 204.604 333.318 204.604 332.935C204.604 332.551 204.55 332.219 204.442 331.938C204.334 331.654 204.178 331.434 203.973 331.277C203.768 331.121 203.52 331.043 203.227 331.043C202.929 331.043 202.678 331.124 202.473 331.286C202.268 331.445 202.114 331.667 202.009 331.951C201.903 332.235 201.851 332.563 201.851 332.935C201.851 333.313 201.903 333.64 202.009 333.915C202.116 334.188 202.271 334.399 202.473 334.55C202.678 334.698 202.929 334.772 203.227 334.772ZM210.003 327.502L209.837 333.613H208.277L208.107 327.502H210.003ZM209.057 336.34C208.776 336.34 208.534 336.24 208.332 336.042C208.131 335.84 208.031 335.598 208.034 335.317C208.031 335.039 208.131 334.8 208.332 334.601C208.534 334.402 208.776 334.303 209.057 334.303C209.327 334.303 209.564 334.402 209.768 334.601C209.973 334.8 210.077 335.039 210.08 335.317C210.077 335.505 210.027 335.676 209.93 335.833C209.837 335.986 209.713 336.11 209.56 336.203C209.406 336.294 209.239 336.34 209.057 336.34Z" fill="#1D242C"/>
<path d="M251.831 234.229H249.854L252.867 225.502H255.244L258.253 234.229H256.276L254.09 227.496H254.021L251.831 234.229ZM251.708 230.799H256.378V232.239H251.708V230.799ZM261.085 225.502V234.229H259.269V225.502H261.085ZM262.539 234.229V227.684H264.269V228.838H264.346C264.482 228.455 264.709 228.152 265.028 227.931C265.346 227.709 265.726 227.598 266.17 227.598C266.618 227.598 267.001 227.711 267.316 227.935C267.631 228.157 267.841 228.458 267.947 228.838H268.015C268.148 228.463 268.39 228.164 268.739 227.939C269.091 227.712 269.508 227.598 269.988 227.598C270.599 227.598 271.094 227.793 271.475 228.182C271.858 228.568 272.05 229.117 272.05 229.827V234.229H270.239V230.185C270.239 229.821 270.143 229.549 269.949 229.367C269.756 229.185 269.515 229.094 269.225 229.094C268.895 229.094 268.638 229.199 268.454 229.409C268.269 229.617 268.177 229.891 268.177 230.232V234.229H266.417V230.147C266.417 229.826 266.324 229.57 266.14 229.38C265.958 229.189 265.718 229.094 265.42 229.094C265.218 229.094 265.036 229.145 264.874 229.247C264.715 229.347 264.589 229.488 264.495 229.669C264.401 229.848 264.354 230.059 264.354 230.3V234.229H262.539ZM276.442 234.357C275.78 234.357 275.207 234.216 274.724 233.935C274.244 233.651 273.873 233.256 273.612 232.75C273.351 232.242 273.22 231.652 273.22 230.982C273.22 230.306 273.351 229.715 273.612 229.209C273.873 228.701 274.244 228.306 274.724 228.024C275.207 227.74 275.78 227.598 276.442 227.598C277.104 227.598 277.675 227.74 278.155 228.024C278.638 228.306 279.01 228.701 279.271 229.209C279.532 229.715 279.663 230.306 279.663 230.982C279.663 231.652 279.532 232.242 279.271 232.75C279.01 233.256 278.638 233.651 278.155 233.935C277.675 234.216 277.104 234.357 276.442 234.357ZM276.45 232.951C276.751 232.951 277.003 232.865 277.204 232.695C277.406 232.522 277.558 232.286 277.66 231.988C277.765 231.689 277.818 231.35 277.818 230.969C277.818 230.588 277.765 230.249 277.66 229.951C277.558 229.652 277.406 229.417 277.204 229.243C277.003 229.07 276.751 228.983 276.45 228.983C276.146 228.983 275.89 229.07 275.683 229.243C275.479 229.417 275.324 229.652 275.219 229.951C275.116 230.249 275.065 230.588 275.065 230.969C275.065 231.35 275.116 231.689 275.219 231.988C275.324 232.286 275.479 232.522 275.683 232.695C275.89 232.865 276.146 232.951 276.45 232.951ZM286.29 229.55L284.628 229.652C284.599 229.51 284.538 229.382 284.444 229.269C284.351 229.152 284.227 229.06 284.074 228.992C283.923 228.921 283.743 228.885 283.532 228.885C283.251 228.885 283.014 228.945 282.821 229.064C282.628 229.181 282.531 229.337 282.531 229.533C282.531 229.689 282.594 229.821 282.719 229.929C282.844 230.037 283.058 230.124 283.362 230.189L284.547 230.428C285.183 230.559 285.657 230.769 285.97 231.059C286.282 231.348 286.439 231.729 286.439 232.201C286.439 232.63 286.312 233.006 286.059 233.33C285.809 233.654 285.466 233.907 285.028 234.088C284.594 234.267 284.092 234.357 283.524 234.357C282.657 234.357 281.967 234.176 281.453 233.816C280.942 233.452 280.642 232.958 280.554 232.333L282.339 232.239C282.393 232.503 282.524 232.705 282.731 232.844C282.939 232.98 283.204 233.049 283.528 233.049C283.846 233.049 284.102 232.988 284.295 232.865C284.491 232.74 284.591 232.58 284.594 232.384C284.591 232.219 284.521 232.084 284.385 231.979C284.248 231.871 284.038 231.789 283.754 231.732L282.621 231.506C281.981 231.378 281.506 231.157 281.193 230.841C280.883 230.526 280.729 230.124 280.729 229.635C280.729 229.215 280.842 228.853 281.069 228.549C281.3 228.245 281.622 228.01 282.037 227.845C282.454 227.681 282.943 227.598 283.503 227.598C284.329 227.598 284.98 227.773 285.454 228.122C285.932 228.472 286.21 228.948 286.29 229.55ZM291.063 227.684V229.047H287.122V227.684H291.063ZM288.017 226.115H289.832V232.218C289.832 232.385 289.857 232.516 289.909 232.61C289.96 232.701 290.031 232.765 290.122 232.801C290.215 232.838 290.323 232.857 290.445 232.857C290.531 232.857 290.616 232.85 290.701 232.836C290.786 232.818 290.852 232.806 290.897 232.797L291.183 234.148C291.092 234.176 290.964 234.209 290.799 234.246C290.634 234.286 290.434 234.31 290.198 234.318C289.761 234.336 289.377 234.277 289.048 234.144C288.721 234.01 288.467 233.803 288.285 233.522C288.103 233.24 288.014 232.885 288.017 232.456V226.115ZM298.505 227.684V229.047H294.563V227.684H298.505ZM295.458 226.115H297.273V232.218C297.273 232.385 297.299 232.516 297.35 232.61C297.401 232.701 297.472 232.765 297.563 232.801C297.657 232.838 297.765 232.857 297.887 232.857C297.972 232.857 298.057 232.85 298.143 232.836C298.228 232.818 298.293 232.806 298.339 232.797L298.624 234.148C298.533 234.176 298.405 234.209 298.241 234.246C298.076 234.286 297.876 234.31 297.64 234.318C297.202 234.336 296.819 234.277 296.489 234.144C296.162 234.01 295.908 233.803 295.726 233.522C295.545 233.24 295.455 232.885 295.458 232.456V226.115ZM301.643 230.445V234.229H299.828V225.502H301.592V228.838H301.669C301.817 228.452 302.055 228.149 302.385 227.931C302.714 227.709 303.128 227.598 303.625 227.598C304.079 227.598 304.476 227.698 304.814 227.897C305.155 228.093 305.419 228.375 305.606 228.745C305.797 229.111 305.89 229.55 305.888 230.061V234.229H304.072V230.385C304.075 229.982 303.973 229.668 303.765 229.443C303.561 229.219 303.274 229.107 302.905 229.107C302.657 229.107 302.439 229.159 302.248 229.265C302.061 229.37 301.913 229.523 301.805 229.725C301.7 229.924 301.646 230.164 301.643 230.445ZM310.299 234.357C309.626 234.357 309.046 234.22 308.561 233.948C308.078 233.672 307.705 233.283 307.444 232.78C307.183 232.274 307.052 231.676 307.052 230.986C307.052 230.313 307.183 229.722 307.444 229.213C307.705 228.705 308.073 228.309 308.548 228.024C309.025 227.74 309.585 227.598 310.227 227.598C310.659 227.598 311.061 227.668 311.433 227.807C311.808 227.943 312.134 228.149 312.413 228.425C312.694 228.701 312.913 229.047 313.069 229.465C313.225 229.88 313.303 230.365 313.303 230.922V231.421H307.776V230.296H311.595C311.595 230.034 311.538 229.803 311.424 229.601C311.311 229.399 311.153 229.242 310.951 229.128C310.752 229.012 310.521 228.953 310.257 228.953C309.981 228.953 309.737 229.017 309.524 229.145C309.313 229.27 309.149 229.439 309.029 229.652C308.91 229.863 308.849 230.097 308.846 230.355V231.425C308.846 231.749 308.906 232.029 309.025 232.265C309.147 232.5 309.319 232.682 309.541 232.81C309.762 232.938 310.025 233.002 310.329 233.002C310.531 233.002 310.715 232.973 310.883 232.917C311.051 232.86 311.194 232.774 311.313 232.661C311.433 232.547 311.524 232.408 311.586 232.243L313.265 232.354C313.18 232.757 313.005 233.11 312.741 233.411C312.48 233.709 312.142 233.942 311.727 234.11C311.315 234.274 310.839 234.357 310.299 234.357ZM314.488 234.229V227.684H316.248V228.826H316.316C316.436 228.419 316.636 228.113 316.917 227.905C317.198 227.695 317.522 227.59 317.889 227.59C317.98 227.59 318.078 227.595 318.183 227.607C318.288 227.618 318.38 227.634 318.46 227.654V229.265C318.374 229.239 318.257 229.216 318.106 229.196C317.955 229.176 317.818 229.167 317.693 229.167C317.426 229.167 317.187 229.225 316.977 229.341C316.769 229.455 316.605 229.614 316.482 229.818C316.363 230.023 316.303 230.259 316.303 230.526V234.229H314.488ZM322.077 234.357C321.403 234.357 320.824 234.22 320.338 233.948C319.855 233.672 319.483 233.283 319.221 232.78C318.96 232.274 318.829 231.676 318.829 230.986C318.829 230.313 318.96 229.722 319.221 229.213C319.483 228.705 319.851 228.309 320.325 228.024C320.802 227.74 321.362 227.598 322.004 227.598C322.436 227.598 322.838 227.668 323.21 227.807C323.585 227.943 323.912 228.149 324.19 228.425C324.471 228.701 324.69 229.047 324.846 229.465C325.003 229.88 325.081 230.365 325.081 230.922V231.421H319.554V230.296H323.372C323.372 230.034 323.315 229.803 323.202 229.601C323.088 229.399 322.93 229.242 322.729 229.128C322.53 229.012 322.298 228.953 322.034 228.953C321.758 228.953 321.514 229.017 321.301 229.145C321.091 229.27 320.926 229.439 320.807 229.652C320.687 229.863 320.626 230.097 320.623 230.355V231.425C320.623 231.749 320.683 232.029 320.802 232.265C320.925 232.5 321.096 232.682 321.318 232.81C321.54 232.938 321.802 233.002 322.106 233.002C322.308 233.002 322.493 232.973 322.66 232.917C322.828 232.86 322.971 232.774 323.091 232.661C323.21 232.547 323.301 232.408 323.363 232.243L325.042 232.354C324.957 232.757 324.782 233.11 324.518 233.411C324.257 233.709 323.919 233.942 323.504 234.11C323.092 234.274 322.616 234.357 322.077 234.357ZM328.434 225.502L328.268 231.613H326.709L326.538 225.502H328.434ZM327.488 234.34C327.207 234.34 326.966 234.24 326.764 234.042C326.562 233.84 326.463 233.598 326.466 233.317C326.463 233.039 326.562 232.8 326.764 232.601C326.966 232.402 327.207 232.303 327.488 232.303C327.758 232.303 327.996 232.402 328.2 232.601C328.405 232.8 328.508 233.039 328.511 233.317C328.508 233.505 328.459 233.676 328.362 233.833C328.268 233.986 328.145 234.11 327.991 234.203C327.838 234.294 327.67 234.34 327.488 234.34Z" fill="#1D242C"/>
<path d="M369.247 327.502H371.314L373.304 331.26H373.389L375.379 327.502H377.446L374.263 333.144V336.229H372.43V333.144L369.247 327.502ZM380.006 336.357C379.344 336.357 378.772 336.216 378.289 335.935C377.809 335.651 377.438 335.256 377.176 334.75C376.915 334.242 376.784 333.652 376.784 332.982C376.784 332.306 376.915 331.715 377.176 331.209C377.438 330.701 377.809 330.306 378.289 330.024C378.772 329.74 379.344 329.598 380.006 329.598C380.668 329.598 381.239 329.74 381.719 330.024C382.202 330.306 382.574 330.701 382.836 331.209C383.097 331.715 383.228 332.306 383.228 332.982C383.228 333.652 383.097 334.242 382.836 334.75C382.574 335.256 382.202 335.651 381.719 335.935C381.239 336.216 380.668 336.357 380.006 336.357ZM380.015 334.951C380.316 334.951 380.567 334.865 380.769 334.695C380.971 334.522 381.123 334.286 381.225 333.988C381.33 333.689 381.382 333.35 381.382 332.969C381.382 332.588 381.33 332.249 381.225 331.951C381.123 331.652 380.971 331.417 380.769 331.243C380.567 331.07 380.316 330.983 380.015 330.983C379.711 330.983 379.455 331.07 379.248 331.243C379.043 331.417 378.888 331.652 378.783 331.951C378.681 332.249 378.63 332.588 378.63 332.969C378.63 333.35 378.681 333.689 378.783 333.988C378.888 334.286 379.043 334.522 379.248 334.695C379.455 334.865 379.711 334.951 380.015 334.951ZM388.605 333.442V329.684H390.421V336.229H388.678V335.04H388.61C388.462 335.424 388.216 335.732 387.873 335.965C387.532 336.198 387.115 336.314 386.624 336.314C386.186 336.314 385.801 336.215 385.469 336.016C385.137 335.817 384.877 335.534 384.689 335.168C384.505 334.801 384.411 334.363 384.408 333.851V329.684H386.223V333.527C386.226 333.914 386.33 334.219 386.534 334.443C386.739 334.668 387.013 334.78 387.357 334.78C387.576 334.78 387.78 334.73 387.971 334.631C388.161 334.529 388.314 334.378 388.431 334.179C388.55 333.98 388.608 333.735 388.605 333.442ZM397.062 336.336C396.565 336.336 396.115 336.208 395.711 335.952C395.311 335.693 394.993 335.314 394.757 334.814C394.524 334.311 394.407 333.695 394.407 332.965C394.407 332.215 394.528 331.591 394.77 331.094C395.011 330.594 395.332 330.22 395.733 329.973C396.136 329.723 396.578 329.598 397.058 329.598C397.424 329.598 397.73 329.661 397.974 329.786C398.221 329.908 398.42 330.061 398.571 330.246C398.724 330.428 398.841 330.607 398.92 330.783H398.975V327.502H400.787V336.229H398.997V335.181H398.92C398.835 335.363 398.714 335.543 398.558 335.722C398.404 335.898 398.204 336.044 397.957 336.161C397.713 336.277 397.414 336.336 397.062 336.336ZM397.637 334.891C397.93 334.891 398.177 334.811 398.379 334.652C398.583 334.49 398.74 334.265 398.848 333.975C398.958 333.685 399.014 333.345 399.014 332.956C399.014 332.567 398.96 332.229 398.852 331.942C398.744 331.655 398.588 331.434 398.383 331.277C398.179 331.121 397.93 331.043 397.637 331.043C397.339 331.043 397.088 331.124 396.883 331.286C396.679 331.448 396.524 331.672 396.419 331.959C396.314 332.246 396.261 332.578 396.261 332.956C396.261 333.337 396.314 333.674 396.419 333.966C396.527 334.256 396.681 334.483 396.883 334.648C397.088 334.81 397.339 334.891 397.637 334.891ZM402.279 336.229V329.684H404.094V336.229H402.279ZM403.191 328.84C402.921 328.84 402.69 328.75 402.496 328.571C402.306 328.39 402.211 328.172 402.211 327.919C402.211 327.669 402.306 327.455 402.496 327.276C402.69 327.094 402.921 327.003 403.191 327.003C403.461 327.003 403.691 327.094 403.881 327.276C404.075 327.455 404.171 327.669 404.171 327.919C404.171 328.172 404.075 328.39 403.881 328.571C403.691 328.75 403.461 328.84 403.191 328.84ZM407.961 336.336C407.463 336.336 407.013 336.208 406.61 335.952C406.209 335.693 405.891 335.314 405.655 334.814C405.422 334.311 405.306 333.695 405.306 332.965C405.306 332.215 405.426 331.591 405.668 331.094C405.909 330.594 406.23 330.22 406.631 329.973C407.034 329.723 407.476 329.598 407.956 329.598C408.323 329.598 408.628 329.661 408.873 329.786C409.12 329.908 409.319 330.061 409.469 330.246C409.623 330.428 409.739 330.607 409.819 330.783H409.874V327.502H411.685V336.229H409.895V335.181H409.819C409.733 335.363 409.613 335.543 409.456 335.722C409.303 335.898 409.103 336.044 408.855 336.161C408.611 336.277 408.313 336.336 407.961 336.336ZM408.536 334.891C408.828 334.891 409.076 334.811 409.277 334.652C409.482 334.49 409.638 334.265 409.746 333.975C409.857 333.685 409.912 333.345 409.912 332.956C409.912 332.567 409.858 332.229 409.75 331.942C409.642 331.655 409.486 331.434 409.282 331.277C409.077 331.121 408.828 331.043 408.536 331.043C408.238 331.043 407.986 331.124 407.782 331.286C407.577 331.448 407.422 331.672 407.317 331.959C407.212 332.246 407.159 332.578 407.159 332.956C407.159 333.337 407.212 333.674 407.317 333.966C407.425 334.256 407.58 334.483 407.782 334.648C407.986 334.81 408.238 334.891 408.536 334.891ZM415.955 336.229V329.684H417.77V336.229H415.955ZM416.867 328.84C416.597 328.84 416.365 328.75 416.172 328.571C415.982 328.39 415.887 328.172 415.887 327.919C415.887 327.669 415.982 327.455 416.172 327.276C416.365 327.094 416.597 327.003 416.867 327.003C417.137 327.003 417.367 327.094 417.557 327.276C417.75 327.455 417.847 327.669 417.847 327.919C417.847 328.172 417.75 328.39 417.557 328.571C417.367 328.75 417.137 328.84 416.867 328.84ZM422.706 329.684V331.047H418.764V329.684H422.706ZM419.659 328.115H421.474V334.218C421.474 334.385 421.5 334.516 421.551 334.61C421.602 334.701 421.673 334.765 421.764 334.801C421.858 334.838 421.966 334.857 422.088 334.857C422.173 334.857 422.259 334.85 422.344 334.836C422.429 334.818 422.494 334.806 422.54 334.797L422.825 336.148C422.734 336.176 422.607 336.209 422.442 336.246C422.277 336.286 422.077 336.31 421.841 336.318C421.403 336.336 421.02 336.277 420.69 336.144C420.364 336.01 420.109 335.803 419.928 335.522C419.746 335.24 419.656 334.885 419.659 334.456V328.115ZM426.058 327.502L425.891 333.613H424.332L424.161 327.502H426.058ZM425.112 336.34C424.83 336.34 424.589 336.24 424.387 336.042C424.185 335.84 424.086 335.598 424.089 335.317C424.086 335.039 424.185 334.8 424.387 334.601C424.589 334.402 424.83 334.303 425.112 334.303C425.381 334.303 425.619 334.402 425.823 334.601C426.028 334.8 426.131 335.039 426.134 335.317C426.131 335.505 426.082 335.676 425.985 335.833C425.891 335.986 425.768 336.11 425.614 336.203C425.461 336.294 425.293 336.34 425.112 336.34Z" fill="#1D242C"/>
<path d="M268.961 332.19C263.098 327.779 258.77 321.635 256.589 314.63C254.408 307.624 254.485 300.109 256.808 293.149C259.131 286.189 263.584 280.136 269.536 275.845C275.488 271.553 282.638 269.242 289.975 269.237C297.313 269.232 304.466 271.533 310.424 275.816C316.382 280.099 320.843 286.146 323.176 293.103C325.509 300.06 325.596 307.574 323.425 314.583C321.254 321.592 316.935 327.741 311.078 332.161" stroke="white" stroke-width="9.25919" stroke-linecap="round" stroke-linejoin="round"/>
<path d="M269 331.897C264.935 328.88 261.583 325.027 259.176 320.606C256.77 316.184 255.366 311.3 255.063 306.291C254.759 301.282 255.563 296.267 257.419 291.595C259.275 286.922 262.138 282.703 265.811 279.23" stroke="#00B8B6" stroke-width="9.25919" stroke-linecap="round"/>
<path d="M272.912 309.742L272.912 307.78L277.832 300.029L279.524 300.029L279.524 302.745L278.523 302.745L275.421 307.653L275.421 307.745L282.412 307.745L282.412 309.742L272.912 309.742ZM278.569 311.814L278.569 309.144L278.615 308.275L278.615 300.029L280.951 300.029L280.951 311.814L278.569 311.814ZM288.693 312.073C287.703 312.069 286.852 311.825 286.138 311.342C285.428 310.858 284.882 310.158 284.498 309.242C284.118 308.325 283.93 307.222 283.934 305.933C283.934 304.648 284.124 303.553 284.504 302.647C284.888 301.742 285.434 301.053 286.144 300.582C286.857 300.106 287.707 299.868 288.693 299.868C289.679 299.868 290.527 300.106 291.236 300.582C291.95 301.057 292.498 301.748 292.882 302.653C293.266 303.555 293.455 304.648 293.452 305.933C293.452 307.226 293.26 308.33 292.876 309.247C292.496 310.164 291.952 310.864 291.242 311.348C290.532 311.831 289.683 312.073 288.693 312.073ZM288.693 310.007C289.368 310.007 289.907 309.667 290.31 308.988C290.713 308.309 290.912 307.291 290.908 305.933C290.908 305.039 290.816 304.295 290.632 303.7C290.452 303.106 290.195 302.659 289.861 302.36C289.531 302.06 289.142 301.911 288.693 301.911C288.022 301.911 287.485 302.246 287.082 302.918C286.679 303.589 286.476 304.594 286.472 305.933C286.472 306.838 286.562 307.594 286.742 308.2C286.926 308.802 287.185 309.255 287.519 309.558C287.853 309.857 288.244 310.007 288.693 310.007ZM301.679 309.604L301.679 308.983C301.679 308.511 301.778 308.077 301.978 307.682C302.181 307.283 302.475 306.965 302.858 306.727C303.246 306.485 303.717 306.364 304.274 306.364C304.838 306.364 305.311 306.483 305.695 306.721C306.082 306.959 306.374 307.277 306.57 307.676C306.769 308.072 306.869 308.507 306.869 308.983L306.869 309.604C306.869 310.076 306.769 310.511 306.57 310.91C306.37 311.305 306.077 311.622 305.689 311.86C305.302 312.101 304.83 312.222 304.274 312.222C303.71 312.222 303.236 312.101 302.852 311.86C302.469 311.622 302.177 311.305 301.978 310.91C301.778 310.511 301.679 310.076 301.679 309.604ZM303.353 308.983L303.353 309.604C303.353 309.876 303.418 310.133 303.549 310.375C303.683 310.617 303.925 310.738 304.274 310.738C304.623 310.738 304.861 310.619 304.987 310.381C305.118 310.143 305.183 309.884 305.183 309.604L305.183 308.983C305.183 308.703 305.121 308.442 304.999 308.2C304.876 307.958 304.634 307.838 304.274 307.838C303.928 307.838 303.689 307.958 303.554 308.2C303.42 308.442 303.353 308.703 303.353 308.983ZM295.631 302.86L295.631 302.239C295.631 301.763 295.733 301.328 295.936 300.933C296.139 300.534 296.433 300.215 296.816 299.977C297.204 299.74 297.672 299.621 298.22 299.621C298.788 299.621 299.264 299.74 299.647 299.977C300.031 300.215 300.323 300.534 300.522 300.933C300.721 301.328 300.821 301.763 300.821 302.239L300.821 302.86C300.821 303.336 300.72 303.771 300.516 304.166C300.317 304.561 300.023 304.878 299.636 305.116C299.252 305.35 298.78 305.467 298.22 305.467C297.66 305.467 297.187 305.348 296.799 305.11C296.415 304.868 296.124 304.552 295.924 304.161C295.729 303.766 295.631 303.332 295.631 302.86ZM297.317 302.239L297.317 302.86C297.317 303.14 297.382 303.399 297.513 303.637C297.647 303.875 297.883 303.994 298.22 303.994C298.573 303.994 298.813 303.875 298.94 303.637C299.07 303.399 299.135 303.14 299.135 302.86L299.135 302.239C299.135 301.959 299.074 301.698 298.951 301.456C298.828 301.215 298.585 301.094 298.22 301.094C297.879 301.094 297.643 301.216 297.513 301.462C297.382 301.707 297.317 301.966 297.317 302.239ZM296.391 311.814L304.492 300.029L306 300.029L297.898 311.814L296.391 311.814Z" fill="#1D242C"/>
<line x1="355" y1="335.729" x2="334" y2="335.729" stroke="#00B8B6"/>
<defs>
<clipPath id="clip0_10520_110245">
<rect width="68" height="90.6667" fill="white" transform="translate(249.5 49.229)"/>
</clipPath>
</defs>
</svg>
