<svg width="517" height="401" viewBox="0 0 517 401" fill="none" xmlns="http://www.w3.org/2000/svg">
<path d="M41.3713 97.5869C76.0818 90.0785 156.76 159.531 214.924 122.928C315.303 35.6428 360.333 19.6875 360.333 19.6875C360.333 19.6875 391.291 2.79371 426.002 11.2406C513.248 31.8886 507.619 149.207 507.619 149.207C507.619 149.207 524.505 367.888 246.82 392.29C-12.1018 411.061 0.0938112 171.732 0.0938112 171.732C0.0938112 171.732 5.72255 106.034 41.3713 97.5869Z" fill="#F8E6F6"/>
<path d="M246.541 364.083C246.761 364.892 246.022 365.403 244.028 366.393C238.562 369.095 233.654 371.24 228.353 373.424C226.476 374.202 227.23 373.794 227.12 371.696C226.696 363.761 226.515 355.826 226.57 347.875C226.57 346.869 226.099 346.123 226.5 345.251C226.9 344.379 228.746 343.829 229.617 343.46C234.431 341.417 238.774 339.688 243.643 337.771C245.928 336.876 246.187 336.412 246.211 338.824C246.266 343.554 246.815 360.053 246.541 364.075V364.083Z" fill="#82CDF7"/>
<path d="M245.763 336.891C245.96 336.994 245.975 337.276 245.779 337.394C245.229 337.724 244.664 337.874 244.13 338.07C238.774 340.317 232.24 343.357 227.152 345.227C225.495 346.005 226.743 345.432 224.984 344.819C220.539 343.263 216.087 341.723 211.658 340.136C210.488 339.72 209.31 339.343 208.14 338.934C207.912 338.856 207.653 338.808 207.488 338.439C208.862 337.85 210.213 337.237 211.595 336.679C216.558 334.684 221.545 332.728 226.5 330.701C227.521 330.284 228.385 330.276 229.429 330.693C234.086 332.531 235.664 332.924 243.51 335.917C244.57 336.224 244.837 336.42 245.771 336.891H245.763Z" fill="white"/>
<path d="M207.323 338.51C209.647 339.625 219.825 343.074 225.526 345.062C226.547 345.416 226.492 344.944 226.539 346.091C226.681 349.525 226.798 352.958 226.932 356.391C227.144 361.647 227.105 366.903 227.16 372.167C227.175 373.464 227.497 374.053 226.241 373.566C223.846 372.646 220.783 371.366 218.411 370.4C215.042 369.025 211.697 367.587 208.32 366.243C207.566 365.945 207.268 365.882 207.26 365.128C207.244 361.529 207.236 357.578 207.197 353.971C207.158 350.2 207.236 339.869 207.315 338.502L207.323 338.51Z" fill="#E95151"/>
<path d="M243.565 362.174L239.12 344.929L234.832 346.586L232.036 366.691L235.138 365.199L235.743 360.83L239.984 359.542L240.95 363.203L243.565 362.174ZM236.159 357.79L237.321 349.383L239.269 356.8L236.159 357.79Z" fill="#FFFFFE"/>
<path d="M261.713 28.9463C265.05 28.907 269.754 29.2605 274.395 30.0462C280.301 31.0518 285.806 32.9531 290.981 35.6479C296.376 38.4605 300.946 42.0274 304.661 46.4349C307.535 49.8368 309.459 53.5922 310.299 57.7876C310.959 61.0638 310.668 64.2771 309.938 67.4983C308.799 72.4951 306.286 76.9497 302.933 81.0823C301.206 83.2114 299.022 84.987 296.776 86.6918C289.167 92.4585 280.301 95.9468 270.477 97.6203C267.595 98.1152 264.673 98.3902 261.721 98.2881C261.454 98.2802 261.179 98.2881 260.912 98.2881C260.079 98.2488 259.483 98.4924 258.949 99.113C254.574 104.235 249.313 108.572 243.313 112.233C241.059 113.608 238.648 114.724 236.033 115.486C235.649 115.596 235.201 115.887 234.816 115.51C234.486 115.18 234.651 114.779 234.801 114.418C235.452 112.838 236.238 111.306 236.827 109.712C237.918 106.734 238.845 103.733 239.151 100.606C239.292 99.1995 239.347 97.7931 239.206 96.379C239.143 95.7112 238.868 95.334 238.028 95.0748C232.774 93.4642 227.913 91.2329 223.791 87.9096C221.827 86.3304 220.17 84.5156 218.694 82.5829C216.762 80.0374 215.027 77.3897 213.802 74.5063C212.883 72.3458 212.396 70.0988 212.027 67.8361C210.865 60.7181 212.953 54.2522 217.139 48.1319C220.453 43.2923 225.118 39.7097 230.45 36.7164C237.039 33.0238 244.303 30.769 251.944 29.4334C254.7 28.9541 257.504 28.8991 261.705 28.9463H261.713Z" fill="#E95151"/>
<path d="M272.079 65.0625C267.791 65.0468 263.503 64.9525 259.215 64.8975C258.768 64.8975 258.312 64.8896 257.88 64.7404C257.158 64.5047 256.797 63.9783 256.812 63.2162C256.828 62.5955 257.268 62.077 257.967 61.912C258.469 61.7941 258.988 61.7313 259.514 61.747C266.88 61.8963 274.246 61.8727 281.612 62.1006C282.727 62.132 283.842 62.132 284.95 62.1634C285.421 62.1791 285.9 62.2184 286.355 62.3127C287.078 62.462 287.502 62.9648 287.541 63.6012C287.58 64.3161 287.188 64.8896 286.473 65.1332C285.923 65.3139 285.358 65.3296 284.785 65.3139C280.874 65.2275 276.971 65.1489 273.06 65.0625C272.73 65.0625 272.4 65.0625 272.063 65.0625H272.079Z" fill="white"/>
<path d="M251.613 55.5802C246.36 55.6352 242.551 55.6824 238.742 55.7216C238.271 55.7216 237.792 55.7138 237.321 55.6824C236.834 55.6588 236.402 55.4781 236.033 55.1717C235.256 54.5196 235.334 53.4904 236.198 52.964C236.693 52.6576 237.25 52.579 237.831 52.5712C239.936 52.5555 242.041 52.524 244.153 52.5005C250.051 52.4533 255.94 52.3826 261.838 52.414C262.238 52.414 262.647 52.414 263.039 52.4769C263.974 52.6183 264.579 53.3018 264.524 54.1189C264.461 54.9203 263.825 55.4859 262.898 55.5409C262.639 55.5567 262.38 55.5488 262.121 55.5488C258.147 55.5331 254.166 55.5331 251.629 55.5724L251.613 55.5802Z" fill="white"/>
<path d="M273.61 68.999C276.728 69.0462 280.042 69.1012 283.355 69.1562C283.685 69.1562 284.015 69.164 284.337 69.2897C285.012 69.549 285.444 70.1854 285.389 70.8453C285.334 71.5367 284.848 72.0709 284.117 72.2281C283.811 72.2988 283.513 72.3145 283.198 72.3066C277.089 72.1652 270.979 72.1495 264.87 72.1495C264.257 72.1495 263.637 72.1259 263.024 72.0552C262.207 71.9531 261.768 71.5603 261.626 70.9003C261.406 69.8947 261.917 69.164 262.969 69.0383C263.299 68.999 263.629 69.0069 263.959 69.0069C267.108 69.0069 270.257 69.0069 273.61 69.0069V68.999Z" fill="white"/>
<path d="M246.03 67.7811C248.959 67.9226 251.896 68.064 254.826 68.1975C255.116 68.2133 255.391 68.2682 255.65 68.3782C256.349 68.6768 256.718 69.4074 256.561 70.1381C256.412 70.8216 255.862 71.2537 255.077 71.2616C253.161 71.2852 251.245 71.1752 249.329 71.0809C247.083 70.963 244.837 70.9238 242.591 70.7981C240.792 70.6959 238.994 70.7352 237.203 70.5545C236.772 70.5074 236.371 70.4131 235.986 70.201C235.484 69.926 235.24 69.5096 235.24 68.9596C235.24 68.4175 235.625 68.1425 236.057 67.9304C236.552 67.6869 237.101 67.6633 237.651 67.6554C239.897 67.6397 242.151 67.6476 244.397 67.734C244.939 67.7576 245.488 67.734 246.03 67.734V67.7733V67.7811Z" fill="white"/>
<path d="M241.028 60.459C243.792 60.5454 245.826 60.6083 247.86 60.679C248.307 60.6947 248.755 60.7104 249.179 60.8911C249.847 61.1818 250.184 61.7239 250.137 62.4231C250.098 62.9809 249.674 63.578 248.951 63.7037C248.504 63.7823 248.064 63.8137 247.616 63.8059C245.418 63.7509 243.219 63.6802 241.02 63.6409C239.339 63.6095 237.659 63.6173 235.978 63.6095C235.358 63.6095 234.769 63.4995 234.188 63.2716C233.293 62.9181 233.3 61.3546 233.984 60.9304C234.502 60.6083 235.044 60.459 235.656 60.459C237.69 60.459 239.724 60.459 241.028 60.459Z" fill="white"/>
<path d="M254.252 74.6396C256.796 74.7104 258.642 74.7575 260.48 74.8125C260.974 74.8282 261.477 74.8675 261.932 75.0639C262.435 75.276 262.828 75.5903 262.82 76.1874C262.82 76.7923 262.466 77.2716 261.846 77.4759C261.351 77.6408 260.825 77.6566 260.307 77.6723C259.459 77.7037 258.603 77.633 257.755 77.6016C255.721 77.523 253.687 77.468 251.653 77.4287C250.797 77.413 249.956 77.3502 249.108 77.2716C248.794 77.2402 248.504 77.1616 248.252 76.9809C247.813 76.6666 247.624 76.2424 247.703 75.7239C247.773 75.221 248.08 74.9068 248.574 74.7339C248.849 74.6396 249.132 74.6396 249.415 74.6396C251.26 74.6396 253.106 74.6396 254.252 74.6396Z" fill="white"/>
<path d="M274.952 55.1867C273.382 55.2103 271.945 55.1317 270.508 55.0767C270.084 55.061 269.66 55.0218 269.243 54.9353C268.505 54.7939 268.089 54.3225 268.058 53.6783C268.026 52.9712 268.387 52.4605 269.126 52.2405C269.393 52.162 269.683 52.0991 269.958 52.0991C273.076 52.0991 276.201 52.0991 279.319 52.327C279.963 52.3741 280.512 52.6019 280.897 53.1205C281.361 53.7411 281.219 54.4247 280.528 54.8175C280.175 55.0218 279.782 55.1003 279.374 55.116C277.858 55.1553 276.35 55.2574 274.96 55.1867H274.952Z" fill="white"/>
<path d="M194.601 147.163C193.03 148.868 187.926 150.565 187.007 150.44C166.362 150.895 158.312 144.807 157.166 138.293C155.956 131.388 157.472 112.328 157.558 112.658C157.817 113.702 159.993 115.242 163.055 119.634C179.052 138.592 191.852 128.834 191.978 128.701C192.261 128.41 194.075 124.639 194.986 122.282C195.418 122.455 195.229 146.339 194.593 147.163H194.601Z" fill="#D38240"/>
<path d="M215.411 226.161C215.396 226.538 215.372 226.727 215.38 226.907C215.474 230.6 215.058 234.261 214.532 237.899C213.589 244.443 213.103 251.011 213.55 257.619C213.652 259.072 213.911 260.51 214.296 261.916C214.524 262.741 214.43 262.985 213.652 263.22C207.456 265.098 201.417 267.447 195.166 269.144C190.863 270.315 186.614 270.134 182.405 268.602C179.633 267.589 176.877 266.544 174.159 265.404C168.317 262.953 162.396 260.753 156.027 260.109C152.234 259.724 148.472 259.756 144.75 260.84C138.837 262.552 133.355 265.114 128.455 268.861C125.706 270.967 123.445 273.481 121.796 276.537C121.568 276.961 121.411 277.574 120.798 277.504C120.139 277.433 120.037 276.781 119.942 276.278C119.432 273.677 119.102 271.061 119.283 268.398C119.44 265.986 119.919 263.613 120.178 261.217C120.641 256.912 121.01 252.606 120.681 248.254C120.256 242.628 119.754 237.019 119.181 231.417C118.764 227.371 118.026 223.372 117.272 219.381C116.628 215.987 116 212.601 115.34 209.214C114.524 205.003 113.723 200.784 112.843 196.581C112.364 194.295 111.406 192.134 110.77 189.887C109.364 184.898 108.1 179.87 107.605 174.709C107.071 169.115 107.802 163.615 109.466 158.241C110.37 155.334 111.508 152.545 113.275 150.039C114.767 147.918 116.628 146.158 118.537 144.437C120.571 142.615 122.785 141.051 125.141 139.661C126.398 138.922 127.599 138.105 128.855 137.366C129.201 137.162 129.303 136.895 129.389 136.549C129.68 135.316 130.096 134.122 130.552 132.943C130.787 132.338 131.101 131.765 131.368 131.168C131.612 130.61 131.973 130.484 132.562 130.68C133.984 131.144 135.421 131.545 136.85 131.985C140.038 132.967 143.289 133.713 146.501 134.585C151.268 135.889 156.098 136.934 160.919 138.034C161.218 138.105 161.524 138.199 161.822 138.191C163.173 138.16 164.021 138.875 164.869 139.865C167.162 142.52 169.801 144.83 172.958 146.394C176.633 148.216 180.552 149.01 184.667 148.546C185.853 148.413 186.983 148.051 188.122 147.706C188.538 147.58 188.868 147.313 189.135 146.975C189.544 146.472 189.975 145.969 190.321 145.427C192.661 141.782 194.373 137.877 195.213 133.603C195.41 132.59 195.653 131.576 195.967 130.602C196.297 129.581 197.082 128.881 197.954 128.292C198.331 128.041 198.763 128.096 199.179 128.166C200.255 128.347 201.229 128.779 202.132 129.392C203.75 130.508 205.171 131.843 206.545 133.242C208.728 135.465 210.645 137.908 212.278 140.564C214.147 143.597 216.181 146.527 217.924 149.646C221.576 156.151 224.364 163.034 226.892 170.034C228.926 175.651 230.089 181.465 230.976 187.35C231.722 192.284 232.366 197.225 232.311 202.222C232.24 208.774 231.431 215.225 229.39 221.479C228.573 223.969 227.56 226.365 225.817 228.377C225.565 228.667 225.33 228.974 225.055 229.233C223.374 230.804 221.435 230.993 219.479 229.775C218.662 229.264 217.94 228.636 217.28 227.937C216.731 227.363 216.142 226.837 215.427 226.161H215.411Z" fill="#07D0CE"/>
<path d="M120.775 138.412C120.775 138.412 105.187 143.314 101.574 162.767C100.742 170.828 103.522 192.221 122.259 217.331C139.669 241.969 145.41 239.007 145.41 239.007C145.41 239.007 159.482 238.449 172.448 208.626C180.042 184.914 170.783 177.875 170.783 177.875C170.783 177.875 170.414 200.29 165.411 197.516C154.857 195.104 152.957 186.934 157.959 174.937C145.001 189.078 146.517 193.816 146.517 193.816L140.965 178.441L120.783 138.427L120.775 138.412Z" fill="#00B8B6"/>
<path d="M119.966 263.92C123.672 255.026 150.333 249.472 150.333 249.472C150.333 249.472 165.89 246.51 176.256 252.622C181.07 256.331 185.703 258.735 192.551 259.662C199.399 260.589 213.102 253.18 213.66 255.404C215.325 260.958 214.767 266.151 214.767 266.151L190.878 272.633C190.878 272.633 163.574 258.059 148.025 259.913C127.583 262.349 119.958 279.115 119.958 279.115C119.958 279.115 116.251 272.814 119.958 263.92H119.966Z" fill="#07D0CE"/>
<path d="M206.435 181.23L203.844 190.681C203.844 190.681 202.548 198.09 209.396 215.319C216.244 232.549 222.911 231.991 222.911 231.991C222.911 231.991 235.13 230.325 233.096 196.605C230.136 161.408 214.885 144.681 214.885 144.681C214.885 144.681 212.773 148.798 212.922 151.752C213.511 163.34 222.542 180.303 222.542 180.303C222.542 180.303 221.984 198.828 214.768 199.567C207.543 200.305 206.805 189.935 206.805 189.935L206.435 181.23Z" fill="#00B8B6"/>
<path d="M182.005 133.187C186.685 133.879 189.371 131.867 189.371 131.867C189.371 131.867 194.821 128.033 195.755 121.897C198.441 113.452 199.831 109.225 200.365 95.9707C200.781 85.6865 197.287 75.1509 197.287 75.1509C197.287 75.1509 194.342 64.3481 180.207 64.3481C164.108 66.3123 159.789 76.5258 159.2 77.9007C157.433 80.4541 156.781 93.0874 156.781 93.0874L157.661 113.844C157.661 113.844 163.158 120.428 170.029 126.713C172.581 129.07 177.921 132.59 182.005 133.195V133.187Z" fill="#F5B888"/>
<path d="M192.701 129.354C192.905 135.726 193.219 143.928 196.392 149.443C196.682 149.946 197.012 150.457 197.523 150.739C197.656 150.81 197.805 150.873 197.892 150.999C197.939 151.062 196.612 154.526 196.517 154.919C195.983 157.221 195.441 159.523 194.9 161.817C193.777 166.531 192.842 171.284 191.845 176.03C191.397 178.151 190.345 179.981 189.143 181.734C188.719 182.354 188.374 182.417 187.714 182.087C187.321 181.891 187.031 181.561 186.725 181.254C185.342 179.872 184.204 178.284 182.963 176.792C177.615 170.381 172.275 163.962 166.927 157.543C164.163 154.228 162.043 150.527 160.291 146.591C158.933 143.535 158.572 143.386 157.936 140.094C157.669 138.688 158.328 128.835 158.218 122.087C158.218 121.717 158.234 121.238 158.752 121.167C159.184 121.105 160.291 120.657 160.488 120.916C163.331 124.797 165.781 128.199 169.715 130.933C172.605 132.944 175.872 134.806 179.304 135.49C181.683 135.969 185.075 135.836 187.251 134.861C188.955 134.099 192.292 131.326 192.685 129.362L192.701 129.354Z" fill="#00B8B6"/>
<path d="M158.147 124.891C158.399 124.42 158.014 119.871 158.344 120.272C158.399 120.334 159.137 121.348 159.168 121.426C160.472 123.233 161.289 124.145 162.969 125.748C164.877 127.57 166.904 129.275 169.016 130.862C170.594 132.049 170.971 133.581 169.99 135.246C169.417 136.212 168.953 137.658 168.419 138.648C168.176 139.104 167.555 137.666 167.139 137.352C165.686 136.244 164.383 134.971 163.158 133.628C161.257 131.546 160.629 130.996 158.996 128.694C158.407 127.869 158.195 127.775 158.147 124.883V124.891Z" fill="#C4DDDD"/>
<path d="M184.809 169.273C184.212 169.265 183.591 169.1 183.002 168.801C181.793 168.188 180.56 167.489 179.767 166.452C178.306 164.543 177.387 162.335 177.34 159.868C177.325 159.067 177.976 158.643 178.762 158.824C179.5 158.996 180.128 159.358 180.623 159.931C181.298 160.725 181.966 161.518 182.641 162.312C184.078 164.017 184.816 164.017 186.191 162.288C186.591 161.778 186.945 161.235 187.329 160.709C188.154 159.578 189.332 159.24 190.376 159.837C191.366 160.403 191.766 161.589 191.201 162.791C190.337 164.622 189.607 166.546 188.044 167.969C187.133 168.793 186.112 169.265 184.816 169.281L184.809 169.273Z" fill="#C4DDDD"/>
<path d="M186.159 156.349C184.51 156.278 182.869 156.2 181.251 155.87C179.932 155.602 179.736 155.021 180.552 153.992C181.471 152.837 182.421 151.713 183.34 150.559C183.858 149.906 184.432 149.624 185.256 150.032C185.767 150.284 186.356 150.276 186.921 150.221C188.586 150.04 190.204 150.276 191.829 150.606C192.779 150.802 193.612 151.156 193.832 152.201C194.059 153.293 193.439 154.055 192.575 154.565C190.424 155.854 188.774 156.451 186.167 156.357L186.159 156.349Z" fill="#C4DDDD"/>
<path d="M195.096 140.832C192.716 142.207 189.23 142.906 186.63 143.684C186.709 142.749 183.811 142.49 184.094 141.893C184.345 141.359 184.738 139.002 185.405 138.75C186.073 138.499 189.528 139.143 190.259 139.08C190.855 139.025 192.308 137.525 192.905 137.509C193.188 137.501 193.455 139.339 193.651 139.528C194.059 139.905 194.483 140.274 195.096 140.824V140.832Z" fill="#C4DDDD"/>
<path d="M165.985 143.213C165.93 143.991 165.875 144.76 165.812 145.538C165.788 145.813 165.671 146.041 165.388 146.12C165.105 146.198 164.87 146.096 164.713 145.86C163.959 144.705 162.977 143.692 162.412 142.411C162.16 141.854 161.98 141.272 162.105 140.651C162.231 140.023 162.734 139.724 163.252 140.062C164.194 140.667 165.09 141.359 165.828 142.223C166.079 142.513 166.016 142.875 165.993 143.213H165.985Z" fill="#C4DDDD"/>
<path d="M163.628 328.454C161.328 328.643 159.78 328.737 158.218 328.564C158.1 328.548 157.982 328.548 157.872 328.54C155.461 328.368 154.833 326.985 155.202 324.989C155.666 322.546 156.129 320.095 156.569 317.643C156.898 315.766 157.024 313.864 157.087 311.963C157.126 310.682 157.213 310.51 158.461 310.195C159.137 310.023 159.828 309.889 160.527 309.818C165.639 309.315 170.688 308.341 175.761 307.54C178.84 307.053 181.918 306.652 185.02 306.33C186.08 306.22 186.379 306.448 186.536 307.595C186.866 310.046 186.858 312.489 186.237 314.901C185.727 316.889 185.468 318.955 184.415 320.786C183.622 322.161 182.617 323.324 181.235 324.117C178.259 325.822 175.031 326.804 171.678 327.362C168.764 327.849 165.851 328.36 163.636 328.454H163.628Z" fill="#F5B888"/>
<path d="M181.612 318.397C181.361 315.797 181.439 313.189 181.054 310.604C180.96 309.983 181.054 309.347 181.141 308.726C181.266 307.87 181.219 307.83 180.403 308.003C178.227 308.475 176.06 308.97 173.885 309.433C168.859 310.502 163.778 311.02 158.634 310.808C156.812 310.737 155.045 310.957 153.278 311.382C148.826 312.474 144.899 314.54 141.475 317.58C140.666 318.303 139.818 318.963 139.111 319.819C138.279 320.825 137.085 321.438 135.884 321.964C134.07 322.758 132.162 323.268 130.19 323.481C128.29 323.685 126.523 323.143 124.827 322.381C120.539 320.456 117.013 317.549 113.943 314.013C110.707 310.282 108.909 305.929 107.951 301.16C106.726 295.079 107.048 289.03 108.532 283.059C110.173 276.483 113.801 271.164 119.086 266.914C122.832 263.897 126.782 261.225 131.133 259.183C134.91 257.407 138.86 256.213 143.014 255.616C149.485 254.689 155.618 256.001 161.626 258.232C166.754 260.133 171.639 262.537 176.343 265.326C179.625 267.275 182.908 269.223 186.394 270.795C187.125 271.125 187.761 271.132 188.546 270.912C190.486 270.37 192.457 269.938 194.436 269.577C197.789 268.956 201.032 267.943 204.276 266.945C209.168 265.436 214.053 263.912 219.008 262.64C225.227 261.045 231.478 259.599 237.706 258.043C243.486 256.606 249.266 255.144 254.99 253.495C259.828 252.104 264.681 250.768 269.526 249.386C274.042 248.097 278.573 246.864 283.143 245.779C287.627 244.711 291.986 245.229 296.297 246.534C299.737 247.579 302.972 249.063 305.658 251.53C307.15 252.897 308.501 254.382 309.514 256.158C310.637 258.122 311.838 260.047 312.537 262.231C314.131 267.22 313.566 272.083 311.862 276.923C310.629 280.427 308.619 283.467 306.263 286.272C303.695 289.328 300.978 292.251 297.781 294.679C295.504 296.399 293.148 297.994 290.729 299.518C284.149 303.666 276.885 306.283 269.707 309.135C263.024 311.79 256.208 313.998 249.25 315.734C244.774 316.85 240.203 317.549 235.672 318.397C229.861 319.482 224.026 320.44 218.183 321.367C213.715 322.074 209.262 322.954 204.786 323.606C200.098 324.29 195.433 325.201 190.682 325.366C188.044 325.46 185.397 325.484 182.751 325.508C181.934 325.508 181.824 325.398 181.745 324.565C181.667 323.771 181.635 322.97 181.62 322.176C181.604 320.919 181.62 319.662 181.62 318.397H181.612Z" fill="#1E195F"/>
<path d="M185.421 305.403C185.177 305.379 184.942 305.387 184.722 305.332C184.18 305.198 183.701 304.947 183.575 304.342C183.457 303.784 183.74 303.391 184.164 303.061C184.777 302.59 185.444 302.213 186.127 301.867C189.072 300.375 191.805 298.536 194.585 296.776C198.143 294.521 201.559 292.047 205.037 289.674C205.799 289.155 206.53 288.598 207.252 288.024C207.872 287.537 207.849 287.348 207.103 287.026C205.768 286.453 204.425 285.887 203.066 285.376C198.017 283.483 193.282 281.008 189.002 277.708C188.216 277.103 187.407 276.514 186.614 275.917C186.135 275.556 185.821 275.1 185.75 274.487C185.648 273.56 185.821 273.262 186.732 272.979C187.572 272.719 188.428 272.515 189.269 272.24C189.701 272.099 190.077 272.122 190.478 272.335C193.878 274.11 197.475 275.438 201.04 276.836C203.035 277.614 205.045 278.36 206.985 279.288C208.964 280.23 210.841 281.338 212.545 282.705C212.945 283.027 213.26 283.098 213.637 282.721C214.021 282.344 214.422 281.99 214.814 281.629C218.348 278.282 221.874 274.935 225.408 271.596C226.107 270.936 226.83 270.308 227.576 269.71C230.253 267.542 232.908 265.342 235.947 263.677C236.724 263.252 237.525 262.899 238.405 262.742C239.057 262.632 239.708 262.632 240.337 262.852C241.468 263.244 241.915 264.046 241.782 265.193C241.562 267.071 240.816 268.689 239.669 270.198C235.358 275.854 230.253 280.662 224.403 284.693C221.309 286.822 218.246 288.99 215.026 290.915C210.888 293.398 206.922 296.156 202.705 298.505C200.059 299.974 197.349 301.325 194.569 302.519C193.093 303.156 191.648 303.871 190.117 304.366C188.578 304.861 187.023 305.246 185.436 305.418L185.421 305.403Z" fill="#393387"/>
<path d="M146.957 333.482C144.899 333.482 143.101 332.201 142.504 330.261C141.719 327.7 141.444 325.099 142.284 322.475C143.03 320.134 143.972 317.879 145.26 315.781C147.004 312.937 149.383 310.769 152.359 309.276C154.456 308.223 156.631 308.192 158.807 309.032C159.953 309.48 160.189 310.022 159.804 311.185C158.642 314.705 158.218 318.342 158.053 322.027C157.99 323.339 158.304 324.612 158.626 325.877C158.791 326.521 159.16 327.04 159.631 327.519C160.322 328.21 160.26 328.501 159.341 328.917C158.54 329.279 157.723 329.617 156.906 329.931C154.417 330.905 151.88 331.761 149.454 332.908C148.621 333.301 147.734 333.561 146.949 333.498L146.957 333.482Z" fill="#001C63"/>
<path d="M150.758 174.465C150.271 174.717 150.334 175.172 150.2 175.526C149.807 176.571 149.454 177.632 148.763 178.535C147.295 180.444 145.724 180.947 143.266 180.35C142.842 180.248 142.441 180.012 141.884 180.051C142.08 180.703 142.528 180.931 143.109 181.049C143.619 181.151 144.169 181.151 144.64 181.442C145.064 181.701 145.088 182 144.687 182.267C144.271 182.534 143.792 182.628 143.289 182.644C140.345 182.73 138.224 180.248 137.832 178.472C137.557 177.223 137.659 175.95 137.557 174.677C136.583 176.516 135.947 178.417 136.858 180.46C137.313 181.489 138.46 181.74 139.41 182.18C139.551 182.243 139.74 182.204 139.889 182.267C140.305 182.432 140.329 182.73 140.054 183.013C139.567 183.5 138.931 183.642 138.256 183.595C137.038 183.516 136.096 182.927 135.287 182.086C134.321 181.073 133.662 179.878 133.395 178.543C133.175 177.435 132.46 176.94 131.447 176.681C131.133 176.602 130.811 176.539 130.481 176.524C128.392 176.429 126.743 175.495 125.392 174.01C124.238 172.729 123.688 171.299 122.856 169.846C122.173 168.659 121.089 167.756 120.288 166.617C119.055 164.865 118.081 163.175 117.83 161.07C117.594 159.114 117.202 156.906 116.11 155.225C115.136 153.724 114.626 152.593 114.375 150.731C114.068 148.437 114.39 141.994 114.901 139.692C115.686 136.141 115.945 134.994 116.338 132.763C116.888 129.644 116.228 126.045 115.686 122.942C114.767 117.702 116.33 111.393 120.531 103.78C122.228 100.7 124.16 96.1435 124.662 92.7102C125.235 88.7505 125.204 83.6123 126.084 79.6919C127.089 75.2372 128.691 71.9689 131.612 68.3706C135.452 63.6253 137.706 62.4625 137.942 62.1875C142.787 56.4287 148.59 53.6317 150.302 52.9325C155.415 50.8427 160.747 50.112 166.252 50.3713C167.657 50.4341 168.992 50.3006 170.351 49.9156C172.267 49.3735 180.246 47.6136 187.934 51.1884C191.051 52.6418 194.475 55.3759 195.74 57.8507C196.148 58.6442 196.753 59.2649 197.499 59.7913C200.569 61.944 203.53 65.3773 205.21 68.7399C206.522 71.3561 207.825 72.9431 209.592 82.9131C209.687 83.4237 210.205 85.6236 210.488 86.0635C213.55 90.856 214.312 96.0178 213.079 101.486C212.718 103.073 212.302 104.644 211.846 106.208C210.708 110.136 210.943 113.962 212.639 117.702C213.228 119.006 213.676 120.373 214.179 121.709C215.357 124.843 215.333 127.994 214.501 131.176C214.186 132.37 213.919 133.564 213.77 134.79C213.566 136.463 213.613 138.105 214.092 139.732C214.775 142.073 215.011 144.493 214.925 146.912C214.823 149.568 213.754 151.909 212.105 154.007C211.885 154.29 211.65 154.565 211.406 154.832C210.464 155.861 209.859 157.008 209.757 158.438C209.632 160.151 209.176 161.801 208.218 163.278C207.928 163.725 208.077 164.087 208.218 164.503C208.705 165.957 208.886 167.426 208.579 168.95C208.297 170.333 207.456 171.393 206.593 172.446C206.475 172.595 206.278 172.698 206.098 172.784C205.666 172.988 205.383 172.808 205.407 172.328C205.415 172.093 205.509 171.865 205.556 171.637C205.776 170.482 205.47 169.838 204.409 169.288C204.017 169.084 203.593 168.919 203.169 168.793C201.103 168.164 198.999 167.614 197.624 165.705C197.428 167.371 197.758 168.84 198.865 170.097C198.944 170.184 199.054 170.254 199.14 170.333C199.376 170.568 199.878 170.718 199.627 171.158C199.352 171.637 198.873 171.519 198.425 171.37C197.444 171.056 196.721 170.427 196.234 169.571C195.426 168.149 194.994 166.625 195.221 164.998C195.473 163.191 195.842 161.408 196.148 159.609C196.431 157.951 196.117 156.38 195.433 154.855C195.237 154.408 194.907 154.062 194.554 153.732C192.818 152.129 192.245 150.141 192.52 147.887C192.685 146.543 192.991 145.239 193.36 143.935C194.146 141.161 194.562 138.388 193.627 135.52C193.038 133.713 192.818 131.804 192.591 129.911C192.096 125.731 193.274 121.952 195.693 118.558C196.918 116.838 197.679 115.023 197.899 112.98C198.072 111.401 198.418 109.853 198.795 108.313C199.902 103.749 199.729 99.2468 197.923 94.8864C196.8 92.1759 195.598 89.489 194.805 86.6528C194.452 85.3957 194.632 84.0837 194.271 82.8816C193.886 81.5932 192.379 80.4383 191.318 79.7155C189.151 78.2149 186.45 76.1957 183.866 75.6143C184.259 75.7008 183.473 75.5829 183.332 76.2507C182.185 81.7974 178.895 86.2207 175.157 90.3846C173.775 91.9245 172.071 93.0951 170.422 94.3208C168.513 95.7349 166.856 97.3455 165.922 99.5532C165.129 101.423 164.783 103.379 165.019 105.367C165.333 108.007 165.207 110.568 164.43 113.129C163.299 116.845 163.857 120.436 165.6 123.861C167.131 126.878 167.759 130.021 167.076 133.321C166.636 135.418 165.82 137.422 164.658 139.26C164.32 139.794 164.281 140.219 164.579 140.784C165.859 143.212 166.299 145.797 166.095 148.507C165.922 150.849 165.671 153.166 164.917 155.405C164.65 156.191 164.045 156.914 163.966 157.699C163.888 158.485 164.587 159.208 164.76 160.033C164.909 160.74 164.979 161.463 164.846 162.154C164.485 163.977 164.21 165.839 163.315 167.52C163.016 168.078 162.985 168.596 163.15 169.217C163.715 171.346 163.707 173.444 162.679 175.479C162.388 176.052 161.987 176.555 161.642 177.089C160.919 178.205 160.213 179.329 160.715 180.743C160.794 180.971 160.802 181.261 160.558 181.379C160.252 181.536 160.009 181.324 159.828 181.096C159.451 180.641 159.372 180.083 159.302 179.533C159.208 178.826 159.278 178.119 159.522 177.294C158.713 177.49 158.061 177.804 157.645 178.26C156.702 179.289 155.689 180.295 155.006 181.521C154.551 182.322 154.268 183.194 154.284 184.137C154.284 184.412 154.378 184.734 154.032 184.86C153.671 184.993 153.381 184.773 153.2 184.506C152.493 183.453 152.061 182.322 152.281 181.033C152.454 180.043 152.831 179.124 153.318 178.252C153.608 177.734 153.546 177.419 153.027 177.082C152.022 176.437 151.472 175.392 150.781 174.473L150.758 174.465ZM209.875 153.598C210.174 153.653 210.26 153.504 210.362 153.386C211.242 152.333 211.579 151.092 211.736 149.764C211.956 147.863 211.673 145.97 211.721 144.068C211.721 143.817 211.776 143.495 211.336 143.361C210.865 143.958 210.723 144.697 210.496 145.404C209.632 148.099 210.299 150.888 209.883 153.598H209.875ZM200.428 160.724C200.389 161.266 200.365 161.659 200.326 162.044C200.075 164.393 201.386 165.894 203.334 166.907C204.276 167.402 205.297 167.764 206.192 168.526C206.223 167.646 205.894 167.143 205.226 166.766C203.224 165.65 201.951 163.945 201.119 161.895C200.978 161.541 200.915 161.133 200.436 160.716L200.428 160.724ZM126.963 169.759C126.885 172.36 129.256 174.654 131.816 174.434C129.916 173.051 128.047 171.786 126.963 169.759ZM153.75 170.136C153.42 172.226 153.97 174.567 154.983 175.557C155.595 173.468 154.7 171.794 153.75 170.136ZM159.105 175.015C161.265 172.918 161.061 171.063 158.744 169.995C159.278 171.582 159.349 173.169 159.105 175.015Z" fill="#3B1502"/>
<path d="M186.238 124.749C184.392 124.529 182.861 123.681 181.895 121.921C181.486 121.175 181.322 120.318 180.788 119.635C180.513 119.289 180.662 118.943 180.929 118.676C182.068 117.514 183.348 116.555 184.895 115.989C185.468 115.777 186.041 115.817 186.567 116.162C187.101 116.516 187.573 116.594 188.138 116.123C188.766 115.604 189.465 115.785 190.133 116.186C191.303 116.901 191.845 118.103 192.52 119.203C192.677 119.462 192.622 119.737 192.426 119.949C191.64 120.813 191.146 121.89 190.439 122.809C189.402 124.168 187.973 124.663 186.245 124.742L186.238 124.749ZM184.455 119.737C186.497 120.468 188.185 120.295 189.324 119.297C187.58 118.794 185.994 119.046 184.455 119.737Z" fill="#E95151"/>
<path d="M194.679 141.146C193.831 140.25 193.195 139.582 192.567 138.907C192.017 138.317 191.499 137.697 191.169 136.95C190.902 136.361 190.753 135.756 190.871 135.096C191.059 134.059 191.915 133.517 192.936 133.8C193.549 133.973 194.114 134.263 194.648 134.617C195.033 134.868 195.418 135.112 195.81 135.363C196.054 135.002 195.873 134.735 195.771 134.476C194.405 130.799 193.918 126.918 193.125 123.107C192.873 121.905 192.646 120.695 192.465 119.485C192.347 118.692 192.261 117.883 192.575 117.105C193.007 116.036 193.926 115.816 194.797 116.555C195.292 116.979 195.559 117.56 195.85 118.126C197.719 121.748 199.124 125.566 200.695 129.314C202.006 132.441 203.443 135.505 204.888 138.569C208.265 145.734 211.705 152.86 214.32 160.355C216.652 167.033 219.212 173.625 222.353 179.973C222.864 181.01 222.974 182.071 222.84 183.178C222.236 188.285 221.238 193.298 219.416 198.121C218.961 199.316 218.348 200.423 217.61 201.468C216.825 202.576 215.773 203.126 214.383 203.173C211.414 203.283 209.278 201.987 207.778 199.488C206.75 197.776 206.349 195.867 206.098 193.934C205.619 190.273 205.666 186.58 205.415 182.903C205.391 182.565 205.454 182.228 205.462 181.89C205.666 175.416 205.085 169.029 203.231 162.791C202.87 161.557 202.297 160.457 201.496 159.436C199.713 157.181 198.41 154.69 197.923 151.807C197.687 150.424 197.09 149.144 196.588 147.84C196.399 147.337 196.069 146.983 195.614 146.716C194.436 146.04 193.266 145.365 192.104 144.673C191.672 144.414 191.216 144.163 190.839 143.841C190.093 143.204 189.936 142.364 190.321 141.554C190.69 140.784 191.358 140.439 192.331 140.596C193.022 140.706 193.706 140.91 194.695 141.138L194.679 141.146Z" fill="#E29F71"/>
<path d="M177.262 127.931C177.796 127.539 177.835 127.051 177.976 126.627C178.667 124.624 179.288 122.605 179.83 120.554C180.034 119.776 180.293 119.006 180.827 118.378C181.188 117.946 181.589 117.561 182.233 117.71C182.861 117.851 183.12 118.339 183.238 118.896C183.473 120.067 183.481 121.261 183.324 122.44C182.68 127.358 181.84 132.237 180.552 137.029C180.379 137.681 180.183 138.333 180.018 138.986C179.947 139.268 179.893 139.575 180.222 139.803C180.725 139.598 180.906 139.08 181.275 138.75C181.754 138.326 182.225 137.909 182.79 137.603C184.212 136.833 185.374 137.54 185.335 139.158C185.311 139.92 185.099 140.659 184.887 141.397C184.557 142.529 184.243 143.66 183.913 144.839C184.424 144.815 184.636 144.462 184.958 144.289C185.963 143.747 186.787 144.069 187.133 145.161C187.353 145.868 187.321 146.591 187.157 147.298C186.505 150.173 185.382 152.86 183.733 155.311C182.241 157.527 180.686 159.695 179.209 161.911C174.882 168.4 172.456 175.503 172.126 183.344C171.882 189.142 171.27 194.916 170.1 200.62C169.919 201.484 169.668 202.349 169.354 203.181C168.663 205.035 167.453 205.562 165.655 204.776C163.527 203.849 161.729 202.427 160.127 200.785C157.716 198.318 155.721 195.537 154.064 192.504C153.224 190.972 153.067 189.393 153.538 187.72C153.797 186.824 154.08 185.936 154.504 185.103C156.875 180.46 158.697 175.566 160.888 170.844C162.749 166.837 163.566 162.579 164.069 158.218C164.454 154.856 164.846 151.485 165.859 148.233C166.511 146.119 167.516 144.155 168.435 142.152C169.676 139.441 170.595 136.644 171.184 133.722C171.843 130.422 173.06 127.303 174.615 124.325C174.929 123.728 175.251 123.123 175.707 122.612C176.1 122.173 176.586 121.929 177.183 122.141C177.78 122.361 177.976 122.88 177.992 123.461C178 123.791 177.921 124.129 177.866 124.467C177.678 125.59 177.482 126.706 177.27 127.947L177.262 127.931Z" fill="#E29F71"/>
<path d="M348.551 194.508C349.077 193.88 350.012 192.41 350.357 191.915C353.428 187.445 355.407 183.8 357.841 178.944C358.729 177.169 359.53 175.362 360.158 173.476C360.551 172.305 361.202 173.476 362.333 174.042C365.663 175.699 367.469 177.019 368.883 180.484C369.503 182.008 369.322 182.794 368.097 183.862C366.338 185.394 364.634 186.981 362.781 188.411C359.145 191.216 355.156 193.298 350.695 194.437C350.232 194.555 349.745 194.602 349.266 194.673C349.054 194.704 348.826 194.752 348.551 194.508Z" fill="#D38240"/>
<path d="M351.826 193.643C357.323 190.477 363.276 185.983 367.925 181.505C368.521 182.738 369.998 187.932 369.786 190.642C369.707 191.671 369 196.527 368.71 197.517C368.584 197.949 367.249 206.151 366.747 206.552C365.545 207.518 361.729 207.471 360.291 208.091C359.907 208.256 358.305 208.484 358.281 207.926C358.242 206.803 358.03 205.695 357.802 204.595C356.852 199.983 355.195 196.919 351.826 193.651V193.643Z" fill="#E29F71"/>
<path d="M429.32 271.722C429.406 280.309 428.581 288.912 427.922 297.523C427.67 300.775 427.537 304.036 427.066 307.265C425.951 314.886 424.655 322.483 422.252 329.829C421.325 332.657 419.998 335.305 418.208 337.701C417.477 338.683 416.59 339.335 415.365 339.673C410.197 341.111 404.944 341.849 399.588 341.936C397.091 341.975 394.594 342.054 392.104 341.865C386.968 341.48 382.17 339.885 377.553 337.686C373.367 335.698 369.527 333.152 365.828 330.387C364.265 329.224 362.718 328.046 361.155 326.883C359.789 325.869 358.54 324.754 357.449 323.434C356.671 322.499 356.09 321.501 355.768 320.338C354.166 314.587 352.855 308.766 352.022 302.85C351.724 300.713 351.669 298.552 351.496 296.399C351.159 292.141 350.57 287.899 350.57 283.609C350.57 278.078 350.978 272.578 352.713 267.307C354.347 262.349 355.541 257.282 356.601 252.191C357.52 247.76 358.305 243.297 357.975 238.717C357.794 236.21 356.97 233.924 356.027 231.654C355.8 231.096 355.391 230.664 354.959 230.247C352.768 228.165 350.279 226.492 347.703 224.928C346.14 223.978 344.554 223.129 342.732 222.76C341.759 222.564 341.531 222.155 341.735 221.063C342.151 218.855 343.023 216.836 344.586 215.21C346.682 213.018 349.195 211.376 351.897 210.017C352.729 209.6 353.569 209.168 354.473 208.94C356.232 208.5 357.394 207.306 358.454 205.963C359.067 205.185 359.043 205.177 360.009 205.476C361.1 205.813 362.192 206.136 363.291 206.458C363.912 206.638 364.54 206.662 365.176 206.583C370.359 205.971 375.424 204.879 380.372 203.197C385.406 201.492 390.125 199.12 394.829 196.716C397.012 195.6 399.085 195.686 401.143 196.755C405.674 199.104 409.656 202.168 412.585 206.403C416.551 212.13 419.865 218.203 422.095 224.85C423.579 229.265 425.095 233.657 426.131 238.206C426.932 241.718 427.537 245.261 427.835 248.852C428.04 251.295 428.385 253.731 428.652 256.174C429.202 261.312 429.429 266.474 429.327 271.706L429.32 271.722Z" fill="#B4009D"/>
<path d="M346.235 196.134C344.9 195.623 343.471 194.79 342.308 193.25C338.727 188.505 337.636 182.086 336.882 176.359C336.183 171.04 336.725 165.768 337.487 160.496C338.091 156.293 339.112 152.2 340.479 148.193C341.044 146.535 341.806 144.972 342.662 143.456C347.413 136.165 351.481 132.645 351.732 132.504C351.999 132.354 353.994 130.532 354.221 130.799C354.402 131.011 350.263 135.646 348.002 143.204C347.586 145.2 344.782 151.595 347.216 158.823C348.277 162.107 349.4 163.395 351.426 166.13C352.407 167.449 355.533 170.089 360.056 173.711C360.967 174.937 360.37 176.272 359.718 177.152C359.153 177.922 356.734 181.858 356.24 182.675C355.965 183.131 351.441 191.098 349.761 193.117C349.038 193.981 347.656 196.087 346.243 196.142L346.235 196.134Z" fill="#F5B888"/>
<path d="M297.617 350.476C291.374 350.476 285.248 349.674 279.225 348.017C276.037 347.137 273.626 345.149 271.466 342.776C269.04 340.105 268.034 336.821 267.493 333.364C267.147 331.125 267.147 328.91 267.665 326.663C268.097 324.801 269.275 323.826 270.893 323.174C272.338 322.593 273.822 322.624 275.322 322.915C279.146 323.669 282.649 325.225 285.711 327.605C290.046 330.976 294.821 333.592 299.603 336.216C302.815 337.976 306.004 339.783 309.349 341.299C312.003 342.501 314.65 343.719 317.108 345.306C317.249 345.393 317.398 345.463 317.548 345.542C317.995 345.778 318.262 346.131 318.215 346.642C318.176 347.129 317.791 347.31 317.391 347.475C315.459 348.26 313.456 348.818 311.407 349.195C306.844 350.028 302.25 350.468 297.625 350.484L297.617 350.476Z" fill="#3B1502"/>
<path d="M330.757 310.737C329.83 309.331 329.492 307.854 329.39 306.314C329.241 304.122 328.895 301.946 329.17 299.722C329.861 294.105 333.694 289.493 338.939 288.079C341.413 287.411 343.895 287.647 346.376 288.024C346.965 288.11 347.538 288.283 348.127 288.338C348.763 288.401 350.939 288.315 350.947 288.943C350.962 290.169 351.63 307.602 355.069 316.15C355.101 316.229 358.211 324.4 364.108 328.768C368.247 331.808 372.589 334.519 377.254 336.672C381.707 338.722 386.332 340.144 391.28 340.372C396.494 340.616 401.701 340.545 406.86 339.759C409.53 339.351 412.192 338.793 414.76 337.905C415.184 337.764 415.718 337.449 416.056 337.866C416.378 338.267 416.032 338.754 415.812 339.154C414.47 341.566 412.546 343.46 410.488 345.243C407.064 348.205 403.153 350.413 399.101 352.353C396.777 353.469 394.24 354.074 391.751 354.75C385.885 356.352 379.869 357.052 373.822 357.452C369.762 357.719 365.695 357.366 361.65 356.997C355.91 356.478 350.216 355.59 344.625 354.184C339.78 352.966 335.005 351.497 330.199 350.138C328.079 349.541 325.982 348.896 323.854 348.331C321.058 347.592 318.388 346.571 315.797 345.298C311.014 342.949 306.153 340.726 301.449 338.235C297.303 336.035 293.306 333.553 289.253 331.172C288.602 330.787 287.973 330.331 287.4 329.836C285.123 327.872 282.861 325.892 280.623 323.889C278.832 322.286 277.529 320.322 276.406 318.209C275.063 315.663 275.377 313.236 276.767 310.839C278.479 307.893 281.008 305.835 283.921 304.153C287.204 302.26 290.777 301.537 294.507 301.427C299.847 301.27 305.038 302.205 310.166 303.627C316.747 305.45 323.092 307.909 329.429 310.407C329.814 310.557 330.168 310.816 330.764 310.722L330.757 310.737Z" fill="#10A0DD"/>
<path d="M361.541 326.851C360.724 326.435 358.658 325.358 357.967 324.981C350.735 321.037 343.322 317.462 335.649 314.438C333.953 313.77 332.971 312.898 332.484 312.898C330.325 311.617 329.791 310.447 329.736 309.166C329.704 308.459 329.516 307.673 330.105 307.885C332.272 308.671 334.51 308.695 336.78 308.718C342.23 308.757 347.342 310.242 352.219 312.623C352.337 312.678 352.447 312.756 352.572 312.811C353.868 313.432 354.763 314.328 355.132 315.813C355.981 319.222 357.496 321.108 359.577 323.897C359.734 324.109 361.588 326.537 361.541 326.843V326.851Z" fill="#006EA9"/>
<path d="M322.04 263.229C321.812 257.871 322.377 252.497 323.32 247.138C323.547 245.85 324.097 245.041 325.346 244.609C327.089 243.996 328.848 243.414 330.654 243.045C331.322 242.912 331.542 242.629 331.628 241.953C332.421 235.527 334.306 229.446 337.314 223.702C338.319 221.785 339.622 220.081 341.012 218.439C341.774 217.543 342.787 216.938 343.855 216.467C344.774 216.066 345.693 216.231 346.612 216.577C348.96 217.464 350.695 219.098 352.14 221.063C353.059 222.312 353.836 223.655 354.394 225.109C355.957 229.202 357.645 233.256 358.533 237.577C359.286 241.246 359.899 244.931 360.127 248.678C360.276 251.224 360.009 253.754 359.875 256.283C359.616 260.966 359.192 265.633 358.156 270.229C357.771 271.949 357.315 273.654 356.569 275.265C355.36 277.865 353.499 279.782 350.805 280.882C346.47 282.65 342.206 284.598 337.824 286.264C336.128 286.908 334.392 287.38 332.594 287.631C331.699 287.757 330.796 287.796 329.893 287.655C328.102 287.364 326.861 286.429 326.115 284.724C323.877 279.578 322.699 274.181 322.275 268.61C322.142 266.851 322.008 265.091 322.047 263.237L322.04 263.229Z" fill="white"/>
<path d="M340.887 201.044C341.986 200.156 343.243 199.489 343.635 197.933C343.871 197.014 344.444 196.205 345.057 195.458C345.379 195.058 345.748 194.845 346.298 194.948C346.722 195.026 347.169 194.995 347.609 195.01C348.292 195.034 348.496 195.191 348.386 195.875C347.947 198.703 347.813 201.571 346.989 204.36C346.258 206.835 345.198 209.121 343.942 211.352C342.567 213.788 341.358 216.302 340.259 218.871C340.039 219.381 339.803 219.884 339.473 220.348C335.837 225.36 333.466 230.931 332.099 236.957C331.691 238.748 331.314 240.539 331.196 242.378C331.165 242.794 331.031 243.014 330.599 243.124C329.021 243.517 327.403 243.76 325.99 244.373C325.636 244.177 325.668 243.965 325.715 243.776C326.987 239.141 327.223 234.325 328.251 229.658C329.147 225.572 329.194 221.432 329.484 217.299C329.728 213.921 329.743 210.519 330.12 207.149C330.505 203.653 331.236 200.219 331.958 196.786C332.602 193.746 333.269 190.705 333.89 187.665C334.023 187.005 334.031 186.321 334.118 185.645C334.204 184.923 335.539 183.343 336.175 183.178C336.489 183.1 337.604 182.644 337.785 182.888C338.005 183.186 338.13 184.208 338.178 184.561C338.405 186.258 337.683 186.038 339.018 189.173C339.568 190.344 339.874 191.569 340.086 192.826C340.471 195.152 340.565 197.509 340.636 199.858C340.643 200.235 340.518 200.651 340.879 201.052L340.887 201.044Z" fill="#E29F71"/>
<path d="M355.156 176.076C355.07 177.765 354.975 179.022 354.559 180.224C354.19 181.308 353.609 182.259 352.643 182.911C351.928 183.39 351.135 183.657 350.256 183.414C349.769 183.28 349.408 182.997 349.353 182.463C349.298 181.929 349.572 181.505 350.067 181.395C351.787 181.01 352.313 179.706 352.588 178.221C352.941 176.374 352.941 174.504 352.643 172.65C352.549 172.053 352.376 171.464 352.07 170.93C351.473 169.893 350.931 169.767 349.949 170.435C349.832 170.513 349.737 170.615 349.62 170.694C349.455 170.804 349.274 170.851 349.109 170.725C348.952 170.6 348.936 170.403 348.96 170.215C349.117 169.013 350.593 168.109 351.85 168.471C352.494 168.659 353.012 169.044 353.444 169.555C353.939 170.136 354.245 170.812 354.465 171.527C354.96 173.145 355.117 174.811 355.156 176.068V176.076Z" fill="#D38240"/>
<path d="M349.942 179.894C350.185 178.276 350.256 176.665 350.201 175.047C350.201 174.858 350.279 174.654 350.476 174.615C350.664 174.575 350.813 174.701 350.915 174.874C351.182 175.322 351.316 175.817 351.387 176.32C351.536 177.467 350.931 179.109 349.942 179.886V179.894Z" fill="#D38240"/>
<path d="M352.871 210.323C355.242 204.257 356.279 197.996 356.028 191.459C355.745 191.734 355.47 192.001 355.187 192.276C354.771 192.685 354.347 193.077 353.805 193.329C353.185 193.62 352.722 193.352 352.651 192.7C352.612 192.292 352.753 191.899 352.863 191.514C353.845 188.002 354.606 184.451 355.007 180.829C355.242 178.7 355.36 176.571 354.96 174.442C354.638 172.729 353.75 171.276 352.737 169.869C352.423 169.437 352.015 169.076 351.536 168.809C351.135 168.581 350.75 168.321 350.326 168.149C346.997 166.774 344.586 164.495 343.007 161.4C342.913 161.219 342.78 161.054 342.701 160.866C342.45 160.245 342.034 160.041 341.319 160.143C340.102 160.308 338.869 160.284 337.644 160.182C335.908 160.041 335.484 159.687 335.351 158.045C335.186 156.073 336.419 149.395 338.248 144.43C342.505 135.646 349.384 129.675 359.334 127.342C367.454 125.433 375.26 126.43 382.689 130.28C389.937 134.036 395.12 140.745 397.986 146.81C401.536 154.934 403.13 163.403 403.216 172.171C402.588 187.892 400.821 195.199 400.429 197.139C400.326 197.658 400.02 198.011 399.635 198.333C398.913 199.936 396.133 202.097 395.073 202.387C394.397 202.568 393.879 202.914 393.4 203.409C392.042 204.792 390.385 205.742 388.453 206.221C387.675 206.41 386.906 206.661 386.113 206.764C384.88 206.929 383.733 207.172 382.885 208.17C382.539 208.586 381.943 208.696 381.409 208.822C378.919 209.411 376.398 209.584 373.854 209.175C373.438 209.105 373.045 209.066 372.621 209.254C370.658 210.126 368.624 210.189 366.551 209.678C366.017 209.545 365.475 209.458 364.941 209.325C364.148 209.128 363.417 209.113 362.601 209.403C361.376 209.835 360.08 209.647 358.855 209.285C357.905 209.011 357.056 209.034 356.177 209.49C355.549 209.812 354.85 210.016 354.166 210.236C353.782 210.362 353.381 210.55 352.863 210.323H352.871Z" fill="#723306"/>
</svg>
