<svg width="25" height="24" viewBox="0 0 25 24" fill="none" xmlns="http://www.w3.org/2000/svg">
<path d="M4.07408 8.82246C2.0451 12.3434 3.33496 17.6866 5.57869 20.9263C6.69866 22.5461 7.83256 24 9.38564 24C9.41491 24 9.44426 23.9994 9.47432 23.9982C10.204 23.9691 10.7313 23.7445 11.2411 23.5274C11.8135 23.2834 12.4055 23.0312 13.334 23.0312C14.2173 23.0312 14.7811 23.2753 15.3262 23.5112C15.8635 23.7436 16.4169 23.9841 17.2347 23.9687C18.9841 23.9362 20.0582 22.3673 21.0058 20.9832C21.9947 19.5381 22.4907 18.135 22.6581 17.5988L22.6649 17.5775C22.6967 17.4822 22.6517 17.3782 22.5604 17.3362C22.5579 17.3351 22.5486 17.3312 22.546 17.3301C22.2379 17.2041 19.5356 16.0053 19.5072 12.7378C19.4808 10.0832 21.5344 8.67744 21.9463 8.42264L21.9655 8.41068C22.0101 8.38196 22.0412 8.3364 22.0517 8.28431C22.0623 8.2323 22.0513 8.17816 22.0214 8.13441C20.6039 6.06002 18.4313 5.74739 17.5566 5.70978C17.4296 5.69711 17.2986 5.69073 17.1671 5.69073C16.1397 5.69073 15.1556 6.07875 14.3649 6.39051C13.8191 6.60572 13.3477 6.79159 13.0225 6.79159C12.6572 6.79159 12.1831 6.60344 11.6341 6.38563C10.8999 6.09425 10.0678 5.76407 9.18687 5.76407C9.16586 5.76407 9.14516 5.76431 9.12478 5.7647C7.07652 5.79484 5.1411 6.96667 4.07408 8.82246Z" fill="white"/>
<path d="M17.5584 0.000151195C16.318 0.0506692 14.8301 0.814184 13.9408 1.85586C13.185 2.73143 12.4466 4.19126 12.6411 5.66273C12.6533 5.7548 12.7282 5.82586 12.8209 5.83302C12.9046 5.83955 12.99 5.84285 13.0752 5.84293C14.288 5.84293 15.5964 5.17195 16.4899 4.09156C17.4303 2.95073 17.9058 1.48666 17.7619 0.175233C17.7506 0.0724659 17.6602 -0.00386192 17.5584 0.000151195Z" fill="white"/>
</svg>
