<svg width="76" height="50" viewBox="0 0 76 50" fill="none" xmlns="http://www.w3.org/2000/svg">
<path d="M9.94779 1.39196L1.89453 24.874L11.493 28.1659L19.5463 4.68379L9.94779 1.39196Z" fill="#00B8B6"/>
<path d="M26.5189 3.38005L25.5852 3.83923C24.422 4.40554 23.0598 4.48207 21.8506 4.05351L20.2894 3.5025C20.1976 3.44128 20.1058 3.39536 20.0139 3.36475L10.4019 0.0739977C9.68251 -0.170895 8.88661 0.21175 8.64172 0.931123L0.575555 24.4255C0.453108 24.7776 0.48372 25.1602 0.636778 25.4816C0.789836 25.8031 1.08065 26.0633 1.43268 26.1857L11.0294 29.4765C11.1825 29.5224 11.3355 29.553 11.4733 29.553C12.0549 29.553 12.5906 29.1857 12.7896 28.6193L20.3966 6.48713L20.917 6.6708C22.8302 7.34426 24.973 7.22181 26.8097 6.33407L27.7434 5.8749C28.8913 5.30859 30.2382 5.23206 31.4474 5.64531L49.095 11.7217C48.9113 12.4564 48.544 13.3288 47.8705 13.8033C47.1205 14.3237 46.0032 14.3237 44.5338 13.8186L36.6667 11.1248C36.2993 11.0023 35.9014 11.033 35.5646 11.2166C35.2279 11.4003 34.983 11.7217 34.8759 12.0891C34.8606 12.135 33.7739 16.2063 30.2994 18.0736C28.1107 19.2522 25.3863 19.2981 22.1874 18.2114C21.468 17.9665 20.6721 18.3491 20.4272 19.0685C20.1823 19.7879 20.5649 20.5838 21.2843 20.8287C23.121 21.4562 24.8506 21.7776 26.4577 21.7776C28.325 21.7776 30.0392 21.3644 31.6004 20.5226C34.7075 18.8542 36.3146 15.9308 37.0493 14.186L43.6155 16.4359C45.9573 17.2471 47.9164 17.1247 49.4317 16.0686C51.8653 14.3849 51.9878 10.9717 52.0031 10.8187C52.0184 10.2064 51.6357 9.67074 51.0694 9.47177L32.3351 3.01271C30.4525 2.36987 28.325 2.50762 26.5189 3.38005ZM10.6315 26.4L3.65202 24.0123L10.7998 3.15047L17.7793 5.53817L10.6315 26.4Z" fill="#00B8B6"/>
<path d="M54.0693 6.00858L64.9795 28.3057L74.0934 23.8461L63.1831 1.54905L54.0693 6.00858Z" fill="#00B8B6"/>
<path d="M63.2832 27.9766L59.9925 31.0071C57.0079 33.7469 53.6406 36.0581 49.9978 37.8335L32.5339 46.3742C31.7686 46.7568 30.8349 46.4354 30.4523 45.6548C30.0696 44.8895 30.391 43.9559 31.1716 43.5732L31.3859 43.4661L40.9368 38.7978C41.6255 38.4611 41.9163 37.6346 41.5796 36.9458C41.2429 36.257 40.4164 35.9662 39.7276 36.303L30.1768 40.9712L25.3707 43.3283C24.6055 43.711 23.6718 43.3895 23.2892 42.609C23.1055 42.2416 23.0749 41.813 23.2126 41.4304C23.3504 41.0325 23.6259 40.7263 23.9932 40.5427L27.6207 38.7672L37.998 33.6857C38.6868 33.3489 38.9776 32.5224 38.6409 31.8337C38.3042 31.1449 37.4776 30.8541 36.7889 31.1908L26.3962 36.2877L25.9983 36.4866L21.0392 38.9202C20.6719 39.1039 20.2433 39.1345 19.8607 38.9968C19.4627 38.859 19.1566 38.5835 18.9729 38.2162C18.5903 37.4509 18.9117 36.5172 19.6923 36.1346L21.4065 35.2928L24.9116 33.5785L25.8911 33.104L33.942 29.1551C34.6308 28.8184 34.9216 27.9919 34.5848 27.3031C34.2481 26.6144 33.4216 26.3236 32.7328 26.6603L24.0085 30.9306L20.1974 32.7979C19.4321 33.1653 18.4984 32.8591 18.1158 32.0786C17.9321 31.7112 17.9015 31.2827 18.0393 30.9C18.177 30.5021 18.4525 30.1959 18.8199 30.0123L25.4779 26.7521C26.1666 26.4154 26.4575 25.5889 26.1207 24.9001C25.784 24.2114 24.9575 23.9206 24.2687 24.2573L17.6107 27.5174C16.5699 28.0225 15.7893 28.9103 15.422 29.997C15.0546 31.0837 15.1159 32.2622 15.6209 33.303C15.9424 33.9459 16.4015 34.4816 16.9525 34.8795C15.9883 36.1499 15.7434 37.8948 16.4934 39.4253C16.9985 40.4661 17.8862 41.2467 18.9729 41.6141C19.4321 41.7671 19.8913 41.8437 20.3504 41.8437C20.3351 42.5324 20.4729 43.2212 20.7943 43.8487C21.5443 45.3793 23.0902 46.267 24.682 46.267C25.3248 46.267 25.9677 46.1293 26.5799 45.8232L27.5595 45.3487C27.6054 45.8691 27.7431 46.3742 27.9727 46.864C28.7227 48.3946 30.2686 49.2823 31.8604 49.2823C32.5033 49.2823 33.1461 49.1445 33.7583 48.8384L51.2223 40.2978C55.1099 38.3999 58.6915 35.9509 61.8751 33.0275L65.7781 29.4306L74.7167 25.0532C75.4054 24.7165 75.6962 23.8899 75.3595 23.2012L64.4312 0.931233C64.2628 0.594505 63.9873 0.349613 63.6353 0.227166C63.2832 0.10472 62.9006 0.135332 62.5792 0.28839L53.4569 4.74238C52.7681 5.07911 52.4773 5.90562 52.8141 6.59438L63.2832 27.9766ZM62.5486 3.39547L72.2371 23.2165L65.6097 26.4613L55.9211 6.6403L62.5486 3.39547Z" fill="#00B8B6"/>
</svg>
