<svg width="47" height="46" viewBox="0 0 47 46" fill="none" xmlns="http://www.w3.org/2000/svg">
<rect x="0.5" y="0.5" width="46" height="45" rx="22.5" fill="#C5EAE9"/>
<path d="M20.0701 26.77L26.61 20.23" stroke="#00B8B6" stroke-width="1.5" stroke-linecap="round" stroke-linejoin="round"/>
<path d="M20.48 21.8699C21.1593 21.8699 21.71 21.3192 21.71 20.6399C21.71 19.9606 21.1593 19.4099 20.48 19.4099C19.8007 19.4099 19.25 19.9606 19.25 20.6399C19.25 21.3192 19.8007 21.8699 20.48 21.8699Z" stroke="#00B8B6" stroke-width="1.5" stroke-linecap="round" stroke-linejoin="round"/>
<path d="M27.02 27.5899C27.6993 27.5899 28.25 27.0392 28.25 26.3599C28.25 25.6806 27.6993 25.1299 27.02 25.1299C26.3407 25.1299 25.79 25.6806 25.79 26.3599C25.79 27.0392 26.3407 27.5899 27.02 27.5899Z" stroke="#00B8B6" stroke-width="1.5" stroke-linecap="round" stroke-linejoin="round"/>
<path d="M23.5 33.5C29.0228 33.5 33.5 29.0228 33.5 23.5C33.5 17.9772 29.0228 13.5 23.5 13.5C17.9772 13.5 13.5 17.9772 13.5 23.5C13.5 29.0228 17.9772 33.5 23.5 33.5Z" stroke="#00B8B6" stroke-width="1.5" stroke-linecap="round" stroke-linejoin="round"/>
</svg>
