<svg width="29" height="30" viewBox="0 0 29 30" fill="none" xmlns="http://www.w3.org/2000/svg">
<rect y="0.135498" width="28.9015" height="28.9015" rx="7.20117" fill="#1877F2"/>
<g clip-path="url(#clip0_10347_58366)">
<path d="M17.5265 7.84013H15.8795C15.4666 7.8163 15.0535 7.88368 14.6681 8.03773C14.2827 8.19177 13.9339 8.42891 13.6452 8.73316C13.3566 9.0374 13.1348 9.40168 12.9948 9.80142C12.8548 10.2012 12.7999 10.6271 12.8337 11.0505V12.5312H11.1774C11.1087 12.5312 11.0429 12.5593 10.9943 12.6091C10.9457 12.659 10.9185 12.7267 10.9185 12.7972V14.9422C10.9185 15.0127 10.9457 15.0804 10.9943 15.1303C11.0429 15.1801 11.1087 15.2082 11.1774 15.2082H12.833V20.6192C12.833 20.6897 12.8603 20.7574 12.9089 20.8073C12.9574 20.8572 13.0233 20.8852 13.092 20.8852H15.2531C15.3218 20.8852 15.3877 20.8572 15.4362 20.8073C15.4848 20.7574 15.5121 20.6897 15.5121 20.6192V15.2082H17.4447C17.5134 15.2082 17.5793 15.1801 17.6278 15.1303C17.6764 15.0804 17.7037 15.0127 17.7037 14.9422V12.7972C17.7037 12.7267 17.6764 12.659 17.6278 12.6091C17.5793 12.5593 17.5134 12.5312 17.4447 12.5312H15.5121V11.2764C15.5121 10.6731 15.6517 10.367 16.4169 10.367H17.5265C17.5605 10.367 17.5941 10.3601 17.6255 10.3467C17.657 10.3334 17.6855 10.3138 17.7096 10.2891C17.7336 10.2644 17.7527 10.235 17.7657 10.2028C17.7787 10.1705 17.7854 10.1359 17.7854 10.101V8.10909C17.7858 8.07391 17.7794 8.039 17.7665 8.00639C17.7537 7.97377 17.7347 7.9441 17.7106 7.91908C17.6865 7.89407 17.6578 7.87421 17.6262 7.86066C17.5946 7.84711 17.5607 7.84013 17.5265 7.84013Z" fill="white"/>
</g>
<defs>
<clipPath id="clip0_10347_58366">
<rect width="6.86621" height="13.0458" fill="white" transform="translate(10.9185 7.84253)"/>
</clipPath>
</defs>
</svg>
