<svg width="30" height="30" viewBox="0 0 30 30" fill="none" xmlns="http://www.w3.org/2000/svg">
<path d="M23.6613 0.135498H7.10862C3.68045 0.135498 0.901367 2.91458 0.901367 6.34275V22.8954C0.901367 26.3236 3.68045 29.1027 7.10862 29.1027H23.6613C27.0894 29.1027 29.8685 26.3236 29.8685 22.8954V6.34275C29.8685 2.91458 27.0894 0.135498 23.6613 0.135498Z" fill="url(#paint0_radial_10347_58370)"/>
<path d="M23.6613 0.135498H7.10862C3.68045 0.135498 0.901367 2.91458 0.901367 6.34275V22.8954C0.901367 26.3236 3.68045 29.1027 7.10862 29.1027H23.6613C27.0894 29.1027 29.8685 26.3236 29.8685 22.8954V6.34275C29.8685 2.91458 27.0894 0.135498 23.6613 0.135498Z" fill="url(#paint1_radial_10347_58370)"/>
<path d="M22.6266 8.92901C22.6266 9.78602 21.9318 10.4808 21.0748 10.4808C20.2177 10.4808 19.5229 9.78602 19.5229 8.92901C19.5229 8.07196 20.2177 7.3772 21.0748 7.3772C21.9318 7.3772 22.6266 8.07196 22.6266 8.92901Z" fill="white"/>
<path fill-rule="evenodd" clip-rule="evenodd" d="M15.3851 19.7917C18.2419 19.7917 20.5578 17.4758 20.5578 14.619C20.5578 11.7622 18.2419 9.44629 15.3851 9.44629C12.5283 9.44629 10.2124 11.7622 10.2124 14.619C10.2124 17.4758 12.5283 19.7917 15.3851 19.7917ZM15.3851 17.7226C17.0992 17.7226 18.4887 16.3331 18.4887 14.619C18.4887 12.9049 17.0992 11.5154 15.3851 11.5154C13.671 11.5154 12.2815 12.9049 12.2815 14.619C12.2815 16.3331 13.671 17.7226 15.3851 17.7226Z" fill="white"/>
<path d="M23.694 0.168213H7.14133C3.71316 0.168213 0.934082 2.94729 0.934082 6.37546V22.9281C0.934082 26.3563 3.71316 29.1354 7.14133 29.1354H23.694C27.1222 29.1354 29.9012 26.3563 29.9012 22.9281V6.37546C29.9012 2.94729 27.1222 0.168213 23.694 0.168213Z" fill="url(#paint2_radial_10347_58370)"/>
<path fill-rule="evenodd" clip-rule="evenodd" d="M5.07227 14.238C5.07227 10.7616 5.07227 9.02339 5.74881 7.69562C6.34392 6.52764 7.29351 5.57806 8.46149 4.98295C9.78926 4.3064 11.5275 4.3064 15.0039 4.3064H15.8315C19.3079 4.3064 21.0461 4.3064 22.3738 4.98295C23.5418 5.57806 24.4914 6.52764 25.0865 7.69562C25.7631 9.02339 25.7631 10.7616 25.7631 14.238V15.0656C25.7631 18.542 25.7631 20.2802 25.0865 21.608C24.4914 22.776 23.5418 23.7256 22.3738 24.3206C21.0461 24.9972 19.3079 24.9972 15.8315 24.9972H15.0039C11.5275 24.9972 9.78926 24.9972 8.46149 24.3206C7.29351 23.7256 6.34392 22.776 5.74881 21.608C5.07227 20.2802 5.07227 18.542 5.07227 15.0656V14.238ZM15.0039 6.37548H15.8315C17.6039 6.37548 18.8086 6.37709 19.7399 6.45317C20.6471 6.52729 21.111 6.66162 21.4346 6.82651C22.2132 7.22326 22.8462 7.85631 23.2429 8.63492C23.4079 8.95852 23.5422 9.42241 23.6163 10.3296C23.6924 11.2609 23.694 12.4656 23.694 14.238V15.0656C23.694 16.838 23.6924 18.0427 23.6163 18.974C23.5422 19.8812 23.4079 20.3451 23.2429 20.6687C22.8462 21.4473 22.2132 22.0803 21.4346 22.4771C21.111 22.642 20.6471 22.7764 19.7399 22.8504C18.8086 22.9265 17.6039 22.9281 15.8315 22.9281H15.0039C13.2315 22.9281 12.0268 22.9265 11.0955 22.8504C10.1883 22.7764 9.72439 22.642 9.40079 22.4771C8.62218 22.0803 7.98912 21.4473 7.59238 20.6687C7.42749 20.3451 7.29316 19.8812 7.21904 18.974C7.14296 18.0427 7.14135 16.838 7.14135 15.0656V14.238C7.14135 12.4656 7.14296 11.2609 7.21904 10.3296C7.29316 9.42241 7.42749 8.95852 7.59238 8.63492C7.98912 7.85631 8.62218 7.22326 9.40079 6.82651C9.72439 6.66162 10.1883 6.52729 11.0955 6.45317C12.0268 6.37709 13.2315 6.37548 15.0039 6.37548Z" fill="white"/>
<defs>
<radialGradient id="paint0_radial_10347_58370" cx="0" cy="0" r="1" gradientUnits="userSpaceOnUse" gradientTransform="translate(11.2468 21.8609) rotate(-55.3758) scale(26.4011)">
<stop stop-color="#B13589"/>
<stop offset="0.79309" stop-color="#C62F94"/>
<stop offset="1" stop-color="#8A3AC8"/>
</radialGradient>
<radialGradient id="paint1_radial_10347_58370" cx="0" cy="0" r="1" gradientUnits="userSpaceOnUse" gradientTransform="translate(10.2122 30.1372) rotate(-65.1363) scale(23.3746)">
<stop stop-color="#E0E8B7"/>
<stop offset="0.444662" stop-color="#FB8A2E"/>
<stop offset="0.71474" stop-color="#E2425C"/>
<stop offset="1" stop-color="#E2425C" stop-opacity="0"/>
</radialGradient>
<radialGradient id="paint2_radial_10347_58370" cx="0" cy="0" r="1" gradientUnits="userSpaceOnUse" gradientTransform="translate(-0.61773 1.20275) rotate(-8.1301) scale(40.2342 8.60569)">
<stop offset="0.156701" stop-color="#406ADC"/>
<stop offset="0.467799" stop-color="#6A45BE"/>
<stop offset="1" stop-color="#6A45BE" stop-opacity="0"/>
</radialGradient>
</defs>
</svg>
