<svg width="47" height="46" viewBox="0 0 47 46" fill="none" xmlns="http://www.w3.org/2000/svg">
<rect x="0.5" y="0.5" width="46" height="45" rx="22.5" fill="#E9F2DE"/>
<g clip-path="url(#clip0_10347_58644)">
<path d="M21.1246 13.5C22.0683 13.5 22.9908 13.7789 23.7753 14.3014C24.5597 14.8239 25.171 15.5664 25.5316 16.4351C25.8921 17.3038 25.9858 18.2595 25.8008 19.1813C25.6157 20.103 25.1603 20.9494 24.4921 21.6132C23.8239 22.277 22.973 22.7284 22.0471 22.9102C21.1213 23.0921 20.162 22.9962 19.2909 22.6347C18.4198 22.2732 17.6759 21.6625 17.1534 20.8797C16.631 20.0969 16.3535 19.1773 16.356 18.2373C16.3593 16.9797 16.8632 15.7747 17.7572 14.8866C18.6511 13.9986 19.8621 13.5 21.1246 13.5ZM21.1246 21.1203C21.6915 21.1228 22.2464 20.9579 22.7193 20.6465C23.1922 20.3352 23.5618 19.8914 23.7817 19.3709C24.0015 18.8504 24.0615 18.2767 23.9543 17.7222C23.8471 17.1678 23.5775 16.6574 23.1793 16.2555C22.7812 15.8535 22.2724 15.5781 21.7173 15.464C21.1621 15.3498 20.5855 15.4022 20.0601 15.6142C19.5347 15.8262 19.0841 16.1884 18.7653 16.6553C18.4464 17.1221 18.2736 17.6727 18.2685 18.2373C18.2669 18.6119 18.3395 18.9832 18.4823 19.3298C18.6251 19.6764 18.8352 19.9916 19.1005 20.2571C19.3659 20.5226 19.6814 20.7333 20.0287 20.8771C20.3761 21.0208 20.7485 21.0949 21.1246 21.0949V21.1203Z" fill="#71CD00"/>
<path d="M21.1374 24.9051H24.0191C25.1241 24.8917 26.1986 25.2661 27.0542 25.9628C27.9098 26.6595 28.4919 27.6339 28.6985 28.7153C28.7707 29.1347 28.8048 29.5598 28.8005 29.9853C28.8005 30.4934 28.8005 31.0141 28.8005 31.5348C28.8048 31.7716 28.7192 32.0013 28.5608 32.1779C28.4024 32.3545 28.1829 32.465 27.9462 32.4873C27.7106 32.5173 27.4724 32.4564 27.2804 32.3171C27.0884 32.1778 26.9571 31.9706 26.9134 31.738C26.9003 31.6283 26.9003 31.5175 26.9134 31.4078C26.9517 30.6886 26.9517 29.9678 26.9134 29.2486C26.8393 28.5469 26.4978 27.9004 25.9593 27.442C25.4209 26.9836 24.7264 26.7484 24.0191 26.7848C22.0937 26.7848 20.194 26.7848 18.2304 26.7848C17.8548 26.7881 17.4836 26.8655 17.1382 27.0125C16.7928 27.1595 16.4801 27.3731 16.2181 27.6412C15.9561 27.9093 15.75 28.2264 15.6117 28.5742C15.4735 28.9221 15.4058 29.2938 15.4125 29.6678C15.4125 30.2775 15.4125 30.9378 15.4125 31.4712C15.4194 31.6001 15.4002 31.7291 15.3562 31.8504C15.3121 31.9718 15.2442 32.0831 15.1562 32.1779C15.0683 32.2726 14.9621 32.3487 14.8441 32.4019C14.726 32.4551 14.5985 32.4841 14.469 32.4873C14.3385 32.491 14.2088 32.4678 14.0878 32.4189C13.9669 32.3701 13.8573 32.2969 13.7662 32.2038C13.6752 32.1107 13.6045 31.9997 13.5587 31.878C13.5128 31.7563 13.4928 31.6264 13.4999 31.4966C13.4999 30.7219 13.4999 29.9472 13.4999 29.1852C13.5948 28.1332 14.0428 27.1437 14.7715 26.3764C15.5002 25.6091 16.4671 25.1088 17.5164 24.956C18.1873 24.9177 18.8599 24.9177 19.5309 24.956L21.1374 24.9051Z" fill="#71CD00"/>
<path d="M29.6931 22.9745H27.8443C27.6312 22.9705 27.4257 22.8948 27.2614 22.7596C27.097 22.6245 26.9835 22.4381 26.9391 22.2305C26.8948 22.0229 26.9223 21.8063 27.0172 21.6163C27.1121 21.4262 27.2688 21.2737 27.4618 21.1837C27.6262 21.1112 27.8048 21.0765 27.9845 21.0822H29.7696V19.2279C29.7696 18.9753 29.8704 18.7329 30.0497 18.5543C30.229 18.3757 30.4723 18.2754 30.7259 18.2754C30.9795 18.2754 31.2228 18.3757 31.4021 18.5543C31.5814 18.7329 31.6822 18.9753 31.6822 19.2279C31.6822 19.7995 31.6822 20.3709 31.6822 20.9425C31.6822 20.9425 31.6822 21.0314 31.6822 21.1076H33.531C33.7846 21.1076 34.0279 21.2079 34.2072 21.3865C34.3865 21.5651 34.4873 21.8075 34.4873 22.0601C34.4873 22.3128 34.3865 22.555 34.2072 22.7336C34.0279 22.9122 33.7846 23.0127 33.531 23.0127H31.6694V23.2539C31.6694 23.7873 31.6694 24.308 31.6694 24.8415C31.6782 24.9729 31.6596 25.1047 31.6147 25.2286C31.5698 25.3525 31.4996 25.4657 31.4085 25.5611C31.3175 25.6566 31.2076 25.7323 31.0857 25.7833C30.9638 25.8343 30.8326 25.8596 30.7004 25.8576C30.5697 25.8544 30.4411 25.825 30.3221 25.7711C30.2032 25.7171 30.0965 25.6397 30.0084 25.5436C29.9202 25.4475 29.8524 25.3347 29.8092 25.2118C29.766 25.089 29.7482 24.9586 29.7568 24.8288V23.0761L29.6931 22.9745Z" fill="#71CD00"/>
</g>
<defs>
<clipPath id="clip0_10347_58644">
<rect width="21" height="19" fill="white" transform="translate(13.5 13.5)"/>
</clipPath>
</defs>
</svg>
