<svg width="19" height="21" viewBox="0 0 19 21" fill="none" xmlns="http://www.w3.org/2000/svg">
<g clip-path="url(#clip0_10462_51328)">
<path d="M13.9378 7.20329C11.9048 5.83883 8.64188 3.64781 3.58082 0.247236C3.2396 -0.0231802 2.84701 -0.0586177 2.50781 0.079154L11.1912 10.4992L13.9378 7.20329Z" fill="#32BBFF"/>
<path d="M2.5078 0.0791626C2.44423 0.105002 2.38236 0.136174 2.3232 0.173827C1.94862 0.416968 1.67337 0.884834 1.67337 1.47657V19.5218C1.67337 20.1136 1.94859 20.5814 2.3232 20.8245C2.38226 20.8622 2.44409 20.8934 2.5076 20.9194L11.1912 10.4992L2.5078 0.0791626Z" fill="#32BBFF"/>
<path d="M11.1912 10.4992L2.5076 20.9195C2.8469 21.0582 3.23949 21.0255 3.58081 20.7512C8.48895 17.4531 11.7151 15.288 13.7716 13.912C13.8288 13.8734 13.8849 13.8356 13.9404 13.7983L11.1912 10.4992Z" fill="#32BBFF"/>
<path d="M1.67337 10.4992V19.5218C1.67337 20.1136 1.94859 20.5814 2.3232 20.8245C2.38226 20.8622 2.44409 20.8934 2.5076 20.9195L11.1912 10.4992H1.67337Z" fill="#2C9FD9"/>
<path d="M3.58079 0.247239C3.17559 -0.073832 2.69776 -0.0646855 2.32318 0.173862L11.0594 10.6573L13.9377 7.2033C11.9048 5.83883 8.64186 3.64781 3.58079 0.247239Z" fill="#29CC5E"/>
<path d="M11.0594 10.3411L2.32318 20.8245C2.69779 21.063 3.17559 21.0768 3.58079 20.7512C8.48894 17.4531 11.7151 15.288 13.7716 13.912C13.8288 13.8734 13.8849 13.8356 13.9403 13.7983L11.0594 10.3411Z" fill="#D93F21"/>
<path d="M17.5636 10.4992C17.5636 9.99921 17.3533 9.49464 16.9366 9.21483C16.9366 9.21483 16.1574 8.69307 13.7688 7.08984L10.9277 10.4992L13.7716 13.9119C16.1339 12.3202 16.9366 11.7835 16.9366 11.7835C17.3533 11.5037 17.5636 10.9992 17.5636 10.4992Z" fill="#FFD500"/>
<path d="M16.9366 11.7836C17.3533 11.5038 17.5636 10.9992 17.5636 10.4992H10.9277L13.7716 13.9119C16.134 12.3203 16.9366 11.7836 16.9366 11.7836Z" fill="#FFAA00"/>
</g>
<defs>
<clipPath id="clip0_10462_51328">
<rect width="17.5" height="21" fill="white" transform="translate(0.868469)"/>
</clipPath>
</defs>
</svg>
