<svg width="47" height="46" viewBox="0 0 47 46" fill="none" xmlns="http://www.w3.org/2000/svg">
<rect x="0.5" y="0.5" width="46" height="45" rx="22.5" fill="#F8D3D3"/>
<path d="M25.9399 30.55L27.4599 32.07L30.4999 29.03" stroke="#FE4646" stroke-width="1.5" stroke-linecap="round" stroke-linejoin="round"/>
<path d="M23.6601 22.37C23.5601 22.36 23.4401 22.36 23.3301 22.37C20.9501 22.29 19.0601 20.34 19.0601 17.94C19.0501 15.49 21.0401 13.5 23.4901 13.5C25.9401 13.5 27.9301 15.49 27.9301 17.94C27.9301 20.34 26.0301 22.29 23.6601 22.37Z" stroke="#FE4646" stroke-width="1.5" stroke-linecap="round" stroke-linejoin="round"/>
<path d="M23.49 33.3099C21.67 33.3099 19.86 32.8499 18.48 31.9299C16.06 30.3099 16.06 27.6699 18.48 26.0599C21.23 24.2199 25.74 24.2199 28.49 26.0599" stroke="#FE4646" stroke-width="1.5" stroke-linecap="round" stroke-linejoin="round"/>
</svg>
