<svg width="69" height="44" viewBox="0 0 69 44" fill="none" xmlns="http://www.w3.org/2000/svg">
<g clip-path="url(#clip0_10347_58341)">
<path d="M6.641 42.9255H0.000488281V42.9416H6.641V42.9255Z" fill="white"/>
<path d="M28.9314 7.85929V29.2363C28.904 29.2347 28.8781 29.2347 28.8507 29.2347H28.5065C28.4491 29.2347 28.3926 29.2379 28.3376 29.2419C27.0247 29.3511 25.879 29.7809 24.9353 30.5214C24.0878 31.1833 23.3946 32.0074 22.8743 32.9689C22.648 33.3857 22.4517 33.8211 22.2917 34.2757V7.85929H6.641V36.3239H22.0938C21.996 36.6709 21.9169 37.0275 21.8563 37.3898C21.685 38.4115 21.6446 39.4316 21.7383 40.426C21.7973 41.0107 21.9459 41.5818 22.1811 42.1192C22.2158 42.2011 22.253 42.2798 22.2917 42.3585C22.3887 42.5561 22.4945 42.7457 22.6149 42.9256H0.000488281V1.26001H22.2917C24.3989 1.26001 26.2749 2.23673 27.4917 3.75884C28.3926 4.88496 28.9314 6.30907 28.9314 7.85929Z" fill="white"/>
<path d="M32.6134 27.7254C32.8533 27.8885 33.0998 28.0266 33.3518 28.1399C33.6039 28.2531 33.8067 28.3094 33.9586 28.3094C34.3876 28.3094 34.7221 28.1455 34.9629 27.8202C35.2028 27.4933 35.3798 27.0788 35.4937 26.5768C35.6068 26.074 35.6698 25.5157 35.6828 24.9005C35.6957 24.2852 35.6884 23.6948 35.6642 23.1302C35.6383 22.5655 35.6133 22.0627 35.5882 21.6233C35.5624 21.184 35.5624 20.8884 35.5882 20.7382C36.0173 20.8137 36.4915 21.0522 37.0094 21.4538C37.5273 21.8555 38.0387 22.2956 38.5437 22.7727C39.0487 23.2499 39.5351 23.6764 40.0029 24.0531C40.4698 24.4298 40.8674 24.6177 41.197 24.6177C41.4491 24.6177 41.626 24.5053 41.727 24.2788C41.7513 24.229 41.8272 24.1029 41.9549 23.9021C42.0809 23.7013 42.2134 23.4876 42.3524 23.2611C42.4913 23.0354 42.6238 22.8217 42.7499 22.6209C42.8759 22.4201 42.9389 22.282 42.9389 22.2065C42.9898 21.78 42.8185 21.4153 42.4275 21.1141C42.0356 20.8129 41.5428 20.543 40.9498 20.3036C40.3559 20.0651 39.7306 19.8578 39.0737 19.6819C38.4169 19.5068 37.8295 19.343 37.3116 19.192C36.7937 19.0418 36.4148 18.8851 36.1748 18.7213C35.9348 18.5582 35.9534 18.3759 36.2314 18.1751C37.1662 17.4723 38.1074 16.8506 39.0543 16.31C40.002 15.7702 40.8924 15.2112 41.7262 14.6337C41.7763 14.5839 41.8652 14.4706 41.9912 14.2947C42.1172 14.1196 42.2376 13.8987 42.3516 13.6353C42.4647 13.3718 42.5471 13.0762 42.598 12.7501C42.6489 12.424 42.623 12.085 42.522 11.7324C42.5043 11.6883 42.4792 11.6473 42.4517 11.6095C42.4332 11.6336 42.413 11.6569 42.3903 11.6794C41.9985 12.0682 41.6139 12.465 41.2269 12.8586C41.2051 12.881 41.1833 12.9043 41.1558 12.9324C41.1792 12.9509 41.197 12.9678 41.2172 12.9798C41.26 13.0047 41.3028 13.032 41.3489 13.0505C41.5444 13.13 41.6042 13.2971 41.6293 13.4835C41.6422 13.5782 41.6204 13.5911 41.5299 13.5654C41.3416 13.5124 41.1518 13.4666 40.9659 13.4063C40.751 13.3365 40.5523 13.2312 40.3737 13.0915C40.36 13.081 40.3478 13.0674 40.3357 13.0553C40.4391 12.9075 40.5426 12.7646 40.6419 12.6184C40.8302 12.3437 41.0087 12.0618 41.2075 11.7943C41.3093 11.6569 41.441 11.5413 41.5646 11.4208C41.5872 11.3983 41.5969 11.3798 41.5961 11.3597C41.315 11.4376 40.9797 11.624 40.5886 11.9196C40.0586 12.3212 39.5213 12.7549 38.9784 13.2192C38.4346 13.6843 37.9361 14.1172 37.4813 14.5188C37.0264 14.9212 36.6854 15.122 36.4584 15.122C36.2556 15.122 36.1797 15.0345 36.2306 14.8578C36.3824 14.2554 36.5586 13.4955 36.7614 12.5782C36.8874 12.0071 37.0046 11.4232 37.1161 10.8272C37.0038 10.6931 36.8915 10.5581 36.7775 10.4248C36.7363 10.3766 36.6862 10.3364 36.6402 10.2931L36.6361 10.3155C36.5715 10.3155 36.5077 10.318 36.443 10.3139C36.1417 10.2963 35.8403 10.277 35.5381 10.2593C35.5228 10.2585 35.5066 10.2641 35.4913 10.2665C35.5107 10.1549 35.5301 10.0433 35.5494 9.9308C35.8953 9.79586 36.2411 9.66172 36.5852 9.52357C36.6402 9.50188 36.6733 9.50911 36.7153 9.55088C36.8931 9.72598 37.0724 9.89787 37.2518 10.0714C37.2712 9.95891 37.2914 9.84727 37.3108 9.73321C37.4748 8.75408 37.6138 7.79262 37.7277 6.85124C37.8416 5.90906 37.8982 5.09941 37.8982 4.42149C37.8982 3.96928 37.8666 3.62469 37.8036 3.38533C37.7398 3.14678 37.6331 2.96525 37.4813 2.83914C37.3294 2.71384 37.1274 2.63834 36.8753 2.61344C36.6224 2.58854 36.3065 2.57568 35.9276 2.57568C34.7399 2.57568 33.9247 2.74516 33.4835 3.08412C33.0416 3.42308 32.8202 3.85683 32.8202 4.38374C32.8202 5.51388 32.8962 6.63839 33.0472 7.75567C33.1991 8.87296 33.3438 9.99104 33.4827 11.1083C33.6217 12.2264 33.7106 13.3381 33.7485 14.4425C33.7865 15.5477 33.6912 16.653 33.4641 17.7582C33.4132 18.0345 33.3252 18.2418 33.1991 18.3799C33.0723 18.5181 32.9398 18.6434 32.8008 18.7566C32.6618 18.8699 32.5415 18.9823 32.4413 19.0956C32.3395 19.2088 32.2894 19.3655 32.2894 19.5671C32.2894 19.743 32.3274 19.894 32.4033 20.0193C32.4793 20.1454 32.5673 20.2771 32.6683 20.4153C32.7693 20.5534 32.8582 20.7165 32.9333 20.9052C33.0093 21.0932 33.0472 21.3382 33.0472 21.6394C33.0472 22.4683 32.9778 23.184 32.8388 23.7872C32.6998 24.3896 32.5415 24.8924 32.3653 25.2941C32.1884 25.6957 32.0308 26.0097 31.8911 26.2362C31.7529 26.4619 31.6826 26.6129 31.6826 26.6885C31.6826 26.8395 31.7771 27.0089 31.967 27.1969C32.1569 27.3848 32.371 27.5608 32.6118 27.7238L32.6134 27.7254Z" fill="white"/>
<path d="M43.8681 11.0296C43.6071 11.2039 43.4762 11.4023 43.4762 11.6232C43.4762 11.9718 43.4577 12.51 43.4205 13.2377C43.3833 13.9662 43.3462 15.1341 43.3082 16.0201C43.271 16.9068 43.2524 17.8169 43.2524 18.7494C43.2524 19.682 43.3017 20.5294 43.4019 21.2892C43.5005 22.0483 43.6629 22.6892 43.8875 23.2113C44.1113 23.7334 44.4102 24.0266 44.7835 24.09C45.3062 24.09 45.6173 24.0354 45.7167 23.9238C45.8161 23.8137 45.8661 23.4418 45.8661 22.8081C45.8661 21.2892 45.9284 20 46.0528 18.939C46.1772 17.8787 46.3138 16.9373 46.4632 16.114C46.6127 15.2915 46.7492 14.163 46.8737 13.4505C46.9981 12.7389 47.0603 11.971 47.0603 11.1477C47.0603 10.8947 47.0167 10.6577 46.9294 10.4361C46.8421 10.2152 46.687 10.1035 46.4624 10.1035C46.3372 10.1035 46.1077 10.1437 45.7716 10.2224C45.4355 10.3019 45.0994 10.412 44.7633 10.5549C44.4272 10.6971 44.1283 10.8561 43.8673 11.0296H43.8681Z" fill="white"/>
<path d="M53.22 12.764C53.3687 12.801 53.5133 12.8564 53.6579 12.9086C53.6967 12.9231 53.7266 12.9247 53.7638 12.907C53.872 12.8548 53.9803 12.801 54.1063 12.8058C54.2098 12.8098 54.2857 12.8604 54.3229 12.9568C54.335 12.9881 54.3447 13.0211 54.3479 13.054C54.3616 13.2018 54.4328 13.3319 54.478 13.4701C54.516 13.5841 54.5475 13.6998 54.537 13.8219C54.5297 13.9102 54.5006 13.9914 54.436 14.0532C54.4198 14.0685 54.3851 14.0789 54.3633 14.0733C54.2461 14.0444 54.1637 13.9649 54.0942 13.8709C54.0264 13.7785 53.9593 13.6853 53.8922 13.593C53.8833 13.5809 53.8736 13.5689 53.8631 13.5584C53.7824 13.4757 53.6967 13.4203 53.5682 13.4243C53.3218 13.4323 53.0746 13.4267 52.8282 13.4139C52.5842 13.401 52.341 13.3729 52.0978 13.3512C51.9612 13.3392 51.8247 13.3247 51.6882 13.3151C51.5904 13.3078 51.5217 13.258 51.4773 13.1753C51.445 13.1142 51.4183 13.05 51.3884 12.9873C51.3787 12.9665 51.3682 12.9464 51.3569 12.9263C51.2066 12.9857 51.0596 13.0508 50.9174 13.1255C50.477 13.356 50.0771 13.6339 49.7176 13.9584C49.7507 14.1536 49.7725 14.3504 49.7968 14.5464C49.8089 14.646 49.8081 14.748 49.8097 14.8492C49.8097 14.895 49.8242 14.9295 49.8565 14.9633C49.9858 15.0998 50.0408 15.2605 50.002 15.4476C49.9979 15.4661 49.9866 15.487 49.9721 15.4974C49.7442 15.6508 49.5115 15.7978 49.2441 15.8757C49.156 15.9014 49.0639 15.9103 48.9735 15.9271C48.9516 15.9312 48.9298 15.9368 48.908 15.9416H48.8401C48.7884 15.9336 48.7343 15.9328 48.6858 15.9151C48.6349 15.8966 48.5873 15.8645 48.5428 15.8324C48.5323 15.8243 48.5323 15.7906 48.5388 15.7737C48.5792 15.6661 48.6616 15.5914 48.7488 15.5223C48.8208 15.4653 48.8975 15.4139 48.9702 15.3568C49.1722 15.1978 49.2554 15.0444 49.1504 14.7785C49.1302 14.7271 49.1084 14.6765 49.0874 14.6259C49.085 14.6283 49.0825 14.6315 49.0809 14.6339C48.5751 15.2621 48.1833 15.9962 47.9062 16.838C47.629 17.6798 47.4893 18.577 47.4893 19.532C47.4893 20.1344 47.5652 20.7376 47.7171 21.3401C47.869 21.9433 48.096 22.483 48.399 22.9602C48.702 23.4373 49.0809 23.8268 49.5358 24.128C49.9907 24.4293 50.5215 24.5803 51.1274 24.5803C51.7334 24.5803 52.2642 24.4421 52.7191 24.1658C53.174 23.8895 53.5844 23.5321 53.9512 23.0919C54.3172 22.6525 54.6331 22.1561 54.8989 21.6035C55.1639 21.0517 55.3845 20.4734 55.5623 19.871C55.5623 21.0766 55.6883 22.1128 55.9412 22.9786C56.1933 23.8453 56.598 24.6429 57.1539 25.3706C57.4569 25.7216 57.8487 25.8975 58.3287 25.8975C58.6817 25.8975 58.9847 25.7907 59.2376 25.5779C59.4897 25.365 59.5406 25.0943 59.3895 24.7674C59.0356 24.014 58.8021 23.0477 58.6882 21.867C58.5743 20.6862 58.5298 19.4059 58.5557 18.0244C58.5807 16.6436 58.6567 15.2243 58.7827 13.7673C58.9088 12.311 59.0348 10.9295 59.1617 9.62344C59.2627 8.4933 59.4081 7.60173 59.598 6.9487C59.787 6.29568 59.964 5.78082 60.1288 5.40411C60.2928 5.02739 60.4188 4.72619 60.5077 4.49968C60.5958 4.27397 60.5893 4.00971 60.4883 3.7085C60.3873 3.35749 60.115 3.14384 59.6739 3.06833C59.2311 2.99283 58.8837 2.95508 58.6316 2.95508C58.3537 2.95508 58.012 3.0113 57.608 3.12456C57.204 3.23781 56.8631 3.35749 56.5851 3.4828C55.9032 3.80971 55.4734 4.17357 55.2964 4.57518C55.1195 4.97679 55.0629 5.46676 55.126 6.04428C55.189 6.6226 55.3021 7.30052 55.4669 8.07884C55.6309 8.85797 55.7255 9.79935 55.7513 10.9046C55.8014 12.0604 55.7634 13.1906 55.6374 14.295C55.5106 13.6171 55.2076 13.1592 54.7277 12.9199C54.2477 12.6813 53.7929 12.5616 53.3638 12.5616C52.997 12.5616 52.6456 12.5938 52.3095 12.6556C52.3386 12.6741 52.3741 12.6837 52.4161 12.6837C52.6876 12.6861 52.9582 12.6982 53.2224 12.7632L53.22 12.764ZM54.9143 16.7063C54.8383 17.0332 54.7188 17.4404 54.5539 17.9304C54.3891 18.4203 54.175 18.8854 53.91 19.3248C53.645 19.7641 53.3412 20.1408 53.0003 20.4549C52.6593 20.769 52.2739 20.9256 51.8449 20.9256C51.592 20.9256 51.3836 20.8445 51.2195 20.6806C51.0547 20.5176 50.9287 20.3232 50.8406 20.0967C50.7517 19.871 50.6952 19.6324 50.6701 19.381C50.6443 19.1304 50.6322 18.9167 50.6322 18.7408C50.6322 18.3392 50.6823 17.9248 50.7833 17.4974C50.8842 17.0709 51.0491 16.6749 51.2761 16.3103C51.5031 15.9464 51.7875 15.6452 52.1285 15.4058C52.4694 15.1673 52.8678 15.0484 53.3226 15.0484C53.8785 15.099 54.276 15.2621 54.516 15.5384C54.7559 15.8147 54.8884 16.2042 54.9143 16.7063Z" fill="white"/>
<path d="M33.4514 38.7168C33.3076 38.7931 33.1501 38.8734 32.978 38.9594C32.8059 39.0453 32.6338 39.1256 32.4617 39.2019C32.2896 39.2782 32.1272 39.3256 31.9745 39.3441C31.6877 39.3441 31.4962 39.2638 31.4008 39.1015C31.3047 38.9401 31.2385 38.7264 31.1997 38.4606C31.1229 37.6814 31.1851 36.8646 31.3863 36.0091C31.5875 35.1537 31.745 34.3561 31.8598 33.6147C31.8977 33.4059 31.8355 33.2396 31.6731 33.1159C31.5107 32.9922 31.2958 32.8926 31.0284 32.8163C30.9516 32.7978 30.8894 32.7834 30.8418 32.7737C30.7941 32.7641 30.7416 32.7593 30.6842 32.7593C30.4547 32.7593 30.2923 32.8115 30.197 32.9159C30.1009 33.0203 30.0249 33.0725 29.9676 33.0725H29.9102C29.6993 32.9207 29.5183 32.8163 29.3656 32.7593C29.2121 32.7023 29.04 32.6733 28.8494 32.6733H28.5052C27.5873 32.7496 26.8133 33.0348 26.1831 33.5288C25.5521 34.0236 25.0407 34.6308 24.6488 35.3529C24.257 36.0758 23.9896 36.8638 23.8457 37.7192C23.7027 38.5746 23.6688 39.4108 23.7456 40.2277C23.7835 40.6084 23.8789 40.9739 24.0324 41.3249C24.1851 41.6767 24.3854 41.9851 24.6343 42.2518C24.8823 42.5185 25.174 42.7321 25.5085 42.8928C25.843 43.0542 26.2106 43.1353 26.6121 43.1353C26.8796 43.0976 27.1422 42.9924 27.4007 42.8221C27.6592 42.651 27.917 42.4277 28.1747 42.1522C28.4325 41.8767 28.6861 41.5682 28.9342 41.2261C29.1822 40.8839 29.4214 40.5417 29.6508 40.1995C29.8035 40.6943 30.0039 41.0453 30.2528 41.2542C30.5008 41.4638 30.8167 41.5674 31.1989 41.5674C31.3136 41.5674 31.4 41.5578 31.4574 41.5385C31.7248 41.52 32.0165 41.41 32.3316 41.2108C32.6467 41.0108 32.9481 40.769 33.2349 40.4839C33.4231 40.2967 33.5896 40.104 33.7366 39.9088C33.6922 39.4831 33.6655 39.0574 33.655 38.6308C33.5904 38.6501 33.5217 38.6782 33.4498 38.7168H33.4514ZM29.179 35.7666C29.1305 36.2702 29.04 36.769 28.9067 37.263C28.7726 37.7569 28.6054 38.2276 28.405 38.6742C28.2046 39.1208 27.9703 39.4774 27.7029 39.7433C27.5114 39.8766 27.349 39.9618 27.2157 39.9995C26.9474 39.9995 26.7713 39.8566 26.6849 39.5722C26.5984 39.2871 26.5459 39.0501 26.5273 38.8598C26.5079 38.5176 26.5273 38.1232 26.5847 37.6766C26.642 37.2308 26.7568 36.7834 26.9289 36.3368C27.101 35.8903 27.3304 35.4678 27.6172 35.0686C27.9041 34.6694 28.2579 34.3465 28.6781 34.0999C28.7734 34.0244 28.8599 33.9858 28.9358 33.9858C29.0691 33.9673 29.1556 34.1191 29.1935 34.442C29.2315 34.8228 29.2267 35.2645 29.179 35.7674V35.7666Z" fill="white"/>
<path d="M41.4516 41.2679C41.3465 40.8598 41.2843 40.4365 41.2649 39.9996C41.2456 39.5434 41.2746 39.0116 41.3514 38.4036C41.4273 37.7955 41.5186 37.1827 41.6237 36.565C41.7287 35.9473 41.824 35.3489 41.9105 34.769C41.9969 34.1899 42.0398 33.6999 42.0398 33.3007C42.0398 32.7874 41.9436 32.3746 41.7529 32.0605C41.5615 31.7473 41.189 31.5898 40.6347 31.5898C40.2138 31.5898 39.8559 31.6991 39.5594 31.9176C39.2629 32.136 38.9809 32.4075 38.7135 32.7296C38.4646 33.0718 38.2263 33.4951 37.9968 33.9979C37.7673 34.5015 37.5427 35.0292 37.323 35.5803C37.1032 36.1313 36.8931 36.6686 36.692 37.1907C36.4916 37.7136 36.2856 38.165 36.0755 38.545C36.0367 38.3554 36.0278 38.1176 36.0464 37.8325C36.065 37.5474 36.0892 37.2389 36.1183 36.9064C36.1474 36.5738 36.1757 36.2269 36.2048 35.8662C36.2339 35.5056 36.2282 35.1537 36.1902 34.8116C36.1708 34.5835 36.1329 34.3794 36.0755 34.1987C36.0181 34.018 35.8557 33.928 35.5883 33.928C35.4736 33.928 35.3015 33.9618 35.072 34.0276C34.8426 34.0943 34.618 34.1754 34.3982 34.2702C34.1784 34.3658 33.987 34.4798 33.8246 34.6124C33.6622 34.7457 33.5806 34.8879 33.5806 35.0397C33.5806 35.2678 33.5854 35.4533 33.5951 35.5955C33.6048 35.7385 33.6097 35.8758 33.6097 36.0092C33.6097 36.1425 33.6145 36.2799 33.6242 36.4228C33.6339 36.5658 33.6387 36.7506 33.6387 36.9787C33.6387 37.3024 33.6436 37.8012 33.6533 38.4751C33.6533 38.5273 33.6565 38.5795 33.6581 38.6317C33.6678 39.0574 33.6953 39.4831 33.7397 39.9096C33.7599 40.1064 33.7834 40.3024 33.8116 40.4992C33.907 41.1739 34.0645 41.7675 34.2843 42.2807C34.504 42.794 34.824 43.0502 35.2449 43.0502C35.6659 43.0502 36.019 42.8269 36.2484 42.3803C36.4779 41.9338 36.7025 41.3305 36.9222 40.5699C37.142 39.81 37.39 38.9305 37.668 37.9329C37.9451 36.9353 38.3418 35.8951 38.8581 34.8116C38.9154 34.7168 38.9631 34.6694 39.0011 34.6694C39.0584 34.6694 39.1013 34.8027 39.1304 35.0686C39.1594 35.3353 39.178 35.6718 39.1877 36.0807C39.1974 36.4895 39.1926 36.9457 39.1732 37.4494C39.1538 37.953 39.1392 38.447 39.1304 38.9313C39.1207 39.4156 39.1061 39.8622 39.0875 40.2711C39.0681 40.6799 39.0584 40.998 39.0584 41.2261C39.0584 41.9675 39.2023 42.4663 39.4883 42.7225C39.7751 42.9788 40.1669 43.1073 40.6638 43.1073C40.7592 43.1073 40.8642 43.1024 40.9789 43.0928C41.0937 43.0832 41.2084 43.0695 41.3231 43.0502C41.6859 43.0125 41.9056 42.9265 41.9824 42.794C42.0584 42.6615 42.0689 42.5474 42.0115 42.4518C41.7433 42.0719 41.5574 41.6775 41.4524 41.2687L41.4516 41.2679Z" fill="white"/>
<path d="M48.5183 32.9305C47.8873 32.9305 47.3573 33.0446 46.9266 33.2727C46.4968 33.5008 46.1381 33.757 45.8512 34.0422C45.5644 34.3273 45.3447 34.5835 45.192 34.8117C45.0385 35.0398 44.9342 35.1538 44.8769 35.1538C44.8001 35.1538 44.7621 35.0213 44.7621 34.7546C44.7621 34.5835 44.7718 34.4084 44.7912 34.2277C44.8098 34.047 44.8203 33.9474 44.8203 33.9281C44.935 33.0157 45.0732 32.0895 45.2364 31.149C45.3988 30.2084 45.4796 29.2726 45.4796 28.3409C45.4796 27.7899 45.4408 27.2959 45.3649 26.8581C45.3261 26.4975 45.1976 26.2124 44.9779 26.0027C44.7581 25.7939 44.4761 25.6895 44.1319 25.6895C43.711 25.6895 43.3046 25.8035 42.9136 26.0316C42.5225 26.2597 42.3262 26.6019 42.3262 27.0581C42.3262 27.0967 42.331 27.1296 42.3407 27.1577C42.3504 27.1867 42.3553 27.21 42.3553 27.2292C42.4126 28.1224 42.4457 29.1104 42.4554 30.1939C42.4651 31.2775 42.47 32.3988 42.47 33.5578C42.47 34.7169 42.4603 35.8856 42.4409 37.0639C42.4223 38.2422 42.4126 39.3828 42.4126 40.484C42.4126 41.3772 42.6227 41.9668 43.0436 42.2511C43.4638 42.5363 44.123 42.6784 45.0223 42.6784C45.7292 42.6784 46.4556 42.4977 47.2013 42.1371C47.9471 41.7764 48.6209 41.3057 49.2228 40.7258C49.8247 40.1467 50.3216 39.4856 50.7135 38.745C51.1053 38.0037 51.3008 37.2631 51.3008 36.5217C51.3008 35.5145 51.0762 34.6647 50.627 33.9707C50.1778 33.2775 49.4749 32.9305 48.5199 32.9305H48.5183ZM48.5474 37.3201C48.3559 37.8141 48.0933 38.2559 47.7588 38.6454C47.4243 39.035 47.0462 39.3539 46.6261 39.6005C46.2051 39.8479 45.7656 39.9708 45.3067 39.9708C45.0199 39.9137 44.8332 39.7667 44.7476 39.529C44.6619 39.2912 44.628 39.0302 44.6474 38.745C44.666 38.4599 44.7096 38.194 44.7767 37.9466C44.8437 37.7001 44.8866 37.5386 44.9059 37.4623C45.0013 37.1772 45.1499 36.888 45.3503 36.5932C45.5515 36.2984 45.785 36.0326 46.0532 35.7948C46.3207 35.5579 46.6123 35.3675 46.9274 35.2245C47.2425 35.0823 47.5625 35.0109 47.8881 35.0109C48.1935 35.0109 48.4278 35.0872 48.5902 35.239C48.7526 35.3916 48.8334 35.6004 48.8334 35.8663C48.8334 36.3418 48.7372 36.8261 48.5466 37.3201H48.5474Z" fill="white"/>
<path d="M60.9772 39.4436C60.9101 39.4147 60.8479 39.401 60.7906 39.401C60.6758 39.401 60.5991 39.4203 60.5611 39.458C60.2929 39.7054 59.8679 39.8998 59.2854 40.042C58.702 40.185 58.1049 40.2556 57.4933 40.2556C57.1298 40.2556 56.7856 40.2267 56.4616 40.1697C56.136 40.1127 55.8451 40.0275 55.5874 39.9135C55.3296 39.7994 55.1236 39.6476 54.9709 39.4572C54.8174 39.2677 54.7415 39.0492 54.7415 38.8018C54.7415 38.7263 54.76 38.65 54.7988 38.5737H54.8279C55.1333 38.7641 55.3967 38.8918 55.6165 38.9584C55.8362 39.0251 56.1279 39.058 56.4907 39.058C57.0449 39.058 57.5418 38.9721 57.9813 38.8018C58.4209 38.6307 58.7982 38.4074 59.1141 38.1319C59.4292 37.8564 59.6683 37.5432 59.8307 37.1913C59.9931 36.8395 60.0747 36.4933 60.0747 36.1512C60.0747 35.5624 59.817 35.0395 59.3007 34.5833C58.7844 34.127 57.9434 33.8989 56.7775 33.8989C56.2038 33.8989 55.635 33.9656 55.0711 34.0989C54.5072 34.2323 54.0054 34.4459 53.5659 34.7399C53.1264 35.0347 52.7725 35.4098 52.5051 35.866C52.2368 36.3223 52.1035 36.8829 52.1035 37.548C52.1035 38.9729 52.4808 40.1086 53.2363 40.9544C53.9909 41.8002 55.1042 42.2227 56.5763 42.2227C57.0732 42.2043 57.5798 42.1135 58.0961 41.952C58.6123 41.7906 59.0858 41.5914 59.5156 41.3536C59.9454 41.1159 60.3042 40.8404 60.591 40.5271C60.8778 40.2139 61.0305 39.8958 61.0499 39.5721C61.0685 39.5151 61.0451 39.4725 60.978 39.4436H60.9772ZM55.1422 36.7359C55.2755 36.5937 55.4436 36.47 55.6439 36.3656C55.8443 36.2612 56.06 36.1801 56.2887 36.1231C56.5181 36.066 56.7282 36.0371 56.9197 36.0371C57.1491 36.0371 57.3398 36.0757 57.4933 36.1512C57.646 36.2275 57.7228 36.3608 57.7228 36.5504C57.7228 36.76 57.6557 36.9351 57.5216 37.0781C57.3875 37.2211 57.2251 37.3343 57.0344 37.4203C56.8429 37.5062 56.6377 37.5681 56.418 37.6058C56.1982 37.6444 56.0116 37.6628 55.8589 37.6628C55.5906 37.6628 55.3717 37.6251 55.1996 37.5488C55.0275 37.4733 54.9418 37.3592 54.9418 37.2066C54.9418 37.0355 55.0089 36.8789 55.1422 36.7359Z" fill="white"/>
<path d="M66.1225 33.8139C65.721 33.8139 65.372 33.9095 65.0763 34.099C64.7797 34.2894 64.5268 34.5264 64.3168 34.8115C64.1059 35.0966 63.9395 35.4147 63.8151 35.7665C63.6906 36.1183 63.5807 36.4645 63.4854 36.8067C63.5614 35.7232 63.5719 34.8637 63.5145 34.2267C63.4571 33.5898 63.2374 33.2147 62.8552 33.1006C62.6064 33.0251 62.3583 32.9866 62.1095 32.9866C61.8033 32.9866 61.5787 33.0677 61.4356 33.2291C61.2926 33.3906 61.1925 33.5906 61.1343 33.8275C61.0769 34.0653 61.0535 34.3312 61.0624 34.6259C61.0721 34.9207 61.0769 35.2107 61.0769 35.495C61.0769 36.1416 61.11 36.83 61.1771 37.5617C61.2442 38.2935 61.3443 38.9915 61.4785 39.6565C61.6118 40.3224 61.7798 40.9112 61.9802 41.4236C62.1806 41.9369 62.4052 42.2983 62.654 42.5072C62.7873 42.6028 62.9263 42.6638 63.0701 42.6927C63.2131 42.7216 63.3618 42.7353 63.5145 42.7353C63.916 42.7353 64.1544 42.6261 64.2311 42.4076C64.3071 42.1891 64.3216 41.904 64.274 41.5521C64.2263 41.2011 64.1592 40.7923 64.0736 40.3264C63.9871 39.8614 63.9637 39.381 64.0017 38.8871C64.0397 38.5642 64.1164 38.2364 64.2311 37.9031C64.3459 37.5706 64.4889 37.2718 64.661 37.0051C64.8331 36.7392 65.0197 36.5159 65.2201 36.3352C65.4204 36.1545 65.6168 36.0549 65.8074 36.0356C65.9028 36.0171 65.9981 36.0452 66.0943 36.1216C66.1896 36.1979 66.2664 36.283 66.3237 36.3778C66.4385 36.5111 66.5435 36.577 66.6388 36.577C66.8295 36.577 67.0064 36.4485 67.1688 36.1922C67.3312 35.936 67.4217 35.7031 67.4411 35.4942C67.4597 34.9625 67.345 34.5585 67.0969 34.283C66.8481 34.0075 66.5233 33.8508 66.1217 33.8123L66.1225 33.8139Z" fill="white"/>
<path d="M46.8125 9.4015C46.8247 9.41998 46.8481 9.43283 46.8562 9.4521C46.916 9.5999 47.0372 9.6505 47.1834 9.65773C47.2957 9.66335 47.4088 9.65773 47.5219 9.66496C47.5559 9.66656 47.5954 9.68424 47.6197 9.70753C47.7449 9.82641 47.8839 9.9252 48.0414 9.99589C48.3913 10.1533 48.7581 10.183 49.1346 10.134C49.2388 10.1204 49.3188 10.0682 49.3754 9.98384C49.4125 9.92842 49.4408 9.86657 49.4707 9.80633C49.5216 9.70673 49.5701 9.60552 49.6226 9.50592C49.6331 9.48504 49.6565 9.47138 49.6791 9.44809C49.6856 9.47058 49.6896 9.48102 49.6905 9.49146C49.6985 9.64247 49.7179 9.79347 49.7107 9.94368C49.7018 10.1373 49.6719 10.33 49.6501 10.5228C49.6339 10.6674 49.6177 10.8128 49.5992 10.9573C49.5919 11.0104 49.6153 11.0232 49.6622 11.0208C49.6816 11.0192 49.701 11.0256 49.7252 11.0288C49.7195 11.0457 49.7179 11.0569 49.7131 11.0666C49.583 11.3284 49.4537 11.5903 49.3212 11.8505C49.2372 12.0144 49.1055 12.1533 49.0619 12.3397C49.0546 12.3694 49.0069 12.3895 48.977 12.4128C48.9657 12.4208 48.9504 12.4232 48.9366 12.4289C48.9342 12.4345 48.9318 12.4409 48.9294 12.4465C48.9496 12.4586 48.9698 12.4722 48.9908 12.4827C49.0005 12.4867 49.0134 12.4827 49.0247 12.4835C49.1112 12.4883 49.137 12.5333 49.0926 12.6056C49.0013 12.7566 48.9156 12.9116 48.8163 13.0562C48.7177 13.1991 48.7064 13.3582 48.7104 13.5188C48.7153 13.7228 48.7783 13.9156 48.8599 14.1028C48.9358 14.2771 49.011 14.4514 49.0837 14.6273C49.1047 14.6787 49.1265 14.7293 49.1467 14.7799C49.2517 15.0458 49.1685 15.1984 48.9665 15.3582C48.8946 15.4152 48.8171 15.4666 48.7452 15.5237C48.6579 15.5927 48.5747 15.6674 48.5351 15.7751C48.5286 15.7928 48.5286 15.8265 48.5391 15.8337C48.5836 15.8658 48.6312 15.898 48.6821 15.9164C48.7306 15.9341 48.7847 15.9349 48.8365 15.943H48.9043C48.9261 15.9381 48.9479 15.9333 48.9698 15.9285C49.0603 15.9116 49.1524 15.902 49.2404 15.8771C49.5079 15.8 49.7397 15.653 49.9684 15.4988C49.9829 15.4891 49.995 15.4674 49.9983 15.449C50.0371 15.2618 49.9821 15.1012 49.8529 14.9646C49.8205 14.9301 49.8068 14.8964 49.806 14.8506C49.8052 14.7494 49.806 14.6474 49.7931 14.5478C49.7688 14.3518 49.747 14.1542 49.7139 13.9598C49.7058 13.91 49.6969 13.8602 49.6872 13.8112C49.6533 13.6457 49.6856 13.5084 49.7809 13.3783C49.8755 13.2497 49.9732 13.1236 50.0653 12.9935C50.0888 12.9614 50.109 12.9453 50.1502 12.9445C50.3926 12.9389 50.6357 12.9333 50.8781 12.9204C50.9662 12.9156 51.0551 12.9108 51.1367 12.8578C51.2231 12.8015 51.2918 12.8272 51.3467 12.914C51.3492 12.918 51.3516 12.9236 51.354 12.9277C51.3653 12.9477 51.3758 12.9678 51.3855 12.9887C51.4154 13.0513 51.4413 13.1156 51.4744 13.1767C51.5188 13.2594 51.5867 13.3092 51.6853 13.3164C51.8218 13.3261 51.9584 13.3405 52.0949 13.3526C52.3381 13.3742 52.5813 13.4024 52.8253 13.4152C53.0717 13.4281 53.3189 13.4329 53.5654 13.4257C53.6938 13.4216 53.7795 13.4771 53.8603 13.5598C53.8708 13.5702 53.8805 13.5823 53.8894 13.5943C53.9572 13.6867 54.0235 13.7799 54.0913 13.8722C54.1608 13.9662 54.2432 14.0457 54.3604 14.0747C54.3822 14.0803 54.4169 14.0698 54.4331 14.0546C54.4977 13.9919 54.5268 13.9116 54.5341 13.8232C54.5446 13.7012 54.5131 13.5855 54.4751 13.4714C54.4291 13.3333 54.3588 13.204 54.345 13.0554C54.3418 13.0224 54.3321 12.9895 54.32 12.9582C54.2836 12.8618 54.2069 12.8112 54.1035 12.8072C53.9774 12.8023 53.8692 12.8562 53.7609 12.9084C53.7237 12.926 53.6946 12.9236 53.655 12.91C53.5104 12.8578 53.3658 12.8023 53.2171 12.7654C52.9529 12.7003 52.6823 12.6875 52.4108 12.6859C52.3688 12.6859 52.3332 12.6762 52.3042 12.6578C52.2759 12.6401 52.2533 12.6128 52.2371 12.5766C52.2226 12.5445 52.2161 12.5084 52.2015 12.4762C52.1838 12.4361 52.1951 12.4048 52.2282 12.3831C52.2985 12.3373 52.372 12.2947 52.4439 12.2521C52.5102 12.2128 52.5797 12.1799 52.6419 12.1349C52.7162 12.0811 52.7162 12.065 52.6459 12.0064C52.6273 11.9911 52.5878 11.9935 52.5595 11.9991C52.4892 12.012 52.4868 12.0112 52.4649 11.9429C52.4213 11.8039 52.3801 11.6642 52.3292 11.5276C52.2193 11.2288 52.1054 10.9324 51.9907 10.6353C51.96 10.5557 51.9487 10.4859 52.04 10.4377C52.0513 10.432 52.0585 10.4192 52.0674 10.4095C52.1038 10.3734 52.1119 10.3365 52.0933 10.2842C51.9576 9.8995 51.88 9.5019 51.8436 9.09708C51.838 9.03282 51.8428 8.96776 51.8428 8.90109C51.8501 8.9027 51.859 8.9027 51.8671 8.90672C52.1143 9.02479 52.3615 9.14367 52.6079 9.26254C52.6403 9.2778 52.671 9.29628 52.7033 9.31074C52.8035 9.35491 52.9012 9.35411 52.9909 9.28664C53.1646 9.15491 53.3359 9.02077 53.508 8.88663C53.7205 8.72197 53.9306 8.5549 54.1463 8.39426C54.2271 8.33402 54.2335 8.33402 54.1923 8.24325C54.1616 8.17498 54.1713 8.15329 54.2408 8.12357C54.3095 8.09385 54.3806 8.06654 54.4452 8.0296C54.6197 7.92759 54.7587 7.78461 54.8904 7.63441C54.9615 7.55328 54.9389 7.45288 54.8322 7.42878C54.7587 7.41192 54.6795 7.4087 54.6044 7.41433C54.4848 7.42397 54.3757 7.47296 54.2747 7.53642C54.2384 7.55891 54.219 7.55248 54.2004 7.51553C54.1802 7.47537 54.156 7.43682 54.1325 7.39907C54.0978 7.34284 54.0388 7.33079 53.9806 7.33159C53.9605 7.33159 53.9289 7.36292 53.9233 7.38541C53.9087 7.44485 53.9071 7.5075 53.8966 7.56855C53.8797 7.66734 53.8885 7.77578 53.777 7.83602C53.7278 7.86252 53.689 7.9059 53.6421 7.93722C53.3941 8.1043 53.1452 8.26896 52.8972 8.43683C52.8649 8.45852 52.8471 8.44486 52.8261 8.42317C52.6799 8.27699 52.532 8.13241 52.3874 7.98461C52.3502 7.94686 52.3227 7.89867 52.2896 7.8569C52.2621 7.82156 52.2379 7.77899 52.2024 7.7557C52.0909 7.6826 51.9745 7.61754 51.8606 7.54846C51.8259 7.52758 51.7935 7.50348 51.7531 7.47698C51.8145 7.4328 51.8695 7.39826 51.9374 7.41674C52.0472 7.44565 52.1555 7.44003 52.2573 7.39184C52.3817 7.3332 52.5013 7.26734 52.6233 7.20388C52.7009 7.16372 52.7299 7.12035 52.7098 7.03601C52.6968 6.98139 52.6653 6.92998 52.6354 6.88099C52.6168 6.85127 52.5756 6.8593 52.5587 6.89303C52.5498 6.91151 52.549 6.9348 52.5368 6.95006C52.5207 6.97014 52.4924 7.00067 52.4771 6.99665C52.435 6.98621 52.3785 6.96934 52.3607 6.93721C52.3122 6.84725 52.292 6.74524 52.3042 6.64082C52.3042 6.63841 52.3098 6.63681 52.3163 6.63359C52.3349 6.64163 52.3551 6.65126 52.3761 6.6593C52.549 6.72757 52.7219 6.79584 52.8956 6.86332C52.9206 6.87295 52.9457 6.8842 52.9594 6.84645C52.9877 6.76934 53.0192 6.69303 53.0475 6.61592C53.062 6.57737 53.0499 6.55166 53.0095 6.53158C52.8641 6.4609 52.7219 6.38459 52.5772 6.31311C52.5352 6.29222 52.5239 6.27536 52.549 6.22877C52.6338 6.07053 52.6201 5.91551 52.5013 5.77977C52.2896 5.53719 51.9018 5.37815 51.5455 5.53077C51.5075 5.54683 51.4865 5.54041 51.4647 5.51069C51.413 5.43759 51.3556 5.36691 51.3096 5.2906C51.2595 5.20948 51.1238 5.13317 51.0292 5.14442C50.9428 5.15486 50.8935 5.22072 50.9129 5.30345C50.9234 5.34683 50.9339 5.39181 50.9533 5.43197C50.9993 5.52996 51.0494 5.62555 51.0995 5.72595C51.0858 5.73318 51.0696 5.74201 51.0527 5.74924C50.9533 5.79181 50.8482 5.81109 50.74 5.81671C50.6454 5.82153 50.618 5.8633 50.6406 5.95326C50.6454 5.97334 50.6503 5.99342 50.6568 6.0127C50.6786 6.07776 50.6923 6.14041 50.6285 6.19182C50.6236 6.19584 50.6212 6.20467 50.6196 6.2119C50.601 6.29222 50.5816 6.37174 50.5655 6.45206C50.5477 6.54203 50.555 6.62636 50.6414 6.68179C50.6923 6.71472 50.7464 6.74363 50.803 6.76693C50.8822 6.79986 50.9048 6.8344 50.8911 6.91793C50.8789 6.99665 50.8394 7.06412 50.7739 7.10268C50.6398 7.18139 50.5024 7.25609 50.361 7.31794C50.2908 7.34846 50.2075 7.34927 50.1292 7.36131C50.0047 7.38059 49.89 7.41433 49.8181 7.52999C49.6468 7.80469 49.5119 8.09707 49.3778 8.39024C49.2501 8.66816 49.1144 8.94206 48.9148 9.17821C48.876 9.22399 48.8324 9.28503 48.7807 9.29789C48.5472 9.35813 48.3186 9.33724 48.1045 9.21676C48.0164 9.16696 47.9299 9.11796 47.8386 9.21676C47.8168 9.18463 47.7958 9.16053 47.7813 9.13322C47.7183 9.00792 47.6585 8.88021 47.5963 8.75491C47.5599 8.68101 47.5066 8.67458 47.4524 8.73804C47.4355 8.75812 47.4225 8.78623 47.4177 8.81274C47.404 8.88182 47.3975 8.9533 47.383 9.02238C47.37 9.08503 47.3288 9.1284 47.265 9.13644C47.1963 9.14527 47.126 9.14608 47.0565 9.14447C46.9459 9.14206 46.8352 9.13403 46.7245 9.13001C46.6809 9.12841 46.6558 9.14929 46.6809 9.19266C46.7221 9.26495 46.7681 9.33483 46.8142 9.40471L46.8125 9.4015Z" fill="white"/>
<path d="M36.5861 9.52701C36.242 9.66516 35.8954 9.7985 35.5504 9.93424C35.531 10.0459 35.5116 10.1575 35.4922 10.27C35.5075 10.2676 35.5237 10.2612 35.539 10.2628C35.8404 10.2804 36.1418 10.3005 36.4439 10.3174C36.5078 10.3214 36.5724 10.3182 36.637 10.319L36.6411 10.2965C36.6871 10.3399 36.7372 10.38 36.7784 10.4282C36.8924 10.5616 37.0047 10.6965 37.117 10.8306C37.1792 10.9053 37.243 10.9784 37.3052 11.0539C37.4167 11.1881 37.5218 11.3278 37.6341 11.4612C37.6761 11.511 37.727 11.5551 37.7819 11.5897C37.9387 11.6885 38.0784 11.674 38.2069 11.5423C38.2853 11.4612 38.3483 11.3648 38.4234 11.2804C38.4759 11.2218 38.5293 11.1567 38.5963 11.1206C38.6505 11.0917 38.7288 11.0861 38.791 11.0989C38.8444 11.1102 38.8678 11.1061 38.8953 11.062C39.2055 10.576 39.5473 10.1126 39.906 9.66115C39.9214 9.64106 39.9197 9.60894 39.9327 9.58484C39.9391 9.57279 39.9666 9.55673 39.9723 9.56074C40.0175 9.59287 40.0692 9.62259 40.1023 9.66516C40.3471 9.97842 40.5855 10.2965 40.8319 10.6081C40.9337 10.7375 41.0509 10.8547 41.1656 10.9824C41.1979 10.9575 41.2189 10.9367 41.244 10.9222C41.3102 10.8828 41.3441 10.8997 41.3708 10.9712C41.3894 11.0218 41.4144 11.0708 41.4427 11.1166C41.4863 11.1857 41.5356 11.2515 41.5817 11.319C41.5922 11.3343 41.5962 11.3479 41.597 11.3608C41.5978 11.3808 41.5881 11.4001 41.5655 11.4218C41.4419 11.5423 41.3102 11.658 41.2084 11.7953C41.0105 12.0628 40.8311 12.3447 40.6428 12.6194C40.5435 12.7648 40.4401 12.9086 40.3366 13.0564C40.3488 13.0676 40.3609 13.0813 40.3746 13.0925C40.5532 13.2323 40.7519 13.3375 40.9668 13.4074C41.1527 13.4676 41.3425 13.5134 41.5308 13.5664C41.6213 13.5921 41.6439 13.5785 41.6302 13.4845C41.6043 13.2981 41.5445 13.1319 41.3498 13.0516C41.3037 13.0331 41.2609 13.0058 41.2181 12.9809C41.1979 12.9688 41.1801 12.952 41.1567 12.9335C41.1842 12.9046 41.2052 12.8821 41.2278 12.8596C41.6148 12.466 41.9994 12.07 42.3912 11.6804C42.4139 11.658 42.4341 11.6347 42.4526 11.6106C42.5698 11.4604 42.6094 11.2837 42.6312 11.0973C42.6474 10.9592 42.6045 10.8395 42.51 10.7359C42.4446 10.6636 42.3816 10.5881 42.3242 10.5093C42.2426 10.3969 42.2022 10.2748 42.3339 10.1447C42.3444 10.1342 42.3412 10.0933 42.329 10.0788C42.0753 9.78163 41.82 9.48604 41.5655 9.18965C41.4928 9.10531 41.4193 9.02178 41.349 8.93583C41.3369 8.92138 41.3353 8.89728 41.3288 8.878C41.3514 8.87559 41.3748 8.87238 41.3975 8.86997C41.4015 8.86997 41.4064 8.87238 41.4096 8.87479C41.4605 8.90933 41.4758 8.88363 41.4839 8.83463C41.4985 8.74306 41.5203 8.6523 41.5324 8.55993C41.5801 8.20731 41.6221 7.85389 41.6738 7.50208C41.7118 7.24425 41.7619 6.98882 41.8031 6.73099C41.8119 6.67797 41.8346 6.65388 41.8855 6.64103C42.1901 6.56392 42.4939 6.486 42.7968 6.40407C43.1548 6.30688 43.5111 6.20568 43.8682 6.10367C43.8932 6.09644 43.9255 6.07636 43.9328 6.05467C44.0314 5.76872 44.1251 5.48037 44.2229 5.19362C44.315 4.92454 44.4119 4.65626 44.5056 4.38718C44.521 4.343 44.5493 4.32774 44.5929 4.3165C44.6874 4.2924 44.7876 4.27312 44.87 4.22493C45.0833 4.09963 45.2877 3.95906 45.4962 3.82492C45.5358 3.79922 45.577 3.77753 45.6255 3.74862C45.5188 3.65062 45.4316 3.58637 45.2934 3.62733C45.068 3.6948 44.8353 3.72131 44.5994 3.71649C44.5477 3.71569 44.4951 3.70765 44.4321 3.70203C44.4693 3.65544 44.5 3.62412 44.5218 3.58797C44.559 3.52452 44.5178 3.45223 44.4475 3.46347C44.3134 3.48436 44.1881 3.53496 44.0887 3.62813C44.0314 3.68195 43.9813 3.74701 43.9417 3.81448C43.8011 4.05224 43.663 4.2916 43.5288 4.53337C43.3931 4.77755 43.2541 5.01932 43.0505 5.2153C43.0206 5.24422 42.9819 5.26992 42.9431 5.28117C42.594 5.38318 42.2442 5.48278 41.8936 5.57916C41.8637 5.5872 41.8192 5.58157 41.7934 5.56471C41.6811 5.49242 41.5704 5.41531 41.4629 5.33579C41.4193 5.30286 41.3837 5.25948 41.3417 5.21852C41.4766 5.09562 41.6035 4.99361 41.7845 4.97193C41.9517 4.95185 42.0357 4.85867 42.06 4.69C42.0713 4.61449 42.0721 4.53658 42.0729 4.46027C42.0753 4.30365 42.098 4.15425 42.228 4.03778C42.1804 4.00967 42.1384 3.99039 42.1028 3.96308C42.0454 3.9197 41.9824 3.87954 41.9388 3.82412C41.8822 3.75263 41.9016 3.70364 41.9727 3.64821C42.0568 3.58235 42.1375 3.51247 42.2135 3.43938C42.241 3.41287 42.2523 3.3695 42.2709 3.33415C42.2652 3.32934 42.2604 3.32452 42.2547 3.3197C42.2232 3.33014 42.1901 3.33737 42.1602 3.35102C42.0858 3.38476 42.0131 3.42251 41.9388 3.45705C41.8281 3.50845 41.8305 3.50604 41.7425 3.42412C41.4896 3.19038 41.1955 3.06829 40.8553 3.17672C40.6348 3.24741 40.4368 3.37673 40.2712 3.5446C40.1799 3.63697 40.1023 3.74942 40.1056 3.87874C40.1096 4.06027 40.1403 4.2418 40.1694 4.42172C40.1799 4.48598 40.2308 4.53497 40.2995 4.55987C40.3076 4.54782 40.3124 4.53738 40.3197 4.52935C40.3286 4.52052 40.3399 4.51329 40.3496 4.50606C40.4037 4.55827 40.4174 4.58959 40.4069 4.6659C40.3988 4.72373 40.4255 4.76068 40.4708 4.78156C40.5879 4.83377 40.6525 4.90687 40.6332 5.04823C40.6162 5.16952 40.6041 5.20326 40.4861 5.23699C40.4182 5.25627 40.3496 5.27233 40.2849 5.29964C40.2494 5.3141 40.2308 5.31249 40.2122 5.28197C40.1419 5.17032 40.0652 5.06269 40.0021 4.94783C39.7937 4.5663 39.6854 4.15264 39.6321 3.72532C39.578 3.28998 39.5424 2.85302 39.4939 2.41768C39.4826 2.31245 39.5036 2.21848 39.5545 2.13173C39.6782 1.91968 39.8462 1.74538 40.0361 1.59116C40.0708 1.56305 40.1023 1.53092 40.1355 1.5012C40.1298 1.49236 40.1233 1.48433 40.1177 1.4755C39.8462 1.39517 39.6733 1.57429 39.4867 1.73333C39.4689 1.702 39.4495 1.6771 39.4382 1.64899C39.4172 1.59598 39.3986 1.54297 39.3841 1.48835C39.3574 1.38875 39.3186 1.29798 39.2443 1.22087C39.2079 1.18312 39.191 1.12449 39.174 1.07228C39.1587 1.02569 39.0811 0.946171 39.0334 0.947778C38.9615 0.950188 38.9583 1.00963 38.9494 1.06023C38.9292 1.17188 38.9114 1.28433 38.892 1.39598C38.8823 1.44899 38.8613 1.5012 38.8621 1.55341C38.8629 1.74217 38.9486 1.90763 39.0197 2.07711C39.0835 2.22972 39.1134 2.24498 38.9074 2.23856C38.8888 2.23856 38.8573 2.25944 38.8524 2.27711C38.8314 2.34378 38.8128 2.41286 38.804 2.48193C38.7652 2.79599 38.7232 3.11006 38.6965 3.42572C38.6698 3.743 38.6593 4.06187 38.644 4.37995C38.6416 4.43457 38.6375 4.49722 38.6593 4.54461C38.926 5.13418 39.2201 5.70929 39.5416 6.27154C39.5707 6.32215 39.6103 6.36954 39.5788 6.4346C39.5747 6.44343 39.5852 6.45869 39.5869 6.47154C39.5909 6.49564 39.6038 6.52456 39.5958 6.54384C39.5206 6.71813 39.4463 6.89324 39.3614 7.06352C39.1546 7.47638 38.9429 7.88682 38.7312 8.29647C38.6989 8.35992 38.6981 8.4033 38.7684 8.43784C38.8048 8.45551 38.8347 8.48603 38.8694 8.50772C38.9066 8.53021 38.9114 8.55511 38.888 8.59125C38.7991 8.73021 38.7159 8.87318 38.6238 9.01053C38.5058 9.18564 38.3766 9.35271 38.2618 9.52942C38.1754 9.66195 38.1075 9.80573 38.0267 9.94227C37.9694 10.0395 37.9039 10.1326 37.8457 10.2298C37.8344 10.2483 37.8288 10.2844 37.8393 10.3005C37.8934 10.384 37.9532 10.4644 38.0114 10.5455C38.0291 10.5704 38.0598 10.5945 38.0186 10.625C37.9831 10.6507 37.9556 10.7029 37.8991 10.6547C37.7819 10.5551 37.6567 10.4628 37.5452 10.3567C37.4474 10.2644 37.3521 10.1688 37.2551 10.0756C37.0758 9.90292 36.8956 9.73022 36.7187 9.55512C36.6766 9.51416 36.6435 9.50612 36.5886 9.52781L36.5861 9.52701Z" fill="white"/>
<path d="M49.6895 4.10055C50.3259 3.57436 50.2876 2.48533 49.604 1.66814C48.9203 0.850954 47.8502 0.615054 47.2138 1.14124C46.5774 1.66743 46.6157 2.75646 47.2994 3.57365C47.983 4.39084 49.0531 4.62674 49.6895 4.10055Z" fill="white"/>
<path d="M67.3551 23.4806C67.1967 23.5047 66.8525 23.5987 66.3209 23.7642C65.7893 23.9296 65.5226 24.0951 64.8343 24.2605C64.1443 24.426 64.1152 24.5794 63.367 24.7216C62.6181 24.863 61.9394 24.9344 61.3286 24.9344C60.8365 24.9344 60.3986 24.8581 60.0141 24.7039C59.6303 24.5505 59.3984 24.1192 59.32 23.4107C59.2998 23.2686 59.354 23.1151 59.4824 22.9497C59.6101 22.785 59.7628 22.6308 59.9405 22.4886C60.1175 22.3473 60.2847 22.2228 60.4423 22.1167C60.5998 22.0107 60.7081 21.9457 60.7671 21.9216C61.0822 21.7087 61.5007 21.3786 62.0226 20.9296C62.5437 20.4814 63.056 19.9786 63.5585 19.4235C64.0603 18.8685 64.499 18.2958 64.8731 17.7046C65.2471 17.1143 65.4346 16.5705 65.4346 16.0749C65.4346 15.8861 65.3853 15.7914 65.2867 15.7914C65.1486 15.7914 64.9417 15.9327 64.6662 16.2163C64.3899 16.4998 64.0796 16.8187 63.7355 17.1729C63.3905 17.5271 63.0414 17.846 62.6867 18.1295C62.3321 18.4131 62.0073 18.5544 61.7124 18.5544C61.5742 18.5544 61.407 18.4781 61.2106 18.3239C61.0135 18.1705 60.8212 17.9874 60.6346 17.7745C60.4471 17.5617 60.2896 17.3496 60.1619 17.1368C60.0335 16.9239 59.9696 16.7705 59.9696 16.6757C59.9696 16.3215 60.2104 16.0082 60.6935 15.7367C61.1759 15.4652 61.7423 15.2291 62.3918 15.0283C63.0414 14.8275 63.6862 14.6741 64.3269 14.568C64.9668 14.462 65.4443 14.4082 65.7594 14.4082C66.5075 14.4082 67.0246 14.556 67.3098 14.8516C67.595 15.1472 67.738 15.5424 67.738 16.0387C67.738 16.2283 67.6298 16.499 67.4132 16.854C67.1967 17.2082 66.926 17.6042 66.6013 18.0412C66.2765 18.4789 65.9169 18.9271 65.5234 19.3882C65.1292 19.8484 64.7502 20.2862 64.3859 20.699C64.0215 21.1127 63.6959 21.479 63.4115 21.7979C63.1263 22.1167 62.934 22.3352 62.8354 22.4533C62.993 22.524 63.2095 22.5593 63.485 22.5593C63.7605 22.5593 63.3872 22.536 63.7411 22.4886C64.0958 22.442 64.4545 22.3947 64.8189 22.3473C65.1833 22.2999 65.2027 22.2533 65.5671 22.2059C65.9315 22.1585 66.2506 22.1352 66.5269 22.1352C66.8032 22.1352 66.9996 22.1529 67.1175 22.1882C67.2355 22.2236 67.4027 22.3248 67.6193 22.4894C67.915 22.679 68.062 22.8557 68.062 23.0212C68.062 23.1392 67.9982 23.234 67.8697 23.3047C67.7413 23.3754 67.5692 23.4348 67.3526 23.4822L67.3551 23.4806Z" fill="white"/>
</g>
<defs>
<clipPath id="clip0_10347_58341">
<rect width="68.0639" height="42.2712" fill="white" transform="translate(0 0.864258)"/>
</clipPath>
</defs>
</svg>
